%TF.GenerationSoftware,KiCad,Pcbnew,(5.1.6)-1*%
%TF.CreationDate,2021-03-31T15:54:51+07:00*%
%TF.ProjectId,EM_Drone_SUBFLIGHT,454d5f44-726f-46e6-955f-535542464c49,rev?*%
%TF.SameCoordinates,PX7997ee0PY7f50c60*%
%TF.FileFunction,Copper,L2,Bot*%
%TF.FilePolarity,Positive*%
%FSLAX46Y46*%
G04 Gerber Fmt 4.6, Leading zero omitted, Abs format (unit mm)*
G04 Created by KiCad (PCBNEW (5.1.6)-1) date 2021-03-31 15:54:51*
%MOMM*%
%LPD*%
G01*
G04 APERTURE LIST*
%TA.AperFunction,SMDPad,CuDef*%
%ADD10R,1.450000X0.450000*%
%TD*%
%TA.AperFunction,SMDPad,CuDef*%
%ADD11R,0.900000X0.800000*%
%TD*%
%TA.AperFunction,ComponentPad*%
%ADD12O,1.200000X1.900000*%
%TD*%
%TA.AperFunction,ComponentPad*%
%ADD13C,1.450000*%
%TD*%
%TA.AperFunction,ComponentPad*%
%ADD14O,1.200000X1.750000*%
%TD*%
%TA.AperFunction,ComponentPad*%
%ADD15C,0.800000*%
%TD*%
%TA.AperFunction,ComponentPad*%
%ADD16C,5.000000*%
%TD*%
%TA.AperFunction,SMDPad,CuDef*%
%ADD17R,0.500000X0.500000*%
%TD*%
%TA.AperFunction,ViaPad*%
%ADD18C,0.800000*%
%TD*%
%TA.AperFunction,Conductor*%
%ADD19C,0.250000*%
%TD*%
%TA.AperFunction,Conductor*%
%ADD20C,0.400000*%
%TD*%
%TA.AperFunction,Conductor*%
%ADD21C,0.700000*%
%TD*%
%TA.AperFunction,Conductor*%
%ADD22C,0.500000*%
%TD*%
%TA.AperFunction,Conductor*%
%ADD23C,0.254000*%
%TD*%
G04 APERTURE END LIST*
D10*
%TO.P,U2,8*%
%TO.N,+5V*%
X17200000Y37475000D03*
%TO.P,U2,7*%
%TO.N,Net-(Q3-Pad1)*%
X17200000Y36825000D03*
%TO.P,U2,6*%
%TO.N,+3V3*%
X17200000Y36175000D03*
%TO.P,U2,5*%
%TO.N,Net-(C8-Pad1)*%
X17200000Y35525000D03*
%TO.P,U2,4*%
%TO.N,GND*%
X21600000Y35525000D03*
%TO.P,U2,3*%
%TO.N,/Arduino_MEGA/PB7*%
X21600000Y36175000D03*
%TO.P,U2,2*%
%TO.N,Net-(R18-Pad2)*%
X21600000Y36825000D03*
%TO.P,U2,1*%
X21600000Y37475000D03*
%TD*%
%TO.P,R36,2*%
%TO.N,/Arduino_MEGA/RXD2*%
%TA.AperFunction,SMDPad,CuDef*%
G36*
G01*
X28700000Y46106250D02*
X28700000Y45593750D01*
G75*
G02*
X28481250Y45375000I-218750J0D01*
G01*
X28043750Y45375000D01*
G75*
G02*
X27825000Y45593750I0J218750D01*
G01*
X27825000Y46106250D01*
G75*
G02*
X28043750Y46325000I218750J0D01*
G01*
X28481250Y46325000D01*
G75*
G02*
X28700000Y46106250I0J-218750D01*
G01*
G37*
%TD.AperFunction*%
%TO.P,R36,1*%
%TO.N,+5V*%
%TA.AperFunction,SMDPad,CuDef*%
G36*
G01*
X30275000Y46106250D02*
X30275000Y45593750D01*
G75*
G02*
X30056250Y45375000I-218750J0D01*
G01*
X29618750Y45375000D01*
G75*
G02*
X29400000Y45593750I0J218750D01*
G01*
X29400000Y46106250D01*
G75*
G02*
X29618750Y46325000I218750J0D01*
G01*
X30056250Y46325000D01*
G75*
G02*
X30275000Y46106250I0J-218750D01*
G01*
G37*
%TD.AperFunction*%
%TD*%
%TO.P,R35,2*%
%TO.N,/Arduino_MEGA/D6*%
%TA.AperFunction,SMDPad,CuDef*%
G36*
G01*
X28750000Y33206250D02*
X28750000Y32693750D01*
G75*
G02*
X28531250Y32475000I-218750J0D01*
G01*
X28093750Y32475000D01*
G75*
G02*
X27875000Y32693750I0J218750D01*
G01*
X27875000Y33206250D01*
G75*
G02*
X28093750Y33425000I218750J0D01*
G01*
X28531250Y33425000D01*
G75*
G02*
X28750000Y33206250I0J-218750D01*
G01*
G37*
%TD.AperFunction*%
%TO.P,R35,1*%
%TO.N,+5V*%
%TA.AperFunction,SMDPad,CuDef*%
G36*
G01*
X30325000Y33206250D02*
X30325000Y32693750D01*
G75*
G02*
X30106250Y32475000I-218750J0D01*
G01*
X29668750Y32475000D01*
G75*
G02*
X29450000Y32693750I0J218750D01*
G01*
X29450000Y33206250D01*
G75*
G02*
X29668750Y33425000I218750J0D01*
G01*
X30106250Y33425000D01*
G75*
G02*
X30325000Y33206250I0J-218750D01*
G01*
G37*
%TD.AperFunction*%
%TD*%
%TO.P,R34,2*%
%TO.N,/SIM800c/RXD*%
%TA.AperFunction,SMDPad,CuDef*%
G36*
G01*
X28700000Y40506250D02*
X28700000Y39993750D01*
G75*
G02*
X28481250Y39775000I-218750J0D01*
G01*
X28043750Y39775000D01*
G75*
G02*
X27825000Y39993750I0J218750D01*
G01*
X27825000Y40506250D01*
G75*
G02*
X28043750Y40725000I218750J0D01*
G01*
X28481250Y40725000D01*
G75*
G02*
X28700000Y40506250I0J-218750D01*
G01*
G37*
%TD.AperFunction*%
%TO.P,R34,1*%
%TO.N,+5V*%
%TA.AperFunction,SMDPad,CuDef*%
G36*
G01*
X30275000Y40506250D02*
X30275000Y39993750D01*
G75*
G02*
X30056250Y39775000I-218750J0D01*
G01*
X29618750Y39775000D01*
G75*
G02*
X29400000Y39993750I0J218750D01*
G01*
X29400000Y40506250D01*
G75*
G02*
X29618750Y40725000I218750J0D01*
G01*
X30056250Y40725000D01*
G75*
G02*
X30275000Y40506250I0J-218750D01*
G01*
G37*
%TD.AperFunction*%
%TD*%
%TO.P,R33,2*%
%TO.N,Net-(Q7-Pad1)*%
%TA.AperFunction,SMDPad,CuDef*%
G36*
G01*
X28700000Y27606250D02*
X28700000Y27093750D01*
G75*
G02*
X28481250Y26875000I-218750J0D01*
G01*
X28043750Y26875000D01*
G75*
G02*
X27825000Y27093750I0J218750D01*
G01*
X27825000Y27606250D01*
G75*
G02*
X28043750Y27825000I218750J0D01*
G01*
X28481250Y27825000D01*
G75*
G02*
X28700000Y27606250I0J-218750D01*
G01*
G37*
%TD.AperFunction*%
%TO.P,R33,1*%
%TO.N,VDD*%
%TA.AperFunction,SMDPad,CuDef*%
G36*
G01*
X30275000Y27606250D02*
X30275000Y27093750D01*
G75*
G02*
X30056250Y26875000I-218750J0D01*
G01*
X29618750Y26875000D01*
G75*
G02*
X29400000Y27093750I0J218750D01*
G01*
X29400000Y27606250D01*
G75*
G02*
X29618750Y27825000I218750J0D01*
G01*
X30056250Y27825000D01*
G75*
G02*
X30275000Y27606250I0J-218750D01*
G01*
G37*
%TD.AperFunction*%
%TD*%
%TO.P,R32,2*%
%TO.N,Net-(Q6-Pad1)*%
%TA.AperFunction,SMDPad,CuDef*%
G36*
G01*
X28750000Y34956250D02*
X28750000Y34443750D01*
G75*
G02*
X28531250Y34225000I-218750J0D01*
G01*
X28093750Y34225000D01*
G75*
G02*
X27875000Y34443750I0J218750D01*
G01*
X27875000Y34956250D01*
G75*
G02*
X28093750Y35175000I218750J0D01*
G01*
X28531250Y35175000D01*
G75*
G02*
X28750000Y34956250I0J-218750D01*
G01*
G37*
%TD.AperFunction*%
%TO.P,R32,1*%
%TO.N,VDD*%
%TA.AperFunction,SMDPad,CuDef*%
G36*
G01*
X30325000Y34956250D02*
X30325000Y34443750D01*
G75*
G02*
X30106250Y34225000I-218750J0D01*
G01*
X29668750Y34225000D01*
G75*
G02*
X29450000Y34443750I0J218750D01*
G01*
X29450000Y34956250D01*
G75*
G02*
X29668750Y35175000I218750J0D01*
G01*
X30106250Y35175000D01*
G75*
G02*
X30325000Y34956250I0J-218750D01*
G01*
G37*
%TD.AperFunction*%
%TD*%
%TO.P,R31,2*%
%TO.N,Net-(Q5-Pad1)*%
%TA.AperFunction,SMDPad,CuDef*%
G36*
G01*
X32500000Y46106250D02*
X32500000Y45593750D01*
G75*
G02*
X32281250Y45375000I-218750J0D01*
G01*
X31843750Y45375000D01*
G75*
G02*
X31625000Y45593750I0J218750D01*
G01*
X31625000Y46106250D01*
G75*
G02*
X31843750Y46325000I218750J0D01*
G01*
X32281250Y46325000D01*
G75*
G02*
X32500000Y46106250I0J-218750D01*
G01*
G37*
%TD.AperFunction*%
%TO.P,R31,1*%
%TO.N,VDD*%
%TA.AperFunction,SMDPad,CuDef*%
G36*
G01*
X34075000Y46106250D02*
X34075000Y45593750D01*
G75*
G02*
X33856250Y45375000I-218750J0D01*
G01*
X33418750Y45375000D01*
G75*
G02*
X33200000Y45593750I0J218750D01*
G01*
X33200000Y46106250D01*
G75*
G02*
X33418750Y46325000I218750J0D01*
G01*
X33856250Y46325000D01*
G75*
G02*
X34075000Y46106250I0J-218750D01*
G01*
G37*
%TD.AperFunction*%
%TD*%
%TO.P,R30,2*%
%TO.N,GND*%
%TA.AperFunction,SMDPad,CuDef*%
G36*
G01*
X39356250Y43400000D02*
X38843750Y43400000D01*
G75*
G02*
X38625000Y43618750I0J218750D01*
G01*
X38625000Y44056250D01*
G75*
G02*
X38843750Y44275000I218750J0D01*
G01*
X39356250Y44275000D01*
G75*
G02*
X39575000Y44056250I0J-218750D01*
G01*
X39575000Y43618750D01*
G75*
G02*
X39356250Y43400000I-218750J0D01*
G01*
G37*
%TD.AperFunction*%
%TO.P,R30,1*%
%TO.N,Net-(Q4-Pad1)*%
%TA.AperFunction,SMDPad,CuDef*%
G36*
G01*
X39356250Y41825000D02*
X38843750Y41825000D01*
G75*
G02*
X38625000Y42043750I0J218750D01*
G01*
X38625000Y42481250D01*
G75*
G02*
X38843750Y42700000I218750J0D01*
G01*
X39356250Y42700000D01*
G75*
G02*
X39575000Y42481250I0J-218750D01*
G01*
X39575000Y42043750D01*
G75*
G02*
X39356250Y41825000I-218750J0D01*
G01*
G37*
%TD.AperFunction*%
%TD*%
%TO.P,R29,2*%
%TO.N,/SIM800c/U1_DTR*%
%TA.AperFunction,SMDPad,CuDef*%
G36*
G01*
X32500000Y31456250D02*
X32500000Y30943750D01*
G75*
G02*
X32281250Y30725000I-218750J0D01*
G01*
X31843750Y30725000D01*
G75*
G02*
X31625000Y30943750I0J218750D01*
G01*
X31625000Y31456250D01*
G75*
G02*
X31843750Y31675000I218750J0D01*
G01*
X32281250Y31675000D01*
G75*
G02*
X32500000Y31456250I0J-218750D01*
G01*
G37*
%TD.AperFunction*%
%TO.P,R29,1*%
%TO.N,VDD*%
%TA.AperFunction,SMDPad,CuDef*%
G36*
G01*
X34075000Y31456250D02*
X34075000Y30943750D01*
G75*
G02*
X33856250Y30725000I-218750J0D01*
G01*
X33418750Y30725000D01*
G75*
G02*
X33200000Y30943750I0J218750D01*
G01*
X33200000Y31456250D01*
G75*
G02*
X33418750Y31675000I218750J0D01*
G01*
X33856250Y31675000D01*
G75*
G02*
X34075000Y31456250I0J-218750D01*
G01*
G37*
%TD.AperFunction*%
%TD*%
%TO.P,R28,2*%
%TO.N,/SIM800c/U1_RXD*%
%TA.AperFunction,SMDPad,CuDef*%
G36*
G01*
X32500000Y38756250D02*
X32500000Y38243750D01*
G75*
G02*
X32281250Y38025000I-218750J0D01*
G01*
X31843750Y38025000D01*
G75*
G02*
X31625000Y38243750I0J218750D01*
G01*
X31625000Y38756250D01*
G75*
G02*
X31843750Y38975000I218750J0D01*
G01*
X32281250Y38975000D01*
G75*
G02*
X32500000Y38756250I0J-218750D01*
G01*
G37*
%TD.AperFunction*%
%TO.P,R28,1*%
%TO.N,VDD*%
%TA.AperFunction,SMDPad,CuDef*%
G36*
G01*
X34075000Y38756250D02*
X34075000Y38243750D01*
G75*
G02*
X33856250Y38025000I-218750J0D01*
G01*
X33418750Y38025000D01*
G75*
G02*
X33200000Y38243750I0J218750D01*
G01*
X33200000Y38756250D01*
G75*
G02*
X33418750Y38975000I218750J0D01*
G01*
X33856250Y38975000D01*
G75*
G02*
X34075000Y38756250I0J-218750D01*
G01*
G37*
%TD.AperFunction*%
%TD*%
%TO.P,R27,2*%
%TO.N,/SIM800c/U1_TXD*%
%TA.AperFunction,SMDPad,CuDef*%
G36*
G01*
X33200000Y43843750D02*
X33200000Y44356250D01*
G75*
G02*
X33418750Y44575000I218750J0D01*
G01*
X33856250Y44575000D01*
G75*
G02*
X34075000Y44356250I0J-218750D01*
G01*
X34075000Y43843750D01*
G75*
G02*
X33856250Y43625000I-218750J0D01*
G01*
X33418750Y43625000D01*
G75*
G02*
X33200000Y43843750I0J218750D01*
G01*
G37*
%TD.AperFunction*%
%TO.P,R27,1*%
%TO.N,Net-(Q5-Pad1)*%
%TA.AperFunction,SMDPad,CuDef*%
G36*
G01*
X31625000Y43843750D02*
X31625000Y44356250D01*
G75*
G02*
X31843750Y44575000I218750J0D01*
G01*
X32281250Y44575000D01*
G75*
G02*
X32500000Y44356250I0J-218750D01*
G01*
X32500000Y43843750D01*
G75*
G02*
X32281250Y43625000I-218750J0D01*
G01*
X31843750Y43625000D01*
G75*
G02*
X31625000Y43843750I0J218750D01*
G01*
G37*
%TD.AperFunction*%
%TD*%
%TO.P,R26,2*%
%TO.N,/Arduino_MEGA/D5*%
%TA.AperFunction,SMDPad,CuDef*%
G36*
G01*
X41300000Y40506250D02*
X41300000Y39993750D01*
G75*
G02*
X41081250Y39775000I-218750J0D01*
G01*
X40643750Y39775000D01*
G75*
G02*
X40425000Y39993750I0J218750D01*
G01*
X40425000Y40506250D01*
G75*
G02*
X40643750Y40725000I218750J0D01*
G01*
X41081250Y40725000D01*
G75*
G02*
X41300000Y40506250I0J-218750D01*
G01*
G37*
%TD.AperFunction*%
%TO.P,R26,1*%
%TO.N,Net-(Q4-Pad1)*%
%TA.AperFunction,SMDPad,CuDef*%
G36*
G01*
X42875000Y40506250D02*
X42875000Y39993750D01*
G75*
G02*
X42656250Y39775000I-218750J0D01*
G01*
X42218750Y39775000D01*
G75*
G02*
X42000000Y39993750I0J218750D01*
G01*
X42000000Y40506250D01*
G75*
G02*
X42218750Y40725000I218750J0D01*
G01*
X42656250Y40725000D01*
G75*
G02*
X42875000Y40506250I0J-218750D01*
G01*
G37*
%TD.AperFunction*%
%TD*%
%TO.P,R25,2*%
%TO.N,/Arduino_MEGA/D4*%
%TA.AperFunction,SMDPad,CuDef*%
G36*
G01*
X41350000Y33256250D02*
X41350000Y32743750D01*
G75*
G02*
X41131250Y32525000I-218750J0D01*
G01*
X40693750Y32525000D01*
G75*
G02*
X40475000Y32743750I0J218750D01*
G01*
X40475000Y33256250D01*
G75*
G02*
X40693750Y33475000I218750J0D01*
G01*
X41131250Y33475000D01*
G75*
G02*
X41350000Y33256250I0J-218750D01*
G01*
G37*
%TD.AperFunction*%
%TO.P,R25,1*%
%TO.N,/SIM800c/VBAT*%
%TA.AperFunction,SMDPad,CuDef*%
G36*
G01*
X42925000Y33256250D02*
X42925000Y32743750D01*
G75*
G02*
X42706250Y32525000I-218750J0D01*
G01*
X42268750Y32525000D01*
G75*
G02*
X42050000Y32743750I0J218750D01*
G01*
X42050000Y33256250D01*
G75*
G02*
X42268750Y33475000I218750J0D01*
G01*
X42706250Y33475000D01*
G75*
G02*
X42925000Y33256250I0J-218750D01*
G01*
G37*
%TD.AperFunction*%
%TD*%
%TO.P,R24,2*%
%TO.N,GND*%
%TA.AperFunction,SMDPad,CuDef*%
G36*
G01*
X44393750Y35400000D02*
X44906250Y35400000D01*
G75*
G02*
X45125000Y35181250I0J-218750D01*
G01*
X45125000Y34743750D01*
G75*
G02*
X44906250Y34525000I-218750J0D01*
G01*
X44393750Y34525000D01*
G75*
G02*
X44175000Y34743750I0J218750D01*
G01*
X44175000Y35181250D01*
G75*
G02*
X44393750Y35400000I218750J0D01*
G01*
G37*
%TD.AperFunction*%
%TO.P,R24,1*%
%TO.N,Net-(Q2-Pad1)*%
%TA.AperFunction,SMDPad,CuDef*%
G36*
G01*
X44393750Y36975000D02*
X44906250Y36975000D01*
G75*
G02*
X45125000Y36756250I0J-218750D01*
G01*
X45125000Y36318750D01*
G75*
G02*
X44906250Y36100000I-218750J0D01*
G01*
X44393750Y36100000D01*
G75*
G02*
X44175000Y36318750I0J218750D01*
G01*
X44175000Y36756250D01*
G75*
G02*
X44393750Y36975000I218750J0D01*
G01*
G37*
%TD.AperFunction*%
%TD*%
%TO.P,R23,2*%
%TO.N,/SIM800c/STATUS*%
%TA.AperFunction,SMDPad,CuDef*%
G36*
G01*
X41300000Y38756250D02*
X41300000Y38243750D01*
G75*
G02*
X41081250Y38025000I-218750J0D01*
G01*
X40643750Y38025000D01*
G75*
G02*
X40425000Y38243750I0J218750D01*
G01*
X40425000Y38756250D01*
G75*
G02*
X40643750Y38975000I218750J0D01*
G01*
X41081250Y38975000D01*
G75*
G02*
X41300000Y38756250I0J-218750D01*
G01*
G37*
%TD.AperFunction*%
%TO.P,R23,1*%
%TO.N,Net-(Q2-Pad1)*%
%TA.AperFunction,SMDPad,CuDef*%
G36*
G01*
X42875000Y38756250D02*
X42875000Y38243750D01*
G75*
G02*
X42656250Y38025000I-218750J0D01*
G01*
X42218750Y38025000D01*
G75*
G02*
X42000000Y38243750I0J218750D01*
G01*
X42000000Y38756250D01*
G75*
G02*
X42218750Y38975000I218750J0D01*
G01*
X42656250Y38975000D01*
G75*
G02*
X42875000Y38756250I0J-218750D01*
G01*
G37*
%TD.AperFunction*%
%TD*%
%TO.P,R21,2*%
%TO.N,GND*%
%TA.AperFunction,SMDPad,CuDef*%
G36*
G01*
X39406250Y30550000D02*
X38893750Y30550000D01*
G75*
G02*
X38675000Y30768750I0J218750D01*
G01*
X38675000Y31206250D01*
G75*
G02*
X38893750Y31425000I218750J0D01*
G01*
X39406250Y31425000D01*
G75*
G02*
X39625000Y31206250I0J-218750D01*
G01*
X39625000Y30768750D01*
G75*
G02*
X39406250Y30550000I-218750J0D01*
G01*
G37*
%TD.AperFunction*%
%TO.P,R21,1*%
%TO.N,Net-(Q1-Pad1)*%
%TA.AperFunction,SMDPad,CuDef*%
G36*
G01*
X39406250Y28975000D02*
X38893750Y28975000D01*
G75*
G02*
X38675000Y29193750I0J218750D01*
G01*
X38675000Y29631250D01*
G75*
G02*
X38893750Y29850000I218750J0D01*
G01*
X39406250Y29850000D01*
G75*
G02*
X39625000Y29631250I0J-218750D01*
G01*
X39625000Y29193750D01*
G75*
G02*
X39406250Y28975000I-218750J0D01*
G01*
G37*
%TD.AperFunction*%
%TD*%
%TO.P,R16,2*%
%TO.N,GND*%
%TA.AperFunction,SMDPad,CuDef*%
G36*
G01*
X18743750Y32700000D02*
X19256250Y32700000D01*
G75*
G02*
X19475000Y32481250I0J-218750D01*
G01*
X19475000Y32043750D01*
G75*
G02*
X19256250Y31825000I-218750J0D01*
G01*
X18743750Y31825000D01*
G75*
G02*
X18525000Y32043750I0J218750D01*
G01*
X18525000Y32481250D01*
G75*
G02*
X18743750Y32700000I218750J0D01*
G01*
G37*
%TD.AperFunction*%
%TO.P,R16,1*%
%TO.N,Net-(C8-Pad1)*%
%TA.AperFunction,SMDPad,CuDef*%
G36*
G01*
X18743750Y34275000D02*
X19256250Y34275000D01*
G75*
G02*
X19475000Y34056250I0J-218750D01*
G01*
X19475000Y33618750D01*
G75*
G02*
X19256250Y33400000I-218750J0D01*
G01*
X18743750Y33400000D01*
G75*
G02*
X18525000Y33618750I0J218750D01*
G01*
X18525000Y34056250D01*
G75*
G02*
X18743750Y34275000I218750J0D01*
G01*
G37*
%TD.AperFunction*%
%TD*%
%TO.P,R15,2*%
%TO.N,Net-(C8-Pad1)*%
%TA.AperFunction,SMDPad,CuDef*%
G36*
G01*
X21056250Y33400000D02*
X20543750Y33400000D01*
G75*
G02*
X20325000Y33618750I0J218750D01*
G01*
X20325000Y34056250D01*
G75*
G02*
X20543750Y34275000I218750J0D01*
G01*
X21056250Y34275000D01*
G75*
G02*
X21275000Y34056250I0J-218750D01*
G01*
X21275000Y33618750D01*
G75*
G02*
X21056250Y33400000I-218750J0D01*
G01*
G37*
%TD.AperFunction*%
%TO.P,R15,1*%
%TO.N,VIN*%
%TA.AperFunction,SMDPad,CuDef*%
G36*
G01*
X21056250Y31825000D02*
X20543750Y31825000D01*
G75*
G02*
X20325000Y32043750I0J218750D01*
G01*
X20325000Y32481250D01*
G75*
G02*
X20543750Y32700000I218750J0D01*
G01*
X21056250Y32700000D01*
G75*
G02*
X21275000Y32481250I0J-218750D01*
G01*
X21275000Y32043750D01*
G75*
G02*
X21056250Y31825000I-218750J0D01*
G01*
G37*
%TD.AperFunction*%
%TD*%
%TO.P,R13,2*%
%TO.N,/SIM800c/NETLIGHT*%
%TA.AperFunction,SMDPad,CuDef*%
G36*
G01*
X42050000Y27143750D02*
X42050000Y27656250D01*
G75*
G02*
X42268750Y27875000I218750J0D01*
G01*
X42706250Y27875000D01*
G75*
G02*
X42925000Y27656250I0J-218750D01*
G01*
X42925000Y27143750D01*
G75*
G02*
X42706250Y26925000I-218750J0D01*
G01*
X42268750Y26925000D01*
G75*
G02*
X42050000Y27143750I0J218750D01*
G01*
G37*
%TD.AperFunction*%
%TO.P,R13,1*%
%TO.N,Net-(Q1-Pad1)*%
%TA.AperFunction,SMDPad,CuDef*%
G36*
G01*
X40475000Y27143750D02*
X40475000Y27656250D01*
G75*
G02*
X40693750Y27875000I218750J0D01*
G01*
X41131250Y27875000D01*
G75*
G02*
X41350000Y27656250I0J-218750D01*
G01*
X41350000Y27143750D01*
G75*
G02*
X41131250Y26925000I-218750J0D01*
G01*
X40693750Y26925000D01*
G75*
G02*
X40475000Y27143750I0J218750D01*
G01*
G37*
%TD.AperFunction*%
%TD*%
D11*
%TO.P,Q7,3*%
%TO.N,/SIM800c/U1_DTR*%
X30300000Y30150000D03*
%TO.P,Q7,2*%
%TO.N,/Arduino_MEGA/D6*%
X28300000Y31100000D03*
%TO.P,Q7,1*%
%TO.N,Net-(Q7-Pad1)*%
X28300000Y29200000D03*
%TD*%
%TO.P,Q6,3*%
%TO.N,/SIM800c/U1_RXD*%
X30300000Y37450000D03*
%TO.P,Q6,2*%
%TO.N,/SIM800c/RXD*%
X28300000Y38400000D03*
%TO.P,Q6,1*%
%TO.N,Net-(Q6-Pad1)*%
X28300000Y36500000D03*
%TD*%
%TO.P,Q5,3*%
%TO.N,/Arduino_MEGA/RXD2*%
X28250000Y43050000D03*
%TO.P,Q5,2*%
%TO.N,/SIM800c/U1_TXD*%
X30250000Y42100000D03*
%TO.P,Q5,1*%
%TO.N,Net-(Q5-Pad1)*%
X30250000Y44000000D03*
%TD*%
%TO.P,Q4,3*%
%TO.N,/SIM800c/PWRKEY*%
X42850000Y43050000D03*
%TO.P,Q4,2*%
%TO.N,GND*%
X40850000Y44000000D03*
%TO.P,Q4,1*%
%TO.N,Net-(Q4-Pad1)*%
X40850000Y42100000D03*
%TD*%
%TO.P,Q2,3*%
%TO.N,/Arduino_MEGA/D4*%
X40900000Y35750000D03*
%TO.P,Q2,2*%
%TO.N,GND*%
X42900000Y34800000D03*
%TO.P,Q2,1*%
%TO.N,Net-(Q2-Pad1)*%
X42900000Y36700000D03*
%TD*%
%TO.P,Q1,3*%
%TO.N,Net-(Q1-Pad3)*%
X42900000Y30200000D03*
%TO.P,Q1,2*%
%TO.N,GND*%
X40900000Y31150000D03*
%TO.P,Q1,1*%
%TO.N,Net-(Q1-Pad1)*%
X40900000Y29250000D03*
%TD*%
D12*
%TO.P,J5,6*%
%TO.N,GND*%
X45600000Y71537500D03*
X52600000Y71537500D03*
D13*
X46600000Y68837500D03*
X51600000Y68837500D03*
%TD*%
D14*
%TO.P,J2,2*%
%TO.N,GND*%
X19650000Y17250000D03*
%TO.P,J2,1*%
%TO.N,Net-(F1-Pad2)*%
%TA.AperFunction,ComponentPad*%
G36*
G01*
X17050000Y16624999D02*
X17050000Y17875001D01*
G75*
G02*
X17299999Y18125000I249999J0D01*
G01*
X18000001Y18125000D01*
G75*
G02*
X18250000Y17875001I0J-249999D01*
G01*
X18250000Y16624999D01*
G75*
G02*
X18000001Y16375000I-249999J0D01*
G01*
X17299999Y16375000D01*
G75*
G02*
X17050000Y16624999I0J249999D01*
G01*
G37*
%TD.AperFunction*%
%TD*%
D15*
%TO.P,H4,1*%
%TO.N,N/C*%
X34825825Y54875825D03*
X33500000Y55425000D03*
X32174175Y54875825D03*
X31625000Y53550000D03*
X32174175Y52224175D03*
X33500000Y51675000D03*
X34825825Y52224175D03*
X35375000Y53550000D03*
D16*
X33500000Y53550000D03*
%TD*%
D15*
%TO.P,H3,1*%
%TO.N,N/C*%
X34825825Y20825825D03*
X33500000Y21375000D03*
X32174175Y20825825D03*
X31625000Y19500000D03*
X32174175Y18174175D03*
X33500000Y17625000D03*
X34825825Y18174175D03*
X35375000Y19500000D03*
D16*
X33500000Y19500000D03*
%TD*%
D15*
%TO.P,H2,1*%
%TO.N,N/C*%
X9825825Y54825825D03*
X8500000Y55375000D03*
X7174175Y54825825D03*
X6625000Y53500000D03*
X7174175Y52174175D03*
X8500000Y51625000D03*
X9825825Y52174175D03*
X10375000Y53500000D03*
D16*
X8500000Y53500000D03*
%TD*%
D15*
%TO.P,H1,1*%
%TO.N,N/C*%
X9825825Y20825825D03*
X8500000Y21375000D03*
X7174175Y20825825D03*
X6625000Y19500000D03*
X7174175Y18174175D03*
X8500000Y17625000D03*
X9825825Y18174175D03*
X10375000Y19500000D03*
D16*
X8500000Y19500000D03*
%TD*%
D17*
%TO.P,D7,2*%
%TO.N,GND*%
X45150000Y47850000D03*
%TO.P,D7,1*%
%TO.N,/SIM800c/VBAT*%
X47350000Y47850000D03*
%TD*%
%TO.P,C27,2*%
%TO.N,GND*%
%TA.AperFunction,SMDPad,CuDef*%
G36*
G01*
X45900000Y50106250D02*
X45900000Y49593750D01*
G75*
G02*
X45681250Y49375000I-218750J0D01*
G01*
X45243750Y49375000D01*
G75*
G02*
X45025000Y49593750I0J218750D01*
G01*
X45025000Y50106250D01*
G75*
G02*
X45243750Y50325000I218750J0D01*
G01*
X45681250Y50325000D01*
G75*
G02*
X45900000Y50106250I0J-218750D01*
G01*
G37*
%TD.AperFunction*%
%TO.P,C27,1*%
%TO.N,/SIM800c/VBAT*%
%TA.AperFunction,SMDPad,CuDef*%
G36*
G01*
X47475000Y50106250D02*
X47475000Y49593750D01*
G75*
G02*
X47256250Y49375000I-218750J0D01*
G01*
X46818750Y49375000D01*
G75*
G02*
X46600000Y49593750I0J218750D01*
G01*
X46600000Y50106250D01*
G75*
G02*
X46818750Y50325000I218750J0D01*
G01*
X47256250Y50325000D01*
G75*
G02*
X47475000Y50106250I0J-218750D01*
G01*
G37*
%TD.AperFunction*%
%TD*%
%TO.P,C24,2*%
%TO.N,GND*%
%TA.AperFunction,SMDPad,CuDef*%
G36*
G01*
X45900000Y51856250D02*
X45900000Y51343750D01*
G75*
G02*
X45681250Y51125000I-218750J0D01*
G01*
X45243750Y51125000D01*
G75*
G02*
X45025000Y51343750I0J218750D01*
G01*
X45025000Y51856250D01*
G75*
G02*
X45243750Y52075000I218750J0D01*
G01*
X45681250Y52075000D01*
G75*
G02*
X45900000Y51856250I0J-218750D01*
G01*
G37*
%TD.AperFunction*%
%TO.P,C24,1*%
%TO.N,/SIM800c/VBAT*%
%TA.AperFunction,SMDPad,CuDef*%
G36*
G01*
X47475000Y51856250D02*
X47475000Y51343750D01*
G75*
G02*
X47256250Y51125000I-218750J0D01*
G01*
X46818750Y51125000D01*
G75*
G02*
X46600000Y51343750I0J218750D01*
G01*
X46600000Y51856250D01*
G75*
G02*
X46818750Y52075000I218750J0D01*
G01*
X47256250Y52075000D01*
G75*
G02*
X47475000Y51856250I0J-218750D01*
G01*
G37*
%TD.AperFunction*%
%TD*%
%TO.P,C22,2*%
%TO.N,GND*%
%TA.AperFunction,SMDPad,CuDef*%
G36*
G01*
X45475000Y54375000D02*
X45475000Y53125000D01*
G75*
G02*
X45225000Y52875000I-250000J0D01*
G01*
X44475000Y52875000D01*
G75*
G02*
X44225000Y53125000I0J250000D01*
G01*
X44225000Y54375000D01*
G75*
G02*
X44475000Y54625000I250000J0D01*
G01*
X45225000Y54625000D01*
G75*
G02*
X45475000Y54375000I0J-250000D01*
G01*
G37*
%TD.AperFunction*%
%TO.P,C22,1*%
%TO.N,/SIM800c/VBAT*%
%TA.AperFunction,SMDPad,CuDef*%
G36*
G01*
X48275000Y54375000D02*
X48275000Y53125000D01*
G75*
G02*
X48025000Y52875000I-250000J0D01*
G01*
X47275000Y52875000D01*
G75*
G02*
X47025000Y53125000I0J250000D01*
G01*
X47025000Y54375000D01*
G75*
G02*
X47275000Y54625000I250000J0D01*
G01*
X48025000Y54625000D01*
G75*
G02*
X48275000Y54375000I0J-250000D01*
G01*
G37*
%TD.AperFunction*%
%TD*%
%TO.P,C8,2*%
%TO.N,GND*%
%TA.AperFunction,SMDPad,CuDef*%
G36*
G01*
X16943750Y32700000D02*
X17456250Y32700000D01*
G75*
G02*
X17675000Y32481250I0J-218750D01*
G01*
X17675000Y32043750D01*
G75*
G02*
X17456250Y31825000I-218750J0D01*
G01*
X16943750Y31825000D01*
G75*
G02*
X16725000Y32043750I0J218750D01*
G01*
X16725000Y32481250D01*
G75*
G02*
X16943750Y32700000I218750J0D01*
G01*
G37*
%TD.AperFunction*%
%TO.P,C8,1*%
%TO.N,Net-(C8-Pad1)*%
%TA.AperFunction,SMDPad,CuDef*%
G36*
G01*
X16943750Y34275000D02*
X17456250Y34275000D01*
G75*
G02*
X17675000Y34056250I0J-218750D01*
G01*
X17675000Y33618750D01*
G75*
G02*
X17456250Y33400000I-218750J0D01*
G01*
X16943750Y33400000D01*
G75*
G02*
X16725000Y33618750I0J218750D01*
G01*
X16725000Y34056250D01*
G75*
G02*
X16943750Y34275000I218750J0D01*
G01*
G37*
%TD.AperFunction*%
%TD*%
%TO.P,C7,2*%
%TO.N,GND*%
%TA.AperFunction,SMDPad,CuDef*%
G36*
G01*
X18287500Y39043750D02*
X18287500Y39556250D01*
G75*
G02*
X18506250Y39775000I218750J0D01*
G01*
X18943750Y39775000D01*
G75*
G02*
X19162500Y39556250I0J-218750D01*
G01*
X19162500Y39043750D01*
G75*
G02*
X18943750Y38825000I-218750J0D01*
G01*
X18506250Y38825000D01*
G75*
G02*
X18287500Y39043750I0J218750D01*
G01*
G37*
%TD.AperFunction*%
%TO.P,C7,1*%
%TO.N,+5V*%
%TA.AperFunction,SMDPad,CuDef*%
G36*
G01*
X16712500Y39043750D02*
X16712500Y39556250D01*
G75*
G02*
X16931250Y39775000I218750J0D01*
G01*
X17368750Y39775000D01*
G75*
G02*
X17587500Y39556250I0J-218750D01*
G01*
X17587500Y39043750D01*
G75*
G02*
X17368750Y38825000I-218750J0D01*
G01*
X16931250Y38825000D01*
G75*
G02*
X16712500Y39043750I0J218750D01*
G01*
G37*
%TD.AperFunction*%
%TD*%
D18*
%TO.N,GND*%
X51350000Y44000000D03*
X53300000Y38250000D03*
X26000000Y45750000D03*
X55750000Y24800000D03*
X47000000Y23000000D03*
X41800000Y21550000D03*
X15900000Y32250000D03*
X13300000Y37150000D03*
X22550000Y34550000D03*
X11500000Y44100000D03*
X11400000Y28000000D03*
X6750000Y33200000D03*
X13250000Y30850000D03*
X23300000Y21200000D03*
X25300000Y25200000D03*
X17550000Y22800000D03*
X25400000Y48350000D03*
X17900000Y54500000D03*
X17950000Y62750000D03*
X18000000Y69000000D03*
X55950000Y56400000D03*
X52850000Y64200000D03*
X40750000Y49250000D03*
X18050000Y51700000D03*
X18700000Y38100000D03*
X39050000Y34750000D03*
X37950000Y54650000D03*
%TO.N,+5V*%
X17150000Y40550000D03*
X29900000Y28850000D03*
X32750000Y29500000D03*
X31350000Y40450000D03*
X30000000Y47500000D03*
X31150000Y33100000D03*
X30800000Y56200000D03*
%TO.N,/Arduino_MEGA/RESET*%
X28950000Y55000000D03*
X22973701Y42455983D03*
X30850000Y58500000D03*
X54600000Y56700000D03*
%TO.N,VIN*%
X34600000Y65400000D03*
X17050000Y7700000D03*
%TO.N,+3V3*%
X28950000Y53550000D03*
X42700000Y63300000D03*
X39856710Y59075010D03*
%TO.N,VBUS*%
X55150000Y62400000D03*
X44750000Y61700000D03*
%TO.N,/SIM800c/VBAT*%
X48950000Y53550000D03*
X46100000Y33450000D03*
%TO.N,Net-(D10-Pad4)*%
X46800000Y17550000D03*
X36700000Y21700000D03*
%TO.N,Net-(Q1-Pad3)*%
X53650000Y27150000D03*
%TO.N,/Arduino_MEGA/D4*%
X35800000Y25850000D03*
%TO.N,Net-(Q3-Pad1)*%
X34200000Y60750000D03*
%TO.N,/SIM800c/PWRKEY*%
X42400000Y47200000D03*
%TO.N,/Arduino_MEGA/RXD2*%
X25050000Y35200000D03*
%TO.N,/SIM800c/U1_TXD*%
X33650000Y42150000D03*
%TO.N,/SIM800c/U1_RXD*%
X33650000Y40950000D03*
%TO.N,/SIM800c/RXD*%
X25050000Y36500000D03*
%TO.N,/SIM800c/U1_DTR*%
X33650000Y33200000D03*
%TO.N,/Arduino_MEGA/D6*%
X24100000Y34200000D03*
%TO.N,/Arduino_MEGA/TX0*%
X52000000Y53350000D03*
X21930561Y40764417D03*
%TO.N,/Arduino_MEGA/RX0*%
X55061708Y53975912D03*
X20250000Y40000000D03*
%TO.N,/SIM800c/NETLIGHT*%
X44250000Y32200000D03*
%TO.N,Net-(R18-Pad2)*%
X23450000Y25100000D03*
%TO.N,/SIM800c/STATUS*%
X39050000Y38500000D03*
%TO.N,/Arduino_MEGA/D5*%
X34400000Y26650000D03*
%TO.N,VDD*%
X33650000Y47350000D03*
%TO.N,/Arduino_MEGA/PB7*%
X25350000Y42500000D03*
%TO.N,/Arduino_MEGA/D9*%
X7100000Y25050000D03*
X13350000Y34850000D03*
%TO.N,/Arduino_MEGA/D8*%
X13300000Y33050000D03*
X7950000Y26150000D03*
%TO.N,Net-(D10-Pad3)*%
X45550000Y17550000D03*
X40100000Y21200000D03*
%TD*%
D19*
%TO.N,GND*%
X39312500Y31150000D02*
X39150000Y30987500D01*
X40900000Y31150000D02*
X39312500Y31150000D01*
X44487500Y34800000D02*
X44650000Y34962500D01*
X42900000Y34800000D02*
X44487500Y34800000D01*
X39262500Y44000000D02*
X39100000Y43837500D01*
X40850000Y44000000D02*
X39262500Y44000000D01*
X17200000Y32262500D02*
X19000000Y32262500D01*
X17200000Y32262500D02*
X15912500Y32262500D01*
X15912500Y32262500D02*
X15900000Y32250000D01*
X21600000Y35525000D02*
X22325000Y35525000D01*
X22325000Y35525000D02*
X22550000Y35300000D01*
X22550000Y35300000D02*
X22550000Y34550000D01*
X18725000Y38125000D02*
X18700000Y38100000D01*
X18725000Y39300000D02*
X18725000Y38125000D01*
%TO.N,+5V*%
X17150000Y37525000D02*
X17200000Y37475000D01*
X17150000Y39300000D02*
X17150000Y37525000D01*
X17100000Y39350000D02*
X17150000Y39300000D01*
X17150000Y39300000D02*
X17150000Y40550000D01*
D20*
X29900000Y28850000D02*
X32100000Y28850000D01*
X32100000Y28850000D02*
X32750000Y29500000D01*
D19*
X29837500Y45850000D02*
X29750000Y45850000D01*
X31150000Y40250000D02*
X31350000Y40450000D01*
X29837500Y40250000D02*
X31150000Y40250000D01*
X29837500Y47337500D02*
X30000000Y47500000D01*
X29837500Y45850000D02*
X29837500Y47337500D01*
X29887500Y32950000D02*
X31000000Y32950000D01*
X31000000Y32950000D02*
X31150000Y33100000D01*
D20*
X30000000Y47500000D02*
X30000000Y55400000D01*
X30000000Y55400000D02*
X30800000Y56200000D01*
D19*
%TO.N,/Arduino_MEGA/RESET*%
X28950000Y55000000D02*
X22973701Y49023701D01*
X22973701Y49023701D02*
X22973701Y42455983D01*
X30850000Y58500000D02*
X31000000Y58350000D01*
X31000000Y58350000D02*
X52950000Y58350000D01*
X52950000Y58350000D02*
X54600000Y56700000D01*
%TO.N,Net-(C8-Pad1)*%
X20800000Y33837500D02*
X17200000Y33837500D01*
X17200000Y35525000D02*
X18625000Y35525000D01*
X19000000Y35150000D02*
X19000000Y33837500D01*
X18625000Y35525000D02*
X19000000Y35150000D01*
D21*
%TO.N,VIN*%
X34600000Y65400000D02*
X24914002Y65400000D01*
D19*
X20800000Y32262500D02*
X20800000Y31600000D01*
X20800000Y31600000D02*
X20200000Y31000000D01*
D21*
X15950000Y8800000D02*
X17050000Y7700000D01*
X14432001Y10317999D02*
X15950000Y8800000D01*
X24914002Y65400000D02*
X14432001Y54917999D01*
D19*
X15400000Y31000000D02*
X14432001Y31967999D01*
X20200000Y31000000D02*
X15400000Y31000000D01*
D21*
X14432001Y54917999D02*
X14432001Y31967999D01*
X14432001Y31967999D02*
X14432001Y10317999D01*
D19*
%TO.N,+3V3*%
X42700000Y63300000D02*
X42700000Y61918300D01*
X42700000Y61918300D02*
X39856710Y59075010D01*
X22150000Y39700000D02*
X24300000Y41850000D01*
X24300000Y48900000D02*
X28950000Y53550000D01*
X17200000Y36175000D02*
X18175000Y36175000D01*
X21700000Y39700000D02*
X22150000Y39700000D01*
X24300000Y41850000D02*
X24300000Y48900000D01*
X18175000Y36175000D02*
X21700000Y39700000D01*
D20*
%TO.N,VBUS*%
X55150000Y62400000D02*
X45000000Y62400000D01*
X45000000Y62400000D02*
X44750000Y62150000D01*
X44750000Y62150000D02*
X44750000Y61700000D01*
D21*
%TO.N,/SIM800c/VBAT*%
X47850000Y53550000D02*
X47650000Y53750000D01*
D22*
X48950000Y53550000D02*
X47850000Y53550000D01*
X47650000Y52212500D02*
X47037500Y51600000D01*
X47650000Y53750000D02*
X47650000Y52212500D01*
D21*
X47037500Y51600000D02*
X47037500Y49850000D01*
D19*
X47350000Y48400000D02*
X47037500Y48712500D01*
X47350000Y47850000D02*
X47350000Y48400000D01*
X47037500Y49850000D02*
X47037500Y48712500D01*
X45650000Y33000000D02*
X42487500Y33000000D01*
X46100000Y33450000D02*
X45650000Y33000000D01*
%TO.N,Net-(D10-Pad4)*%
X46600000Y16550000D02*
X46800000Y16750000D01*
X46800000Y16750000D02*
X46800000Y17550000D01*
X43400000Y16550000D02*
X46600000Y16550000D01*
X36700000Y21700000D02*
X38250000Y21700000D01*
X38250000Y21700000D02*
X43400000Y16550000D01*
%TO.N,Net-(Q1-Pad3)*%
X42900000Y30200000D02*
X50600000Y30200000D01*
X50600000Y30200000D02*
X53650000Y27150000D01*
%TO.N,Net-(Q1-Pad1)*%
X39312500Y29250000D02*
X39150000Y29412500D01*
X40900000Y29250000D02*
X39312500Y29250000D01*
X40900000Y27412500D02*
X40912500Y27400000D01*
X40900000Y29250000D02*
X40900000Y27412500D01*
%TO.N,/Arduino_MEGA/D4*%
X40900000Y33012500D02*
X40912500Y33000000D01*
X40900000Y35750000D02*
X40900000Y33012500D01*
X35800000Y25850000D02*
X35800000Y30950000D01*
X37850000Y33000000D02*
X40912500Y33000000D01*
X35800000Y30950000D02*
X37850000Y33000000D01*
%TO.N,Net-(Q2-Pad1)*%
X42900000Y38037500D02*
X42437500Y38500000D01*
X42900000Y36700000D02*
X42900000Y38037500D01*
X44487500Y36700000D02*
X44650000Y36537500D01*
X42900000Y36700000D02*
X44487500Y36700000D01*
%TO.N,Net-(Q3-Pad1)*%
X17200000Y36825000D02*
X15875000Y36825000D01*
X15875000Y36825000D02*
X15500000Y37200000D01*
X15500000Y37200000D02*
X15500000Y42450000D01*
X15500000Y42450000D02*
X19300000Y46250000D01*
X19300000Y46250000D02*
X19300000Y52200000D01*
X19300000Y52200000D02*
X27850000Y60750000D01*
X27850000Y60750000D02*
X34200000Y60750000D01*
%TO.N,/SIM800c/PWRKEY*%
X42400000Y43500000D02*
X42850000Y43050000D01*
X42400000Y47200000D02*
X42400000Y43500000D01*
%TO.N,Net-(Q4-Pad1)*%
X39262500Y42100000D02*
X39100000Y42262500D01*
X40850000Y42100000D02*
X39262500Y42100000D01*
X40850000Y42100000D02*
X41550000Y42100000D01*
X42437500Y41212500D02*
X42437500Y40250000D01*
X41550000Y42100000D02*
X42437500Y41212500D01*
%TO.N,/Arduino_MEGA/RXD2*%
X24100000Y36150000D02*
X25050000Y35200000D01*
X24100000Y39800000D02*
X24100000Y36150000D01*
X28250000Y43050000D02*
X27350000Y43050000D01*
X27350000Y43050000D02*
X24100000Y39800000D01*
X28262500Y43062500D02*
X28250000Y43050000D01*
X28262500Y45850000D02*
X28262500Y43062500D01*
%TO.N,/SIM800c/U1_TXD*%
X30250000Y42100000D02*
X32550000Y42100000D01*
X33637500Y43187500D02*
X33637500Y44100000D01*
X32550000Y42100000D02*
X33637500Y43187500D01*
X33650000Y44087500D02*
X33637500Y44100000D01*
X33650000Y42150000D02*
X33650000Y44087500D01*
%TO.N,Net-(Q5-Pad1)*%
X32062500Y45850000D02*
X32062500Y44100000D01*
X30350000Y44100000D02*
X30250000Y44000000D01*
X32062500Y44100000D02*
X30350000Y44100000D01*
%TO.N,/SIM800c/U1_RXD*%
X31012500Y37450000D02*
X32062500Y38500000D01*
X30300000Y37450000D02*
X31012500Y37450000D01*
X32062500Y38500000D02*
X32062500Y40062500D01*
X32950000Y40950000D02*
X33650000Y40950000D01*
X32062500Y40062500D02*
X32950000Y40950000D01*
%TO.N,/SIM800c/RXD*%
X26400000Y36500000D02*
X28300000Y38400000D01*
X25050000Y36500000D02*
X26400000Y36500000D01*
X28300000Y40212500D02*
X28262500Y40250000D01*
X28300000Y38400000D02*
X28300000Y40212500D01*
%TO.N,Net-(Q6-Pad1)*%
X28300000Y34712500D02*
X28312500Y34700000D01*
X28300000Y36500000D02*
X28300000Y34712500D01*
%TO.N,/SIM800c/U1_DTR*%
X31012500Y30150000D02*
X32062500Y31200000D01*
X30300000Y30150000D02*
X31012500Y30150000D01*
X32062500Y31612500D02*
X33650000Y33200000D01*
X32062500Y31200000D02*
X32062500Y31612500D01*
%TO.N,/Arduino_MEGA/D6*%
X24100000Y34200000D02*
X24100000Y32550000D01*
X25550000Y31100000D02*
X28300000Y31100000D01*
X24100000Y32550000D02*
X25550000Y31100000D01*
X28300000Y32937500D02*
X28312500Y32950000D01*
X28300000Y31100000D02*
X28300000Y32937500D01*
%TO.N,Net-(Q7-Pad1)*%
X28300000Y27387500D02*
X28262500Y27350000D01*
X28300000Y29200000D02*
X28300000Y27387500D01*
%TO.N,/Arduino_MEGA/TX0*%
X52000000Y53350000D02*
X48100000Y57250000D01*
X48100000Y57250000D02*
X26700000Y57250000D01*
X26700000Y57250000D02*
X21930561Y52480561D01*
X21930561Y52480561D02*
X21930561Y40764417D01*
%TO.N,/Arduino_MEGA/RX0*%
X52574088Y53975912D02*
X55061708Y53975912D01*
X48800000Y57750000D02*
X52574088Y53975912D01*
X26100000Y57750000D02*
X48800000Y57750000D01*
X20250000Y40000000D02*
X20250000Y51900000D01*
X20250000Y51900000D02*
X26100000Y57750000D01*
%TO.N,/SIM800c/NETLIGHT*%
X42487500Y27400000D02*
X42487500Y28512500D01*
X42487500Y28512500D02*
X41950000Y29050000D01*
X41950000Y29050000D02*
X41950000Y31050000D01*
X43100000Y32200000D02*
X44250000Y32200000D01*
X41950000Y31050000D02*
X43100000Y32200000D01*
%TO.N,Net-(R18-Pad2)*%
X21600000Y37475000D02*
X21600000Y36825000D01*
X21600000Y36825000D02*
X22925000Y36825000D01*
X22925000Y36825000D02*
X23300000Y36450000D01*
X23300000Y36450000D02*
X23300000Y25250000D01*
X23300000Y25250000D02*
X23450000Y25100000D01*
%TO.N,/SIM800c/STATUS*%
X39050000Y38500000D02*
X40862500Y38500000D01*
%TO.N,/Arduino_MEGA/D5*%
X35100000Y27350000D02*
X34400000Y26650000D01*
X40862500Y40250000D02*
X38750000Y40250000D01*
X35100000Y36600000D02*
X35100000Y27350000D01*
X38750000Y40250000D02*
X35100000Y36600000D01*
%TO.N,VDD*%
X29837500Y27350000D02*
X32900000Y27350000D01*
X33637500Y28087500D02*
X33637500Y31200000D01*
X32900000Y27350000D02*
X33637500Y28087500D01*
X33637500Y38500000D02*
X34550000Y38500000D01*
X34550000Y38500000D02*
X35150000Y39100000D01*
X35150000Y39100000D02*
X35150000Y45400000D01*
X34700000Y45850000D02*
X33637500Y45850000D01*
X35150000Y45400000D02*
X34700000Y45850000D01*
X33650000Y45862500D02*
X33637500Y45850000D01*
X33650000Y47350000D02*
X33650000Y45862500D01*
X32375000Y34700000D02*
X33637500Y35962500D01*
X33637500Y38500000D02*
X33637500Y35962500D01*
X29887500Y34700000D02*
X32375000Y34700000D01*
X34375002Y31937502D02*
X34375002Y34524998D01*
X34375002Y34524998D02*
X33637500Y35262500D01*
X33637500Y31200000D02*
X34375002Y31937502D01*
X33637500Y35962500D02*
X33637500Y35262500D01*
%TO.N,/Arduino_MEGA/PB7*%
X25350000Y41934315D02*
X21440686Y38025001D01*
X20325000Y36475000D02*
X20625000Y36175000D01*
X20325000Y37688590D02*
X20325000Y36475000D01*
X21440686Y38025001D02*
X20661412Y38025001D01*
X20661412Y38025001D02*
X20325000Y37688590D01*
X25350000Y42500000D02*
X25350000Y41934315D01*
X20625000Y36175000D02*
X21600000Y36175000D01*
%TO.N,/Arduino_MEGA/D9*%
X7100000Y31650000D02*
X7100000Y25050000D01*
X12350000Y33850000D02*
X9300000Y33850000D01*
X13350000Y34850000D02*
X12350000Y33850000D01*
X9300000Y33850000D02*
X7100000Y31650000D01*
%TO.N,/Arduino_MEGA/D8*%
X13300000Y33050000D02*
X9450000Y33050000D01*
X9450000Y33050000D02*
X7950000Y31550000D01*
X7950000Y31550000D02*
X7950000Y26150000D01*
%TO.N,Net-(D10-Pad3)*%
X45550000Y17550000D02*
X43750000Y17550000D01*
X43750000Y17550000D02*
X40100000Y21200000D01*
%TD*%
D23*
%TO.N,GND*%
G36*
X44413507Y72252996D02*
G01*
X44365000Y72014500D01*
X44365000Y71664500D01*
X45473000Y71664500D01*
X45473000Y71684500D01*
X45727000Y71684500D01*
X45727000Y71664500D01*
X46835000Y71664500D01*
X46835000Y72014500D01*
X46786493Y72252996D01*
X46750016Y72340000D01*
X51449984Y72340000D01*
X51413507Y72252996D01*
X51365000Y72014500D01*
X51365000Y71664500D01*
X52473000Y71664500D01*
X52473000Y71684500D01*
X52727000Y71684500D01*
X52727000Y71664500D01*
X53835000Y71664500D01*
X53835000Y72014500D01*
X53786493Y72252996D01*
X53762118Y72311134D01*
X54148127Y72273286D01*
X54771570Y72085057D01*
X55346575Y71779322D01*
X55851245Y71367723D01*
X56266361Y70865935D01*
X56576105Y70293077D01*
X56768682Y69670961D01*
X56840000Y68992417D01*
X56840001Y4032289D01*
X56773286Y3351874D01*
X56585058Y2728433D01*
X56279320Y2153423D01*
X55867719Y1648751D01*
X55365935Y1233640D01*
X54793075Y923895D01*
X54170961Y731319D01*
X53492418Y660001D01*
X20218540Y660001D01*
X19421076Y731173D01*
X18677268Y934656D01*
X17981254Y1266637D01*
X17346294Y1722902D01*
X16987435Y2069997D01*
X3151007Y17059461D01*
X2398115Y17985584D01*
X1778219Y18981125D01*
X1397381Y19808771D01*
X5365000Y19808771D01*
X5365000Y19191229D01*
X5485476Y18585554D01*
X5721799Y18015021D01*
X6064886Y17501554D01*
X6501554Y17064886D01*
X7015021Y16721799D01*
X7585554Y16485476D01*
X8191229Y16365000D01*
X8808771Y16365000D01*
X9414446Y16485476D01*
X9984979Y16721799D01*
X10498446Y17064886D01*
X10935114Y17501554D01*
X11278201Y18015021D01*
X11514524Y18585554D01*
X11635000Y19191229D01*
X11635000Y19808771D01*
X11514524Y20414446D01*
X11278201Y20984979D01*
X10935114Y21498446D01*
X10498446Y21935114D01*
X9984979Y22278201D01*
X9414446Y22514524D01*
X8808771Y22635000D01*
X8191229Y22635000D01*
X7585554Y22514524D01*
X7015021Y22278201D01*
X6501554Y21935114D01*
X6064886Y21498446D01*
X5721799Y20984979D01*
X5485476Y20414446D01*
X5365000Y19808771D01*
X1397381Y19808771D01*
X1287986Y20046509D01*
X935145Y21164938D01*
X725009Y22320164D01*
X660002Y23429165D01*
X660002Y25151939D01*
X6065000Y25151939D01*
X6065000Y24948061D01*
X6104774Y24748102D01*
X6182795Y24559744D01*
X6296063Y24390226D01*
X6440226Y24246063D01*
X6609744Y24132795D01*
X6798102Y24054774D01*
X6998061Y24015000D01*
X7201939Y24015000D01*
X7401898Y24054774D01*
X7590256Y24132795D01*
X7759774Y24246063D01*
X7903937Y24390226D01*
X8017205Y24559744D01*
X8095226Y24748102D01*
X8135000Y24948061D01*
X8135000Y25131522D01*
X8251898Y25154774D01*
X8440256Y25232795D01*
X8609774Y25346063D01*
X8753937Y25490226D01*
X8867205Y25659744D01*
X8945226Y25848102D01*
X8985000Y26048061D01*
X8985000Y26251939D01*
X8945226Y26451898D01*
X8867205Y26640256D01*
X8753937Y26809774D01*
X8710000Y26853711D01*
X8710000Y31235199D01*
X9764802Y32290000D01*
X12596289Y32290000D01*
X12640226Y32246063D01*
X12809744Y32132795D01*
X12998102Y32054774D01*
X13198061Y32015000D01*
X13401939Y32015000D01*
X13447002Y32023964D01*
X13447002Y32016388D01*
X13447001Y32016378D01*
X13447002Y10366389D01*
X13442236Y10317999D01*
X13461254Y10124906D01*
X13517577Y9939233D01*
X13517578Y9939232D01*
X13609042Y9768115D01*
X13732132Y9618129D01*
X13769712Y9587288D01*
X15287709Y8069290D01*
X15287714Y8069286D01*
X16122570Y7234429D01*
X16132795Y7209744D01*
X16246063Y7040226D01*
X16390226Y6896063D01*
X16559744Y6782795D01*
X16748102Y6704774D01*
X16948061Y6665000D01*
X17151939Y6665000D01*
X17351898Y6704774D01*
X17540256Y6782795D01*
X17709774Y6896063D01*
X17853937Y7040226D01*
X17967205Y7209744D01*
X18045226Y7398102D01*
X18085000Y7598061D01*
X18085000Y7801939D01*
X18045226Y8001898D01*
X17967205Y8190256D01*
X17853937Y8359774D01*
X17709774Y8503937D01*
X17540256Y8617205D01*
X17515571Y8627430D01*
X16680714Y9462286D01*
X16680710Y9462291D01*
X15417001Y10725999D01*
X15417001Y17875001D01*
X16411928Y17875001D01*
X16411928Y16624999D01*
X16428992Y16451745D01*
X16479528Y16285149D01*
X16561595Y16131613D01*
X16672038Y15997038D01*
X16806613Y15886595D01*
X16960149Y15804528D01*
X17126745Y15753992D01*
X17299999Y15736928D01*
X18000001Y15736928D01*
X18173255Y15753992D01*
X18339851Y15804528D01*
X18493387Y15886595D01*
X18627962Y15997038D01*
X18738405Y16131613D01*
X18740967Y16136406D01*
X18866526Y16011922D01*
X19069467Y15877579D01*
X19294718Y15785409D01*
X19332391Y15781538D01*
X19523000Y15906269D01*
X19523000Y17123000D01*
X19777000Y17123000D01*
X19777000Y15906269D01*
X19967609Y15781538D01*
X20005282Y15785409D01*
X20230533Y15877579D01*
X20433474Y16011922D01*
X20606307Y16183275D01*
X20742390Y16385054D01*
X20836493Y16609504D01*
X20885000Y16848000D01*
X20885000Y17123000D01*
X19777000Y17123000D01*
X19523000Y17123000D01*
X19503000Y17123000D01*
X19503000Y17377000D01*
X19523000Y17377000D01*
X19523000Y18593731D01*
X19777000Y18593731D01*
X19777000Y17377000D01*
X20885000Y17377000D01*
X20885000Y17652000D01*
X20836493Y17890496D01*
X20742390Y18114946D01*
X20606307Y18316725D01*
X20433474Y18488078D01*
X20230533Y18622421D01*
X20005282Y18714591D01*
X19967609Y18718462D01*
X19777000Y18593731D01*
X19523000Y18593731D01*
X19332391Y18718462D01*
X19294718Y18714591D01*
X19069467Y18622421D01*
X18866526Y18488078D01*
X18740967Y18363594D01*
X18738405Y18368387D01*
X18627962Y18502962D01*
X18493387Y18613405D01*
X18339851Y18695472D01*
X18173255Y18746008D01*
X18000001Y18763072D01*
X17299999Y18763072D01*
X17126745Y18746008D01*
X16960149Y18695472D01*
X16806613Y18613405D01*
X16672038Y18502962D01*
X16561595Y18368387D01*
X16479528Y18214851D01*
X16428992Y18048255D01*
X16411928Y17875001D01*
X15417001Y17875001D01*
X15417001Y19808771D01*
X30365000Y19808771D01*
X30365000Y19191229D01*
X30485476Y18585554D01*
X30721799Y18015021D01*
X31064886Y17501554D01*
X31501554Y17064886D01*
X32015021Y16721799D01*
X32585554Y16485476D01*
X33191229Y16365000D01*
X33808771Y16365000D01*
X34414446Y16485476D01*
X34984979Y16721799D01*
X35498446Y17064886D01*
X35935114Y17501554D01*
X36278201Y18015021D01*
X36514524Y18585554D01*
X36635000Y19191229D01*
X36635000Y19808771D01*
X36514524Y20414446D01*
X36393471Y20706692D01*
X36398102Y20704774D01*
X36598061Y20665000D01*
X36801939Y20665000D01*
X37001898Y20704774D01*
X37190256Y20782795D01*
X37359774Y20896063D01*
X37403711Y20940000D01*
X37935199Y20940000D01*
X42836201Y16038997D01*
X42859999Y16009999D01*
X42975724Y15915026D01*
X43107753Y15844454D01*
X43251014Y15800997D01*
X43362667Y15790000D01*
X43362677Y15790000D01*
X43400000Y15786324D01*
X43437323Y15790000D01*
X46562678Y15790000D01*
X46600000Y15786324D01*
X46637322Y15790000D01*
X46637333Y15790000D01*
X46748986Y15800997D01*
X46892247Y15844454D01*
X47024276Y15915026D01*
X47140001Y16009999D01*
X47163804Y16039003D01*
X47310998Y16186197D01*
X47340001Y16209999D01*
X47434974Y16325724D01*
X47505546Y16457753D01*
X47549003Y16601014D01*
X47560000Y16712667D01*
X47560000Y16712675D01*
X47563676Y16750000D01*
X47560000Y16787325D01*
X47560000Y16846289D01*
X47603937Y16890226D01*
X47717205Y17059744D01*
X47795226Y17248102D01*
X47835000Y17448061D01*
X47835000Y17651939D01*
X47795226Y17851898D01*
X47717205Y18040256D01*
X47603937Y18209774D01*
X47459774Y18353937D01*
X47290256Y18467205D01*
X47101898Y18545226D01*
X46901939Y18585000D01*
X46698061Y18585000D01*
X46498102Y18545226D01*
X46309744Y18467205D01*
X46175000Y18377172D01*
X46040256Y18467205D01*
X45851898Y18545226D01*
X45651939Y18585000D01*
X45448061Y18585000D01*
X45248102Y18545226D01*
X45059744Y18467205D01*
X44890226Y18353937D01*
X44846289Y18310000D01*
X44064802Y18310000D01*
X41135000Y21239801D01*
X41135000Y21301939D01*
X41095226Y21501898D01*
X41017205Y21690256D01*
X40903937Y21859774D01*
X40759774Y22003937D01*
X40590256Y22117205D01*
X40401898Y22195226D01*
X40201939Y22235000D01*
X39998061Y22235000D01*
X39798102Y22195226D01*
X39609744Y22117205D01*
X39440226Y22003937D01*
X39296063Y21859774D01*
X39243577Y21781224D01*
X38813804Y22210997D01*
X38790001Y22240001D01*
X38674276Y22334974D01*
X38542247Y22405546D01*
X38398986Y22449003D01*
X38287333Y22460000D01*
X38287322Y22460000D01*
X38250000Y22463676D01*
X38212678Y22460000D01*
X37403711Y22460000D01*
X37359774Y22503937D01*
X37190256Y22617205D01*
X37001898Y22695226D01*
X36801939Y22735000D01*
X36598061Y22735000D01*
X36398102Y22695226D01*
X36209744Y22617205D01*
X36040226Y22503937D01*
X35896063Y22359774D01*
X35782795Y22190256D01*
X35704774Y22001898D01*
X35665000Y21801939D01*
X35665000Y21768560D01*
X35498446Y21935114D01*
X34984979Y22278201D01*
X34414446Y22514524D01*
X33808771Y22635000D01*
X33191229Y22635000D01*
X32585554Y22514524D01*
X32015021Y22278201D01*
X31501554Y21935114D01*
X31064886Y21498446D01*
X30721799Y20984979D01*
X30485476Y20414446D01*
X30365000Y19808771D01*
X15417001Y19808771D01*
X15417001Y30237999D01*
X15437322Y30240000D01*
X20162678Y30240000D01*
X20200000Y30236324D01*
X20237322Y30240000D01*
X20237333Y30240000D01*
X20348986Y30250997D01*
X20492247Y30294454D01*
X20624276Y30365026D01*
X20740001Y30459999D01*
X20763803Y30489002D01*
X21311002Y31036200D01*
X21340001Y31059999D01*
X21397890Y31130537D01*
X21434974Y31175723D01*
X21505546Y31307753D01*
X21508909Y31318840D01*
X21532275Y31331329D01*
X21662115Y31437885D01*
X21768671Y31567725D01*
X21847850Y31715858D01*
X21896608Y31876592D01*
X21913072Y32043750D01*
X21913072Y32481250D01*
X21896608Y32648408D01*
X21847850Y32809142D01*
X21768671Y32957275D01*
X21692574Y33050000D01*
X21768671Y33142725D01*
X21847850Y33290858D01*
X21896608Y33451592D01*
X21913072Y33618750D01*
X21913072Y34056250D01*
X21896608Y34223408D01*
X21847850Y34384142D01*
X21768671Y34532275D01*
X21662115Y34662115D01*
X21658600Y34665000D01*
X21727002Y34665000D01*
X21727002Y34823748D01*
X21885750Y34665000D01*
X22315285Y34662002D01*
X22439939Y34672366D01*
X22540000Y34701063D01*
X22540001Y25601041D01*
X22532795Y25590256D01*
X22454774Y25401898D01*
X22415000Y25201939D01*
X22415000Y24998061D01*
X22454774Y24798102D01*
X22532795Y24609744D01*
X22646063Y24440226D01*
X22790226Y24296063D01*
X22959744Y24182795D01*
X23148102Y24104774D01*
X23348061Y24065000D01*
X23551939Y24065000D01*
X23751898Y24104774D01*
X23940256Y24182795D01*
X24109774Y24296063D01*
X24253937Y24440226D01*
X24367205Y24609744D01*
X24445226Y24798102D01*
X24485000Y24998061D01*
X24485000Y25201939D01*
X24445226Y25401898D01*
X24367205Y25590256D01*
X24253937Y25759774D01*
X24109774Y25903937D01*
X24060000Y25937195D01*
X24060000Y31515199D01*
X24986201Y30588997D01*
X25009999Y30559999D01*
X25125724Y30465026D01*
X25257753Y30394454D01*
X25401014Y30350997D01*
X25512667Y30340000D01*
X25512675Y30340000D01*
X25550000Y30336324D01*
X25587325Y30340000D01*
X27323982Y30340000D01*
X27398815Y30248815D01*
X27495506Y30169463D01*
X27531918Y30150000D01*
X27495506Y30130537D01*
X27398815Y30051185D01*
X27319463Y29954494D01*
X27260498Y29844180D01*
X27224188Y29724482D01*
X27211928Y29600000D01*
X27211928Y28800000D01*
X27224188Y28675518D01*
X27260498Y28555820D01*
X27319463Y28445506D01*
X27398815Y28348815D01*
X27495506Y28269463D01*
X27502929Y28265495D01*
X27437885Y28212115D01*
X27331329Y28082275D01*
X27252150Y27934142D01*
X27203392Y27773408D01*
X27186928Y27606250D01*
X27186928Y27093750D01*
X27203392Y26926592D01*
X27252150Y26765858D01*
X27331329Y26617725D01*
X27437885Y26487885D01*
X27567725Y26381329D01*
X27715858Y26302150D01*
X27876592Y26253392D01*
X28043750Y26236928D01*
X28481250Y26236928D01*
X28648408Y26253392D01*
X28809142Y26302150D01*
X28957275Y26381329D01*
X29050000Y26457426D01*
X29142725Y26381329D01*
X29290858Y26302150D01*
X29451592Y26253392D01*
X29618750Y26236928D01*
X30056250Y26236928D01*
X30223408Y26253392D01*
X30384142Y26302150D01*
X30532275Y26381329D01*
X30662115Y26487885D01*
X30745918Y26590000D01*
X32862678Y26590000D01*
X32900000Y26586324D01*
X32937322Y26590000D01*
X32937333Y26590000D01*
X33048986Y26600997D01*
X33192247Y26644454D01*
X33324276Y26715026D01*
X33365000Y26748447D01*
X33365000Y26548061D01*
X33404774Y26348102D01*
X33482795Y26159744D01*
X33596063Y25990226D01*
X33740226Y25846063D01*
X33909744Y25732795D01*
X34098102Y25654774D01*
X34298061Y25615000D01*
X34501939Y25615000D01*
X34701898Y25654774D01*
X34777340Y25686023D01*
X34804774Y25548102D01*
X34882795Y25359744D01*
X34996063Y25190226D01*
X35140226Y25046063D01*
X35309744Y24932795D01*
X35498102Y24854774D01*
X35698061Y24815000D01*
X35901939Y24815000D01*
X36101898Y24854774D01*
X36290256Y24932795D01*
X36459774Y25046063D01*
X36603937Y25190226D01*
X36717205Y25359744D01*
X36795226Y25548102D01*
X36835000Y25748061D01*
X36835000Y25951939D01*
X36795226Y26151898D01*
X36717205Y26340256D01*
X36603937Y26509774D01*
X36560000Y26553711D01*
X36560000Y30635199D01*
X37349801Y31425000D01*
X38036928Y31425000D01*
X38040000Y31273250D01*
X38198750Y31114500D01*
X39023000Y31114500D01*
X39023000Y31901250D01*
X38864250Y32060000D01*
X38675000Y32063072D01*
X38550518Y32050812D01*
X38430820Y32014502D01*
X38320506Y31955537D01*
X38223815Y31876185D01*
X38144463Y31779494D01*
X38085498Y31669180D01*
X38049188Y31549482D01*
X38036928Y31425000D01*
X37349801Y31425000D01*
X38164802Y32240000D01*
X40004082Y32240000D01*
X40087885Y32137885D01*
X40133208Y32100690D01*
X40095506Y32080537D01*
X39998815Y32001185D01*
X39966884Y31962277D01*
X39869180Y32014502D01*
X39749482Y32050812D01*
X39625000Y32063072D01*
X39435750Y32060000D01*
X39277000Y31901250D01*
X39277000Y31114500D01*
X39297000Y31114500D01*
X39297000Y30860500D01*
X39277000Y30860500D01*
X39277000Y30840500D01*
X39023000Y30840500D01*
X39023000Y30860500D01*
X38198750Y30860500D01*
X38040000Y30701750D01*
X38036928Y30550000D01*
X38049188Y30425518D01*
X38085498Y30305820D01*
X38144463Y30195506D01*
X38199100Y30128930D01*
X38181329Y30107275D01*
X38102150Y29959142D01*
X38053392Y29798408D01*
X38036928Y29631250D01*
X38036928Y29193750D01*
X38053392Y29026592D01*
X38102150Y28865858D01*
X38181329Y28717725D01*
X38287885Y28587885D01*
X38417725Y28481329D01*
X38565858Y28402150D01*
X38726592Y28353392D01*
X38893750Y28336928D01*
X39406250Y28336928D01*
X39573408Y28353392D01*
X39734142Y28402150D01*
X39882275Y28481329D01*
X39892841Y28490000D01*
X39923982Y28490000D01*
X39998815Y28398815D01*
X40095506Y28319463D01*
X40133208Y28299310D01*
X40087885Y28262115D01*
X39981329Y28132275D01*
X39902150Y27984142D01*
X39853392Y27823408D01*
X39836928Y27656250D01*
X39836928Y27143750D01*
X39853392Y26976592D01*
X39902150Y26815858D01*
X39981329Y26667725D01*
X40087885Y26537885D01*
X40217725Y26431329D01*
X40365858Y26352150D01*
X40526592Y26303392D01*
X40693750Y26286928D01*
X41131250Y26286928D01*
X41298408Y26303392D01*
X41459142Y26352150D01*
X41607275Y26431329D01*
X41700000Y26507426D01*
X41792725Y26431329D01*
X41940858Y26352150D01*
X42101592Y26303392D01*
X42268750Y26286928D01*
X42706250Y26286928D01*
X42873408Y26303392D01*
X43034142Y26352150D01*
X43182275Y26431329D01*
X43312115Y26537885D01*
X43418671Y26667725D01*
X43497850Y26815858D01*
X43546608Y26976592D01*
X43563072Y27143750D01*
X43563072Y27656250D01*
X43546608Y27823408D01*
X43497850Y27984142D01*
X43418671Y28132275D01*
X43312115Y28262115D01*
X43247500Y28315143D01*
X43247500Y28475175D01*
X43251176Y28512500D01*
X43247500Y28549825D01*
X43247500Y28549833D01*
X43236503Y28661486D01*
X43193046Y28804747D01*
X43122474Y28936776D01*
X43027501Y29052501D01*
X42998502Y29076300D01*
X42912874Y29161928D01*
X43350000Y29161928D01*
X43474482Y29174188D01*
X43594180Y29210498D01*
X43704494Y29269463D01*
X43801185Y29348815D01*
X43876018Y29440000D01*
X50285199Y29440000D01*
X52615000Y27110198D01*
X52615000Y27048061D01*
X52654774Y26848102D01*
X52732795Y26659744D01*
X52846063Y26490226D01*
X52990226Y26346063D01*
X53159744Y26232795D01*
X53348102Y26154774D01*
X53548061Y26115000D01*
X53751939Y26115000D01*
X53951898Y26154774D01*
X54140256Y26232795D01*
X54309774Y26346063D01*
X54453937Y26490226D01*
X54567205Y26659744D01*
X54645226Y26848102D01*
X54685000Y27048061D01*
X54685000Y27251939D01*
X54645226Y27451898D01*
X54567205Y27640256D01*
X54453937Y27809774D01*
X54309774Y27953937D01*
X54140256Y28067205D01*
X53951898Y28145226D01*
X53751939Y28185000D01*
X53689802Y28185000D01*
X51163804Y30710997D01*
X51140001Y30740001D01*
X51024276Y30834974D01*
X50892247Y30905546D01*
X50748986Y30949003D01*
X50637333Y30960000D01*
X50637322Y30960000D01*
X50600000Y30963676D01*
X50562678Y30960000D01*
X43876018Y30960000D01*
X43801185Y31051185D01*
X43704494Y31130537D01*
X43594180Y31189502D01*
X43474482Y31225812D01*
X43350000Y31238072D01*
X43212874Y31238072D01*
X43414802Y31440000D01*
X43546289Y31440000D01*
X43590226Y31396063D01*
X43759744Y31282795D01*
X43948102Y31204774D01*
X44148061Y31165000D01*
X44351939Y31165000D01*
X44551898Y31204774D01*
X44740256Y31282795D01*
X44909774Y31396063D01*
X45053937Y31540226D01*
X45167205Y31709744D01*
X45245226Y31898102D01*
X45285000Y32098061D01*
X45285000Y32240000D01*
X45612678Y32240000D01*
X45650000Y32236324D01*
X45687322Y32240000D01*
X45687333Y32240000D01*
X45798986Y32250997D01*
X45942247Y32294454D01*
X46074276Y32365026D01*
X46135170Y32415000D01*
X46201939Y32415000D01*
X46401898Y32454774D01*
X46590256Y32532795D01*
X46759774Y32646063D01*
X46903937Y32790226D01*
X47017205Y32959744D01*
X47095226Y33148102D01*
X47135000Y33348061D01*
X47135000Y33551939D01*
X47095226Y33751898D01*
X47017205Y33940256D01*
X46903937Y34109774D01*
X46759774Y34253937D01*
X46590256Y34367205D01*
X46401898Y34445226D01*
X46201939Y34485000D01*
X45998061Y34485000D01*
X45798102Y34445226D01*
X45753391Y34426706D01*
X45763072Y34525000D01*
X45760000Y34676750D01*
X45601250Y34835500D01*
X44777000Y34835500D01*
X44777000Y34048750D01*
X44935750Y33890000D01*
X45125000Y33886928D01*
X45162224Y33890594D01*
X45108130Y33760000D01*
X43395918Y33760000D01*
X43391020Y33765968D01*
X43474482Y33774188D01*
X43594180Y33810498D01*
X43704494Y33869463D01*
X43801185Y33948815D01*
X43833116Y33987723D01*
X43930820Y33935498D01*
X44050518Y33899188D01*
X44175000Y33886928D01*
X44364250Y33890000D01*
X44523000Y34048750D01*
X44523000Y34835500D01*
X44503000Y34835500D01*
X44503000Y35089500D01*
X44523000Y35089500D01*
X44523000Y35109500D01*
X44777000Y35109500D01*
X44777000Y35089500D01*
X45601250Y35089500D01*
X45760000Y35248250D01*
X45763072Y35400000D01*
X45750812Y35524482D01*
X45714502Y35644180D01*
X45655537Y35754494D01*
X45600900Y35821070D01*
X45618671Y35842725D01*
X45697850Y35990858D01*
X45746608Y36151592D01*
X45763072Y36318750D01*
X45763072Y36756250D01*
X45746608Y36923408D01*
X45697850Y37084142D01*
X45618671Y37232275D01*
X45512115Y37362115D01*
X45382275Y37468671D01*
X45234142Y37547850D01*
X45073408Y37596608D01*
X44906250Y37613072D01*
X44393750Y37613072D01*
X44226592Y37596608D01*
X44065858Y37547850D01*
X43917725Y37468671D01*
X43907159Y37460000D01*
X43876018Y37460000D01*
X43801185Y37551185D01*
X43704494Y37630537D01*
X43660000Y37654320D01*
X43660000Y38000175D01*
X43663676Y38037500D01*
X43660000Y38074825D01*
X43660000Y38074833D01*
X43649003Y38186486D01*
X43605546Y38329747D01*
X43534974Y38461776D01*
X43513072Y38488464D01*
X43513072Y38756250D01*
X43496608Y38923408D01*
X43447850Y39084142D01*
X43368671Y39232275D01*
X43262115Y39362115D01*
X43246414Y39375000D01*
X43262115Y39387885D01*
X43368671Y39517725D01*
X43447850Y39665858D01*
X43496608Y39826592D01*
X43513072Y39993750D01*
X43513072Y40506250D01*
X43496608Y40673408D01*
X43447850Y40834142D01*
X43368671Y40982275D01*
X43262115Y41112115D01*
X43197500Y41165143D01*
X43197500Y41175167D01*
X43201177Y41212500D01*
X43186503Y41361486D01*
X43143046Y41504747D01*
X43072474Y41636776D01*
X43001299Y41723503D01*
X42977501Y41752501D01*
X42948504Y41776298D01*
X42712874Y42011928D01*
X43300000Y42011928D01*
X43424482Y42024188D01*
X43544180Y42060498D01*
X43654494Y42119463D01*
X43751185Y42198815D01*
X43830537Y42295506D01*
X43889502Y42405820D01*
X43925812Y42525518D01*
X43938072Y42650000D01*
X43938072Y43450000D01*
X43925812Y43574482D01*
X43889502Y43694180D01*
X43830537Y43804494D01*
X43751185Y43901185D01*
X43722167Y43925000D01*
X47486807Y43925000D01*
X47490000Y43892581D01*
X47490001Y39007429D01*
X47486807Y38975000D01*
X47499550Y38845617D01*
X47537290Y38721207D01*
X47598575Y38606550D01*
X47681052Y38506052D01*
X47781550Y38423575D01*
X47896207Y38362290D01*
X48020617Y38324550D01*
X48117581Y38315000D01*
X48150000Y38311807D01*
X48182419Y38315000D01*
X50267581Y38315000D01*
X50300000Y38311807D01*
X50332419Y38315000D01*
X50429383Y38324550D01*
X50553793Y38362290D01*
X50668450Y38423575D01*
X50768948Y38506052D01*
X50851425Y38606550D01*
X50912710Y38721207D01*
X50950450Y38845617D01*
X50963193Y38975000D01*
X50960000Y39007419D01*
X50960000Y43892581D01*
X50963193Y43925000D01*
X50950450Y44054383D01*
X50912710Y44178793D01*
X50851425Y44293450D01*
X50768948Y44393948D01*
X50668450Y44476425D01*
X50553793Y44537710D01*
X50429383Y44575450D01*
X50332419Y44585000D01*
X50300000Y44588193D01*
X50267581Y44585000D01*
X48182419Y44585000D01*
X48150000Y44588193D01*
X48117581Y44585000D01*
X48020617Y44575450D01*
X47896207Y44537710D01*
X47781550Y44476425D01*
X47681052Y44393948D01*
X47598575Y44293450D01*
X47537290Y44178793D01*
X47499550Y44054383D01*
X47486807Y43925000D01*
X43722167Y43925000D01*
X43654494Y43980537D01*
X43544180Y44039502D01*
X43424482Y44075812D01*
X43300000Y44088072D01*
X43160000Y44088072D01*
X43160000Y46496289D01*
X43203937Y46540226D01*
X43317205Y46709744D01*
X43395226Y46898102D01*
X43435000Y47098061D01*
X43435000Y47301939D01*
X43395226Y47501898D01*
X43367742Y47568250D01*
X44265000Y47568250D01*
X44270952Y47493066D01*
X44303901Y47372400D01*
X44359757Y47260480D01*
X44436375Y47161608D01*
X44530810Y47079583D01*
X44639432Y47017557D01*
X44758068Y46977914D01*
X44868250Y46965000D01*
X45027000Y47123750D01*
X45027000Y47727000D01*
X45273000Y47727000D01*
X45273000Y47123750D01*
X45431750Y46965000D01*
X45541932Y46977914D01*
X45660568Y47017557D01*
X45769190Y47079583D01*
X45863625Y47161608D01*
X45940243Y47260480D01*
X45996099Y47372400D01*
X46029048Y47493066D01*
X46035000Y47568250D01*
X45876250Y47727000D01*
X45273000Y47727000D01*
X45027000Y47727000D01*
X44423750Y47727000D01*
X44265000Y47568250D01*
X43367742Y47568250D01*
X43317205Y47690256D01*
X43203937Y47859774D01*
X43059774Y48003937D01*
X42890256Y48117205D01*
X42855142Y48131750D01*
X44265000Y48131750D01*
X44423750Y47973000D01*
X45027000Y47973000D01*
X45027000Y48576250D01*
X45273000Y48576250D01*
X45273000Y47973000D01*
X45876250Y47973000D01*
X46035000Y48131750D01*
X46029048Y48206934D01*
X45996099Y48327600D01*
X45940243Y48439520D01*
X45863625Y48538392D01*
X45769190Y48620417D01*
X45660568Y48682443D01*
X45541932Y48722086D01*
X45431750Y48735000D01*
X45273000Y48576250D01*
X45027000Y48576250D01*
X44868250Y48735000D01*
X44758068Y48722086D01*
X44639432Y48682443D01*
X44530810Y48620417D01*
X44436375Y48538392D01*
X44359757Y48439520D01*
X44303901Y48327600D01*
X44270952Y48206934D01*
X44265000Y48131750D01*
X42855142Y48131750D01*
X42701898Y48195226D01*
X42501939Y48235000D01*
X42298061Y48235000D01*
X42098102Y48195226D01*
X41909744Y48117205D01*
X41740226Y48003937D01*
X41596063Y47859774D01*
X41482795Y47690256D01*
X41404774Y47501898D01*
X41365000Y47301939D01*
X41365000Y47098061D01*
X41404774Y46898102D01*
X41482795Y46709744D01*
X41596063Y46540226D01*
X41640000Y46496289D01*
X41640001Y44938284D01*
X41544180Y44989502D01*
X41424482Y45025812D01*
X41300000Y45038072D01*
X41135750Y45035000D01*
X40977000Y44876250D01*
X40977000Y44127000D01*
X40997000Y44127000D01*
X40997000Y43873000D01*
X40977000Y43873000D01*
X40977000Y43853000D01*
X40723000Y43853000D01*
X40723000Y43873000D01*
X40703000Y43873000D01*
X40703000Y44127000D01*
X40723000Y44127000D01*
X40723000Y44876250D01*
X40564250Y45035000D01*
X40400000Y45038072D01*
X40275518Y45025812D01*
X40155820Y44989502D01*
X40045506Y44930537D01*
X39948815Y44851185D01*
X39916884Y44812277D01*
X39819180Y44864502D01*
X39699482Y44900812D01*
X39575000Y44913072D01*
X39385750Y44910000D01*
X39227000Y44751250D01*
X39227000Y43964500D01*
X39247000Y43964500D01*
X39247000Y43710500D01*
X39227000Y43710500D01*
X39227000Y43690500D01*
X38973000Y43690500D01*
X38973000Y43710500D01*
X38148750Y43710500D01*
X37990000Y43551750D01*
X37986928Y43400000D01*
X37999188Y43275518D01*
X38035498Y43155820D01*
X38094463Y43045506D01*
X38149100Y42978930D01*
X38131329Y42957275D01*
X38052150Y42809142D01*
X38003392Y42648408D01*
X37986928Y42481250D01*
X37986928Y42043750D01*
X38003392Y41876592D01*
X38052150Y41715858D01*
X38131329Y41567725D01*
X38237885Y41437885D01*
X38367725Y41331329D01*
X38515858Y41252150D01*
X38676592Y41203392D01*
X38843750Y41186928D01*
X39356250Y41186928D01*
X39523408Y41203392D01*
X39684142Y41252150D01*
X39832275Y41331329D01*
X39842841Y41340000D01*
X39873982Y41340000D01*
X39948815Y41248815D01*
X40045506Y41169463D01*
X40083208Y41149310D01*
X40037885Y41112115D01*
X39954082Y41010000D01*
X38787333Y41010000D01*
X38750000Y41013677D01*
X38712667Y41010000D01*
X38601014Y40999003D01*
X38457753Y40955546D01*
X38325724Y40884974D01*
X38209999Y40790001D01*
X38186201Y40761003D01*
X34589003Y37163804D01*
X34559999Y37140001D01*
X34514840Y37084974D01*
X34465026Y37024276D01*
X34411916Y36924914D01*
X34397500Y36897945D01*
X34397500Y37584857D01*
X34462115Y37637885D01*
X34543432Y37736971D01*
X34550000Y37736324D01*
X34587322Y37740000D01*
X34587333Y37740000D01*
X34698986Y37750997D01*
X34842247Y37794454D01*
X34974276Y37865026D01*
X35090001Y37959999D01*
X35113803Y37989002D01*
X35661004Y38536202D01*
X35690001Y38559999D01*
X35724420Y38601939D01*
X35784974Y38675723D01*
X35855546Y38807753D01*
X35876164Y38875724D01*
X35899003Y38951014D01*
X35910000Y39062667D01*
X35910000Y39062676D01*
X35913676Y39099999D01*
X35910000Y39137322D01*
X35910000Y44275000D01*
X37986928Y44275000D01*
X37990000Y44123250D01*
X38148750Y43964500D01*
X38973000Y43964500D01*
X38973000Y44751250D01*
X38814250Y44910000D01*
X38625000Y44913072D01*
X38500518Y44900812D01*
X38380820Y44864502D01*
X38270506Y44805537D01*
X38173815Y44726185D01*
X38094463Y44629494D01*
X38035498Y44519180D01*
X37999188Y44399482D01*
X37986928Y44275000D01*
X35910000Y44275000D01*
X35910000Y45362678D01*
X35913676Y45400001D01*
X35910000Y45437324D01*
X35910000Y45437333D01*
X35899003Y45548986D01*
X35855546Y45692247D01*
X35830557Y45738997D01*
X35784974Y45824277D01*
X35733224Y45887333D01*
X35690001Y45940001D01*
X35660997Y45963804D01*
X35263804Y46360997D01*
X35240001Y46390001D01*
X35124276Y46484974D01*
X34992247Y46555546D01*
X34848986Y46599003D01*
X34737333Y46610000D01*
X34737322Y46610000D01*
X34700000Y46613676D01*
X34662678Y46610000D01*
X34545918Y46610000D01*
X34465669Y46707784D01*
X34567205Y46859744D01*
X34645226Y47048102D01*
X34685000Y47248061D01*
X34685000Y47451939D01*
X34645226Y47651898D01*
X34567205Y47840256D01*
X34453937Y48009774D01*
X34309774Y48153937D01*
X34140256Y48267205D01*
X33951898Y48345226D01*
X33751939Y48385000D01*
X33548061Y48385000D01*
X33348102Y48345226D01*
X33159744Y48267205D01*
X32990226Y48153937D01*
X32846063Y48009774D01*
X32732795Y47840256D01*
X32654774Y47651898D01*
X32615000Y47451939D01*
X32615000Y47248061D01*
X32654774Y47048102D01*
X32732795Y46859744D01*
X32763838Y46813285D01*
X32757275Y46818671D01*
X32609142Y46897850D01*
X32448408Y46946608D01*
X32281250Y46963072D01*
X31843750Y46963072D01*
X31676592Y46946608D01*
X31515858Y46897850D01*
X31367725Y46818671D01*
X31237885Y46712115D01*
X31131329Y46582275D01*
X31052150Y46434142D01*
X31003392Y46273408D01*
X30986928Y46106250D01*
X30986928Y45593750D01*
X31003392Y45426592D01*
X31052150Y45265858D01*
X31131329Y45117725D01*
X31237885Y44987885D01*
X31253586Y44975000D01*
X31237885Y44962115D01*
X31154082Y44860000D01*
X31140444Y44860000D01*
X31054494Y44930537D01*
X30944180Y44989502D01*
X30824482Y45025812D01*
X30703055Y45037771D01*
X30768671Y45117725D01*
X30847850Y45265858D01*
X30896608Y45426592D01*
X30913072Y45593750D01*
X30913072Y46106250D01*
X30896608Y46273408D01*
X30847850Y46434142D01*
X30768671Y46582275D01*
X30668295Y46704584D01*
X30803937Y46840226D01*
X30917205Y47009744D01*
X30995226Y47198102D01*
X31035000Y47398061D01*
X31035000Y47601939D01*
X30995226Y47801898D01*
X30917205Y47990256D01*
X30835000Y48113285D01*
X30835000Y49375000D01*
X44386928Y49375000D01*
X44399188Y49250518D01*
X44435498Y49130820D01*
X44494463Y49020506D01*
X44573815Y48923815D01*
X44670506Y48844463D01*
X44780820Y48785498D01*
X44900518Y48749188D01*
X45025000Y48736928D01*
X45176750Y48740000D01*
X45335500Y48898750D01*
X45335500Y49723000D01*
X44548750Y49723000D01*
X44390000Y49564250D01*
X44386928Y49375000D01*
X30835000Y49375000D01*
X30835000Y51895603D01*
X31064886Y51551554D01*
X31501554Y51114886D01*
X32015021Y50771799D01*
X32585554Y50535476D01*
X33191229Y50415000D01*
X33808771Y50415000D01*
X34414446Y50535476D01*
X34984979Y50771799D01*
X35498446Y51114886D01*
X35508560Y51125000D01*
X44386928Y51125000D01*
X44399188Y51000518D01*
X44435498Y50880820D01*
X44494463Y50770506D01*
X44531809Y50725000D01*
X44494463Y50679494D01*
X44435498Y50569180D01*
X44399188Y50449482D01*
X44386928Y50325000D01*
X44390000Y50135750D01*
X44548750Y49977000D01*
X45335500Y49977000D01*
X45335500Y51473000D01*
X44548750Y51473000D01*
X44390000Y51314250D01*
X44386928Y51125000D01*
X35508560Y51125000D01*
X35935114Y51551554D01*
X36278201Y52065021D01*
X36514524Y52635554D01*
X36562152Y52875000D01*
X43586928Y52875000D01*
X43599188Y52750518D01*
X43635498Y52630820D01*
X43694463Y52520506D01*
X43773815Y52423815D01*
X43870506Y52344463D01*
X43980820Y52285498D01*
X44100518Y52249188D01*
X44225000Y52236928D01*
X44411058Y52238613D01*
X44399188Y52199482D01*
X44386928Y52075000D01*
X44390000Y51885750D01*
X44548750Y51727000D01*
X45335500Y51727000D01*
X45335500Y51747000D01*
X45589500Y51747000D01*
X45589500Y51727000D01*
X45609500Y51727000D01*
X45609500Y51473000D01*
X45589500Y51473000D01*
X45589500Y49977000D01*
X45609500Y49977000D01*
X45609500Y49723000D01*
X45589500Y49723000D01*
X45589500Y48898750D01*
X45748250Y48740000D01*
X45900000Y48736928D01*
X46024482Y48749188D01*
X46144180Y48785498D01*
X46254494Y48844463D01*
X46277501Y48863344D01*
X46277501Y48749832D01*
X46273824Y48712500D01*
X46277501Y48675167D01*
X46288498Y48563514D01*
X46301680Y48520058D01*
X46331954Y48420254D01*
X46402526Y48288224D01*
X46469240Y48206934D01*
X46472115Y48203431D01*
X46461928Y48100000D01*
X46461928Y47600000D01*
X46474188Y47475518D01*
X46510498Y47355820D01*
X46569463Y47245506D01*
X46648815Y47148815D01*
X46745506Y47069463D01*
X46855820Y47010498D01*
X46975518Y46974188D01*
X47100000Y46961928D01*
X47600000Y46961928D01*
X47724482Y46974188D01*
X47844180Y47010498D01*
X47954494Y47069463D01*
X48051185Y47148815D01*
X48130537Y47245506D01*
X48189502Y47355820D01*
X48225812Y47475518D01*
X48238072Y47600000D01*
X48238072Y48100000D01*
X48225812Y48224482D01*
X48189502Y48344180D01*
X48130537Y48454494D01*
X48105278Y48485272D01*
X48099003Y48548986D01*
X48055546Y48692247D01*
X47984974Y48824276D01*
X47890001Y48940001D01*
X47860997Y48963804D01*
X47848275Y48976526D01*
X47862115Y48987885D01*
X47968671Y49117725D01*
X48047850Y49265858D01*
X48096608Y49426592D01*
X48113072Y49593750D01*
X48113072Y50106250D01*
X48096608Y50273408D01*
X48047850Y50434142D01*
X48022500Y50481568D01*
X48022500Y50968432D01*
X48047850Y51015858D01*
X48096608Y51176592D01*
X48113072Y51343750D01*
X48113072Y51423993D01*
X48245049Y51555970D01*
X48278817Y51583683D01*
X48341449Y51659999D01*
X48389411Y51718441D01*
X48457371Y51845587D01*
X48471589Y51872187D01*
X48522195Y52039010D01*
X48535000Y52169023D01*
X48535000Y52169031D01*
X48539281Y52212500D01*
X48535000Y52255969D01*
X48535000Y52400230D01*
X48652962Y52497038D01*
X48693013Y52545841D01*
X48848061Y52515000D01*
X49051939Y52515000D01*
X49251898Y52554774D01*
X49440256Y52632795D01*
X49609774Y52746063D01*
X49753937Y52890226D01*
X49867205Y53059744D01*
X49945226Y53248102D01*
X49985000Y53448061D01*
X49985000Y53651939D01*
X49945226Y53851898D01*
X49867205Y54040256D01*
X49753937Y54209774D01*
X49609774Y54353937D01*
X49440256Y54467205D01*
X49251898Y54545226D01*
X49051939Y54585000D01*
X48884861Y54585000D01*
X48845472Y54714850D01*
X48763405Y54868386D01*
X48652962Y55002962D01*
X48518386Y55113405D01*
X48364850Y55195472D01*
X48198254Y55246008D01*
X48025000Y55263072D01*
X47275000Y55263072D01*
X47101746Y55246008D01*
X46935150Y55195472D01*
X46781614Y55113405D01*
X46647038Y55002962D01*
X46536595Y54868386D01*
X46454528Y54714850D01*
X46403992Y54548254D01*
X46386928Y54375000D01*
X46386928Y53125000D01*
X46403992Y52951746D01*
X46454528Y52785150D01*
X46522746Y52657523D01*
X46490858Y52647850D01*
X46342725Y52568671D01*
X46321070Y52550900D01*
X46254494Y52605537D01*
X46144180Y52664502D01*
X46080572Y52683797D01*
X46100812Y52750518D01*
X46113072Y52875000D01*
X46110000Y53464250D01*
X45951250Y53623000D01*
X44977000Y53623000D01*
X44977000Y53603000D01*
X44723000Y53603000D01*
X44723000Y53623000D01*
X43748750Y53623000D01*
X43590000Y53464250D01*
X43586928Y52875000D01*
X36562152Y52875000D01*
X36635000Y53241229D01*
X36635000Y53858771D01*
X36514524Y54464446D01*
X36448021Y54625000D01*
X43586928Y54625000D01*
X43590000Y54035750D01*
X43748750Y53877000D01*
X44723000Y53877000D01*
X44723000Y55101250D01*
X44977000Y55101250D01*
X44977000Y53877000D01*
X45951250Y53877000D01*
X46110000Y54035750D01*
X46113072Y54625000D01*
X46100812Y54749482D01*
X46064502Y54869180D01*
X46005537Y54979494D01*
X45926185Y55076185D01*
X45829494Y55155537D01*
X45719180Y55214502D01*
X45599482Y55250812D01*
X45475000Y55263072D01*
X45135750Y55260000D01*
X44977000Y55101250D01*
X44723000Y55101250D01*
X44564250Y55260000D01*
X44225000Y55263072D01*
X44100518Y55250812D01*
X43980820Y55214502D01*
X43870506Y55155537D01*
X43773815Y55076185D01*
X43694463Y54979494D01*
X43635498Y54869180D01*
X43599188Y54749482D01*
X43586928Y54625000D01*
X36448021Y54625000D01*
X36278201Y55034979D01*
X35935114Y55548446D01*
X35498446Y55985114D01*
X34984979Y56328201D01*
X34594362Y56490000D01*
X47785199Y56490000D01*
X50965000Y53310198D01*
X50965000Y53248061D01*
X51004774Y53048102D01*
X51082795Y52859744D01*
X51196063Y52690226D01*
X51340226Y52546063D01*
X51509744Y52432795D01*
X51698102Y52354774D01*
X51898061Y52315000D01*
X52101939Y52315000D01*
X52301898Y52354774D01*
X52490256Y52432795D01*
X52659774Y52546063D01*
X52803937Y52690226D01*
X52917205Y52859744D01*
X52995226Y53048102D01*
X53028605Y53215912D01*
X54357997Y53215912D01*
X54401934Y53171975D01*
X54571452Y53058707D01*
X54759810Y52980686D01*
X54959769Y52940912D01*
X55163647Y52940912D01*
X55363606Y52980686D01*
X55551964Y53058707D01*
X55721482Y53171975D01*
X55865645Y53316138D01*
X55978913Y53485656D01*
X56056934Y53674014D01*
X56096708Y53873973D01*
X56096708Y54077851D01*
X56056934Y54277810D01*
X55978913Y54466168D01*
X55865645Y54635686D01*
X55721482Y54779849D01*
X55551964Y54893117D01*
X55363606Y54971138D01*
X55163647Y55010912D01*
X54959769Y55010912D01*
X54759810Y54971138D01*
X54571452Y54893117D01*
X54401934Y54779849D01*
X54357997Y54735912D01*
X52888891Y54735912D01*
X50034801Y57590000D01*
X52635199Y57590000D01*
X53565000Y56660198D01*
X53565000Y56598061D01*
X53604774Y56398102D01*
X53682795Y56209744D01*
X53796063Y56040226D01*
X53940226Y55896063D01*
X54109744Y55782795D01*
X54298102Y55704774D01*
X54498061Y55665000D01*
X54701939Y55665000D01*
X54901898Y55704774D01*
X55090256Y55782795D01*
X55259774Y55896063D01*
X55403937Y56040226D01*
X55517205Y56209744D01*
X55595226Y56398102D01*
X55635000Y56598061D01*
X55635000Y56801939D01*
X55595226Y57001898D01*
X55517205Y57190256D01*
X55403937Y57359774D01*
X55259774Y57503937D01*
X55090256Y57617205D01*
X54901898Y57695226D01*
X54701939Y57735000D01*
X54639802Y57735000D01*
X53513803Y58860998D01*
X53490001Y58890001D01*
X53374276Y58984974D01*
X53242247Y59055546D01*
X53098986Y59099003D01*
X52987333Y59110000D01*
X52987322Y59110000D01*
X52950000Y59113676D01*
X52912678Y59110000D01*
X40966501Y59110000D01*
X43211003Y61354501D01*
X43240001Y61378299D01*
X43334974Y61494024D01*
X43405546Y61626053D01*
X43449003Y61769314D01*
X43452216Y61801939D01*
X43715000Y61801939D01*
X43715000Y61598061D01*
X43754774Y61398102D01*
X43832795Y61209744D01*
X43946063Y61040226D01*
X44090226Y60896063D01*
X44259744Y60782795D01*
X44448102Y60704774D01*
X44648061Y60665000D01*
X44851939Y60665000D01*
X45051898Y60704774D01*
X45240256Y60782795D01*
X45409774Y60896063D01*
X45553937Y61040226D01*
X45667205Y61209744D01*
X45745226Y61398102D01*
X45778424Y61565000D01*
X54536715Y61565000D01*
X54659744Y61482795D01*
X54848102Y61404774D01*
X55048061Y61365000D01*
X55251939Y61365000D01*
X55451898Y61404774D01*
X55640256Y61482795D01*
X55809774Y61596063D01*
X55953937Y61740226D01*
X56067205Y61909744D01*
X56145226Y62098102D01*
X56185000Y62298061D01*
X56185000Y62501939D01*
X56145226Y62701898D01*
X56067205Y62890256D01*
X55953937Y63059774D01*
X55809774Y63203937D01*
X55640256Y63317205D01*
X55451898Y63395226D01*
X55251939Y63435000D01*
X55048061Y63435000D01*
X54848102Y63395226D01*
X54659744Y63317205D01*
X54536715Y63235000D01*
X45041007Y63235000D01*
X44999999Y63239039D01*
X44958991Y63235000D01*
X44958981Y63235000D01*
X44836311Y63222918D01*
X44678913Y63175172D01*
X44533854Y63097636D01*
X44406709Y62993291D01*
X44380554Y62961421D01*
X44188579Y62769446D01*
X44156709Y62743291D01*
X44072127Y62640226D01*
X44052364Y62616145D01*
X43974828Y62471086D01*
X43936904Y62346066D01*
X43832795Y62190256D01*
X43754774Y62001898D01*
X43715000Y61801939D01*
X43452216Y61801939D01*
X43460000Y61880967D01*
X43460000Y61880976D01*
X43463676Y61918299D01*
X43460000Y61955622D01*
X43460000Y62596289D01*
X43503937Y62640226D01*
X43617205Y62809744D01*
X43695226Y62998102D01*
X43735000Y63198061D01*
X43735000Y63401939D01*
X43695226Y63601898D01*
X43617205Y63790256D01*
X43503937Y63959774D01*
X43359774Y64103937D01*
X43190256Y64217205D01*
X43001898Y64295226D01*
X42801939Y64335000D01*
X42598061Y64335000D01*
X42398102Y64295226D01*
X42209744Y64217205D01*
X42040226Y64103937D01*
X41896063Y63959774D01*
X41782795Y63790256D01*
X41704774Y63601898D01*
X41665000Y63401939D01*
X41665000Y63198061D01*
X41704774Y62998102D01*
X41782795Y62809744D01*
X41896063Y62640226D01*
X41940001Y62596288D01*
X41940001Y62233103D01*
X39816909Y60110010D01*
X39754771Y60110010D01*
X39554812Y60070236D01*
X39366454Y59992215D01*
X39196936Y59878947D01*
X39052773Y59734784D01*
X38939505Y59565266D01*
X38861484Y59376908D01*
X38821710Y59176949D01*
X38821710Y59110000D01*
X31687195Y59110000D01*
X31653937Y59159774D01*
X31509774Y59303937D01*
X31340256Y59417205D01*
X31151898Y59495226D01*
X30951939Y59535000D01*
X30748061Y59535000D01*
X30548102Y59495226D01*
X30359744Y59417205D01*
X30190226Y59303937D01*
X30046063Y59159774D01*
X29932795Y58990256D01*
X29854774Y58801898D01*
X29815000Y58601939D01*
X29815000Y58510000D01*
X26684802Y58510000D01*
X28164802Y59990000D01*
X33496289Y59990000D01*
X33540226Y59946063D01*
X33709744Y59832795D01*
X33898102Y59754774D01*
X34098061Y59715000D01*
X34301939Y59715000D01*
X34501898Y59754774D01*
X34690256Y59832795D01*
X34859774Y59946063D01*
X35003937Y60090226D01*
X35117205Y60259744D01*
X35195226Y60448102D01*
X35235000Y60648061D01*
X35235000Y60851939D01*
X35195226Y61051898D01*
X35117205Y61240256D01*
X35003937Y61409774D01*
X34859774Y61553937D01*
X34690256Y61667205D01*
X34501898Y61745226D01*
X34301939Y61785000D01*
X34098061Y61785000D01*
X33898102Y61745226D01*
X33709744Y61667205D01*
X33540226Y61553937D01*
X33496289Y61510000D01*
X27887323Y61510000D01*
X27850000Y61513676D01*
X27812677Y61510000D01*
X27812667Y61510000D01*
X27701014Y61499003D01*
X27557753Y61455546D01*
X27425723Y61384974D01*
X27355182Y61327082D01*
X27309999Y61290001D01*
X27286201Y61261003D01*
X18788998Y52763799D01*
X18760000Y52740001D01*
X18736202Y52711003D01*
X18736201Y52711002D01*
X18665026Y52624276D01*
X18594454Y52492246D01*
X18575787Y52430707D01*
X18550998Y52348986D01*
X18544745Y52285498D01*
X18536324Y52200000D01*
X18540001Y52162668D01*
X18540000Y46564802D01*
X15417001Y43441802D01*
X15417001Y54509999D01*
X25322003Y64415000D01*
X34273414Y64415000D01*
X34298102Y64404774D01*
X34498061Y64365000D01*
X34701939Y64365000D01*
X34901898Y64404774D01*
X35090256Y64482795D01*
X35259774Y64596063D01*
X35403937Y64740226D01*
X35517205Y64909744D01*
X35595226Y65098102D01*
X35635000Y65298061D01*
X35635000Y65501939D01*
X35595226Y65701898D01*
X35517205Y65890256D01*
X35403937Y66059774D01*
X35259774Y66203937D01*
X35090256Y66317205D01*
X34901898Y66395226D01*
X34701939Y66435000D01*
X34498061Y66435000D01*
X34298102Y66395226D01*
X34273414Y66385000D01*
X24962382Y66385000D01*
X24914002Y66389765D01*
X24865622Y66385000D01*
X24720908Y66370747D01*
X24535235Y66314424D01*
X24364118Y66222960D01*
X24214132Y66099870D01*
X24183291Y66062290D01*
X13769717Y55648715D01*
X13732131Y55617869D01*
X13609041Y55467883D01*
X13527902Y55316081D01*
X13517577Y55296765D01*
X13461254Y55111092D01*
X13442236Y54917999D01*
X13447001Y54869619D01*
X13447002Y35885000D01*
X13248061Y35885000D01*
X13048102Y35845226D01*
X12859744Y35767205D01*
X12690226Y35653937D01*
X12546063Y35509774D01*
X12432795Y35340256D01*
X12354774Y35151898D01*
X12315000Y34951939D01*
X12315000Y34889802D01*
X12035199Y34610000D01*
X9337323Y34610000D01*
X9300000Y34613676D01*
X9262677Y34610000D01*
X9262667Y34610000D01*
X9151014Y34599003D01*
X9007753Y34555546D01*
X8875724Y34484974D01*
X8759999Y34390001D01*
X8736201Y34361003D01*
X6589003Y32213804D01*
X6559999Y32190001D01*
X6517229Y32137885D01*
X6465026Y32074276D01*
X6412897Y31976750D01*
X6394454Y31942246D01*
X6350997Y31798985D01*
X6340000Y31687332D01*
X6340000Y31687322D01*
X6336324Y31650000D01*
X6340000Y31612677D01*
X6340001Y25753712D01*
X6296063Y25709774D01*
X6182795Y25540256D01*
X6104774Y25351898D01*
X6065000Y25151939D01*
X660002Y25151939D01*
X660002Y49569415D01*
X734946Y50760611D01*
X954700Y51912606D01*
X1317102Y53027963D01*
X1684522Y53808771D01*
X5365000Y53808771D01*
X5365000Y53191229D01*
X5485476Y52585554D01*
X5721799Y52015021D01*
X6064886Y51501554D01*
X6501554Y51064886D01*
X7015021Y50721799D01*
X7585554Y50485476D01*
X8191229Y50365000D01*
X8808771Y50365000D01*
X9414446Y50485476D01*
X9984979Y50721799D01*
X10498446Y51064886D01*
X10935114Y51501554D01*
X11278201Y52015021D01*
X11514524Y52585554D01*
X11635000Y53191229D01*
X11635000Y53808771D01*
X11514524Y54414446D01*
X11278201Y54984979D01*
X10935114Y55498446D01*
X10498446Y55935114D01*
X9984979Y56278201D01*
X9414446Y56514524D01*
X8808771Y56635000D01*
X8191229Y56635000D01*
X7585554Y56514524D01*
X7015021Y56278201D01*
X6501554Y55935114D01*
X6064886Y55498446D01*
X5721799Y54984979D01*
X5485476Y54414446D01*
X5365000Y53808771D01*
X1684522Y53808771D01*
X1816443Y54089117D01*
X2445599Y55080508D01*
X3150051Y55939505D01*
X14189000Y67898367D01*
X45840472Y67898367D01*
X45902965Y67662050D01*
X46145678Y67548650D01*
X46405849Y67484781D01*
X46673482Y67472896D01*
X46938291Y67513452D01*
X47190100Y67604891D01*
X47297035Y67662050D01*
X47359528Y67898367D01*
X50840472Y67898367D01*
X50902965Y67662050D01*
X51145678Y67548650D01*
X51405849Y67484781D01*
X51673482Y67472896D01*
X51938291Y67513452D01*
X52190100Y67604891D01*
X52297035Y67662050D01*
X52359528Y67898367D01*
X51600000Y68657895D01*
X50840472Y67898367D01*
X47359528Y67898367D01*
X46600000Y68657895D01*
X45840472Y67898367D01*
X14189000Y67898367D01*
X14988063Y68764018D01*
X45235396Y68764018D01*
X45275952Y68499209D01*
X45367391Y68247400D01*
X45424550Y68140465D01*
X45660867Y68077972D01*
X46420395Y68837500D01*
X46779605Y68837500D01*
X47539133Y68077972D01*
X47775450Y68140465D01*
X47888850Y68383178D01*
X47952719Y68643349D01*
X47958077Y68764018D01*
X50235396Y68764018D01*
X50275952Y68499209D01*
X50367391Y68247400D01*
X50424550Y68140465D01*
X50660867Y68077972D01*
X51420395Y68837500D01*
X51779605Y68837500D01*
X52539133Y68077972D01*
X52775450Y68140465D01*
X52888850Y68383178D01*
X52952719Y68643349D01*
X52964604Y68910982D01*
X52924048Y69175791D01*
X52832609Y69427600D01*
X52775450Y69534535D01*
X52539133Y69597028D01*
X51779605Y68837500D01*
X51420395Y68837500D01*
X50660867Y69597028D01*
X50424550Y69534535D01*
X50311150Y69291822D01*
X50247281Y69031651D01*
X50235396Y68764018D01*
X47958077Y68764018D01*
X47964604Y68910982D01*
X47924048Y69175791D01*
X47832609Y69427600D01*
X47775450Y69534535D01*
X47539133Y69597028D01*
X46779605Y68837500D01*
X46420395Y68837500D01*
X45660867Y69597028D01*
X45424550Y69534535D01*
X45311150Y69291822D01*
X45247281Y69031651D01*
X45235396Y68764018D01*
X14988063Y68764018D01*
X16980176Y70922140D01*
X17518940Y71410500D01*
X44365000Y71410500D01*
X44365000Y71060500D01*
X44413507Y70822004D01*
X44507610Y70597554D01*
X44643693Y70395775D01*
X44816526Y70224422D01*
X45019467Y70090079D01*
X45244718Y69997909D01*
X45282391Y69994038D01*
X45473000Y70118769D01*
X45473000Y71410500D01*
X45727000Y71410500D01*
X45727000Y70118769D01*
X45900862Y70004997D01*
X45840472Y69776633D01*
X46600000Y69017105D01*
X47359528Y69776633D01*
X50840472Y69776633D01*
X51600000Y69017105D01*
X52359528Y69776633D01*
X52299138Y70004997D01*
X52473000Y70118769D01*
X52473000Y71410500D01*
X52727000Y71410500D01*
X52727000Y70118769D01*
X52917609Y69994038D01*
X52955282Y69997909D01*
X53180533Y70090079D01*
X53383474Y70224422D01*
X53556307Y70395775D01*
X53692390Y70597554D01*
X53786493Y70822004D01*
X53835000Y71060500D01*
X53835000Y71410500D01*
X52727000Y71410500D01*
X52473000Y71410500D01*
X51365000Y71410500D01*
X51365000Y71060500D01*
X51413507Y70822004D01*
X51507610Y70597554D01*
X51643693Y70395775D01*
X51816526Y70224422D01*
X51911836Y70161329D01*
X51794151Y70190219D01*
X51526518Y70202104D01*
X51261709Y70161548D01*
X51009900Y70070109D01*
X50902965Y70012950D01*
X50840472Y69776633D01*
X47359528Y69776633D01*
X47297035Y70012950D01*
X47054322Y70126350D01*
X46794151Y70190219D01*
X46526518Y70202104D01*
X46296558Y70166885D01*
X46383474Y70224422D01*
X46556307Y70395775D01*
X46692390Y70597554D01*
X46786493Y70822004D01*
X46835000Y71060500D01*
X46835000Y71410500D01*
X45727000Y71410500D01*
X45473000Y71410500D01*
X44365000Y71410500D01*
X17518940Y71410500D01*
X17573385Y71459851D01*
X18227412Y71868384D01*
X18943451Y72154642D01*
X19709387Y72311736D01*
X20207862Y72340000D01*
X44449984Y72340000D01*
X44413507Y72252996D01*
G37*
X44413507Y72252996D02*
X44365000Y72014500D01*
X44365000Y71664500D01*
X45473000Y71664500D01*
X45473000Y71684500D01*
X45727000Y71684500D01*
X45727000Y71664500D01*
X46835000Y71664500D01*
X46835000Y72014500D01*
X46786493Y72252996D01*
X46750016Y72340000D01*
X51449984Y72340000D01*
X51413507Y72252996D01*
X51365000Y72014500D01*
X51365000Y71664500D01*
X52473000Y71664500D01*
X52473000Y71684500D01*
X52727000Y71684500D01*
X52727000Y71664500D01*
X53835000Y71664500D01*
X53835000Y72014500D01*
X53786493Y72252996D01*
X53762118Y72311134D01*
X54148127Y72273286D01*
X54771570Y72085057D01*
X55346575Y71779322D01*
X55851245Y71367723D01*
X56266361Y70865935D01*
X56576105Y70293077D01*
X56768682Y69670961D01*
X56840000Y68992417D01*
X56840001Y4032289D01*
X56773286Y3351874D01*
X56585058Y2728433D01*
X56279320Y2153423D01*
X55867719Y1648751D01*
X55365935Y1233640D01*
X54793075Y923895D01*
X54170961Y731319D01*
X53492418Y660001D01*
X20218540Y660001D01*
X19421076Y731173D01*
X18677268Y934656D01*
X17981254Y1266637D01*
X17346294Y1722902D01*
X16987435Y2069997D01*
X3151007Y17059461D01*
X2398115Y17985584D01*
X1778219Y18981125D01*
X1397381Y19808771D01*
X5365000Y19808771D01*
X5365000Y19191229D01*
X5485476Y18585554D01*
X5721799Y18015021D01*
X6064886Y17501554D01*
X6501554Y17064886D01*
X7015021Y16721799D01*
X7585554Y16485476D01*
X8191229Y16365000D01*
X8808771Y16365000D01*
X9414446Y16485476D01*
X9984979Y16721799D01*
X10498446Y17064886D01*
X10935114Y17501554D01*
X11278201Y18015021D01*
X11514524Y18585554D01*
X11635000Y19191229D01*
X11635000Y19808771D01*
X11514524Y20414446D01*
X11278201Y20984979D01*
X10935114Y21498446D01*
X10498446Y21935114D01*
X9984979Y22278201D01*
X9414446Y22514524D01*
X8808771Y22635000D01*
X8191229Y22635000D01*
X7585554Y22514524D01*
X7015021Y22278201D01*
X6501554Y21935114D01*
X6064886Y21498446D01*
X5721799Y20984979D01*
X5485476Y20414446D01*
X5365000Y19808771D01*
X1397381Y19808771D01*
X1287986Y20046509D01*
X935145Y21164938D01*
X725009Y22320164D01*
X660002Y23429165D01*
X660002Y25151939D01*
X6065000Y25151939D01*
X6065000Y24948061D01*
X6104774Y24748102D01*
X6182795Y24559744D01*
X6296063Y24390226D01*
X6440226Y24246063D01*
X6609744Y24132795D01*
X6798102Y24054774D01*
X6998061Y24015000D01*
X7201939Y24015000D01*
X7401898Y24054774D01*
X7590256Y24132795D01*
X7759774Y24246063D01*
X7903937Y24390226D01*
X8017205Y24559744D01*
X8095226Y24748102D01*
X8135000Y24948061D01*
X8135000Y25131522D01*
X8251898Y25154774D01*
X8440256Y25232795D01*
X8609774Y25346063D01*
X8753937Y25490226D01*
X8867205Y25659744D01*
X8945226Y25848102D01*
X8985000Y26048061D01*
X8985000Y26251939D01*
X8945226Y26451898D01*
X8867205Y26640256D01*
X8753937Y26809774D01*
X8710000Y26853711D01*
X8710000Y31235199D01*
X9764802Y32290000D01*
X12596289Y32290000D01*
X12640226Y32246063D01*
X12809744Y32132795D01*
X12998102Y32054774D01*
X13198061Y32015000D01*
X13401939Y32015000D01*
X13447002Y32023964D01*
X13447002Y32016388D01*
X13447001Y32016378D01*
X13447002Y10366389D01*
X13442236Y10317999D01*
X13461254Y10124906D01*
X13517577Y9939233D01*
X13517578Y9939232D01*
X13609042Y9768115D01*
X13732132Y9618129D01*
X13769712Y9587288D01*
X15287709Y8069290D01*
X15287714Y8069286D01*
X16122570Y7234429D01*
X16132795Y7209744D01*
X16246063Y7040226D01*
X16390226Y6896063D01*
X16559744Y6782795D01*
X16748102Y6704774D01*
X16948061Y6665000D01*
X17151939Y6665000D01*
X17351898Y6704774D01*
X17540256Y6782795D01*
X17709774Y6896063D01*
X17853937Y7040226D01*
X17967205Y7209744D01*
X18045226Y7398102D01*
X18085000Y7598061D01*
X18085000Y7801939D01*
X18045226Y8001898D01*
X17967205Y8190256D01*
X17853937Y8359774D01*
X17709774Y8503937D01*
X17540256Y8617205D01*
X17515571Y8627430D01*
X16680714Y9462286D01*
X16680710Y9462291D01*
X15417001Y10725999D01*
X15417001Y17875001D01*
X16411928Y17875001D01*
X16411928Y16624999D01*
X16428992Y16451745D01*
X16479528Y16285149D01*
X16561595Y16131613D01*
X16672038Y15997038D01*
X16806613Y15886595D01*
X16960149Y15804528D01*
X17126745Y15753992D01*
X17299999Y15736928D01*
X18000001Y15736928D01*
X18173255Y15753992D01*
X18339851Y15804528D01*
X18493387Y15886595D01*
X18627962Y15997038D01*
X18738405Y16131613D01*
X18740967Y16136406D01*
X18866526Y16011922D01*
X19069467Y15877579D01*
X19294718Y15785409D01*
X19332391Y15781538D01*
X19523000Y15906269D01*
X19523000Y17123000D01*
X19777000Y17123000D01*
X19777000Y15906269D01*
X19967609Y15781538D01*
X20005282Y15785409D01*
X20230533Y15877579D01*
X20433474Y16011922D01*
X20606307Y16183275D01*
X20742390Y16385054D01*
X20836493Y16609504D01*
X20885000Y16848000D01*
X20885000Y17123000D01*
X19777000Y17123000D01*
X19523000Y17123000D01*
X19503000Y17123000D01*
X19503000Y17377000D01*
X19523000Y17377000D01*
X19523000Y18593731D01*
X19777000Y18593731D01*
X19777000Y17377000D01*
X20885000Y17377000D01*
X20885000Y17652000D01*
X20836493Y17890496D01*
X20742390Y18114946D01*
X20606307Y18316725D01*
X20433474Y18488078D01*
X20230533Y18622421D01*
X20005282Y18714591D01*
X19967609Y18718462D01*
X19777000Y18593731D01*
X19523000Y18593731D01*
X19332391Y18718462D01*
X19294718Y18714591D01*
X19069467Y18622421D01*
X18866526Y18488078D01*
X18740967Y18363594D01*
X18738405Y18368387D01*
X18627962Y18502962D01*
X18493387Y18613405D01*
X18339851Y18695472D01*
X18173255Y18746008D01*
X18000001Y18763072D01*
X17299999Y18763072D01*
X17126745Y18746008D01*
X16960149Y18695472D01*
X16806613Y18613405D01*
X16672038Y18502962D01*
X16561595Y18368387D01*
X16479528Y18214851D01*
X16428992Y18048255D01*
X16411928Y17875001D01*
X15417001Y17875001D01*
X15417001Y19808771D01*
X30365000Y19808771D01*
X30365000Y19191229D01*
X30485476Y18585554D01*
X30721799Y18015021D01*
X31064886Y17501554D01*
X31501554Y17064886D01*
X32015021Y16721799D01*
X32585554Y16485476D01*
X33191229Y16365000D01*
X33808771Y16365000D01*
X34414446Y16485476D01*
X34984979Y16721799D01*
X35498446Y17064886D01*
X35935114Y17501554D01*
X36278201Y18015021D01*
X36514524Y18585554D01*
X36635000Y19191229D01*
X36635000Y19808771D01*
X36514524Y20414446D01*
X36393471Y20706692D01*
X36398102Y20704774D01*
X36598061Y20665000D01*
X36801939Y20665000D01*
X37001898Y20704774D01*
X37190256Y20782795D01*
X37359774Y20896063D01*
X37403711Y20940000D01*
X37935199Y20940000D01*
X42836201Y16038997D01*
X42859999Y16009999D01*
X42975724Y15915026D01*
X43107753Y15844454D01*
X43251014Y15800997D01*
X43362667Y15790000D01*
X43362677Y15790000D01*
X43400000Y15786324D01*
X43437323Y15790000D01*
X46562678Y15790000D01*
X46600000Y15786324D01*
X46637322Y15790000D01*
X46637333Y15790000D01*
X46748986Y15800997D01*
X46892247Y15844454D01*
X47024276Y15915026D01*
X47140001Y16009999D01*
X47163804Y16039003D01*
X47310998Y16186197D01*
X47340001Y16209999D01*
X47434974Y16325724D01*
X47505546Y16457753D01*
X47549003Y16601014D01*
X47560000Y16712667D01*
X47560000Y16712675D01*
X47563676Y16750000D01*
X47560000Y16787325D01*
X47560000Y16846289D01*
X47603937Y16890226D01*
X47717205Y17059744D01*
X47795226Y17248102D01*
X47835000Y17448061D01*
X47835000Y17651939D01*
X47795226Y17851898D01*
X47717205Y18040256D01*
X47603937Y18209774D01*
X47459774Y18353937D01*
X47290256Y18467205D01*
X47101898Y18545226D01*
X46901939Y18585000D01*
X46698061Y18585000D01*
X46498102Y18545226D01*
X46309744Y18467205D01*
X46175000Y18377172D01*
X46040256Y18467205D01*
X45851898Y18545226D01*
X45651939Y18585000D01*
X45448061Y18585000D01*
X45248102Y18545226D01*
X45059744Y18467205D01*
X44890226Y18353937D01*
X44846289Y18310000D01*
X44064802Y18310000D01*
X41135000Y21239801D01*
X41135000Y21301939D01*
X41095226Y21501898D01*
X41017205Y21690256D01*
X40903937Y21859774D01*
X40759774Y22003937D01*
X40590256Y22117205D01*
X40401898Y22195226D01*
X40201939Y22235000D01*
X39998061Y22235000D01*
X39798102Y22195226D01*
X39609744Y22117205D01*
X39440226Y22003937D01*
X39296063Y21859774D01*
X39243577Y21781224D01*
X38813804Y22210997D01*
X38790001Y22240001D01*
X38674276Y22334974D01*
X38542247Y22405546D01*
X38398986Y22449003D01*
X38287333Y22460000D01*
X38287322Y22460000D01*
X38250000Y22463676D01*
X38212678Y22460000D01*
X37403711Y22460000D01*
X37359774Y22503937D01*
X37190256Y22617205D01*
X37001898Y22695226D01*
X36801939Y22735000D01*
X36598061Y22735000D01*
X36398102Y22695226D01*
X36209744Y22617205D01*
X36040226Y22503937D01*
X35896063Y22359774D01*
X35782795Y22190256D01*
X35704774Y22001898D01*
X35665000Y21801939D01*
X35665000Y21768560D01*
X35498446Y21935114D01*
X34984979Y22278201D01*
X34414446Y22514524D01*
X33808771Y22635000D01*
X33191229Y22635000D01*
X32585554Y22514524D01*
X32015021Y22278201D01*
X31501554Y21935114D01*
X31064886Y21498446D01*
X30721799Y20984979D01*
X30485476Y20414446D01*
X30365000Y19808771D01*
X15417001Y19808771D01*
X15417001Y30237999D01*
X15437322Y30240000D01*
X20162678Y30240000D01*
X20200000Y30236324D01*
X20237322Y30240000D01*
X20237333Y30240000D01*
X20348986Y30250997D01*
X20492247Y30294454D01*
X20624276Y30365026D01*
X20740001Y30459999D01*
X20763803Y30489002D01*
X21311002Y31036200D01*
X21340001Y31059999D01*
X21397890Y31130537D01*
X21434974Y31175723D01*
X21505546Y31307753D01*
X21508909Y31318840D01*
X21532275Y31331329D01*
X21662115Y31437885D01*
X21768671Y31567725D01*
X21847850Y31715858D01*
X21896608Y31876592D01*
X21913072Y32043750D01*
X21913072Y32481250D01*
X21896608Y32648408D01*
X21847850Y32809142D01*
X21768671Y32957275D01*
X21692574Y33050000D01*
X21768671Y33142725D01*
X21847850Y33290858D01*
X21896608Y33451592D01*
X21913072Y33618750D01*
X21913072Y34056250D01*
X21896608Y34223408D01*
X21847850Y34384142D01*
X21768671Y34532275D01*
X21662115Y34662115D01*
X21658600Y34665000D01*
X21727002Y34665000D01*
X21727002Y34823748D01*
X21885750Y34665000D01*
X22315285Y34662002D01*
X22439939Y34672366D01*
X22540000Y34701063D01*
X22540001Y25601041D01*
X22532795Y25590256D01*
X22454774Y25401898D01*
X22415000Y25201939D01*
X22415000Y24998061D01*
X22454774Y24798102D01*
X22532795Y24609744D01*
X22646063Y24440226D01*
X22790226Y24296063D01*
X22959744Y24182795D01*
X23148102Y24104774D01*
X23348061Y24065000D01*
X23551939Y24065000D01*
X23751898Y24104774D01*
X23940256Y24182795D01*
X24109774Y24296063D01*
X24253937Y24440226D01*
X24367205Y24609744D01*
X24445226Y24798102D01*
X24485000Y24998061D01*
X24485000Y25201939D01*
X24445226Y25401898D01*
X24367205Y25590256D01*
X24253937Y25759774D01*
X24109774Y25903937D01*
X24060000Y25937195D01*
X24060000Y31515199D01*
X24986201Y30588997D01*
X25009999Y30559999D01*
X25125724Y30465026D01*
X25257753Y30394454D01*
X25401014Y30350997D01*
X25512667Y30340000D01*
X25512675Y30340000D01*
X25550000Y30336324D01*
X25587325Y30340000D01*
X27323982Y30340000D01*
X27398815Y30248815D01*
X27495506Y30169463D01*
X27531918Y30150000D01*
X27495506Y30130537D01*
X27398815Y30051185D01*
X27319463Y29954494D01*
X27260498Y29844180D01*
X27224188Y29724482D01*
X27211928Y29600000D01*
X27211928Y28800000D01*
X27224188Y28675518D01*
X27260498Y28555820D01*
X27319463Y28445506D01*
X27398815Y28348815D01*
X27495506Y28269463D01*
X27502929Y28265495D01*
X27437885Y28212115D01*
X27331329Y28082275D01*
X27252150Y27934142D01*
X27203392Y27773408D01*
X27186928Y27606250D01*
X27186928Y27093750D01*
X27203392Y26926592D01*
X27252150Y26765858D01*
X27331329Y26617725D01*
X27437885Y26487885D01*
X27567725Y26381329D01*
X27715858Y26302150D01*
X27876592Y26253392D01*
X28043750Y26236928D01*
X28481250Y26236928D01*
X28648408Y26253392D01*
X28809142Y26302150D01*
X28957275Y26381329D01*
X29050000Y26457426D01*
X29142725Y26381329D01*
X29290858Y26302150D01*
X29451592Y26253392D01*
X29618750Y26236928D01*
X30056250Y26236928D01*
X30223408Y26253392D01*
X30384142Y26302150D01*
X30532275Y26381329D01*
X30662115Y26487885D01*
X30745918Y26590000D01*
X32862678Y26590000D01*
X32900000Y26586324D01*
X32937322Y26590000D01*
X32937333Y26590000D01*
X33048986Y26600997D01*
X33192247Y26644454D01*
X33324276Y26715026D01*
X33365000Y26748447D01*
X33365000Y26548061D01*
X33404774Y26348102D01*
X33482795Y26159744D01*
X33596063Y25990226D01*
X33740226Y25846063D01*
X33909744Y25732795D01*
X34098102Y25654774D01*
X34298061Y25615000D01*
X34501939Y25615000D01*
X34701898Y25654774D01*
X34777340Y25686023D01*
X34804774Y25548102D01*
X34882795Y25359744D01*
X34996063Y25190226D01*
X35140226Y25046063D01*
X35309744Y24932795D01*
X35498102Y24854774D01*
X35698061Y24815000D01*
X35901939Y24815000D01*
X36101898Y24854774D01*
X36290256Y24932795D01*
X36459774Y25046063D01*
X36603937Y25190226D01*
X36717205Y25359744D01*
X36795226Y25548102D01*
X36835000Y25748061D01*
X36835000Y25951939D01*
X36795226Y26151898D01*
X36717205Y26340256D01*
X36603937Y26509774D01*
X36560000Y26553711D01*
X36560000Y30635199D01*
X37349801Y31425000D01*
X38036928Y31425000D01*
X38040000Y31273250D01*
X38198750Y31114500D01*
X39023000Y31114500D01*
X39023000Y31901250D01*
X38864250Y32060000D01*
X38675000Y32063072D01*
X38550518Y32050812D01*
X38430820Y32014502D01*
X38320506Y31955537D01*
X38223815Y31876185D01*
X38144463Y31779494D01*
X38085498Y31669180D01*
X38049188Y31549482D01*
X38036928Y31425000D01*
X37349801Y31425000D01*
X38164802Y32240000D01*
X40004082Y32240000D01*
X40087885Y32137885D01*
X40133208Y32100690D01*
X40095506Y32080537D01*
X39998815Y32001185D01*
X39966884Y31962277D01*
X39869180Y32014502D01*
X39749482Y32050812D01*
X39625000Y32063072D01*
X39435750Y32060000D01*
X39277000Y31901250D01*
X39277000Y31114500D01*
X39297000Y31114500D01*
X39297000Y30860500D01*
X39277000Y30860500D01*
X39277000Y30840500D01*
X39023000Y30840500D01*
X39023000Y30860500D01*
X38198750Y30860500D01*
X38040000Y30701750D01*
X38036928Y30550000D01*
X38049188Y30425518D01*
X38085498Y30305820D01*
X38144463Y30195506D01*
X38199100Y30128930D01*
X38181329Y30107275D01*
X38102150Y29959142D01*
X38053392Y29798408D01*
X38036928Y29631250D01*
X38036928Y29193750D01*
X38053392Y29026592D01*
X38102150Y28865858D01*
X38181329Y28717725D01*
X38287885Y28587885D01*
X38417725Y28481329D01*
X38565858Y28402150D01*
X38726592Y28353392D01*
X38893750Y28336928D01*
X39406250Y28336928D01*
X39573408Y28353392D01*
X39734142Y28402150D01*
X39882275Y28481329D01*
X39892841Y28490000D01*
X39923982Y28490000D01*
X39998815Y28398815D01*
X40095506Y28319463D01*
X40133208Y28299310D01*
X40087885Y28262115D01*
X39981329Y28132275D01*
X39902150Y27984142D01*
X39853392Y27823408D01*
X39836928Y27656250D01*
X39836928Y27143750D01*
X39853392Y26976592D01*
X39902150Y26815858D01*
X39981329Y26667725D01*
X40087885Y26537885D01*
X40217725Y26431329D01*
X40365858Y26352150D01*
X40526592Y26303392D01*
X40693750Y26286928D01*
X41131250Y26286928D01*
X41298408Y26303392D01*
X41459142Y26352150D01*
X41607275Y26431329D01*
X41700000Y26507426D01*
X41792725Y26431329D01*
X41940858Y26352150D01*
X42101592Y26303392D01*
X42268750Y26286928D01*
X42706250Y26286928D01*
X42873408Y26303392D01*
X43034142Y26352150D01*
X43182275Y26431329D01*
X43312115Y26537885D01*
X43418671Y26667725D01*
X43497850Y26815858D01*
X43546608Y26976592D01*
X43563072Y27143750D01*
X43563072Y27656250D01*
X43546608Y27823408D01*
X43497850Y27984142D01*
X43418671Y28132275D01*
X43312115Y28262115D01*
X43247500Y28315143D01*
X43247500Y28475175D01*
X43251176Y28512500D01*
X43247500Y28549825D01*
X43247500Y28549833D01*
X43236503Y28661486D01*
X43193046Y28804747D01*
X43122474Y28936776D01*
X43027501Y29052501D01*
X42998502Y29076300D01*
X42912874Y29161928D01*
X43350000Y29161928D01*
X43474482Y29174188D01*
X43594180Y29210498D01*
X43704494Y29269463D01*
X43801185Y29348815D01*
X43876018Y29440000D01*
X50285199Y29440000D01*
X52615000Y27110198D01*
X52615000Y27048061D01*
X52654774Y26848102D01*
X52732795Y26659744D01*
X52846063Y26490226D01*
X52990226Y26346063D01*
X53159744Y26232795D01*
X53348102Y26154774D01*
X53548061Y26115000D01*
X53751939Y26115000D01*
X53951898Y26154774D01*
X54140256Y26232795D01*
X54309774Y26346063D01*
X54453937Y26490226D01*
X54567205Y26659744D01*
X54645226Y26848102D01*
X54685000Y27048061D01*
X54685000Y27251939D01*
X54645226Y27451898D01*
X54567205Y27640256D01*
X54453937Y27809774D01*
X54309774Y27953937D01*
X54140256Y28067205D01*
X53951898Y28145226D01*
X53751939Y28185000D01*
X53689802Y28185000D01*
X51163804Y30710997D01*
X51140001Y30740001D01*
X51024276Y30834974D01*
X50892247Y30905546D01*
X50748986Y30949003D01*
X50637333Y30960000D01*
X50637322Y30960000D01*
X50600000Y30963676D01*
X50562678Y30960000D01*
X43876018Y30960000D01*
X43801185Y31051185D01*
X43704494Y31130537D01*
X43594180Y31189502D01*
X43474482Y31225812D01*
X43350000Y31238072D01*
X43212874Y31238072D01*
X43414802Y31440000D01*
X43546289Y31440000D01*
X43590226Y31396063D01*
X43759744Y31282795D01*
X43948102Y31204774D01*
X44148061Y31165000D01*
X44351939Y31165000D01*
X44551898Y31204774D01*
X44740256Y31282795D01*
X44909774Y31396063D01*
X45053937Y31540226D01*
X45167205Y31709744D01*
X45245226Y31898102D01*
X45285000Y32098061D01*
X45285000Y32240000D01*
X45612678Y32240000D01*
X45650000Y32236324D01*
X45687322Y32240000D01*
X45687333Y32240000D01*
X45798986Y32250997D01*
X45942247Y32294454D01*
X46074276Y32365026D01*
X46135170Y32415000D01*
X46201939Y32415000D01*
X46401898Y32454774D01*
X46590256Y32532795D01*
X46759774Y32646063D01*
X46903937Y32790226D01*
X47017205Y32959744D01*
X47095226Y33148102D01*
X47135000Y33348061D01*
X47135000Y33551939D01*
X47095226Y33751898D01*
X47017205Y33940256D01*
X46903937Y34109774D01*
X46759774Y34253937D01*
X46590256Y34367205D01*
X46401898Y34445226D01*
X46201939Y34485000D01*
X45998061Y34485000D01*
X45798102Y34445226D01*
X45753391Y34426706D01*
X45763072Y34525000D01*
X45760000Y34676750D01*
X45601250Y34835500D01*
X44777000Y34835500D01*
X44777000Y34048750D01*
X44935750Y33890000D01*
X45125000Y33886928D01*
X45162224Y33890594D01*
X45108130Y33760000D01*
X43395918Y33760000D01*
X43391020Y33765968D01*
X43474482Y33774188D01*
X43594180Y33810498D01*
X43704494Y33869463D01*
X43801185Y33948815D01*
X43833116Y33987723D01*
X43930820Y33935498D01*
X44050518Y33899188D01*
X44175000Y33886928D01*
X44364250Y33890000D01*
X44523000Y34048750D01*
X44523000Y34835500D01*
X44503000Y34835500D01*
X44503000Y35089500D01*
X44523000Y35089500D01*
X44523000Y35109500D01*
X44777000Y35109500D01*
X44777000Y35089500D01*
X45601250Y35089500D01*
X45760000Y35248250D01*
X45763072Y35400000D01*
X45750812Y35524482D01*
X45714502Y35644180D01*
X45655537Y35754494D01*
X45600900Y35821070D01*
X45618671Y35842725D01*
X45697850Y35990858D01*
X45746608Y36151592D01*
X45763072Y36318750D01*
X45763072Y36756250D01*
X45746608Y36923408D01*
X45697850Y37084142D01*
X45618671Y37232275D01*
X45512115Y37362115D01*
X45382275Y37468671D01*
X45234142Y37547850D01*
X45073408Y37596608D01*
X44906250Y37613072D01*
X44393750Y37613072D01*
X44226592Y37596608D01*
X44065858Y37547850D01*
X43917725Y37468671D01*
X43907159Y37460000D01*
X43876018Y37460000D01*
X43801185Y37551185D01*
X43704494Y37630537D01*
X43660000Y37654320D01*
X43660000Y38000175D01*
X43663676Y38037500D01*
X43660000Y38074825D01*
X43660000Y38074833D01*
X43649003Y38186486D01*
X43605546Y38329747D01*
X43534974Y38461776D01*
X43513072Y38488464D01*
X43513072Y38756250D01*
X43496608Y38923408D01*
X43447850Y39084142D01*
X43368671Y39232275D01*
X43262115Y39362115D01*
X43246414Y39375000D01*
X43262115Y39387885D01*
X43368671Y39517725D01*
X43447850Y39665858D01*
X43496608Y39826592D01*
X43513072Y39993750D01*
X43513072Y40506250D01*
X43496608Y40673408D01*
X43447850Y40834142D01*
X43368671Y40982275D01*
X43262115Y41112115D01*
X43197500Y41165143D01*
X43197500Y41175167D01*
X43201177Y41212500D01*
X43186503Y41361486D01*
X43143046Y41504747D01*
X43072474Y41636776D01*
X43001299Y41723503D01*
X42977501Y41752501D01*
X42948504Y41776298D01*
X42712874Y42011928D01*
X43300000Y42011928D01*
X43424482Y42024188D01*
X43544180Y42060498D01*
X43654494Y42119463D01*
X43751185Y42198815D01*
X43830537Y42295506D01*
X43889502Y42405820D01*
X43925812Y42525518D01*
X43938072Y42650000D01*
X43938072Y43450000D01*
X43925812Y43574482D01*
X43889502Y43694180D01*
X43830537Y43804494D01*
X43751185Y43901185D01*
X43722167Y43925000D01*
X47486807Y43925000D01*
X47490000Y43892581D01*
X47490001Y39007429D01*
X47486807Y38975000D01*
X47499550Y38845617D01*
X47537290Y38721207D01*
X47598575Y38606550D01*
X47681052Y38506052D01*
X47781550Y38423575D01*
X47896207Y38362290D01*
X48020617Y38324550D01*
X48117581Y38315000D01*
X48150000Y38311807D01*
X48182419Y38315000D01*
X50267581Y38315000D01*
X50300000Y38311807D01*
X50332419Y38315000D01*
X50429383Y38324550D01*
X50553793Y38362290D01*
X50668450Y38423575D01*
X50768948Y38506052D01*
X50851425Y38606550D01*
X50912710Y38721207D01*
X50950450Y38845617D01*
X50963193Y38975000D01*
X50960000Y39007419D01*
X50960000Y43892581D01*
X50963193Y43925000D01*
X50950450Y44054383D01*
X50912710Y44178793D01*
X50851425Y44293450D01*
X50768948Y44393948D01*
X50668450Y44476425D01*
X50553793Y44537710D01*
X50429383Y44575450D01*
X50332419Y44585000D01*
X50300000Y44588193D01*
X50267581Y44585000D01*
X48182419Y44585000D01*
X48150000Y44588193D01*
X48117581Y44585000D01*
X48020617Y44575450D01*
X47896207Y44537710D01*
X47781550Y44476425D01*
X47681052Y44393948D01*
X47598575Y44293450D01*
X47537290Y44178793D01*
X47499550Y44054383D01*
X47486807Y43925000D01*
X43722167Y43925000D01*
X43654494Y43980537D01*
X43544180Y44039502D01*
X43424482Y44075812D01*
X43300000Y44088072D01*
X43160000Y44088072D01*
X43160000Y46496289D01*
X43203937Y46540226D01*
X43317205Y46709744D01*
X43395226Y46898102D01*
X43435000Y47098061D01*
X43435000Y47301939D01*
X43395226Y47501898D01*
X43367742Y47568250D01*
X44265000Y47568250D01*
X44270952Y47493066D01*
X44303901Y47372400D01*
X44359757Y47260480D01*
X44436375Y47161608D01*
X44530810Y47079583D01*
X44639432Y47017557D01*
X44758068Y46977914D01*
X44868250Y46965000D01*
X45027000Y47123750D01*
X45027000Y47727000D01*
X45273000Y47727000D01*
X45273000Y47123750D01*
X45431750Y46965000D01*
X45541932Y46977914D01*
X45660568Y47017557D01*
X45769190Y47079583D01*
X45863625Y47161608D01*
X45940243Y47260480D01*
X45996099Y47372400D01*
X46029048Y47493066D01*
X46035000Y47568250D01*
X45876250Y47727000D01*
X45273000Y47727000D01*
X45027000Y47727000D01*
X44423750Y47727000D01*
X44265000Y47568250D01*
X43367742Y47568250D01*
X43317205Y47690256D01*
X43203937Y47859774D01*
X43059774Y48003937D01*
X42890256Y48117205D01*
X42855142Y48131750D01*
X44265000Y48131750D01*
X44423750Y47973000D01*
X45027000Y47973000D01*
X45027000Y48576250D01*
X45273000Y48576250D01*
X45273000Y47973000D01*
X45876250Y47973000D01*
X46035000Y48131750D01*
X46029048Y48206934D01*
X45996099Y48327600D01*
X45940243Y48439520D01*
X45863625Y48538392D01*
X45769190Y48620417D01*
X45660568Y48682443D01*
X45541932Y48722086D01*
X45431750Y48735000D01*
X45273000Y48576250D01*
X45027000Y48576250D01*
X44868250Y48735000D01*
X44758068Y48722086D01*
X44639432Y48682443D01*
X44530810Y48620417D01*
X44436375Y48538392D01*
X44359757Y48439520D01*
X44303901Y48327600D01*
X44270952Y48206934D01*
X44265000Y48131750D01*
X42855142Y48131750D01*
X42701898Y48195226D01*
X42501939Y48235000D01*
X42298061Y48235000D01*
X42098102Y48195226D01*
X41909744Y48117205D01*
X41740226Y48003937D01*
X41596063Y47859774D01*
X41482795Y47690256D01*
X41404774Y47501898D01*
X41365000Y47301939D01*
X41365000Y47098061D01*
X41404774Y46898102D01*
X41482795Y46709744D01*
X41596063Y46540226D01*
X41640000Y46496289D01*
X41640001Y44938284D01*
X41544180Y44989502D01*
X41424482Y45025812D01*
X41300000Y45038072D01*
X41135750Y45035000D01*
X40977000Y44876250D01*
X40977000Y44127000D01*
X40997000Y44127000D01*
X40997000Y43873000D01*
X40977000Y43873000D01*
X40977000Y43853000D01*
X40723000Y43853000D01*
X40723000Y43873000D01*
X40703000Y43873000D01*
X40703000Y44127000D01*
X40723000Y44127000D01*
X40723000Y44876250D01*
X40564250Y45035000D01*
X40400000Y45038072D01*
X40275518Y45025812D01*
X40155820Y44989502D01*
X40045506Y44930537D01*
X39948815Y44851185D01*
X39916884Y44812277D01*
X39819180Y44864502D01*
X39699482Y44900812D01*
X39575000Y44913072D01*
X39385750Y44910000D01*
X39227000Y44751250D01*
X39227000Y43964500D01*
X39247000Y43964500D01*
X39247000Y43710500D01*
X39227000Y43710500D01*
X39227000Y43690500D01*
X38973000Y43690500D01*
X38973000Y43710500D01*
X38148750Y43710500D01*
X37990000Y43551750D01*
X37986928Y43400000D01*
X37999188Y43275518D01*
X38035498Y43155820D01*
X38094463Y43045506D01*
X38149100Y42978930D01*
X38131329Y42957275D01*
X38052150Y42809142D01*
X38003392Y42648408D01*
X37986928Y42481250D01*
X37986928Y42043750D01*
X38003392Y41876592D01*
X38052150Y41715858D01*
X38131329Y41567725D01*
X38237885Y41437885D01*
X38367725Y41331329D01*
X38515858Y41252150D01*
X38676592Y41203392D01*
X38843750Y41186928D01*
X39356250Y41186928D01*
X39523408Y41203392D01*
X39684142Y41252150D01*
X39832275Y41331329D01*
X39842841Y41340000D01*
X39873982Y41340000D01*
X39948815Y41248815D01*
X40045506Y41169463D01*
X40083208Y41149310D01*
X40037885Y41112115D01*
X39954082Y41010000D01*
X38787333Y41010000D01*
X38750000Y41013677D01*
X38712667Y41010000D01*
X38601014Y40999003D01*
X38457753Y40955546D01*
X38325724Y40884974D01*
X38209999Y40790001D01*
X38186201Y40761003D01*
X34589003Y37163804D01*
X34559999Y37140001D01*
X34514840Y37084974D01*
X34465026Y37024276D01*
X34411916Y36924914D01*
X34397500Y36897945D01*
X34397500Y37584857D01*
X34462115Y37637885D01*
X34543432Y37736971D01*
X34550000Y37736324D01*
X34587322Y37740000D01*
X34587333Y37740000D01*
X34698986Y37750997D01*
X34842247Y37794454D01*
X34974276Y37865026D01*
X35090001Y37959999D01*
X35113803Y37989002D01*
X35661004Y38536202D01*
X35690001Y38559999D01*
X35724420Y38601939D01*
X35784974Y38675723D01*
X35855546Y38807753D01*
X35876164Y38875724D01*
X35899003Y38951014D01*
X35910000Y39062667D01*
X35910000Y39062676D01*
X35913676Y39099999D01*
X35910000Y39137322D01*
X35910000Y44275000D01*
X37986928Y44275000D01*
X37990000Y44123250D01*
X38148750Y43964500D01*
X38973000Y43964500D01*
X38973000Y44751250D01*
X38814250Y44910000D01*
X38625000Y44913072D01*
X38500518Y44900812D01*
X38380820Y44864502D01*
X38270506Y44805537D01*
X38173815Y44726185D01*
X38094463Y44629494D01*
X38035498Y44519180D01*
X37999188Y44399482D01*
X37986928Y44275000D01*
X35910000Y44275000D01*
X35910000Y45362678D01*
X35913676Y45400001D01*
X35910000Y45437324D01*
X35910000Y45437333D01*
X35899003Y45548986D01*
X35855546Y45692247D01*
X35830557Y45738997D01*
X35784974Y45824277D01*
X35733224Y45887333D01*
X35690001Y45940001D01*
X35660997Y45963804D01*
X35263804Y46360997D01*
X35240001Y46390001D01*
X35124276Y46484974D01*
X34992247Y46555546D01*
X34848986Y46599003D01*
X34737333Y46610000D01*
X34737322Y46610000D01*
X34700000Y46613676D01*
X34662678Y46610000D01*
X34545918Y46610000D01*
X34465669Y46707784D01*
X34567205Y46859744D01*
X34645226Y47048102D01*
X34685000Y47248061D01*
X34685000Y47451939D01*
X34645226Y47651898D01*
X34567205Y47840256D01*
X34453937Y48009774D01*
X34309774Y48153937D01*
X34140256Y48267205D01*
X33951898Y48345226D01*
X33751939Y48385000D01*
X33548061Y48385000D01*
X33348102Y48345226D01*
X33159744Y48267205D01*
X32990226Y48153937D01*
X32846063Y48009774D01*
X32732795Y47840256D01*
X32654774Y47651898D01*
X32615000Y47451939D01*
X32615000Y47248061D01*
X32654774Y47048102D01*
X32732795Y46859744D01*
X32763838Y46813285D01*
X32757275Y46818671D01*
X32609142Y46897850D01*
X32448408Y46946608D01*
X32281250Y46963072D01*
X31843750Y46963072D01*
X31676592Y46946608D01*
X31515858Y46897850D01*
X31367725Y46818671D01*
X31237885Y46712115D01*
X31131329Y46582275D01*
X31052150Y46434142D01*
X31003392Y46273408D01*
X30986928Y46106250D01*
X30986928Y45593750D01*
X31003392Y45426592D01*
X31052150Y45265858D01*
X31131329Y45117725D01*
X31237885Y44987885D01*
X31253586Y44975000D01*
X31237885Y44962115D01*
X31154082Y44860000D01*
X31140444Y44860000D01*
X31054494Y44930537D01*
X30944180Y44989502D01*
X30824482Y45025812D01*
X30703055Y45037771D01*
X30768671Y45117725D01*
X30847850Y45265858D01*
X30896608Y45426592D01*
X30913072Y45593750D01*
X30913072Y46106250D01*
X30896608Y46273408D01*
X30847850Y46434142D01*
X30768671Y46582275D01*
X30668295Y46704584D01*
X30803937Y46840226D01*
X30917205Y47009744D01*
X30995226Y47198102D01*
X31035000Y47398061D01*
X31035000Y47601939D01*
X30995226Y47801898D01*
X30917205Y47990256D01*
X30835000Y48113285D01*
X30835000Y49375000D01*
X44386928Y49375000D01*
X44399188Y49250518D01*
X44435498Y49130820D01*
X44494463Y49020506D01*
X44573815Y48923815D01*
X44670506Y48844463D01*
X44780820Y48785498D01*
X44900518Y48749188D01*
X45025000Y48736928D01*
X45176750Y48740000D01*
X45335500Y48898750D01*
X45335500Y49723000D01*
X44548750Y49723000D01*
X44390000Y49564250D01*
X44386928Y49375000D01*
X30835000Y49375000D01*
X30835000Y51895603D01*
X31064886Y51551554D01*
X31501554Y51114886D01*
X32015021Y50771799D01*
X32585554Y50535476D01*
X33191229Y50415000D01*
X33808771Y50415000D01*
X34414446Y50535476D01*
X34984979Y50771799D01*
X35498446Y51114886D01*
X35508560Y51125000D01*
X44386928Y51125000D01*
X44399188Y51000518D01*
X44435498Y50880820D01*
X44494463Y50770506D01*
X44531809Y50725000D01*
X44494463Y50679494D01*
X44435498Y50569180D01*
X44399188Y50449482D01*
X44386928Y50325000D01*
X44390000Y50135750D01*
X44548750Y49977000D01*
X45335500Y49977000D01*
X45335500Y51473000D01*
X44548750Y51473000D01*
X44390000Y51314250D01*
X44386928Y51125000D01*
X35508560Y51125000D01*
X35935114Y51551554D01*
X36278201Y52065021D01*
X36514524Y52635554D01*
X36562152Y52875000D01*
X43586928Y52875000D01*
X43599188Y52750518D01*
X43635498Y52630820D01*
X43694463Y52520506D01*
X43773815Y52423815D01*
X43870506Y52344463D01*
X43980820Y52285498D01*
X44100518Y52249188D01*
X44225000Y52236928D01*
X44411058Y52238613D01*
X44399188Y52199482D01*
X44386928Y52075000D01*
X44390000Y51885750D01*
X44548750Y51727000D01*
X45335500Y51727000D01*
X45335500Y51747000D01*
X45589500Y51747000D01*
X45589500Y51727000D01*
X45609500Y51727000D01*
X45609500Y51473000D01*
X45589500Y51473000D01*
X45589500Y49977000D01*
X45609500Y49977000D01*
X45609500Y49723000D01*
X45589500Y49723000D01*
X45589500Y48898750D01*
X45748250Y48740000D01*
X45900000Y48736928D01*
X46024482Y48749188D01*
X46144180Y48785498D01*
X46254494Y48844463D01*
X46277501Y48863344D01*
X46277501Y48749832D01*
X46273824Y48712500D01*
X46277501Y48675167D01*
X46288498Y48563514D01*
X46301680Y48520058D01*
X46331954Y48420254D01*
X46402526Y48288224D01*
X46469240Y48206934D01*
X46472115Y48203431D01*
X46461928Y48100000D01*
X46461928Y47600000D01*
X46474188Y47475518D01*
X46510498Y47355820D01*
X46569463Y47245506D01*
X46648815Y47148815D01*
X46745506Y47069463D01*
X46855820Y47010498D01*
X46975518Y46974188D01*
X47100000Y46961928D01*
X47600000Y46961928D01*
X47724482Y46974188D01*
X47844180Y47010498D01*
X47954494Y47069463D01*
X48051185Y47148815D01*
X48130537Y47245506D01*
X48189502Y47355820D01*
X48225812Y47475518D01*
X48238072Y47600000D01*
X48238072Y48100000D01*
X48225812Y48224482D01*
X48189502Y48344180D01*
X48130537Y48454494D01*
X48105278Y48485272D01*
X48099003Y48548986D01*
X48055546Y48692247D01*
X47984974Y48824276D01*
X47890001Y48940001D01*
X47860997Y48963804D01*
X47848275Y48976526D01*
X47862115Y48987885D01*
X47968671Y49117725D01*
X48047850Y49265858D01*
X48096608Y49426592D01*
X48113072Y49593750D01*
X48113072Y50106250D01*
X48096608Y50273408D01*
X48047850Y50434142D01*
X48022500Y50481568D01*
X48022500Y50968432D01*
X48047850Y51015858D01*
X48096608Y51176592D01*
X48113072Y51343750D01*
X48113072Y51423993D01*
X48245049Y51555970D01*
X48278817Y51583683D01*
X48341449Y51659999D01*
X48389411Y51718441D01*
X48457371Y51845587D01*
X48471589Y51872187D01*
X48522195Y52039010D01*
X48535000Y52169023D01*
X48535000Y52169031D01*
X48539281Y52212500D01*
X48535000Y52255969D01*
X48535000Y52400230D01*
X48652962Y52497038D01*
X48693013Y52545841D01*
X48848061Y52515000D01*
X49051939Y52515000D01*
X49251898Y52554774D01*
X49440256Y52632795D01*
X49609774Y52746063D01*
X49753937Y52890226D01*
X49867205Y53059744D01*
X49945226Y53248102D01*
X49985000Y53448061D01*
X49985000Y53651939D01*
X49945226Y53851898D01*
X49867205Y54040256D01*
X49753937Y54209774D01*
X49609774Y54353937D01*
X49440256Y54467205D01*
X49251898Y54545226D01*
X49051939Y54585000D01*
X48884861Y54585000D01*
X48845472Y54714850D01*
X48763405Y54868386D01*
X48652962Y55002962D01*
X48518386Y55113405D01*
X48364850Y55195472D01*
X48198254Y55246008D01*
X48025000Y55263072D01*
X47275000Y55263072D01*
X47101746Y55246008D01*
X46935150Y55195472D01*
X46781614Y55113405D01*
X46647038Y55002962D01*
X46536595Y54868386D01*
X46454528Y54714850D01*
X46403992Y54548254D01*
X46386928Y54375000D01*
X46386928Y53125000D01*
X46403992Y52951746D01*
X46454528Y52785150D01*
X46522746Y52657523D01*
X46490858Y52647850D01*
X46342725Y52568671D01*
X46321070Y52550900D01*
X46254494Y52605537D01*
X46144180Y52664502D01*
X46080572Y52683797D01*
X46100812Y52750518D01*
X46113072Y52875000D01*
X46110000Y53464250D01*
X45951250Y53623000D01*
X44977000Y53623000D01*
X44977000Y53603000D01*
X44723000Y53603000D01*
X44723000Y53623000D01*
X43748750Y53623000D01*
X43590000Y53464250D01*
X43586928Y52875000D01*
X36562152Y52875000D01*
X36635000Y53241229D01*
X36635000Y53858771D01*
X36514524Y54464446D01*
X36448021Y54625000D01*
X43586928Y54625000D01*
X43590000Y54035750D01*
X43748750Y53877000D01*
X44723000Y53877000D01*
X44723000Y55101250D01*
X44977000Y55101250D01*
X44977000Y53877000D01*
X45951250Y53877000D01*
X46110000Y54035750D01*
X46113072Y54625000D01*
X46100812Y54749482D01*
X46064502Y54869180D01*
X46005537Y54979494D01*
X45926185Y55076185D01*
X45829494Y55155537D01*
X45719180Y55214502D01*
X45599482Y55250812D01*
X45475000Y55263072D01*
X45135750Y55260000D01*
X44977000Y55101250D01*
X44723000Y55101250D01*
X44564250Y55260000D01*
X44225000Y55263072D01*
X44100518Y55250812D01*
X43980820Y55214502D01*
X43870506Y55155537D01*
X43773815Y55076185D01*
X43694463Y54979494D01*
X43635498Y54869180D01*
X43599188Y54749482D01*
X43586928Y54625000D01*
X36448021Y54625000D01*
X36278201Y55034979D01*
X35935114Y55548446D01*
X35498446Y55985114D01*
X34984979Y56328201D01*
X34594362Y56490000D01*
X47785199Y56490000D01*
X50965000Y53310198D01*
X50965000Y53248061D01*
X51004774Y53048102D01*
X51082795Y52859744D01*
X51196063Y52690226D01*
X51340226Y52546063D01*
X51509744Y52432795D01*
X51698102Y52354774D01*
X51898061Y52315000D01*
X52101939Y52315000D01*
X52301898Y52354774D01*
X52490256Y52432795D01*
X52659774Y52546063D01*
X52803937Y52690226D01*
X52917205Y52859744D01*
X52995226Y53048102D01*
X53028605Y53215912D01*
X54357997Y53215912D01*
X54401934Y53171975D01*
X54571452Y53058707D01*
X54759810Y52980686D01*
X54959769Y52940912D01*
X55163647Y52940912D01*
X55363606Y52980686D01*
X55551964Y53058707D01*
X55721482Y53171975D01*
X55865645Y53316138D01*
X55978913Y53485656D01*
X56056934Y53674014D01*
X56096708Y53873973D01*
X56096708Y54077851D01*
X56056934Y54277810D01*
X55978913Y54466168D01*
X55865645Y54635686D01*
X55721482Y54779849D01*
X55551964Y54893117D01*
X55363606Y54971138D01*
X55163647Y55010912D01*
X54959769Y55010912D01*
X54759810Y54971138D01*
X54571452Y54893117D01*
X54401934Y54779849D01*
X54357997Y54735912D01*
X52888891Y54735912D01*
X50034801Y57590000D01*
X52635199Y57590000D01*
X53565000Y56660198D01*
X53565000Y56598061D01*
X53604774Y56398102D01*
X53682795Y56209744D01*
X53796063Y56040226D01*
X53940226Y55896063D01*
X54109744Y55782795D01*
X54298102Y55704774D01*
X54498061Y55665000D01*
X54701939Y55665000D01*
X54901898Y55704774D01*
X55090256Y55782795D01*
X55259774Y55896063D01*
X55403937Y56040226D01*
X55517205Y56209744D01*
X55595226Y56398102D01*
X55635000Y56598061D01*
X55635000Y56801939D01*
X55595226Y57001898D01*
X55517205Y57190256D01*
X55403937Y57359774D01*
X55259774Y57503937D01*
X55090256Y57617205D01*
X54901898Y57695226D01*
X54701939Y57735000D01*
X54639802Y57735000D01*
X53513803Y58860998D01*
X53490001Y58890001D01*
X53374276Y58984974D01*
X53242247Y59055546D01*
X53098986Y59099003D01*
X52987333Y59110000D01*
X52987322Y59110000D01*
X52950000Y59113676D01*
X52912678Y59110000D01*
X40966501Y59110000D01*
X43211003Y61354501D01*
X43240001Y61378299D01*
X43334974Y61494024D01*
X43405546Y61626053D01*
X43449003Y61769314D01*
X43452216Y61801939D01*
X43715000Y61801939D01*
X43715000Y61598061D01*
X43754774Y61398102D01*
X43832795Y61209744D01*
X43946063Y61040226D01*
X44090226Y60896063D01*
X44259744Y60782795D01*
X44448102Y60704774D01*
X44648061Y60665000D01*
X44851939Y60665000D01*
X45051898Y60704774D01*
X45240256Y60782795D01*
X45409774Y60896063D01*
X45553937Y61040226D01*
X45667205Y61209744D01*
X45745226Y61398102D01*
X45778424Y61565000D01*
X54536715Y61565000D01*
X54659744Y61482795D01*
X54848102Y61404774D01*
X55048061Y61365000D01*
X55251939Y61365000D01*
X55451898Y61404774D01*
X55640256Y61482795D01*
X55809774Y61596063D01*
X55953937Y61740226D01*
X56067205Y61909744D01*
X56145226Y62098102D01*
X56185000Y62298061D01*
X56185000Y62501939D01*
X56145226Y62701898D01*
X56067205Y62890256D01*
X55953937Y63059774D01*
X55809774Y63203937D01*
X55640256Y63317205D01*
X55451898Y63395226D01*
X55251939Y63435000D01*
X55048061Y63435000D01*
X54848102Y63395226D01*
X54659744Y63317205D01*
X54536715Y63235000D01*
X45041007Y63235000D01*
X44999999Y63239039D01*
X44958991Y63235000D01*
X44958981Y63235000D01*
X44836311Y63222918D01*
X44678913Y63175172D01*
X44533854Y63097636D01*
X44406709Y62993291D01*
X44380554Y62961421D01*
X44188579Y62769446D01*
X44156709Y62743291D01*
X44072127Y62640226D01*
X44052364Y62616145D01*
X43974828Y62471086D01*
X43936904Y62346066D01*
X43832795Y62190256D01*
X43754774Y62001898D01*
X43715000Y61801939D01*
X43452216Y61801939D01*
X43460000Y61880967D01*
X43460000Y61880976D01*
X43463676Y61918299D01*
X43460000Y61955622D01*
X43460000Y62596289D01*
X43503937Y62640226D01*
X43617205Y62809744D01*
X43695226Y62998102D01*
X43735000Y63198061D01*
X43735000Y63401939D01*
X43695226Y63601898D01*
X43617205Y63790256D01*
X43503937Y63959774D01*
X43359774Y64103937D01*
X43190256Y64217205D01*
X43001898Y64295226D01*
X42801939Y64335000D01*
X42598061Y64335000D01*
X42398102Y64295226D01*
X42209744Y64217205D01*
X42040226Y64103937D01*
X41896063Y63959774D01*
X41782795Y63790256D01*
X41704774Y63601898D01*
X41665000Y63401939D01*
X41665000Y63198061D01*
X41704774Y62998102D01*
X41782795Y62809744D01*
X41896063Y62640226D01*
X41940001Y62596288D01*
X41940001Y62233103D01*
X39816909Y60110010D01*
X39754771Y60110010D01*
X39554812Y60070236D01*
X39366454Y59992215D01*
X39196936Y59878947D01*
X39052773Y59734784D01*
X38939505Y59565266D01*
X38861484Y59376908D01*
X38821710Y59176949D01*
X38821710Y59110000D01*
X31687195Y59110000D01*
X31653937Y59159774D01*
X31509774Y59303937D01*
X31340256Y59417205D01*
X31151898Y59495226D01*
X30951939Y59535000D01*
X30748061Y59535000D01*
X30548102Y59495226D01*
X30359744Y59417205D01*
X30190226Y59303937D01*
X30046063Y59159774D01*
X29932795Y58990256D01*
X29854774Y58801898D01*
X29815000Y58601939D01*
X29815000Y58510000D01*
X26684802Y58510000D01*
X28164802Y59990000D01*
X33496289Y59990000D01*
X33540226Y59946063D01*
X33709744Y59832795D01*
X33898102Y59754774D01*
X34098061Y59715000D01*
X34301939Y59715000D01*
X34501898Y59754774D01*
X34690256Y59832795D01*
X34859774Y59946063D01*
X35003937Y60090226D01*
X35117205Y60259744D01*
X35195226Y60448102D01*
X35235000Y60648061D01*
X35235000Y60851939D01*
X35195226Y61051898D01*
X35117205Y61240256D01*
X35003937Y61409774D01*
X34859774Y61553937D01*
X34690256Y61667205D01*
X34501898Y61745226D01*
X34301939Y61785000D01*
X34098061Y61785000D01*
X33898102Y61745226D01*
X33709744Y61667205D01*
X33540226Y61553937D01*
X33496289Y61510000D01*
X27887323Y61510000D01*
X27850000Y61513676D01*
X27812677Y61510000D01*
X27812667Y61510000D01*
X27701014Y61499003D01*
X27557753Y61455546D01*
X27425723Y61384974D01*
X27355182Y61327082D01*
X27309999Y61290001D01*
X27286201Y61261003D01*
X18788998Y52763799D01*
X18760000Y52740001D01*
X18736202Y52711003D01*
X18736201Y52711002D01*
X18665026Y52624276D01*
X18594454Y52492246D01*
X18575787Y52430707D01*
X18550998Y52348986D01*
X18544745Y52285498D01*
X18536324Y52200000D01*
X18540001Y52162668D01*
X18540000Y46564802D01*
X15417001Y43441802D01*
X15417001Y54509999D01*
X25322003Y64415000D01*
X34273414Y64415000D01*
X34298102Y64404774D01*
X34498061Y64365000D01*
X34701939Y64365000D01*
X34901898Y64404774D01*
X35090256Y64482795D01*
X35259774Y64596063D01*
X35403937Y64740226D01*
X35517205Y64909744D01*
X35595226Y65098102D01*
X35635000Y65298061D01*
X35635000Y65501939D01*
X35595226Y65701898D01*
X35517205Y65890256D01*
X35403937Y66059774D01*
X35259774Y66203937D01*
X35090256Y66317205D01*
X34901898Y66395226D01*
X34701939Y66435000D01*
X34498061Y66435000D01*
X34298102Y66395226D01*
X34273414Y66385000D01*
X24962382Y66385000D01*
X24914002Y66389765D01*
X24865622Y66385000D01*
X24720908Y66370747D01*
X24535235Y66314424D01*
X24364118Y66222960D01*
X24214132Y66099870D01*
X24183291Y66062290D01*
X13769717Y55648715D01*
X13732131Y55617869D01*
X13609041Y55467883D01*
X13527902Y55316081D01*
X13517577Y55296765D01*
X13461254Y55111092D01*
X13442236Y54917999D01*
X13447001Y54869619D01*
X13447002Y35885000D01*
X13248061Y35885000D01*
X13048102Y35845226D01*
X12859744Y35767205D01*
X12690226Y35653937D01*
X12546063Y35509774D01*
X12432795Y35340256D01*
X12354774Y35151898D01*
X12315000Y34951939D01*
X12315000Y34889802D01*
X12035199Y34610000D01*
X9337323Y34610000D01*
X9300000Y34613676D01*
X9262677Y34610000D01*
X9262667Y34610000D01*
X9151014Y34599003D01*
X9007753Y34555546D01*
X8875724Y34484974D01*
X8759999Y34390001D01*
X8736201Y34361003D01*
X6589003Y32213804D01*
X6559999Y32190001D01*
X6517229Y32137885D01*
X6465026Y32074276D01*
X6412897Y31976750D01*
X6394454Y31942246D01*
X6350997Y31798985D01*
X6340000Y31687332D01*
X6340000Y31687322D01*
X6336324Y31650000D01*
X6340000Y31612677D01*
X6340001Y25753712D01*
X6296063Y25709774D01*
X6182795Y25540256D01*
X6104774Y25351898D01*
X6065000Y25151939D01*
X660002Y25151939D01*
X660002Y49569415D01*
X734946Y50760611D01*
X954700Y51912606D01*
X1317102Y53027963D01*
X1684522Y53808771D01*
X5365000Y53808771D01*
X5365000Y53191229D01*
X5485476Y52585554D01*
X5721799Y52015021D01*
X6064886Y51501554D01*
X6501554Y51064886D01*
X7015021Y50721799D01*
X7585554Y50485476D01*
X8191229Y50365000D01*
X8808771Y50365000D01*
X9414446Y50485476D01*
X9984979Y50721799D01*
X10498446Y51064886D01*
X10935114Y51501554D01*
X11278201Y52015021D01*
X11514524Y52585554D01*
X11635000Y53191229D01*
X11635000Y53808771D01*
X11514524Y54414446D01*
X11278201Y54984979D01*
X10935114Y55498446D01*
X10498446Y55935114D01*
X9984979Y56278201D01*
X9414446Y56514524D01*
X8808771Y56635000D01*
X8191229Y56635000D01*
X7585554Y56514524D01*
X7015021Y56278201D01*
X6501554Y55935114D01*
X6064886Y55498446D01*
X5721799Y54984979D01*
X5485476Y54414446D01*
X5365000Y53808771D01*
X1684522Y53808771D01*
X1816443Y54089117D01*
X2445599Y55080508D01*
X3150051Y55939505D01*
X14189000Y67898367D01*
X45840472Y67898367D01*
X45902965Y67662050D01*
X46145678Y67548650D01*
X46405849Y67484781D01*
X46673482Y67472896D01*
X46938291Y67513452D01*
X47190100Y67604891D01*
X47297035Y67662050D01*
X47359528Y67898367D01*
X50840472Y67898367D01*
X50902965Y67662050D01*
X51145678Y67548650D01*
X51405849Y67484781D01*
X51673482Y67472896D01*
X51938291Y67513452D01*
X52190100Y67604891D01*
X52297035Y67662050D01*
X52359528Y67898367D01*
X51600000Y68657895D01*
X50840472Y67898367D01*
X47359528Y67898367D01*
X46600000Y68657895D01*
X45840472Y67898367D01*
X14189000Y67898367D01*
X14988063Y68764018D01*
X45235396Y68764018D01*
X45275952Y68499209D01*
X45367391Y68247400D01*
X45424550Y68140465D01*
X45660867Y68077972D01*
X46420395Y68837500D01*
X46779605Y68837500D01*
X47539133Y68077972D01*
X47775450Y68140465D01*
X47888850Y68383178D01*
X47952719Y68643349D01*
X47958077Y68764018D01*
X50235396Y68764018D01*
X50275952Y68499209D01*
X50367391Y68247400D01*
X50424550Y68140465D01*
X50660867Y68077972D01*
X51420395Y68837500D01*
X51779605Y68837500D01*
X52539133Y68077972D01*
X52775450Y68140465D01*
X52888850Y68383178D01*
X52952719Y68643349D01*
X52964604Y68910982D01*
X52924048Y69175791D01*
X52832609Y69427600D01*
X52775450Y69534535D01*
X52539133Y69597028D01*
X51779605Y68837500D01*
X51420395Y68837500D01*
X50660867Y69597028D01*
X50424550Y69534535D01*
X50311150Y69291822D01*
X50247281Y69031651D01*
X50235396Y68764018D01*
X47958077Y68764018D01*
X47964604Y68910982D01*
X47924048Y69175791D01*
X47832609Y69427600D01*
X47775450Y69534535D01*
X47539133Y69597028D01*
X46779605Y68837500D01*
X46420395Y68837500D01*
X45660867Y69597028D01*
X45424550Y69534535D01*
X45311150Y69291822D01*
X45247281Y69031651D01*
X45235396Y68764018D01*
X14988063Y68764018D01*
X16980176Y70922140D01*
X17518940Y71410500D01*
X44365000Y71410500D01*
X44365000Y71060500D01*
X44413507Y70822004D01*
X44507610Y70597554D01*
X44643693Y70395775D01*
X44816526Y70224422D01*
X45019467Y70090079D01*
X45244718Y69997909D01*
X45282391Y69994038D01*
X45473000Y70118769D01*
X45473000Y71410500D01*
X45727000Y71410500D01*
X45727000Y70118769D01*
X45900862Y70004997D01*
X45840472Y69776633D01*
X46600000Y69017105D01*
X47359528Y69776633D01*
X50840472Y69776633D01*
X51600000Y69017105D01*
X52359528Y69776633D01*
X52299138Y70004997D01*
X52473000Y70118769D01*
X52473000Y71410500D01*
X52727000Y71410500D01*
X52727000Y70118769D01*
X52917609Y69994038D01*
X52955282Y69997909D01*
X53180533Y70090079D01*
X53383474Y70224422D01*
X53556307Y70395775D01*
X53692390Y70597554D01*
X53786493Y70822004D01*
X53835000Y71060500D01*
X53835000Y71410500D01*
X52727000Y71410500D01*
X52473000Y71410500D01*
X51365000Y71410500D01*
X51365000Y71060500D01*
X51413507Y70822004D01*
X51507610Y70597554D01*
X51643693Y70395775D01*
X51816526Y70224422D01*
X51911836Y70161329D01*
X51794151Y70190219D01*
X51526518Y70202104D01*
X51261709Y70161548D01*
X51009900Y70070109D01*
X50902965Y70012950D01*
X50840472Y69776633D01*
X47359528Y69776633D01*
X47297035Y70012950D01*
X47054322Y70126350D01*
X46794151Y70190219D01*
X46526518Y70202104D01*
X46296558Y70166885D01*
X46383474Y70224422D01*
X46556307Y70395775D01*
X46692390Y70597554D01*
X46786493Y70822004D01*
X46835000Y71060500D01*
X46835000Y71410500D01*
X45727000Y71410500D01*
X45473000Y71410500D01*
X44365000Y71410500D01*
X17518940Y71410500D01*
X17573385Y71459851D01*
X18227412Y71868384D01*
X18943451Y72154642D01*
X19709387Y72311736D01*
X20207862Y72340000D01*
X44449984Y72340000D01*
X44413507Y72252996D01*
G36*
X41027000Y31277000D02*
G01*
X41047000Y31277000D01*
X41047000Y31023000D01*
X41027000Y31023000D01*
X41027000Y31003000D01*
X40773000Y31003000D01*
X40773000Y31023000D01*
X40753000Y31023000D01*
X40753000Y31277000D01*
X40773000Y31277000D01*
X40773000Y31297000D01*
X41027000Y31297000D01*
X41027000Y31277000D01*
G37*
X41027000Y31277000D02*
X41047000Y31277000D01*
X41047000Y31023000D01*
X41027000Y31023000D01*
X41027000Y31003000D01*
X40773000Y31003000D01*
X40773000Y31023000D01*
X40753000Y31023000D01*
X40753000Y31277000D01*
X40773000Y31277000D01*
X40773000Y31297000D01*
X41027000Y31297000D01*
X41027000Y31277000D01*
G36*
X15450724Y36190026D02*
G01*
X15582753Y36119454D01*
X15726014Y36075997D01*
X15836928Y36065073D01*
X15836928Y35950000D01*
X15846777Y35850000D01*
X15836928Y35750000D01*
X15836928Y35300000D01*
X15849188Y35175518D01*
X15885498Y35055820D01*
X15944463Y34945506D01*
X16023815Y34848815D01*
X16120506Y34769463D01*
X16230820Y34710498D01*
X16350518Y34674188D01*
X16352373Y34674005D01*
X16337885Y34662115D01*
X16231329Y34532275D01*
X16152150Y34384142D01*
X16103392Y34223408D01*
X16086928Y34056250D01*
X16086928Y33618750D01*
X16103392Y33451592D01*
X16152150Y33290858D01*
X16231329Y33142725D01*
X16249100Y33121070D01*
X16194463Y33054494D01*
X16135498Y32944180D01*
X16099188Y32824482D01*
X16086928Y32700000D01*
X16090000Y32548250D01*
X16248750Y32389500D01*
X17073000Y32389500D01*
X17073000Y32409500D01*
X17327000Y32409500D01*
X17327000Y32389500D01*
X18873000Y32389500D01*
X18873000Y32409500D01*
X19127000Y32409500D01*
X19127000Y32389500D01*
X19147000Y32389500D01*
X19147000Y32135500D01*
X19127000Y32135500D01*
X19127000Y32115500D01*
X18873000Y32115500D01*
X18873000Y32135500D01*
X17327000Y32135500D01*
X17327000Y32115500D01*
X17073000Y32115500D01*
X17073000Y32135500D01*
X16248750Y32135500D01*
X16090000Y31976750D01*
X16086928Y31825000D01*
X16093330Y31760000D01*
X15714802Y31760000D01*
X15417001Y32057800D01*
X15417001Y36217702D01*
X15450724Y36190026D01*
G37*
X15450724Y36190026D02*
X15582753Y36119454D01*
X15726014Y36075997D01*
X15836928Y36065073D01*
X15836928Y35950000D01*
X15846777Y35850000D01*
X15836928Y35750000D01*
X15836928Y35300000D01*
X15849188Y35175518D01*
X15885498Y35055820D01*
X15944463Y34945506D01*
X16023815Y34848815D01*
X16120506Y34769463D01*
X16230820Y34710498D01*
X16350518Y34674188D01*
X16352373Y34674005D01*
X16337885Y34662115D01*
X16231329Y34532275D01*
X16152150Y34384142D01*
X16103392Y34223408D01*
X16086928Y34056250D01*
X16086928Y33618750D01*
X16103392Y33451592D01*
X16152150Y33290858D01*
X16231329Y33142725D01*
X16249100Y33121070D01*
X16194463Y33054494D01*
X16135498Y32944180D01*
X16099188Y32824482D01*
X16086928Y32700000D01*
X16090000Y32548250D01*
X16248750Y32389500D01*
X17073000Y32389500D01*
X17073000Y32409500D01*
X17327000Y32409500D01*
X17327000Y32389500D01*
X18873000Y32389500D01*
X18873000Y32409500D01*
X19127000Y32409500D01*
X19127000Y32389500D01*
X19147000Y32389500D01*
X19147000Y32135500D01*
X19127000Y32135500D01*
X19127000Y32115500D01*
X18873000Y32115500D01*
X18873000Y32135500D01*
X17327000Y32135500D01*
X17327000Y32115500D01*
X17073000Y32115500D01*
X17073000Y32135500D01*
X16248750Y32135500D01*
X16090000Y31976750D01*
X16086928Y31825000D01*
X16093330Y31760000D01*
X15714802Y31760000D01*
X15417001Y32057800D01*
X15417001Y36217702D01*
X15450724Y36190026D01*
G36*
X38015000Y38398061D02*
G01*
X38054774Y38198102D01*
X38132795Y38009744D01*
X38246063Y37840226D01*
X38390226Y37696063D01*
X38559744Y37582795D01*
X38748102Y37504774D01*
X38948061Y37465000D01*
X39151939Y37465000D01*
X39351898Y37504774D01*
X39540256Y37582795D01*
X39709774Y37696063D01*
X39753711Y37740000D01*
X39954082Y37740000D01*
X40037885Y37637885D01*
X40167725Y37531329D01*
X40315858Y37452150D01*
X40476592Y37403392D01*
X40643750Y37386928D01*
X41081250Y37386928D01*
X41248408Y37403392D01*
X41409142Y37452150D01*
X41557275Y37531329D01*
X41650000Y37607426D01*
X41742725Y37531329D01*
X41890858Y37452150D01*
X41914394Y37445010D01*
X41860498Y37344180D01*
X41824188Y37224482D01*
X41811928Y37100000D01*
X41811928Y36588095D01*
X41801185Y36601185D01*
X41704494Y36680537D01*
X41594180Y36739502D01*
X41474482Y36775812D01*
X41350000Y36788072D01*
X40450000Y36788072D01*
X40325518Y36775812D01*
X40205820Y36739502D01*
X40095506Y36680537D01*
X39998815Y36601185D01*
X39919463Y36504494D01*
X39860498Y36394180D01*
X39824188Y36274482D01*
X39811928Y36150000D01*
X39811928Y35350000D01*
X39824188Y35225518D01*
X39860498Y35105820D01*
X39919463Y34995506D01*
X39998815Y34898815D01*
X40095506Y34819463D01*
X40140000Y34795680D01*
X40140001Y33904885D01*
X40087885Y33862115D01*
X40004082Y33760000D01*
X37887323Y33760000D01*
X37850000Y33763676D01*
X37812677Y33760000D01*
X37812667Y33760000D01*
X37701014Y33749003D01*
X37557753Y33705546D01*
X37425724Y33634974D01*
X37309999Y33540001D01*
X37286201Y33511003D01*
X35860000Y32084801D01*
X35860000Y36285199D01*
X38015000Y38440198D01*
X38015000Y38398061D01*
G37*
X38015000Y38398061D02*
X38054774Y38198102D01*
X38132795Y38009744D01*
X38246063Y37840226D01*
X38390226Y37696063D01*
X38559744Y37582795D01*
X38748102Y37504774D01*
X38948061Y37465000D01*
X39151939Y37465000D01*
X39351898Y37504774D01*
X39540256Y37582795D01*
X39709774Y37696063D01*
X39753711Y37740000D01*
X39954082Y37740000D01*
X40037885Y37637885D01*
X40167725Y37531329D01*
X40315858Y37452150D01*
X40476592Y37403392D01*
X40643750Y37386928D01*
X41081250Y37386928D01*
X41248408Y37403392D01*
X41409142Y37452150D01*
X41557275Y37531329D01*
X41650000Y37607426D01*
X41742725Y37531329D01*
X41890858Y37452150D01*
X41914394Y37445010D01*
X41860498Y37344180D01*
X41824188Y37224482D01*
X41811928Y37100000D01*
X41811928Y36588095D01*
X41801185Y36601185D01*
X41704494Y36680537D01*
X41594180Y36739502D01*
X41474482Y36775812D01*
X41350000Y36788072D01*
X40450000Y36788072D01*
X40325518Y36775812D01*
X40205820Y36739502D01*
X40095506Y36680537D01*
X39998815Y36601185D01*
X39919463Y36504494D01*
X39860498Y36394180D01*
X39824188Y36274482D01*
X39811928Y36150000D01*
X39811928Y35350000D01*
X39824188Y35225518D01*
X39860498Y35105820D01*
X39919463Y34995506D01*
X39998815Y34898815D01*
X40095506Y34819463D01*
X40140000Y34795680D01*
X40140001Y33904885D01*
X40087885Y33862115D01*
X40004082Y33760000D01*
X37887323Y33760000D01*
X37850000Y33763676D01*
X37812677Y33760000D01*
X37812667Y33760000D01*
X37701014Y33749003D01*
X37557753Y33705546D01*
X37425724Y33634974D01*
X37309999Y33540001D01*
X37286201Y33511003D01*
X35860000Y32084801D01*
X35860000Y36285199D01*
X38015000Y38440198D01*
X38015000Y38398061D01*
G36*
X41973750Y34927000D02*
G01*
X42773000Y34927000D01*
X42773000Y34947000D01*
X43027000Y34947000D01*
X43027000Y34927000D01*
X43047000Y34927000D01*
X43047000Y34673000D01*
X43027000Y34673000D01*
X43027000Y34653000D01*
X42773000Y34653000D01*
X42773000Y34673000D01*
X41973750Y34673000D01*
X41815000Y34514250D01*
X41811928Y34400000D01*
X41824188Y34275518D01*
X41860498Y34155820D01*
X41919463Y34045506D01*
X41924649Y34039186D01*
X41792725Y33968671D01*
X41700000Y33892574D01*
X41660000Y33925401D01*
X41660000Y34795680D01*
X41704494Y34819463D01*
X41801185Y34898815D01*
X41880537Y34995506D01*
X41889143Y35011607D01*
X41973750Y34927000D01*
G37*
X41973750Y34927000D02*
X42773000Y34927000D01*
X42773000Y34947000D01*
X43027000Y34947000D01*
X43027000Y34927000D01*
X43047000Y34927000D01*
X43047000Y34673000D01*
X43027000Y34673000D01*
X43027000Y34653000D01*
X42773000Y34653000D01*
X42773000Y34673000D01*
X41973750Y34673000D01*
X41815000Y34514250D01*
X41811928Y34400000D01*
X41824188Y34275518D01*
X41860498Y34155820D01*
X41919463Y34045506D01*
X41924649Y34039186D01*
X41792725Y33968671D01*
X41700000Y33892574D01*
X41660000Y33925401D01*
X41660000Y34795680D01*
X41704494Y34819463D01*
X41801185Y34898815D01*
X41880537Y34995506D01*
X41889143Y35011607D01*
X41973750Y34927000D01*
G36*
X19490000Y40703711D02*
G01*
X19446063Y40659774D01*
X19332795Y40490256D01*
X19294768Y40398450D01*
X19286982Y40400812D01*
X19162500Y40413072D01*
X19010750Y40410000D01*
X18852000Y40251250D01*
X18852000Y39427000D01*
X18872000Y39427000D01*
X18872000Y39173000D01*
X18852000Y39173000D01*
X18852000Y38348750D01*
X19010750Y38190000D01*
X19113126Y38187928D01*
X18563072Y37637873D01*
X18563072Y37700000D01*
X18550812Y37824482D01*
X18514502Y37944180D01*
X18455537Y38054494D01*
X18376185Y38151185D01*
X18331545Y38187820D01*
X18439250Y38190000D01*
X18598000Y38348750D01*
X18598000Y39173000D01*
X18578000Y39173000D01*
X18578000Y39427000D01*
X18598000Y39427000D01*
X18598000Y40251250D01*
X18439250Y40410000D01*
X18287500Y40413072D01*
X18175853Y40402076D01*
X18185000Y40448061D01*
X18185000Y40651939D01*
X18145226Y40851898D01*
X18067205Y41040256D01*
X17953937Y41209774D01*
X17809774Y41353937D01*
X17640256Y41467205D01*
X17451898Y41545226D01*
X17251939Y41585000D01*
X17048061Y41585000D01*
X16848102Y41545226D01*
X16659744Y41467205D01*
X16490226Y41353937D01*
X16346063Y41209774D01*
X16260000Y41080971D01*
X16260000Y42135199D01*
X19490000Y45365199D01*
X19490000Y40703711D01*
G37*
X19490000Y40703711D02*
X19446063Y40659774D01*
X19332795Y40490256D01*
X19294768Y40398450D01*
X19286982Y40400812D01*
X19162500Y40413072D01*
X19010750Y40410000D01*
X18852000Y40251250D01*
X18852000Y39427000D01*
X18872000Y39427000D01*
X18872000Y39173000D01*
X18852000Y39173000D01*
X18852000Y38348750D01*
X19010750Y38190000D01*
X19113126Y38187928D01*
X18563072Y37637873D01*
X18563072Y37700000D01*
X18550812Y37824482D01*
X18514502Y37944180D01*
X18455537Y38054494D01*
X18376185Y38151185D01*
X18331545Y38187820D01*
X18439250Y38190000D01*
X18598000Y38348750D01*
X18598000Y39173000D01*
X18578000Y39173000D01*
X18578000Y39427000D01*
X18598000Y39427000D01*
X18598000Y40251250D01*
X18439250Y40410000D01*
X18287500Y40413072D01*
X18175853Y40402076D01*
X18185000Y40448061D01*
X18185000Y40651939D01*
X18145226Y40851898D01*
X18067205Y41040256D01*
X17953937Y41209774D01*
X17809774Y41353937D01*
X17640256Y41467205D01*
X17451898Y41545226D01*
X17251939Y41585000D01*
X17048061Y41585000D01*
X16848102Y41545226D01*
X16659744Y41467205D01*
X16490226Y41353937D01*
X16346063Y41209774D01*
X16260000Y41080971D01*
X16260000Y42135199D01*
X19490000Y45365199D01*
X19490000Y40703711D01*
G36*
X29165000Y48113285D02*
G01*
X29082795Y47990256D01*
X29004774Y47801898D01*
X28965000Y47601939D01*
X28965000Y47398061D01*
X29004774Y47198102D01*
X29077501Y47022525D01*
X29077501Y46765143D01*
X29050000Y46742574D01*
X28957275Y46818671D01*
X28809142Y46897850D01*
X28648408Y46946608D01*
X28481250Y46963072D01*
X28043750Y46963072D01*
X27876592Y46946608D01*
X27715858Y46897850D01*
X27567725Y46818671D01*
X27437885Y46712115D01*
X27331329Y46582275D01*
X27252150Y46434142D01*
X27203392Y46273408D01*
X27186928Y46106250D01*
X27186928Y45593750D01*
X27203392Y45426592D01*
X27252150Y45265858D01*
X27331329Y45117725D01*
X27437885Y44987885D01*
X27502500Y44934857D01*
X27502501Y44011002D01*
X27445506Y43980537D01*
X27348815Y43901185D01*
X27270580Y43805855D01*
X27201014Y43799003D01*
X27098961Y43768046D01*
X27057753Y43755546D01*
X26925723Y43684974D01*
X26881871Y43648985D01*
X26809999Y43590001D01*
X26786201Y43561003D01*
X26246477Y43021278D01*
X26153937Y43159774D01*
X26009774Y43303937D01*
X25840256Y43417205D01*
X25651898Y43495226D01*
X25451939Y43535000D01*
X25248061Y43535000D01*
X25060000Y43497593D01*
X25060000Y48585199D01*
X28989802Y52515000D01*
X29051939Y52515000D01*
X29165001Y52537489D01*
X29165000Y48113285D01*
G37*
X29165000Y48113285D02*
X29082795Y47990256D01*
X29004774Y47801898D01*
X28965000Y47601939D01*
X28965000Y47398061D01*
X29004774Y47198102D01*
X29077501Y47022525D01*
X29077501Y46765143D01*
X29050000Y46742574D01*
X28957275Y46818671D01*
X28809142Y46897850D01*
X28648408Y46946608D01*
X28481250Y46963072D01*
X28043750Y46963072D01*
X27876592Y46946608D01*
X27715858Y46897850D01*
X27567725Y46818671D01*
X27437885Y46712115D01*
X27331329Y46582275D01*
X27252150Y46434142D01*
X27203392Y46273408D01*
X27186928Y46106250D01*
X27186928Y45593750D01*
X27203392Y45426592D01*
X27252150Y45265858D01*
X27331329Y45117725D01*
X27437885Y44987885D01*
X27502500Y44934857D01*
X27502501Y44011002D01*
X27445506Y43980537D01*
X27348815Y43901185D01*
X27270580Y43805855D01*
X27201014Y43799003D01*
X27098961Y43768046D01*
X27057753Y43755546D01*
X26925723Y43684974D01*
X26881871Y43648985D01*
X26809999Y43590001D01*
X26786201Y43561003D01*
X26246477Y43021278D01*
X26153937Y43159774D01*
X26009774Y43303937D01*
X25840256Y43417205D01*
X25651898Y43495226D01*
X25451939Y43535000D01*
X25248061Y43535000D01*
X25060000Y43497593D01*
X25060000Y48585199D01*
X28989802Y52515000D01*
X29051939Y52515000D01*
X29165001Y52537489D01*
X29165000Y48113285D01*
%TD*%
M02*
