M48
; DRILL file {KiCad (5.1.6)-1} date 03/31/21 15:54:55
; FORMAT={3:3/ absolute / metric / suppress leading zeros}
; #@! TF.CreationDate,2021-03-31T15:54:55+07:00
; #@! TF.GenerationSoftware,Kicad,Pcbnew,(5.1.6)-1
FMAT,2
METRIC,TZ
T1C0.400
T2C0.500
T3C0.600
T4C0.750
T5C0.850
T6C2.500
%
G90
G05
T1
X6750Y33200
X7100Y25050
X7950Y26150
X11400Y28000
X11500Y44100
X13250Y30850
X13300Y37150
X13300Y33050
X13350Y34850
X15900Y32250
X17050Y7700
X17150Y40550
X17550Y22800
X17900Y54500
X17950Y62750
X18000Y69000
X18050Y51700
X18700Y38100
X20250Y40000
X21931Y40764
X22550Y34550
X22974Y42456
X23300Y21200
X23450Y25100
X24100Y34200
X25050Y36500
X25050Y35200
X25300Y25200
X25350Y42500
X25400Y48350
X26000Y45750
X28950Y55000
X28950Y53550
X29900Y28850
X30000Y47500
X30800Y56200
X30850Y58500
X31150Y33100
X31350Y40450
X32750Y29500
X33650Y47350
X33650Y42150
X33650Y40950
X33650Y33200
X34200Y60750
X34400Y26650
X34600Y65400
X35800Y25850
X36700Y21700
X37950Y54650
X39050Y38500
X39050Y34750
X39857Y59075
X40100Y21200
X40750Y49250
X41800Y21550
X42400Y47200
X42700Y63300
X44250Y32200
X44750Y61700
X45550Y17550
X46100Y33450
X46800Y17550
X47000Y23000
X48950Y53550
X51350Y44000
X52000Y53350
X52850Y64200
X53300Y38250
X53650Y27150
X54600Y56700
X55062Y53976
X55150Y62400
X55750Y24800
X55950Y56400
T2
X6625Y53500
X7174Y54826
X7174Y52174
X8500Y55375
X8500Y51625
X9826Y54826
X9826Y52174
X10375Y53500
X6625Y19500
X7174Y20826
X7174Y18174
X8500Y21375
X8500Y17625
X9826Y20826
X9826Y18174
X10375Y19500
X31625Y19500
X32174Y20826
X32174Y18174
X33500Y21375
X33500Y17625
X34826Y20826
X34826Y18174
X35375Y19500
X31625Y53550
X32174Y54876
X32174Y52224
X33500Y55425
X33500Y51675
X34826Y54876
X34826Y52224
X35375Y53550
T4
X17650Y17250
X19650Y17250
T5
X46600Y68837
X51600Y68837
T6
X8500Y53500
X8500Y19500
X33500Y19500
X33500Y53550
T3
G00X45600Y71188
M15
G01X45600Y71888
M16
G05
G00X52600Y71888
M15
G01X52600Y71188
M16
G05
T0
M30
