%TF.GenerationSoftware,KiCad,Pcbnew,(5.1.6)-1*%
%TF.CreationDate,2021-03-31T15:54:52+07:00*%
%TF.ProjectId,EM_Drone_SUBFLIGHT,454d5f44-726f-46e6-955f-535542464c49,rev?*%
%TF.SameCoordinates,PX7997ee0PY7f50c60*%
%TF.FileFunction,Legend,Bot*%
%TF.FilePolarity,Positive*%
%FSLAX46Y46*%
G04 Gerber Fmt 4.6, Leading zero omitted, Abs format (unit mm)*
G04 Created by KiCad (PCBNEW (5.1.6)-1) date 2021-03-31 15:54:52*
%MOMM*%
%LPD*%
G01*
G04 APERTURE LIST*
%ADD10C,0.010000*%
%ADD11C,0.120000*%
%ADD12C,0.150000*%
G04 APERTURE END LIST*
D10*
%TO.C,REF\u002A\u002A*%
G36*
X50339054Y12496400D02*
G01*
X50452993Y12485535D01*
X50560616Y12453918D01*
X50659615Y12403015D01*
X50747684Y12334293D01*
X50822516Y12249219D01*
X50880384Y12152232D01*
X50920005Y12045964D01*
X50938573Y11938950D01*
X50937434Y11833300D01*
X50917930Y11731125D01*
X50881406Y11634534D01*
X50829205Y11545638D01*
X50762673Y11466546D01*
X50683152Y11399369D01*
X50591987Y11346217D01*
X50490523Y11309199D01*
X50380102Y11290427D01*
X50330206Y11288489D01*
X50242267Y11288489D01*
X50242267Y11236560D01*
X50245111Y11200253D01*
X50256911Y11173355D01*
X50280649Y11146249D01*
X50319031Y11107867D01*
X52510602Y11107867D01*
X52772739Y11107876D01*
X53013241Y11107908D01*
X53233048Y11107972D01*
X53433101Y11108076D01*
X53614344Y11108227D01*
X53777716Y11108434D01*
X53924160Y11108706D01*
X54054617Y11109050D01*
X54170029Y11109474D01*
X54271338Y11109987D01*
X54359484Y11110597D01*
X54435410Y11111312D01*
X54500057Y11112140D01*
X54554367Y11113089D01*
X54599280Y11114167D01*
X54635740Y11115383D01*
X54664687Y11116745D01*
X54687063Y11118261D01*
X54703809Y11119938D01*
X54715868Y11121786D01*
X54724180Y11123813D01*
X54729687Y11126025D01*
X54731537Y11127108D01*
X54738549Y11131271D01*
X54744996Y11134805D01*
X54750900Y11138635D01*
X54756286Y11143682D01*
X54761178Y11150871D01*
X54765598Y11161123D01*
X54769572Y11175364D01*
X54773121Y11194514D01*
X54776270Y11219499D01*
X54779042Y11251240D01*
X54781461Y11290662D01*
X54783551Y11338686D01*
X54785335Y11396237D01*
X54786837Y11464237D01*
X54788080Y11543610D01*
X54789089Y11635279D01*
X54789885Y11740166D01*
X54790494Y11859196D01*
X54790939Y11993290D01*
X54791243Y12143373D01*
X54791430Y12310367D01*
X54791524Y12495196D01*
X54791548Y12698783D01*
X54791525Y12922050D01*
X54791480Y13165922D01*
X54791437Y13431321D01*
X54791432Y13469704D01*
X54791389Y13736682D01*
X54791318Y13982002D01*
X54791213Y14206583D01*
X54791066Y14411345D01*
X54790869Y14597206D01*
X54790616Y14765088D01*
X54790300Y14915908D01*
X54789913Y15050587D01*
X54789447Y15170044D01*
X54788897Y15275199D01*
X54788253Y15366971D01*
X54787511Y15446279D01*
X54786661Y15514043D01*
X54785697Y15571182D01*
X54784611Y15618617D01*
X54783397Y15657266D01*
X54782047Y15688049D01*
X54780555Y15711885D01*
X54778911Y15729694D01*
X54777111Y15742395D01*
X54775145Y15750908D01*
X54773477Y15755266D01*
X54769906Y15763728D01*
X54767270Y15771497D01*
X54764634Y15778602D01*
X54761062Y15785073D01*
X54755621Y15790939D01*
X54747375Y15796229D01*
X54735390Y15800974D01*
X54718731Y15805202D01*
X54696463Y15808943D01*
X54667652Y15812227D01*
X54631363Y15815083D01*
X54586661Y15817540D01*
X54532611Y15819629D01*
X54468279Y15821378D01*
X54392730Y15822817D01*
X54305030Y15823976D01*
X54204243Y15824883D01*
X54089434Y15825569D01*
X53959670Y15826063D01*
X53814015Y15826395D01*
X53651535Y15826593D01*
X53471295Y15826687D01*
X53272360Y15826708D01*
X53053796Y15826685D01*
X52814668Y15826646D01*
X52554040Y15826622D01*
X52511889Y15826622D01*
X52248992Y15826636D01*
X52007732Y15826661D01*
X51787165Y15826671D01*
X51586352Y15826642D01*
X51404349Y15826548D01*
X51240216Y15826362D01*
X51093011Y15826059D01*
X50961792Y15825614D01*
X50851867Y15825034D01*
X50851867Y15522197D01*
X50909711Y15482407D01*
X50925479Y15471236D01*
X50939441Y15461166D01*
X50952784Y15452138D01*
X50966693Y15444097D01*
X50982356Y15436986D01*
X51000958Y15430747D01*
X51023686Y15425325D01*
X51051727Y15420662D01*
X51086267Y15416701D01*
X51128492Y15413385D01*
X51179589Y15410659D01*
X51240744Y15408464D01*
X51313144Y15406745D01*
X51397975Y15405444D01*
X51496422Y15404505D01*
X51609674Y15403870D01*
X51738916Y15403484D01*
X51885334Y15403288D01*
X52050116Y15403227D01*
X52234447Y15403243D01*
X52439513Y15403280D01*
X52562133Y15403289D01*
X52779082Y15403265D01*
X52974642Y15403231D01*
X53149999Y15403243D01*
X53306341Y15403358D01*
X53444857Y15403630D01*
X53566734Y15404118D01*
X53673160Y15404876D01*
X53765322Y15405962D01*
X53844409Y15407431D01*
X53911608Y15409340D01*
X53968107Y15411744D01*
X54015093Y15414701D01*
X54053755Y15418266D01*
X54085280Y15422495D01*
X54110855Y15427446D01*
X54131670Y15433173D01*
X54148911Y15439733D01*
X54163765Y15447183D01*
X54177422Y15455579D01*
X54191069Y15464976D01*
X54205893Y15475432D01*
X54214783Y15481523D01*
X54272400Y15520296D01*
X54272400Y14988732D01*
X54272365Y14865483D01*
X54272215Y14762987D01*
X54271878Y14679420D01*
X54271286Y14612956D01*
X54270367Y14561771D01*
X54269051Y14524041D01*
X54267269Y14497940D01*
X54264951Y14481644D01*
X54262026Y14473328D01*
X54258424Y14471168D01*
X54254075Y14473339D01*
X54252645Y14474535D01*
X54215573Y14499685D01*
X54162772Y14525583D01*
X54100770Y14549192D01*
X54074357Y14557461D01*
X54056416Y14562078D01*
X54035355Y14565979D01*
X54009089Y14569248D01*
X53975532Y14571966D01*
X53932599Y14574215D01*
X53878204Y14576077D01*
X53810262Y14577636D01*
X53726688Y14578972D01*
X53625395Y14580169D01*
X53504300Y14581308D01*
X53459600Y14581685D01*
X53334449Y14582702D01*
X53230082Y14583460D01*
X53144707Y14583903D01*
X53076533Y14583970D01*
X53023765Y14583605D01*
X52984614Y14582748D01*
X52957285Y14581341D01*
X52939986Y14579325D01*
X52930926Y14576643D01*
X52928312Y14573236D01*
X52930351Y14569044D01*
X52934667Y14564571D01*
X52947602Y14554216D01*
X52976676Y14532158D01*
X53019759Y14499957D01*
X53074718Y14459174D01*
X53139423Y14411370D01*
X53211742Y14358105D01*
X53289544Y14300940D01*
X53370698Y14241437D01*
X53453072Y14181155D01*
X53534536Y14121655D01*
X53612957Y14064498D01*
X53686204Y14011245D01*
X53752147Y13963457D01*
X53808654Y13922693D01*
X53853593Y13890516D01*
X53884834Y13868485D01*
X53891466Y13863917D01*
X53928369Y13840996D01*
X53976359Y13814188D01*
X54025897Y13788789D01*
X54032577Y13785568D01*
X54080772Y13763890D01*
X54118334Y13751304D01*
X54154160Y13745574D01*
X54196200Y13744456D01*
X54272400Y13745090D01*
X54272400Y12590651D01*
X54178669Y12681815D01*
X54128775Y12728612D01*
X54072295Y12778899D01*
X54018026Y12824944D01*
X53992673Y12845369D01*
X53953128Y12875807D01*
X53899916Y12915862D01*
X53834667Y12964361D01*
X53759011Y13020135D01*
X53674577Y13082011D01*
X53582994Y13148819D01*
X53485892Y13219387D01*
X53384901Y13292545D01*
X53281650Y13367121D01*
X53177768Y13441944D01*
X53074885Y13515843D01*
X52974631Y13587646D01*
X52878636Y13656184D01*
X52788527Y13720284D01*
X52705936Y13778775D01*
X52632492Y13830486D01*
X52569824Y13874247D01*
X52519561Y13908885D01*
X52483334Y13933230D01*
X52462771Y13946111D01*
X52458668Y13947869D01*
X52447342Y13939910D01*
X52420162Y13919115D01*
X52378829Y13886847D01*
X52325044Y13844470D01*
X52260506Y13793347D01*
X52186918Y13734841D01*
X52105978Y13670314D01*
X52019388Y13601131D01*
X51928848Y13528653D01*
X51836060Y13454246D01*
X51761702Y13394517D01*
X51761702Y12383511D01*
X51774659Y12377602D01*
X51796908Y12363272D01*
X51798391Y12362225D01*
X51828544Y12343438D01*
X51865375Y12323791D01*
X51873511Y12319892D01*
X51881940Y12316356D01*
X51892059Y12313230D01*
X51905260Y12310486D01*
X51922938Y12308092D01*
X51946484Y12306019D01*
X51977293Y12304235D01*
X52016757Y12302712D01*
X52066269Y12301419D01*
X52127223Y12300326D01*
X52201011Y12299403D01*
X52289028Y12298619D01*
X52392665Y12297945D01*
X52513316Y12297350D01*
X52652374Y12296805D01*
X52811232Y12296279D01*
X52990089Y12295745D01*
X53175207Y12295206D01*
X53339145Y12294772D01*
X53483303Y12294509D01*
X53609079Y12294484D01*
X53717871Y12294765D01*
X53811077Y12295419D01*
X53890097Y12296514D01*
X53956328Y12298118D01*
X54011170Y12300297D01*
X54056021Y12303119D01*
X54092278Y12306651D01*
X54121341Y12310961D01*
X54144609Y12316117D01*
X54163479Y12322185D01*
X54179351Y12329233D01*
X54193622Y12337329D01*
X54207691Y12346540D01*
X54220158Y12355040D01*
X54246452Y12372176D01*
X54264037Y12382322D01*
X54267257Y12383511D01*
X54268334Y12372604D01*
X54269335Y12341411D01*
X54270235Y12292223D01*
X54271010Y12227333D01*
X54271637Y12149030D01*
X54272091Y12059607D01*
X54272349Y11961356D01*
X54272400Y11892445D01*
X54272180Y11787452D01*
X54271548Y11690610D01*
X54270549Y11604107D01*
X54269227Y11530132D01*
X54267626Y11470874D01*
X54265791Y11428520D01*
X54263765Y11405260D01*
X54262493Y11401378D01*
X54247591Y11409076D01*
X54239560Y11417074D01*
X54222434Y11430246D01*
X54192183Y11447485D01*
X54167622Y11459407D01*
X54108711Y11486045D01*
X52931845Y11489120D01*
X51754978Y11492195D01*
X51754978Y11937853D01*
X51755142Y12035670D01*
X51755611Y12126064D01*
X51756347Y12206630D01*
X51757316Y12274962D01*
X51758480Y12328656D01*
X51759803Y12365305D01*
X51761249Y12382504D01*
X51761702Y12383511D01*
X51761702Y13394517D01*
X51742722Y13379270D01*
X51650537Y13305090D01*
X51561204Y13233069D01*
X51476424Y13164569D01*
X51397898Y13100955D01*
X51327326Y13043588D01*
X51266409Y12993833D01*
X51216847Y12953052D01*
X51196178Y12935888D01*
X51095516Y12849596D01*
X51012259Y12772997D01*
X50944438Y12704183D01*
X50890089Y12641248D01*
X50882722Y12631867D01*
X50852117Y12592356D01*
X50851867Y13724116D01*
X50899844Y13718827D01*
X50957188Y13722130D01*
X51025463Y13743661D01*
X51105212Y13783635D01*
X51177495Y13828943D01*
X51200140Y13845161D01*
X51237696Y13873214D01*
X51288021Y13911430D01*
X51348973Y13958137D01*
X51418411Y14011661D01*
X51494194Y14070331D01*
X51574180Y14132475D01*
X51656228Y14196421D01*
X51738196Y14260495D01*
X51817943Y14323027D01*
X51893327Y14382343D01*
X51962207Y14436771D01*
X52022442Y14484639D01*
X52071889Y14524275D01*
X52108408Y14554006D01*
X52129858Y14572161D01*
X52133156Y14575220D01*
X52125149Y14578079D01*
X52094855Y14580293D01*
X52042556Y14581857D01*
X51968531Y14582767D01*
X51873063Y14583020D01*
X51756434Y14582613D01*
X51636445Y14581704D01*
X51504333Y14580382D01*
X51392594Y14578857D01*
X51299025Y14576881D01*
X51221419Y14574206D01*
X51157574Y14570582D01*
X51105283Y14565761D01*
X51062344Y14559494D01*
X51026551Y14551532D01*
X50995700Y14541627D01*
X50967586Y14529531D01*
X50940005Y14514993D01*
X50914966Y14500311D01*
X50851867Y14462314D01*
X50851867Y15522197D01*
X50851867Y15825034D01*
X50845617Y15825001D01*
X50743544Y15824195D01*
X50654633Y15823170D01*
X50577941Y15821900D01*
X50512527Y15820360D01*
X50457449Y15818524D01*
X50411765Y15816367D01*
X50374534Y15813863D01*
X50344813Y15810987D01*
X50321662Y15807713D01*
X50304139Y15804015D01*
X50291301Y15799869D01*
X50282208Y15795247D01*
X50275918Y15790126D01*
X50271488Y15784478D01*
X50267978Y15778279D01*
X50264445Y15771504D01*
X50260876Y15765508D01*
X50258300Y15760275D01*
X50255972Y15752099D01*
X50253878Y15739886D01*
X50252007Y15722541D01*
X50250347Y15698969D01*
X50248884Y15668077D01*
X50247608Y15628768D01*
X50246504Y15579950D01*
X50245561Y15520527D01*
X50244767Y15449404D01*
X50244109Y15365488D01*
X50243575Y15267683D01*
X50243153Y15154894D01*
X50242829Y15026029D01*
X50242592Y14879991D01*
X50242430Y14715686D01*
X50242330Y14532020D01*
X50242280Y14327897D01*
X50242267Y14116753D01*
X50242267Y12496400D01*
X50339054Y12496400D01*
G37*
X50339054Y12496400D02*
X50452993Y12485535D01*
X50560616Y12453918D01*
X50659615Y12403015D01*
X50747684Y12334293D01*
X50822516Y12249219D01*
X50880384Y12152232D01*
X50920005Y12045964D01*
X50938573Y11938950D01*
X50937434Y11833300D01*
X50917930Y11731125D01*
X50881406Y11634534D01*
X50829205Y11545638D01*
X50762673Y11466546D01*
X50683152Y11399369D01*
X50591987Y11346217D01*
X50490523Y11309199D01*
X50380102Y11290427D01*
X50330206Y11288489D01*
X50242267Y11288489D01*
X50242267Y11236560D01*
X50245111Y11200253D01*
X50256911Y11173355D01*
X50280649Y11146249D01*
X50319031Y11107867D01*
X52510602Y11107867D01*
X52772739Y11107876D01*
X53013241Y11107908D01*
X53233048Y11107972D01*
X53433101Y11108076D01*
X53614344Y11108227D01*
X53777716Y11108434D01*
X53924160Y11108706D01*
X54054617Y11109050D01*
X54170029Y11109474D01*
X54271338Y11109987D01*
X54359484Y11110597D01*
X54435410Y11111312D01*
X54500057Y11112140D01*
X54554367Y11113089D01*
X54599280Y11114167D01*
X54635740Y11115383D01*
X54664687Y11116745D01*
X54687063Y11118261D01*
X54703809Y11119938D01*
X54715868Y11121786D01*
X54724180Y11123813D01*
X54729687Y11126025D01*
X54731537Y11127108D01*
X54738549Y11131271D01*
X54744996Y11134805D01*
X54750900Y11138635D01*
X54756286Y11143682D01*
X54761178Y11150871D01*
X54765598Y11161123D01*
X54769572Y11175364D01*
X54773121Y11194514D01*
X54776270Y11219499D01*
X54779042Y11251240D01*
X54781461Y11290662D01*
X54783551Y11338686D01*
X54785335Y11396237D01*
X54786837Y11464237D01*
X54788080Y11543610D01*
X54789089Y11635279D01*
X54789885Y11740166D01*
X54790494Y11859196D01*
X54790939Y11993290D01*
X54791243Y12143373D01*
X54791430Y12310367D01*
X54791524Y12495196D01*
X54791548Y12698783D01*
X54791525Y12922050D01*
X54791480Y13165922D01*
X54791437Y13431321D01*
X54791432Y13469704D01*
X54791389Y13736682D01*
X54791318Y13982002D01*
X54791213Y14206583D01*
X54791066Y14411345D01*
X54790869Y14597206D01*
X54790616Y14765088D01*
X54790300Y14915908D01*
X54789913Y15050587D01*
X54789447Y15170044D01*
X54788897Y15275199D01*
X54788253Y15366971D01*
X54787511Y15446279D01*
X54786661Y15514043D01*
X54785697Y15571182D01*
X54784611Y15618617D01*
X54783397Y15657266D01*
X54782047Y15688049D01*
X54780555Y15711885D01*
X54778911Y15729694D01*
X54777111Y15742395D01*
X54775145Y15750908D01*
X54773477Y15755266D01*
X54769906Y15763728D01*
X54767270Y15771497D01*
X54764634Y15778602D01*
X54761062Y15785073D01*
X54755621Y15790939D01*
X54747375Y15796229D01*
X54735390Y15800974D01*
X54718731Y15805202D01*
X54696463Y15808943D01*
X54667652Y15812227D01*
X54631363Y15815083D01*
X54586661Y15817540D01*
X54532611Y15819629D01*
X54468279Y15821378D01*
X54392730Y15822817D01*
X54305030Y15823976D01*
X54204243Y15824883D01*
X54089434Y15825569D01*
X53959670Y15826063D01*
X53814015Y15826395D01*
X53651535Y15826593D01*
X53471295Y15826687D01*
X53272360Y15826708D01*
X53053796Y15826685D01*
X52814668Y15826646D01*
X52554040Y15826622D01*
X52511889Y15826622D01*
X52248992Y15826636D01*
X52007732Y15826661D01*
X51787165Y15826671D01*
X51586352Y15826642D01*
X51404349Y15826548D01*
X51240216Y15826362D01*
X51093011Y15826059D01*
X50961792Y15825614D01*
X50851867Y15825034D01*
X50851867Y15522197D01*
X50909711Y15482407D01*
X50925479Y15471236D01*
X50939441Y15461166D01*
X50952784Y15452138D01*
X50966693Y15444097D01*
X50982356Y15436986D01*
X51000958Y15430747D01*
X51023686Y15425325D01*
X51051727Y15420662D01*
X51086267Y15416701D01*
X51128492Y15413385D01*
X51179589Y15410659D01*
X51240744Y15408464D01*
X51313144Y15406745D01*
X51397975Y15405444D01*
X51496422Y15404505D01*
X51609674Y15403870D01*
X51738916Y15403484D01*
X51885334Y15403288D01*
X52050116Y15403227D01*
X52234447Y15403243D01*
X52439513Y15403280D01*
X52562133Y15403289D01*
X52779082Y15403265D01*
X52974642Y15403231D01*
X53149999Y15403243D01*
X53306341Y15403358D01*
X53444857Y15403630D01*
X53566734Y15404118D01*
X53673160Y15404876D01*
X53765322Y15405962D01*
X53844409Y15407431D01*
X53911608Y15409340D01*
X53968107Y15411744D01*
X54015093Y15414701D01*
X54053755Y15418266D01*
X54085280Y15422495D01*
X54110855Y15427446D01*
X54131670Y15433173D01*
X54148911Y15439733D01*
X54163765Y15447183D01*
X54177422Y15455579D01*
X54191069Y15464976D01*
X54205893Y15475432D01*
X54214783Y15481523D01*
X54272400Y15520296D01*
X54272400Y14988732D01*
X54272365Y14865483D01*
X54272215Y14762987D01*
X54271878Y14679420D01*
X54271286Y14612956D01*
X54270367Y14561771D01*
X54269051Y14524041D01*
X54267269Y14497940D01*
X54264951Y14481644D01*
X54262026Y14473328D01*
X54258424Y14471168D01*
X54254075Y14473339D01*
X54252645Y14474535D01*
X54215573Y14499685D01*
X54162772Y14525583D01*
X54100770Y14549192D01*
X54074357Y14557461D01*
X54056416Y14562078D01*
X54035355Y14565979D01*
X54009089Y14569248D01*
X53975532Y14571966D01*
X53932599Y14574215D01*
X53878204Y14576077D01*
X53810262Y14577636D01*
X53726688Y14578972D01*
X53625395Y14580169D01*
X53504300Y14581308D01*
X53459600Y14581685D01*
X53334449Y14582702D01*
X53230082Y14583460D01*
X53144707Y14583903D01*
X53076533Y14583970D01*
X53023765Y14583605D01*
X52984614Y14582748D01*
X52957285Y14581341D01*
X52939986Y14579325D01*
X52930926Y14576643D01*
X52928312Y14573236D01*
X52930351Y14569044D01*
X52934667Y14564571D01*
X52947602Y14554216D01*
X52976676Y14532158D01*
X53019759Y14499957D01*
X53074718Y14459174D01*
X53139423Y14411370D01*
X53211742Y14358105D01*
X53289544Y14300940D01*
X53370698Y14241437D01*
X53453072Y14181155D01*
X53534536Y14121655D01*
X53612957Y14064498D01*
X53686204Y14011245D01*
X53752147Y13963457D01*
X53808654Y13922693D01*
X53853593Y13890516D01*
X53884834Y13868485D01*
X53891466Y13863917D01*
X53928369Y13840996D01*
X53976359Y13814188D01*
X54025897Y13788789D01*
X54032577Y13785568D01*
X54080772Y13763890D01*
X54118334Y13751304D01*
X54154160Y13745574D01*
X54196200Y13744456D01*
X54272400Y13745090D01*
X54272400Y12590651D01*
X54178669Y12681815D01*
X54128775Y12728612D01*
X54072295Y12778899D01*
X54018026Y12824944D01*
X53992673Y12845369D01*
X53953128Y12875807D01*
X53899916Y12915862D01*
X53834667Y12964361D01*
X53759011Y13020135D01*
X53674577Y13082011D01*
X53582994Y13148819D01*
X53485892Y13219387D01*
X53384901Y13292545D01*
X53281650Y13367121D01*
X53177768Y13441944D01*
X53074885Y13515843D01*
X52974631Y13587646D01*
X52878636Y13656184D01*
X52788527Y13720284D01*
X52705936Y13778775D01*
X52632492Y13830486D01*
X52569824Y13874247D01*
X52519561Y13908885D01*
X52483334Y13933230D01*
X52462771Y13946111D01*
X52458668Y13947869D01*
X52447342Y13939910D01*
X52420162Y13919115D01*
X52378829Y13886847D01*
X52325044Y13844470D01*
X52260506Y13793347D01*
X52186918Y13734841D01*
X52105978Y13670314D01*
X52019388Y13601131D01*
X51928848Y13528653D01*
X51836060Y13454246D01*
X51761702Y13394517D01*
X51761702Y12383511D01*
X51774659Y12377602D01*
X51796908Y12363272D01*
X51798391Y12362225D01*
X51828544Y12343438D01*
X51865375Y12323791D01*
X51873511Y12319892D01*
X51881940Y12316356D01*
X51892059Y12313230D01*
X51905260Y12310486D01*
X51922938Y12308092D01*
X51946484Y12306019D01*
X51977293Y12304235D01*
X52016757Y12302712D01*
X52066269Y12301419D01*
X52127223Y12300326D01*
X52201011Y12299403D01*
X52289028Y12298619D01*
X52392665Y12297945D01*
X52513316Y12297350D01*
X52652374Y12296805D01*
X52811232Y12296279D01*
X52990089Y12295745D01*
X53175207Y12295206D01*
X53339145Y12294772D01*
X53483303Y12294509D01*
X53609079Y12294484D01*
X53717871Y12294765D01*
X53811077Y12295419D01*
X53890097Y12296514D01*
X53956328Y12298118D01*
X54011170Y12300297D01*
X54056021Y12303119D01*
X54092278Y12306651D01*
X54121341Y12310961D01*
X54144609Y12316117D01*
X54163479Y12322185D01*
X54179351Y12329233D01*
X54193622Y12337329D01*
X54207691Y12346540D01*
X54220158Y12355040D01*
X54246452Y12372176D01*
X54264037Y12382322D01*
X54267257Y12383511D01*
X54268334Y12372604D01*
X54269335Y12341411D01*
X54270235Y12292223D01*
X54271010Y12227333D01*
X54271637Y12149030D01*
X54272091Y12059607D01*
X54272349Y11961356D01*
X54272400Y11892445D01*
X54272180Y11787452D01*
X54271548Y11690610D01*
X54270549Y11604107D01*
X54269227Y11530132D01*
X54267626Y11470874D01*
X54265791Y11428520D01*
X54263765Y11405260D01*
X54262493Y11401378D01*
X54247591Y11409076D01*
X54239560Y11417074D01*
X54222434Y11430246D01*
X54192183Y11447485D01*
X54167622Y11459407D01*
X54108711Y11486045D01*
X52931845Y11489120D01*
X51754978Y11492195D01*
X51754978Y11937853D01*
X51755142Y12035670D01*
X51755611Y12126064D01*
X51756347Y12206630D01*
X51757316Y12274962D01*
X51758480Y12328656D01*
X51759803Y12365305D01*
X51761249Y12382504D01*
X51761702Y12383511D01*
X51761702Y13394517D01*
X51742722Y13379270D01*
X51650537Y13305090D01*
X51561204Y13233069D01*
X51476424Y13164569D01*
X51397898Y13100955D01*
X51327326Y13043588D01*
X51266409Y12993833D01*
X51216847Y12953052D01*
X51196178Y12935888D01*
X51095516Y12849596D01*
X51012259Y12772997D01*
X50944438Y12704183D01*
X50890089Y12641248D01*
X50882722Y12631867D01*
X50852117Y12592356D01*
X50851867Y13724116D01*
X50899844Y13718827D01*
X50957188Y13722130D01*
X51025463Y13743661D01*
X51105212Y13783635D01*
X51177495Y13828943D01*
X51200140Y13845161D01*
X51237696Y13873214D01*
X51288021Y13911430D01*
X51348973Y13958137D01*
X51418411Y14011661D01*
X51494194Y14070331D01*
X51574180Y14132475D01*
X51656228Y14196421D01*
X51738196Y14260495D01*
X51817943Y14323027D01*
X51893327Y14382343D01*
X51962207Y14436771D01*
X52022442Y14484639D01*
X52071889Y14524275D01*
X52108408Y14554006D01*
X52129858Y14572161D01*
X52133156Y14575220D01*
X52125149Y14578079D01*
X52094855Y14580293D01*
X52042556Y14581857D01*
X51968531Y14582767D01*
X51873063Y14583020D01*
X51756434Y14582613D01*
X51636445Y14581704D01*
X51504333Y14580382D01*
X51392594Y14578857D01*
X51299025Y14576881D01*
X51221419Y14574206D01*
X51157574Y14570582D01*
X51105283Y14565761D01*
X51062344Y14559494D01*
X51026551Y14551532D01*
X50995700Y14541627D01*
X50967586Y14529531D01*
X50940005Y14514993D01*
X50914966Y14500311D01*
X50851867Y14462314D01*
X50851867Y15522197D01*
X50851867Y15825034D01*
X50845617Y15825001D01*
X50743544Y15824195D01*
X50654633Y15823170D01*
X50577941Y15821900D01*
X50512527Y15820360D01*
X50457449Y15818524D01*
X50411765Y15816367D01*
X50374534Y15813863D01*
X50344813Y15810987D01*
X50321662Y15807713D01*
X50304139Y15804015D01*
X50291301Y15799869D01*
X50282208Y15795247D01*
X50275918Y15790126D01*
X50271488Y15784478D01*
X50267978Y15778279D01*
X50264445Y15771504D01*
X50260876Y15765508D01*
X50258300Y15760275D01*
X50255972Y15752099D01*
X50253878Y15739886D01*
X50252007Y15722541D01*
X50250347Y15698969D01*
X50248884Y15668077D01*
X50247608Y15628768D01*
X50246504Y15579950D01*
X50245561Y15520527D01*
X50244767Y15449404D01*
X50244109Y15365488D01*
X50243575Y15267683D01*
X50243153Y15154894D01*
X50242829Y15026029D01*
X50242592Y14879991D01*
X50242430Y14715686D01*
X50242330Y14532020D01*
X50242280Y14327897D01*
X50242267Y14116753D01*
X50242267Y12496400D01*
X50339054Y12496400D01*
G36*
X50799071Y9221571D02*
G01*
X50820245Y9061430D01*
X50860385Y8897490D01*
X50919889Y8727687D01*
X50999154Y8549957D01*
X51004699Y8538690D01*
X51032725Y8480995D01*
X51056802Y8429448D01*
X51075249Y8387809D01*
X51086386Y8359838D01*
X51088933Y8350267D01*
X51093941Y8331050D01*
X51098147Y8326439D01*
X51108580Y8331542D01*
X51134868Y8347582D01*
X51174257Y8372712D01*
X51223991Y8405086D01*
X51281315Y8442857D01*
X51343476Y8484178D01*
X51407718Y8527202D01*
X51471285Y8570083D01*
X51531425Y8610974D01*
X51585380Y8648029D01*
X51630397Y8679400D01*
X51663721Y8703241D01*
X51682597Y8717706D01*
X51684787Y8719691D01*
X51680138Y8729809D01*
X51662962Y8752150D01*
X51636440Y8782720D01*
X51621964Y8798464D01*
X51546682Y8894953D01*
X51491241Y9001664D01*
X51456141Y9117168D01*
X51441880Y9240038D01*
X51443051Y9309439D01*
X51460212Y9430577D01*
X51496094Y9539795D01*
X51550959Y9637418D01*
X51625070Y9723772D01*
X51718688Y9799185D01*
X51832076Y9863982D01*
X51918667Y9901399D01*
X52054366Y9945252D01*
X52201850Y9977572D01*
X52357314Y9998443D01*
X52516956Y10007949D01*
X52676973Y10006173D01*
X52833561Y9993197D01*
X52982918Y9969106D01*
X53121240Y9933982D01*
X53244724Y9887908D01*
X53278978Y9871627D01*
X53393064Y9803380D01*
X53489557Y9722921D01*
X53567670Y9631430D01*
X53626617Y9530089D01*
X53665612Y9420080D01*
X53683868Y9302585D01*
X53685211Y9261117D01*
X53674290Y9139559D01*
X53641474Y9019122D01*
X53587439Y8901334D01*
X53512865Y8787723D01*
X53434539Y8696315D01*
X53390008Y8649785D01*
X53687271Y8468517D01*
X53761433Y8423420D01*
X53829646Y8382181D01*
X53889459Y8346265D01*
X53938420Y8317134D01*
X53974079Y8296250D01*
X53993984Y8285076D01*
X53997079Y8283625D01*
X54006718Y8291854D01*
X54023999Y8317433D01*
X54047283Y8357127D01*
X54074934Y8407703D01*
X54105315Y8465926D01*
X54136790Y8528563D01*
X54167722Y8592379D01*
X54196473Y8654140D01*
X54221408Y8710612D01*
X54240889Y8758562D01*
X54249318Y8782014D01*
X54287133Y8915779D01*
X54312136Y9053673D01*
X54325140Y9201378D01*
X54327468Y9328167D01*
X54326373Y9396122D01*
X54324275Y9461723D01*
X54321434Y9519153D01*
X54318106Y9562597D01*
X54316422Y9576702D01*
X54287587Y9715716D01*
X54242468Y9857243D01*
X54183750Y9994725D01*
X54114120Y10121606D01*
X54061441Y10199111D01*
X53953239Y10326519D01*
X53826671Y10444822D01*
X53684866Y10551828D01*
X53530951Y10645348D01*
X53368053Y10723190D01*
X53250756Y10767044D01*
X53067128Y10817292D01*
X52872581Y10850791D01*
X52671325Y10867551D01*
X52467568Y10867584D01*
X52265521Y10850899D01*
X52069392Y10817507D01*
X51883391Y10767420D01*
X51871803Y10763603D01*
X51709750Y10700719D01*
X51561832Y10623972D01*
X51423865Y10530758D01*
X51291661Y10418473D01*
X51246399Y10374608D01*
X51122457Y10238466D01*
X51019915Y10098509D01*
X50937656Y9952589D01*
X50874564Y9798558D01*
X50829523Y9634268D01*
X50812033Y9538711D01*
X50796466Y9379977D01*
X50799071Y9221571D01*
G37*
X50799071Y9221571D02*
X50820245Y9061430D01*
X50860385Y8897490D01*
X50919889Y8727687D01*
X50999154Y8549957D01*
X51004699Y8538690D01*
X51032725Y8480995D01*
X51056802Y8429448D01*
X51075249Y8387809D01*
X51086386Y8359838D01*
X51088933Y8350267D01*
X51093941Y8331050D01*
X51098147Y8326439D01*
X51108580Y8331542D01*
X51134868Y8347582D01*
X51174257Y8372712D01*
X51223991Y8405086D01*
X51281315Y8442857D01*
X51343476Y8484178D01*
X51407718Y8527202D01*
X51471285Y8570083D01*
X51531425Y8610974D01*
X51585380Y8648029D01*
X51630397Y8679400D01*
X51663721Y8703241D01*
X51682597Y8717706D01*
X51684787Y8719691D01*
X51680138Y8729809D01*
X51662962Y8752150D01*
X51636440Y8782720D01*
X51621964Y8798464D01*
X51546682Y8894953D01*
X51491241Y9001664D01*
X51456141Y9117168D01*
X51441880Y9240038D01*
X51443051Y9309439D01*
X51460212Y9430577D01*
X51496094Y9539795D01*
X51550959Y9637418D01*
X51625070Y9723772D01*
X51718688Y9799185D01*
X51832076Y9863982D01*
X51918667Y9901399D01*
X52054366Y9945252D01*
X52201850Y9977572D01*
X52357314Y9998443D01*
X52516956Y10007949D01*
X52676973Y10006173D01*
X52833561Y9993197D01*
X52982918Y9969106D01*
X53121240Y9933982D01*
X53244724Y9887908D01*
X53278978Y9871627D01*
X53393064Y9803380D01*
X53489557Y9722921D01*
X53567670Y9631430D01*
X53626617Y9530089D01*
X53665612Y9420080D01*
X53683868Y9302585D01*
X53685211Y9261117D01*
X53674290Y9139559D01*
X53641474Y9019122D01*
X53587439Y8901334D01*
X53512865Y8787723D01*
X53434539Y8696315D01*
X53390008Y8649785D01*
X53687271Y8468517D01*
X53761433Y8423420D01*
X53829646Y8382181D01*
X53889459Y8346265D01*
X53938420Y8317134D01*
X53974079Y8296250D01*
X53993984Y8285076D01*
X53997079Y8283625D01*
X54006718Y8291854D01*
X54023999Y8317433D01*
X54047283Y8357127D01*
X54074934Y8407703D01*
X54105315Y8465926D01*
X54136790Y8528563D01*
X54167722Y8592379D01*
X54196473Y8654140D01*
X54221408Y8710612D01*
X54240889Y8758562D01*
X54249318Y8782014D01*
X54287133Y8915779D01*
X54312136Y9053673D01*
X54325140Y9201378D01*
X54327468Y9328167D01*
X54326373Y9396122D01*
X54324275Y9461723D01*
X54321434Y9519153D01*
X54318106Y9562597D01*
X54316422Y9576702D01*
X54287587Y9715716D01*
X54242468Y9857243D01*
X54183750Y9994725D01*
X54114120Y10121606D01*
X54061441Y10199111D01*
X53953239Y10326519D01*
X53826671Y10444822D01*
X53684866Y10551828D01*
X53530951Y10645348D01*
X53368053Y10723190D01*
X53250756Y10767044D01*
X53067128Y10817292D01*
X52872581Y10850791D01*
X52671325Y10867551D01*
X52467568Y10867584D01*
X52265521Y10850899D01*
X52069392Y10817507D01*
X51883391Y10767420D01*
X51871803Y10763603D01*
X51709750Y10700719D01*
X51561832Y10623972D01*
X51423865Y10530758D01*
X51291661Y10418473D01*
X51246399Y10374608D01*
X51122457Y10238466D01*
X51019915Y10098509D01*
X50937656Y9952589D01*
X50874564Y9798558D01*
X50829523Y9634268D01*
X50812033Y9538711D01*
X50796466Y9379977D01*
X50799071Y9221571D01*
G36*
X51716552Y6876426D02*
G01*
X51736567Y6724508D01*
X51770202Y6589244D01*
X51817725Y6469761D01*
X51879405Y6365185D01*
X51942965Y6287576D01*
X52017099Y6218735D01*
X52096871Y6164994D01*
X52189091Y6122090D01*
X52232161Y6106616D01*
X52271142Y6093756D01*
X52307289Y6082554D01*
X52342434Y6072880D01*
X52378410Y6064604D01*
X52417050Y6057597D01*
X52460185Y6051728D01*
X52509649Y6046869D01*
X52567273Y6042890D01*
X52634891Y6039660D01*
X52714334Y6037051D01*
X52807436Y6034933D01*
X52916027Y6033176D01*
X53041942Y6031651D01*
X53187012Y6030228D01*
X53329778Y6028975D01*
X53485968Y6027649D01*
X53621239Y6026444D01*
X53737246Y6025234D01*
X53835645Y6023894D01*
X53918093Y6022300D01*
X53986246Y6020325D01*
X54041760Y6017844D01*
X54086292Y6014731D01*
X54121498Y6010862D01*
X54149034Y6006111D01*
X54170556Y6000352D01*
X54187722Y5993461D01*
X54202186Y5985311D01*
X54215606Y5975777D01*
X54229638Y5964734D01*
X54235071Y5960434D01*
X54257910Y5944614D01*
X54273463Y5937578D01*
X54273922Y5937556D01*
X54276121Y5948433D01*
X54278147Y5979418D01*
X54279942Y6028043D01*
X54281451Y6091837D01*
X54282616Y6168331D01*
X54283380Y6255056D01*
X54283686Y6349543D01*
X54283689Y6360450D01*
X54283689Y6783343D01*
X54187622Y6786605D01*
X54091556Y6789867D01*
X54142543Y6851956D01*
X54210057Y6949286D01*
X54264749Y7059187D01*
X54294978Y7145651D01*
X54309666Y7214722D01*
X54319659Y7298075D01*
X54324646Y7387841D01*
X54324313Y7476155D01*
X54318351Y7555149D01*
X54312638Y7591378D01*
X54274776Y7731397D01*
X54219932Y7857822D01*
X54148924Y7969740D01*
X54062568Y8066238D01*
X53961679Y8146400D01*
X53847076Y8209313D01*
X53720984Y8253688D01*
X53664401Y8266022D01*
X53602202Y8273632D01*
X53527363Y8277261D01*
X53493467Y8277755D01*
X53490282Y8277690D01*
X53490282Y7517752D01*
X53565333Y7508459D01*
X53629160Y7480272D01*
X53684798Y7431803D01*
X53689211Y7426746D01*
X53724037Y7378452D01*
X53746620Y7326743D01*
X53758540Y7266011D01*
X53761383Y7190648D01*
X53760978Y7172541D01*
X53758325Y7118722D01*
X53752909Y7078692D01*
X53742745Y7043676D01*
X53725850Y7004897D01*
X53720672Y6994255D01*
X53684844Y6933604D01*
X53642212Y6886785D01*
X53626973Y6874048D01*
X53570462Y6829378D01*
X53374586Y6829378D01*
X53295939Y6829914D01*
X53237988Y6831604D01*
X53198875Y6834572D01*
X53176741Y6838943D01*
X53170274Y6843028D01*
X53167111Y6858953D01*
X53164488Y6892736D01*
X53162655Y6939660D01*
X53161857Y6995007D01*
X53161842Y7003894D01*
X53167096Y7124670D01*
X53183263Y7227340D01*
X53210961Y7313894D01*
X53250808Y7386319D01*
X53297758Y7441249D01*
X53355645Y7485796D01*
X53418693Y7510520D01*
X53490282Y7517752D01*
X53490282Y8277690D01*
X53399712Y8275822D01*
X53320812Y8267478D01*
X53249590Y8251232D01*
X53178864Y8225595D01*
X53126493Y8201599D01*
X53031196Y8142980D01*
X52943170Y8064883D01*
X52864017Y7969685D01*
X52795340Y7859762D01*
X52738741Y7737490D01*
X52695821Y7605245D01*
X52680882Y7540578D01*
X52658777Y7404396D01*
X52644194Y7255951D01*
X52637813Y7104495D01*
X52639445Y6977936D01*
X52646224Y6816050D01*
X52587245Y6823470D01*
X52488092Y6842762D01*
X52407372Y6873896D01*
X52344466Y6917731D01*
X52298756Y6975129D01*
X52269622Y7046952D01*
X52256447Y7134059D01*
X52258611Y7237314D01*
X52262612Y7275289D01*
X52287780Y7416480D01*
X52328814Y7553293D01*
X52366815Y7647822D01*
X52386190Y7692982D01*
X52401760Y7731415D01*
X52411405Y7757766D01*
X52413452Y7765454D01*
X52404374Y7775198D01*
X52375405Y7791917D01*
X52326217Y7815768D01*
X52256484Y7846907D01*
X52165879Y7885493D01*
X52150089Y7892090D01*
X52077772Y7922147D01*
X52012425Y7949126D01*
X51956906Y7971864D01*
X51914072Y7989194D01*
X51886781Y7999952D01*
X51877942Y8003059D01*
X51873187Y7993060D01*
X51867910Y7966783D01*
X51864231Y7938511D01*
X51859474Y7908354D01*
X51850028Y7860567D01*
X51836820Y7799388D01*
X51820776Y7729054D01*
X51802820Y7653806D01*
X51795797Y7625245D01*
X51770209Y7520184D01*
X51750147Y7432520D01*
X51734969Y7357932D01*
X51724035Y7292097D01*
X51716704Y7230693D01*
X51712335Y7169398D01*
X51710287Y7103890D01*
X51709889Y7045872D01*
X51716552Y6876426D01*
G37*
X51716552Y6876426D02*
X51736567Y6724508D01*
X51770202Y6589244D01*
X51817725Y6469761D01*
X51879405Y6365185D01*
X51942965Y6287576D01*
X52017099Y6218735D01*
X52096871Y6164994D01*
X52189091Y6122090D01*
X52232161Y6106616D01*
X52271142Y6093756D01*
X52307289Y6082554D01*
X52342434Y6072880D01*
X52378410Y6064604D01*
X52417050Y6057597D01*
X52460185Y6051728D01*
X52509649Y6046869D01*
X52567273Y6042890D01*
X52634891Y6039660D01*
X52714334Y6037051D01*
X52807436Y6034933D01*
X52916027Y6033176D01*
X53041942Y6031651D01*
X53187012Y6030228D01*
X53329778Y6028975D01*
X53485968Y6027649D01*
X53621239Y6026444D01*
X53737246Y6025234D01*
X53835645Y6023894D01*
X53918093Y6022300D01*
X53986246Y6020325D01*
X54041760Y6017844D01*
X54086292Y6014731D01*
X54121498Y6010862D01*
X54149034Y6006111D01*
X54170556Y6000352D01*
X54187722Y5993461D01*
X54202186Y5985311D01*
X54215606Y5975777D01*
X54229638Y5964734D01*
X54235071Y5960434D01*
X54257910Y5944614D01*
X54273463Y5937578D01*
X54273922Y5937556D01*
X54276121Y5948433D01*
X54278147Y5979418D01*
X54279942Y6028043D01*
X54281451Y6091837D01*
X54282616Y6168331D01*
X54283380Y6255056D01*
X54283686Y6349543D01*
X54283689Y6360450D01*
X54283689Y6783343D01*
X54187622Y6786605D01*
X54091556Y6789867D01*
X54142543Y6851956D01*
X54210057Y6949286D01*
X54264749Y7059187D01*
X54294978Y7145651D01*
X54309666Y7214722D01*
X54319659Y7298075D01*
X54324646Y7387841D01*
X54324313Y7476155D01*
X54318351Y7555149D01*
X54312638Y7591378D01*
X54274776Y7731397D01*
X54219932Y7857822D01*
X54148924Y7969740D01*
X54062568Y8066238D01*
X53961679Y8146400D01*
X53847076Y8209313D01*
X53720984Y8253688D01*
X53664401Y8266022D01*
X53602202Y8273632D01*
X53527363Y8277261D01*
X53493467Y8277755D01*
X53490282Y8277690D01*
X53490282Y7517752D01*
X53565333Y7508459D01*
X53629160Y7480272D01*
X53684798Y7431803D01*
X53689211Y7426746D01*
X53724037Y7378452D01*
X53746620Y7326743D01*
X53758540Y7266011D01*
X53761383Y7190648D01*
X53760978Y7172541D01*
X53758325Y7118722D01*
X53752909Y7078692D01*
X53742745Y7043676D01*
X53725850Y7004897D01*
X53720672Y6994255D01*
X53684844Y6933604D01*
X53642212Y6886785D01*
X53626973Y6874048D01*
X53570462Y6829378D01*
X53374586Y6829378D01*
X53295939Y6829914D01*
X53237988Y6831604D01*
X53198875Y6834572D01*
X53176741Y6838943D01*
X53170274Y6843028D01*
X53167111Y6858953D01*
X53164488Y6892736D01*
X53162655Y6939660D01*
X53161857Y6995007D01*
X53161842Y7003894D01*
X53167096Y7124670D01*
X53183263Y7227340D01*
X53210961Y7313894D01*
X53250808Y7386319D01*
X53297758Y7441249D01*
X53355645Y7485796D01*
X53418693Y7510520D01*
X53490282Y7517752D01*
X53490282Y8277690D01*
X53399712Y8275822D01*
X53320812Y8267478D01*
X53249590Y8251232D01*
X53178864Y8225595D01*
X53126493Y8201599D01*
X53031196Y8142980D01*
X52943170Y8064883D01*
X52864017Y7969685D01*
X52795340Y7859762D01*
X52738741Y7737490D01*
X52695821Y7605245D01*
X52680882Y7540578D01*
X52658777Y7404396D01*
X52644194Y7255951D01*
X52637813Y7104495D01*
X52639445Y6977936D01*
X52646224Y6816050D01*
X52587245Y6823470D01*
X52488092Y6842762D01*
X52407372Y6873896D01*
X52344466Y6917731D01*
X52298756Y6975129D01*
X52269622Y7046952D01*
X52256447Y7134059D01*
X52258611Y7237314D01*
X52262612Y7275289D01*
X52287780Y7416480D01*
X52328814Y7553293D01*
X52366815Y7647822D01*
X52386190Y7692982D01*
X52401760Y7731415D01*
X52411405Y7757766D01*
X52413452Y7765454D01*
X52404374Y7775198D01*
X52375405Y7791917D01*
X52326217Y7815768D01*
X52256484Y7846907D01*
X52165879Y7885493D01*
X52150089Y7892090D01*
X52077772Y7922147D01*
X52012425Y7949126D01*
X51956906Y7971864D01*
X51914072Y7989194D01*
X51886781Y7999952D01*
X51877942Y8003059D01*
X51873187Y7993060D01*
X51867910Y7966783D01*
X51864231Y7938511D01*
X51859474Y7908354D01*
X51850028Y7860567D01*
X51836820Y7799388D01*
X51820776Y7729054D01*
X51802820Y7653806D01*
X51795797Y7625245D01*
X51770209Y7520184D01*
X51750147Y7432520D01*
X51734969Y7357932D01*
X51724035Y7292097D01*
X51716704Y7230693D01*
X51712335Y7169398D01*
X51710287Y7103890D01*
X51709889Y7045872D01*
X51716552Y6876426D01*
G36*
X52322245Y3363493D02*
G01*
X52556662Y3363474D01*
X52769603Y3363448D01*
X52962168Y3363375D01*
X53135459Y3363218D01*
X53290576Y3362936D01*
X53428620Y3362491D01*
X53550692Y3361844D01*
X53657894Y3360955D01*
X53751326Y3359787D01*
X53832090Y3358299D01*
X53901286Y3356454D01*
X53960015Y3354211D01*
X54009379Y3351531D01*
X54050478Y3348377D01*
X54084413Y3344708D01*
X54112286Y3340487D01*
X54135198Y3335673D01*
X54154249Y3330227D01*
X54170540Y3324112D01*
X54185173Y3317288D01*
X54199249Y3309715D01*
X54213868Y3301355D01*
X54222974Y3296161D01*
X54283689Y3261896D01*
X54283689Y4120045D01*
X54187733Y4120045D01*
X54144370Y4120776D01*
X54111205Y4122728D01*
X54093424Y4125537D01*
X54091778Y4126779D01*
X54098662Y4138201D01*
X54116505Y4160916D01*
X54135879Y4183615D01*
X54176614Y4238200D01*
X54217617Y4307679D01*
X54255123Y4384730D01*
X54285364Y4462035D01*
X54295012Y4492887D01*
X54309578Y4561384D01*
X54319539Y4644236D01*
X54324583Y4733629D01*
X54324396Y4821752D01*
X54318666Y4900793D01*
X54312858Y4938489D01*
X54274797Y5076586D01*
X54217073Y5203887D01*
X54140211Y5319708D01*
X54044739Y5423363D01*
X53931179Y5514167D01*
X53820381Y5580969D01*
X53703625Y5635836D01*
X53584276Y5677837D01*
X53458283Y5707833D01*
X53321594Y5726689D01*
X53170158Y5735268D01*
X53092711Y5735994D01*
X53035934Y5733900D01*
X53035934Y4904783D01*
X53129002Y4904576D01*
X53216692Y4901663D01*
X53293772Y4896000D01*
X53355009Y4887545D01*
X53367350Y4884962D01*
X53474633Y4853160D01*
X53561658Y4811502D01*
X53628642Y4759637D01*
X53675805Y4697219D01*
X53703365Y4623900D01*
X53711541Y4539331D01*
X53700551Y4443165D01*
X53684829Y4379689D01*
X53666639Y4330546D01*
X53640791Y4276417D01*
X53617089Y4235756D01*
X53570721Y4165200D01*
X52420530Y4165200D01*
X52376962Y4232608D01*
X52336040Y4311133D01*
X52309389Y4395319D01*
X52297465Y4480443D01*
X52300722Y4561784D01*
X52319615Y4634620D01*
X52335184Y4666574D01*
X52378181Y4724499D01*
X52434953Y4773456D01*
X52507575Y4814610D01*
X52598121Y4849126D01*
X52708666Y4878167D01*
X52714533Y4879448D01*
X52776788Y4889619D01*
X52854594Y4897261D01*
X52942720Y4902330D01*
X53035934Y4904783D01*
X53035934Y5733900D01*
X52879895Y5728143D01*
X52684059Y5706198D01*
X52505332Y5670214D01*
X52343845Y5620241D01*
X52199726Y5556332D01*
X52073106Y5478538D01*
X51964115Y5386911D01*
X51872883Y5281503D01*
X51841932Y5236338D01*
X51785785Y5135389D01*
X51746174Y5032099D01*
X51722014Y4922011D01*
X51712219Y4800670D01*
X51713265Y4708164D01*
X51724231Y4578510D01*
X51746046Y4465916D01*
X51779714Y4367125D01*
X51826236Y4278879D01*
X51860448Y4230014D01*
X51882362Y4200647D01*
X51897333Y4178957D01*
X51901733Y4170747D01*
X51890904Y4169132D01*
X51860251Y4167841D01*
X51812526Y4166862D01*
X51750479Y4166183D01*
X51676862Y4165790D01*
X51594427Y4165670D01*
X51505925Y4165812D01*
X51414107Y4166203D01*
X51321724Y4166829D01*
X51231528Y4167680D01*
X51146271Y4168740D01*
X51068703Y4169999D01*
X51001576Y4171444D01*
X50947641Y4173062D01*
X50909650Y4174839D01*
X50902667Y4175331D01*
X50832251Y4182908D01*
X50777102Y4194469D01*
X50729981Y4212208D01*
X50683647Y4238318D01*
X50674067Y4244585D01*
X50637378Y4269017D01*
X50637378Y3363689D01*
X52322245Y3363493D01*
G37*
X52322245Y3363493D02*
X52556662Y3363474D01*
X52769603Y3363448D01*
X52962168Y3363375D01*
X53135459Y3363218D01*
X53290576Y3362936D01*
X53428620Y3362491D01*
X53550692Y3361844D01*
X53657894Y3360955D01*
X53751326Y3359787D01*
X53832090Y3358299D01*
X53901286Y3356454D01*
X53960015Y3354211D01*
X54009379Y3351531D01*
X54050478Y3348377D01*
X54084413Y3344708D01*
X54112286Y3340487D01*
X54135198Y3335673D01*
X54154249Y3330227D01*
X54170540Y3324112D01*
X54185173Y3317288D01*
X54199249Y3309715D01*
X54213868Y3301355D01*
X54222974Y3296161D01*
X54283689Y3261896D01*
X54283689Y4120045D01*
X54187733Y4120045D01*
X54144370Y4120776D01*
X54111205Y4122728D01*
X54093424Y4125537D01*
X54091778Y4126779D01*
X54098662Y4138201D01*
X54116505Y4160916D01*
X54135879Y4183615D01*
X54176614Y4238200D01*
X54217617Y4307679D01*
X54255123Y4384730D01*
X54285364Y4462035D01*
X54295012Y4492887D01*
X54309578Y4561384D01*
X54319539Y4644236D01*
X54324583Y4733629D01*
X54324396Y4821752D01*
X54318666Y4900793D01*
X54312858Y4938489D01*
X54274797Y5076586D01*
X54217073Y5203887D01*
X54140211Y5319708D01*
X54044739Y5423363D01*
X53931179Y5514167D01*
X53820381Y5580969D01*
X53703625Y5635836D01*
X53584276Y5677837D01*
X53458283Y5707833D01*
X53321594Y5726689D01*
X53170158Y5735268D01*
X53092711Y5735994D01*
X53035934Y5733900D01*
X53035934Y4904783D01*
X53129002Y4904576D01*
X53216692Y4901663D01*
X53293772Y4896000D01*
X53355009Y4887545D01*
X53367350Y4884962D01*
X53474633Y4853160D01*
X53561658Y4811502D01*
X53628642Y4759637D01*
X53675805Y4697219D01*
X53703365Y4623900D01*
X53711541Y4539331D01*
X53700551Y4443165D01*
X53684829Y4379689D01*
X53666639Y4330546D01*
X53640791Y4276417D01*
X53617089Y4235756D01*
X53570721Y4165200D01*
X52420530Y4165200D01*
X52376962Y4232608D01*
X52336040Y4311133D01*
X52309389Y4395319D01*
X52297465Y4480443D01*
X52300722Y4561784D01*
X52319615Y4634620D01*
X52335184Y4666574D01*
X52378181Y4724499D01*
X52434953Y4773456D01*
X52507575Y4814610D01*
X52598121Y4849126D01*
X52708666Y4878167D01*
X52714533Y4879448D01*
X52776788Y4889619D01*
X52854594Y4897261D01*
X52942720Y4902330D01*
X53035934Y4904783D01*
X53035934Y5733900D01*
X52879895Y5728143D01*
X52684059Y5706198D01*
X52505332Y5670214D01*
X52343845Y5620241D01*
X52199726Y5556332D01*
X52073106Y5478538D01*
X51964115Y5386911D01*
X51872883Y5281503D01*
X51841932Y5236338D01*
X51785785Y5135389D01*
X51746174Y5032099D01*
X51722014Y4922011D01*
X51712219Y4800670D01*
X51713265Y4708164D01*
X51724231Y4578510D01*
X51746046Y4465916D01*
X51779714Y4367125D01*
X51826236Y4278879D01*
X51860448Y4230014D01*
X51882362Y4200647D01*
X51897333Y4178957D01*
X51901733Y4170747D01*
X51890904Y4169132D01*
X51860251Y4167841D01*
X51812526Y4166862D01*
X51750479Y4166183D01*
X51676862Y4165790D01*
X51594427Y4165670D01*
X51505925Y4165812D01*
X51414107Y4166203D01*
X51321724Y4166829D01*
X51231528Y4167680D01*
X51146271Y4168740D01*
X51068703Y4169999D01*
X51001576Y4171444D01*
X50947641Y4173062D01*
X50909650Y4174839D01*
X50902667Y4175331D01*
X50832251Y4182908D01*
X50777102Y4194469D01*
X50729981Y4212208D01*
X50683647Y4238318D01*
X50674067Y4244585D01*
X50637378Y4269017D01*
X50637378Y3363689D01*
X52322245Y3363493D01*
G36*
X49876571Y11823043D02*
G01*
X49900809Y11726768D01*
X49943641Y11640184D01*
X50003419Y11565373D01*
X50078494Y11504418D01*
X50167220Y11459399D01*
X50263530Y11433136D01*
X50360795Y11427286D01*
X50454654Y11442140D01*
X50542511Y11475840D01*
X50621770Y11526528D01*
X50689836Y11592345D01*
X50744112Y11671434D01*
X50782002Y11761934D01*
X50794426Y11813200D01*
X50801947Y11857698D01*
X50804919Y11891999D01*
X50803094Y11924960D01*
X50796225Y11965434D01*
X50789250Y11998531D01*
X50757741Y12091947D01*
X50706617Y12175619D01*
X50637429Y12247665D01*
X50551728Y12306200D01*
X50524489Y12320148D01*
X50488122Y12336586D01*
X50457582Y12346894D01*
X50425450Y12352460D01*
X50384307Y12354669D01*
X50338222Y12354948D01*
X50253865Y12350861D01*
X50184586Y12337446D01*
X50123961Y12312256D01*
X50065567Y12272846D01*
X50021302Y12234298D01*
X49955484Y12162406D01*
X49910053Y12087313D01*
X49882850Y12004562D01*
X49872576Y11926928D01*
X49876571Y11823043D01*
G37*
X49876571Y11823043D02*
X49900809Y11726768D01*
X49943641Y11640184D01*
X50003419Y11565373D01*
X50078494Y11504418D01*
X50167220Y11459399D01*
X50263530Y11433136D01*
X50360795Y11427286D01*
X50454654Y11442140D01*
X50542511Y11475840D01*
X50621770Y11526528D01*
X50689836Y11592345D01*
X50744112Y11671434D01*
X50782002Y11761934D01*
X50794426Y11813200D01*
X50801947Y11857698D01*
X50804919Y11891999D01*
X50803094Y11924960D01*
X50796225Y11965434D01*
X50789250Y11998531D01*
X50757741Y12091947D01*
X50706617Y12175619D01*
X50637429Y12247665D01*
X50551728Y12306200D01*
X50524489Y12320148D01*
X50488122Y12336586D01*
X50457582Y12346894D01*
X50425450Y12352460D01*
X50384307Y12354669D01*
X50338222Y12354948D01*
X50253865Y12350861D01*
X50184586Y12337446D01*
X50123961Y12312256D01*
X50065567Y12272846D01*
X50021302Y12234298D01*
X49955484Y12162406D01*
X49910053Y12087313D01*
X49882850Y12004562D01*
X49872576Y11926928D01*
X49876571Y11823043D01*
G36*
X55119066Y15671371D02*
G01*
X55119467Y15631889D01*
X55122259Y15516200D01*
X55130550Y15419311D01*
X55145232Y15337919D01*
X55167193Y15268723D01*
X55197322Y15208420D01*
X55236510Y15153708D01*
X55253532Y15134167D01*
X55293363Y15101750D01*
X55347413Y15072520D01*
X55407323Y15049991D01*
X55464739Y15037679D01*
X55485956Y15036400D01*
X55544769Y15044417D01*
X55609013Y15065899D01*
X55669821Y15096999D01*
X55718330Y15133866D01*
X55724182Y15139854D01*
X55765321Y15190579D01*
X55797435Y15246125D01*
X55821365Y15309696D01*
X55837953Y15384494D01*
X55848041Y15473722D01*
X55852469Y15580582D01*
X55852845Y15629528D01*
X55852545Y15691762D01*
X55851292Y15735528D01*
X55848554Y15764931D01*
X55843801Y15784079D01*
X55836501Y15797077D01*
X55830267Y15804045D01*
X55822694Y15810626D01*
X55812924Y15815788D01*
X55798340Y15819703D01*
X55776326Y15822543D01*
X55744264Y15824480D01*
X55699536Y15825684D01*
X55639526Y15826328D01*
X55561617Y15826583D01*
X55485956Y15826622D01*
X55385041Y15826870D01*
X55304427Y15826817D01*
X55265822Y15825857D01*
X55265822Y15679867D01*
X55706089Y15679867D01*
X55706004Y15586734D01*
X55704396Y15530693D01*
X55700256Y15471999D01*
X55694464Y15423028D01*
X55694226Y15421538D01*
X55675090Y15342392D01*
X55645287Y15281002D01*
X55602878Y15234305D01*
X55556961Y15204635D01*
X55506026Y15186353D01*
X55458200Y15187771D01*
X55406933Y15208988D01*
X55353899Y15250489D01*
X55314600Y15307998D01*
X55288331Y15382750D01*
X55279035Y15432708D01*
X55272507Y15489416D01*
X55267782Y15549519D01*
X55265817Y15600639D01*
X55265808Y15603667D01*
X55265822Y15679867D01*
X55265822Y15825857D01*
X55241851Y15825260D01*
X55195055Y15820998D01*
X55161778Y15812830D01*
X55139759Y15799556D01*
X55126739Y15779974D01*
X55120457Y15752883D01*
X55118653Y15717082D01*
X55119066Y15671371D01*
G37*
X55119066Y15671371D02*
X55119467Y15631889D01*
X55122259Y15516200D01*
X55130550Y15419311D01*
X55145232Y15337919D01*
X55167193Y15268723D01*
X55197322Y15208420D01*
X55236510Y15153708D01*
X55253532Y15134167D01*
X55293363Y15101750D01*
X55347413Y15072520D01*
X55407323Y15049991D01*
X55464739Y15037679D01*
X55485956Y15036400D01*
X55544769Y15044417D01*
X55609013Y15065899D01*
X55669821Y15096999D01*
X55718330Y15133866D01*
X55724182Y15139854D01*
X55765321Y15190579D01*
X55797435Y15246125D01*
X55821365Y15309696D01*
X55837953Y15384494D01*
X55848041Y15473722D01*
X55852469Y15580582D01*
X55852845Y15629528D01*
X55852545Y15691762D01*
X55851292Y15735528D01*
X55848554Y15764931D01*
X55843801Y15784079D01*
X55836501Y15797077D01*
X55830267Y15804045D01*
X55822694Y15810626D01*
X55812924Y15815788D01*
X55798340Y15819703D01*
X55776326Y15822543D01*
X55744264Y15824480D01*
X55699536Y15825684D01*
X55639526Y15826328D01*
X55561617Y15826583D01*
X55485956Y15826622D01*
X55385041Y15826870D01*
X55304427Y15826817D01*
X55265822Y15825857D01*
X55265822Y15679867D01*
X55706089Y15679867D01*
X55706004Y15586734D01*
X55704396Y15530693D01*
X55700256Y15471999D01*
X55694464Y15423028D01*
X55694226Y15421538D01*
X55675090Y15342392D01*
X55645287Y15281002D01*
X55602878Y15234305D01*
X55556961Y15204635D01*
X55506026Y15186353D01*
X55458200Y15187771D01*
X55406933Y15208988D01*
X55353899Y15250489D01*
X55314600Y15307998D01*
X55288331Y15382750D01*
X55279035Y15432708D01*
X55272507Y15489416D01*
X55267782Y15549519D01*
X55265817Y15600639D01*
X55265808Y15603667D01*
X55265822Y15679867D01*
X55265822Y15825857D01*
X55241851Y15825260D01*
X55195055Y15820998D01*
X55161778Y15812830D01*
X55139759Y15799556D01*
X55126739Y15779974D01*
X55120457Y15752883D01*
X55118653Y15717082D01*
X55119066Y15671371D01*
G36*
X55119146Y14262794D02*
G01*
X55119518Y14193386D01*
X55120385Y14140997D01*
X55121946Y14102847D01*
X55124403Y14076159D01*
X55127957Y14058153D01*
X55132810Y14046049D01*
X55139161Y14037069D01*
X55142084Y14033818D01*
X55173142Y14014043D01*
X55208828Y14010482D01*
X55240510Y14023491D01*
X55246913Y14029506D01*
X55253121Y14039235D01*
X55257910Y14054901D01*
X55261514Y14079408D01*
X55264164Y14115661D01*
X55266095Y14166565D01*
X55267539Y14235026D01*
X55268418Y14297617D01*
X55271467Y14545334D01*
X55336378Y14548719D01*
X55401289Y14552105D01*
X55401289Y14383958D01*
X55401919Y14310959D01*
X55404553Y14257517D01*
X55410309Y14220628D01*
X55420304Y14197288D01*
X55435656Y14184494D01*
X55457482Y14179242D01*
X55477738Y14178445D01*
X55502592Y14180923D01*
X55520906Y14190277D01*
X55533637Y14209383D01*
X55541741Y14241118D01*
X55546176Y14288359D01*
X55547899Y14353983D01*
X55548045Y14389801D01*
X55548045Y14550978D01*
X55706089Y14550978D01*
X55706089Y14302622D01*
X55706202Y14221213D01*
X55706712Y14159342D01*
X55707870Y14113968D01*
X55709930Y14082054D01*
X55713146Y14060559D01*
X55717772Y14046443D01*
X55724059Y14036668D01*
X55728667Y14031689D01*
X55755560Y14014610D01*
X55779467Y14009111D01*
X55808667Y14016963D01*
X55830267Y14031689D01*
X55837066Y14039546D01*
X55842346Y14049688D01*
X55846298Y14064844D01*
X55849113Y14087741D01*
X55850982Y14121109D01*
X55852098Y14167675D01*
X55852651Y14230167D01*
X55852833Y14311314D01*
X55852845Y14353422D01*
X55852765Y14443598D01*
X55852398Y14513924D01*
X55851552Y14567129D01*
X55850036Y14605940D01*
X55847659Y14633087D01*
X55844229Y14651298D01*
X55839554Y14663300D01*
X55833444Y14671822D01*
X55830267Y14675156D01*
X55822670Y14681755D01*
X55812870Y14686927D01*
X55798239Y14690846D01*
X55776152Y14693684D01*
X55743982Y14695615D01*
X55699103Y14696812D01*
X55638889Y14697448D01*
X55560713Y14697697D01*
X55487923Y14697734D01*
X55394707Y14697700D01*
X55321431Y14697465D01*
X55265458Y14696830D01*
X55224151Y14695594D01*
X55194872Y14693556D01*
X55174984Y14690517D01*
X55161850Y14686277D01*
X55152832Y14680635D01*
X55145293Y14673391D01*
X55143612Y14671606D01*
X55136172Y14662945D01*
X55130409Y14652882D01*
X55126112Y14638625D01*
X55123064Y14617383D01*
X55121051Y14586364D01*
X55119860Y14542777D01*
X55119275Y14483831D01*
X55119083Y14406734D01*
X55119067Y14352001D01*
X55119146Y14262794D01*
G37*
X55119146Y14262794D02*
X55119518Y14193386D01*
X55120385Y14140997D01*
X55121946Y14102847D01*
X55124403Y14076159D01*
X55127957Y14058153D01*
X55132810Y14046049D01*
X55139161Y14037069D01*
X55142084Y14033818D01*
X55173142Y14014043D01*
X55208828Y14010482D01*
X55240510Y14023491D01*
X55246913Y14029506D01*
X55253121Y14039235D01*
X55257910Y14054901D01*
X55261514Y14079408D01*
X55264164Y14115661D01*
X55266095Y14166565D01*
X55267539Y14235026D01*
X55268418Y14297617D01*
X55271467Y14545334D01*
X55336378Y14548719D01*
X55401289Y14552105D01*
X55401289Y14383958D01*
X55401919Y14310959D01*
X55404553Y14257517D01*
X55410309Y14220628D01*
X55420304Y14197288D01*
X55435656Y14184494D01*
X55457482Y14179242D01*
X55477738Y14178445D01*
X55502592Y14180923D01*
X55520906Y14190277D01*
X55533637Y14209383D01*
X55541741Y14241118D01*
X55546176Y14288359D01*
X55547899Y14353983D01*
X55548045Y14389801D01*
X55548045Y14550978D01*
X55706089Y14550978D01*
X55706089Y14302622D01*
X55706202Y14221213D01*
X55706712Y14159342D01*
X55707870Y14113968D01*
X55709930Y14082054D01*
X55713146Y14060559D01*
X55717772Y14046443D01*
X55724059Y14036668D01*
X55728667Y14031689D01*
X55755560Y14014610D01*
X55779467Y14009111D01*
X55808667Y14016963D01*
X55830267Y14031689D01*
X55837066Y14039546D01*
X55842346Y14049688D01*
X55846298Y14064844D01*
X55849113Y14087741D01*
X55850982Y14121109D01*
X55852098Y14167675D01*
X55852651Y14230167D01*
X55852833Y14311314D01*
X55852845Y14353422D01*
X55852765Y14443598D01*
X55852398Y14513924D01*
X55851552Y14567129D01*
X55850036Y14605940D01*
X55847659Y14633087D01*
X55844229Y14651298D01*
X55839554Y14663300D01*
X55833444Y14671822D01*
X55830267Y14675156D01*
X55822670Y14681755D01*
X55812870Y14686927D01*
X55798239Y14690846D01*
X55776152Y14693684D01*
X55743982Y14695615D01*
X55699103Y14696812D01*
X55638889Y14697448D01*
X55560713Y14697697D01*
X55487923Y14697734D01*
X55394707Y14697700D01*
X55321431Y14697465D01*
X55265458Y14696830D01*
X55224151Y14695594D01*
X55194872Y14693556D01*
X55174984Y14690517D01*
X55161850Y14686277D01*
X55152832Y14680635D01*
X55145293Y14673391D01*
X55143612Y14671606D01*
X55136172Y14662945D01*
X55130409Y14652882D01*
X55126112Y14638625D01*
X55123064Y14617383D01*
X55121051Y14586364D01*
X55119860Y14542777D01*
X55119275Y14483831D01*
X55119083Y14406734D01*
X55119067Y14352001D01*
X55119146Y14262794D01*
G36*
X55120351Y13241703D02*
G01*
X55125581Y13166888D01*
X55133750Y13097306D01*
X55144550Y13037002D01*
X55157673Y12990020D01*
X55172813Y12960406D01*
X55177269Y12955860D01*
X55211850Y12940054D01*
X55247351Y12944847D01*
X55277725Y12969364D01*
X55278596Y12970534D01*
X55287954Y12984954D01*
X55292876Y13000008D01*
X55293473Y13021005D01*
X55289861Y13053257D01*
X55282154Y13102073D01*
X55281505Y13106000D01*
X55272569Y13178739D01*
X55268161Y13257217D01*
X55268119Y13335927D01*
X55272279Y13409361D01*
X55280479Y13472011D01*
X55292557Y13518370D01*
X55293771Y13521416D01*
X55312615Y13555048D01*
X55331685Y13566864D01*
X55350439Y13557614D01*
X55368337Y13528047D01*
X55384837Y13478911D01*
X55399396Y13410957D01*
X55406406Y13365645D01*
X55419889Y13271456D01*
X55432214Y13196544D01*
X55444449Y13137717D01*
X55457661Y13091785D01*
X55472917Y13055555D01*
X55491285Y13025838D01*
X55513831Y12999442D01*
X55535971Y12978230D01*
X55566819Y12953065D01*
X55593345Y12940681D01*
X55626026Y12936808D01*
X55637995Y12936667D01*
X55677712Y12939576D01*
X55707259Y12951202D01*
X55733486Y12971323D01*
X55773576Y13012216D01*
X55804149Y13057817D01*
X55826203Y13111513D01*
X55840735Y13176692D01*
X55848741Y13256744D01*
X55851218Y13355057D01*
X55851177Y13371289D01*
X55849818Y13436849D01*
X55846730Y13501866D01*
X55842356Y13559252D01*
X55837140Y13601922D01*
X55836541Y13605372D01*
X55826491Y13647796D01*
X55813796Y13683780D01*
X55802190Y13704150D01*
X55771572Y13723107D01*
X55735918Y13724427D01*
X55704144Y13708085D01*
X55700551Y13704429D01*
X55689876Y13689315D01*
X55685276Y13670415D01*
X55686059Y13641162D01*
X55690127Y13605651D01*
X55693762Y13565970D01*
X55696828Y13510345D01*
X55699053Y13445406D01*
X55700164Y13377785D01*
X55700237Y13360000D01*
X55699964Y13292128D01*
X55698646Y13242454D01*
X55695827Y13206610D01*
X55691050Y13180224D01*
X55683857Y13158926D01*
X55677867Y13146126D01*
X55661233Y13118000D01*
X55646168Y13100068D01*
X55641897Y13097447D01*
X55624263Y13102976D01*
X55607192Y13129260D01*
X55591458Y13174478D01*
X55577838Y13236808D01*
X55574804Y13255171D01*
X55559738Y13351090D01*
X55547146Y13427641D01*
X55536111Y13487780D01*
X55525720Y13534460D01*
X55515056Y13570637D01*
X55503205Y13599265D01*
X55489251Y13623298D01*
X55472281Y13645692D01*
X55451378Y13669402D01*
X55444049Y13677380D01*
X55416699Y13705353D01*
X55395029Y13720160D01*
X55370232Y13725952D01*
X55338983Y13726889D01*
X55277705Y13716575D01*
X55225640Y13685752D01*
X55182958Y13634595D01*
X55149825Y13563283D01*
X55134964Y13512400D01*
X55125366Y13457100D01*
X55119936Y13390853D01*
X55118367Y13317706D01*
X55120351Y13241703D01*
G37*
X55120351Y13241703D02*
X55125581Y13166888D01*
X55133750Y13097306D01*
X55144550Y13037002D01*
X55157673Y12990020D01*
X55172813Y12960406D01*
X55177269Y12955860D01*
X55211850Y12940054D01*
X55247351Y12944847D01*
X55277725Y12969364D01*
X55278596Y12970534D01*
X55287954Y12984954D01*
X55292876Y13000008D01*
X55293473Y13021005D01*
X55289861Y13053257D01*
X55282154Y13102073D01*
X55281505Y13106000D01*
X55272569Y13178739D01*
X55268161Y13257217D01*
X55268119Y13335927D01*
X55272279Y13409361D01*
X55280479Y13472011D01*
X55292557Y13518370D01*
X55293771Y13521416D01*
X55312615Y13555048D01*
X55331685Y13566864D01*
X55350439Y13557614D01*
X55368337Y13528047D01*
X55384837Y13478911D01*
X55399396Y13410957D01*
X55406406Y13365645D01*
X55419889Y13271456D01*
X55432214Y13196544D01*
X55444449Y13137717D01*
X55457661Y13091785D01*
X55472917Y13055555D01*
X55491285Y13025838D01*
X55513831Y12999442D01*
X55535971Y12978230D01*
X55566819Y12953065D01*
X55593345Y12940681D01*
X55626026Y12936808D01*
X55637995Y12936667D01*
X55677712Y12939576D01*
X55707259Y12951202D01*
X55733486Y12971323D01*
X55773576Y13012216D01*
X55804149Y13057817D01*
X55826203Y13111513D01*
X55840735Y13176692D01*
X55848741Y13256744D01*
X55851218Y13355057D01*
X55851177Y13371289D01*
X55849818Y13436849D01*
X55846730Y13501866D01*
X55842356Y13559252D01*
X55837140Y13601922D01*
X55836541Y13605372D01*
X55826491Y13647796D01*
X55813796Y13683780D01*
X55802190Y13704150D01*
X55771572Y13723107D01*
X55735918Y13724427D01*
X55704144Y13708085D01*
X55700551Y13704429D01*
X55689876Y13689315D01*
X55685276Y13670415D01*
X55686059Y13641162D01*
X55690127Y13605651D01*
X55693762Y13565970D01*
X55696828Y13510345D01*
X55699053Y13445406D01*
X55700164Y13377785D01*
X55700237Y13360000D01*
X55699964Y13292128D01*
X55698646Y13242454D01*
X55695827Y13206610D01*
X55691050Y13180224D01*
X55683857Y13158926D01*
X55677867Y13146126D01*
X55661233Y13118000D01*
X55646168Y13100068D01*
X55641897Y13097447D01*
X55624263Y13102976D01*
X55607192Y13129260D01*
X55591458Y13174478D01*
X55577838Y13236808D01*
X55574804Y13255171D01*
X55559738Y13351090D01*
X55547146Y13427641D01*
X55536111Y13487780D01*
X55525720Y13534460D01*
X55515056Y13570637D01*
X55503205Y13599265D01*
X55489251Y13623298D01*
X55472281Y13645692D01*
X55451378Y13669402D01*
X55444049Y13677380D01*
X55416699Y13705353D01*
X55395029Y13720160D01*
X55370232Y13725952D01*
X55338983Y13726889D01*
X55277705Y13716575D01*
X55225640Y13685752D01*
X55182958Y13634595D01*
X55149825Y13563283D01*
X55134964Y13512400D01*
X55125366Y13457100D01*
X55119936Y13390853D01*
X55118367Y13317706D01*
X55120351Y13241703D01*
G36*
X55141645Y12473822D02*
G01*
X55149218Y12467242D01*
X55158987Y12462079D01*
X55173571Y12458164D01*
X55195585Y12455324D01*
X55227648Y12453387D01*
X55272375Y12452183D01*
X55332385Y12451539D01*
X55410294Y12451284D01*
X55485956Y12451245D01*
X55579802Y12451314D01*
X55653689Y12451638D01*
X55710232Y12452386D01*
X55752049Y12453732D01*
X55781757Y12455846D01*
X55801973Y12458900D01*
X55815314Y12463066D01*
X55824398Y12468516D01*
X55830267Y12473822D01*
X55849947Y12506826D01*
X55848181Y12541991D01*
X55826717Y12573455D01*
X55818337Y12580684D01*
X55808614Y12586334D01*
X55794861Y12590599D01*
X55774389Y12593673D01*
X55744512Y12595752D01*
X55702541Y12597030D01*
X55645789Y12597701D01*
X55571567Y12597959D01*
X55487537Y12598000D01*
X55174485Y12598000D01*
X55146776Y12570291D01*
X55123463Y12536137D01*
X55122623Y12503006D01*
X55141645Y12473822D01*
G37*
X55141645Y12473822D02*
X55149218Y12467242D01*
X55158987Y12462079D01*
X55173571Y12458164D01*
X55195585Y12455324D01*
X55227648Y12453387D01*
X55272375Y12452183D01*
X55332385Y12451539D01*
X55410294Y12451284D01*
X55485956Y12451245D01*
X55579802Y12451314D01*
X55653689Y12451638D01*
X55710232Y12452386D01*
X55752049Y12453732D01*
X55781757Y12455846D01*
X55801973Y12458900D01*
X55815314Y12463066D01*
X55824398Y12468516D01*
X55830267Y12473822D01*
X55849947Y12506826D01*
X55848181Y12541991D01*
X55826717Y12573455D01*
X55818337Y12580684D01*
X55808614Y12586334D01*
X55794861Y12590599D01*
X55774389Y12593673D01*
X55744512Y12595752D01*
X55702541Y12597030D01*
X55645789Y12597701D01*
X55571567Y12597959D01*
X55487537Y12598000D01*
X55174485Y12598000D01*
X55146776Y12570291D01*
X55123463Y12536137D01*
X55122623Y12503006D01*
X55141645Y12473822D01*
G36*
X55124599Y11500081D02*
G01*
X55136095Y11431565D01*
X55153967Y11378943D01*
X55177499Y11344708D01*
X55190924Y11335379D01*
X55222148Y11325893D01*
X55250395Y11332277D01*
X55277182Y11352430D01*
X55289713Y11383745D01*
X55288696Y11429183D01*
X55281906Y11464326D01*
X55268971Y11542419D01*
X55267742Y11622226D01*
X55278241Y11711555D01*
X55282690Y11736229D01*
X55306108Y11819291D01*
X55340945Y11884273D01*
X55386604Y11930461D01*
X55442494Y11957145D01*
X55471388Y11962663D01*
X55530012Y11959051D01*
X55581879Y11935729D01*
X55625978Y11894824D01*
X55661299Y11838459D01*
X55686829Y11768760D01*
X55701559Y11687852D01*
X55704478Y11597860D01*
X55694575Y11500910D01*
X55693641Y11495436D01*
X55686459Y11456875D01*
X55679521Y11435494D01*
X55669227Y11426227D01*
X55651976Y11424006D01*
X55642841Y11423956D01*
X55604489Y11423956D01*
X55604489Y11492431D01*
X55600347Y11552900D01*
X55587147Y11594165D01*
X55563730Y11618175D01*
X55528936Y11626877D01*
X55524394Y11626983D01*
X55494654Y11621892D01*
X55473419Y11604433D01*
X55459366Y11571939D01*
X55451173Y11521743D01*
X55448161Y11473123D01*
X55446433Y11402456D01*
X55449070Y11351198D01*
X55458800Y11316239D01*
X55478353Y11294470D01*
X55510456Y11282780D01*
X55557838Y11278060D01*
X55620071Y11277200D01*
X55689535Y11278609D01*
X55736786Y11282848D01*
X55762012Y11289936D01*
X55763988Y11291311D01*
X55795508Y11330228D01*
X55820470Y11387286D01*
X55838340Y11458869D01*
X55848586Y11541358D01*
X55850673Y11631139D01*
X55844068Y11724592D01*
X55835956Y11779556D01*
X55811554Y11865766D01*
X55771662Y11945892D01*
X55719887Y12012977D01*
X55709539Y12023173D01*
X55666035Y12056302D01*
X55612118Y12086194D01*
X55555592Y12109357D01*
X55504259Y12122298D01*
X55484544Y12123858D01*
X55443419Y12117218D01*
X55392252Y12099568D01*
X55338394Y12074297D01*
X55289195Y12044789D01*
X55256334Y12018719D01*
X55207452Y11957765D01*
X55168545Y11878969D01*
X55140494Y11785157D01*
X55124179Y11679150D01*
X55120192Y11582000D01*
X55124599Y11500081D01*
G37*
X55124599Y11500081D02*
X55136095Y11431565D01*
X55153967Y11378943D01*
X55177499Y11344708D01*
X55190924Y11335379D01*
X55222148Y11325893D01*
X55250395Y11332277D01*
X55277182Y11352430D01*
X55289713Y11383745D01*
X55288696Y11429183D01*
X55281906Y11464326D01*
X55268971Y11542419D01*
X55267742Y11622226D01*
X55278241Y11711555D01*
X55282690Y11736229D01*
X55306108Y11819291D01*
X55340945Y11884273D01*
X55386604Y11930461D01*
X55442494Y11957145D01*
X55471388Y11962663D01*
X55530012Y11959051D01*
X55581879Y11935729D01*
X55625978Y11894824D01*
X55661299Y11838459D01*
X55686829Y11768760D01*
X55701559Y11687852D01*
X55704478Y11597860D01*
X55694575Y11500910D01*
X55693641Y11495436D01*
X55686459Y11456875D01*
X55679521Y11435494D01*
X55669227Y11426227D01*
X55651976Y11424006D01*
X55642841Y11423956D01*
X55604489Y11423956D01*
X55604489Y11492431D01*
X55600347Y11552900D01*
X55587147Y11594165D01*
X55563730Y11618175D01*
X55528936Y11626877D01*
X55524394Y11626983D01*
X55494654Y11621892D01*
X55473419Y11604433D01*
X55459366Y11571939D01*
X55451173Y11521743D01*
X55448161Y11473123D01*
X55446433Y11402456D01*
X55449070Y11351198D01*
X55458800Y11316239D01*
X55478353Y11294470D01*
X55510456Y11282780D01*
X55557838Y11278060D01*
X55620071Y11277200D01*
X55689535Y11278609D01*
X55736786Y11282848D01*
X55762012Y11289936D01*
X55763988Y11291311D01*
X55795508Y11330228D01*
X55820470Y11387286D01*
X55838340Y11458869D01*
X55848586Y11541358D01*
X55850673Y11631139D01*
X55844068Y11724592D01*
X55835956Y11779556D01*
X55811554Y11865766D01*
X55771662Y11945892D01*
X55719887Y12012977D01*
X55709539Y12023173D01*
X55666035Y12056302D01*
X55612118Y12086194D01*
X55555592Y12109357D01*
X55504259Y12122298D01*
X55484544Y12123858D01*
X55443419Y12117218D01*
X55392252Y12099568D01*
X55338394Y12074297D01*
X55289195Y12044789D01*
X55256334Y12018719D01*
X55207452Y11957765D01*
X55168545Y11878969D01*
X55140494Y11785157D01*
X55124179Y11679150D01*
X55120192Y11582000D01*
X55124599Y11500081D01*
G36*
X55123448Y10850114D02*
G01*
X55137273Y10826548D01*
X55159881Y10795735D01*
X55192338Y10756078D01*
X55235708Y10705980D01*
X55291058Y10643843D01*
X55359451Y10568072D01*
X55438084Y10481334D01*
X55601878Y10300711D01*
X55382029Y10295067D01*
X55306351Y10293029D01*
X55249994Y10291063D01*
X55209706Y10288734D01*
X55182235Y10285606D01*
X55164329Y10281245D01*
X55152737Y10275216D01*
X55144208Y10267084D01*
X55140623Y10262772D01*
X55121670Y10228241D01*
X55124441Y10195383D01*
X55140633Y10169318D01*
X55162199Y10142667D01*
X55477151Y10139352D01*
X55569779Y10138435D01*
X55642544Y10137968D01*
X55698161Y10138113D01*
X55739342Y10139032D01*
X55768803Y10140887D01*
X55789255Y10143839D01*
X55803413Y10148050D01*
X55813991Y10153682D01*
X55822474Y10159927D01*
X55838207Y10173439D01*
X55848636Y10186883D01*
X55852639Y10202124D01*
X55849094Y10221026D01*
X55836879Y10245455D01*
X55814871Y10277273D01*
X55781949Y10318348D01*
X55736991Y10370542D01*
X55678875Y10435722D01*
X55612099Y10509556D01*
X55371458Y10774845D01*
X55590589Y10780489D01*
X55666128Y10782531D01*
X55722354Y10784502D01*
X55762524Y10786839D01*
X55789896Y10789981D01*
X55807728Y10794364D01*
X55819279Y10800424D01*
X55827807Y10808600D01*
X55831282Y10812784D01*
X55850372Y10849765D01*
X55847493Y10884708D01*
X55823100Y10915136D01*
X55813286Y10922097D01*
X55801826Y10927523D01*
X55785968Y10931603D01*
X55762963Y10934529D01*
X55730062Y10936492D01*
X55684516Y10937683D01*
X55623573Y10938292D01*
X55544486Y10938511D01*
X55485956Y10938534D01*
X55394407Y10938460D01*
X55322687Y10938113D01*
X55268045Y10937301D01*
X55227732Y10935833D01*
X55198998Y10933519D01*
X55179093Y10930167D01*
X55165268Y10925588D01*
X55154772Y10919589D01*
X55148811Y10915136D01*
X55134691Y10903850D01*
X55124029Y10893301D01*
X55117892Y10881893D01*
X55117343Y10868030D01*
X55123448Y10850114D01*
G37*
X55123448Y10850114D02*
X55137273Y10826548D01*
X55159881Y10795735D01*
X55192338Y10756078D01*
X55235708Y10705980D01*
X55291058Y10643843D01*
X55359451Y10568072D01*
X55438084Y10481334D01*
X55601878Y10300711D01*
X55382029Y10295067D01*
X55306351Y10293029D01*
X55249994Y10291063D01*
X55209706Y10288734D01*
X55182235Y10285606D01*
X55164329Y10281245D01*
X55152737Y10275216D01*
X55144208Y10267084D01*
X55140623Y10262772D01*
X55121670Y10228241D01*
X55124441Y10195383D01*
X55140633Y10169318D01*
X55162199Y10142667D01*
X55477151Y10139352D01*
X55569779Y10138435D01*
X55642544Y10137968D01*
X55698161Y10138113D01*
X55739342Y10139032D01*
X55768803Y10140887D01*
X55789255Y10143839D01*
X55803413Y10148050D01*
X55813991Y10153682D01*
X55822474Y10159927D01*
X55838207Y10173439D01*
X55848636Y10186883D01*
X55852639Y10202124D01*
X55849094Y10221026D01*
X55836879Y10245455D01*
X55814871Y10277273D01*
X55781949Y10318348D01*
X55736991Y10370542D01*
X55678875Y10435722D01*
X55612099Y10509556D01*
X55371458Y10774845D01*
X55590589Y10780489D01*
X55666128Y10782531D01*
X55722354Y10784502D01*
X55762524Y10786839D01*
X55789896Y10789981D01*
X55807728Y10794364D01*
X55819279Y10800424D01*
X55827807Y10808600D01*
X55831282Y10812784D01*
X55850372Y10849765D01*
X55847493Y10884708D01*
X55823100Y10915136D01*
X55813286Y10922097D01*
X55801826Y10927523D01*
X55785968Y10931603D01*
X55762963Y10934529D01*
X55730062Y10936492D01*
X55684516Y10937683D01*
X55623573Y10938292D01*
X55544486Y10938511D01*
X55485956Y10938534D01*
X55394407Y10938460D01*
X55322687Y10938113D01*
X55268045Y10937301D01*
X55227732Y10935833D01*
X55198998Y10933519D01*
X55179093Y10930167D01*
X55165268Y10925588D01*
X55154772Y10919589D01*
X55148811Y10915136D01*
X55134691Y10903850D01*
X55124029Y10893301D01*
X55117892Y10881893D01*
X55117343Y10868030D01*
X55123448Y10850114D01*
G36*
X55119260Y9319657D02*
G01*
X55120174Y9243299D01*
X55122311Y9184783D01*
X55126175Y9141745D01*
X55132267Y9111817D01*
X55141090Y9092632D01*
X55153146Y9081824D01*
X55168939Y9077027D01*
X55188970Y9075873D01*
X55191335Y9075867D01*
X55213992Y9076869D01*
X55231503Y9081604D01*
X55244574Y9092667D01*
X55253913Y9112652D01*
X55260227Y9144154D01*
X55264222Y9189768D01*
X55266606Y9252087D01*
X55268086Y9333707D01*
X55268414Y9358723D01*
X55271467Y9600800D01*
X55336378Y9604186D01*
X55401289Y9607571D01*
X55401289Y9439424D01*
X55401531Y9373734D01*
X55402556Y9326828D01*
X55404811Y9294917D01*
X55408742Y9274209D01*
X55414798Y9260916D01*
X55423424Y9251245D01*
X55423493Y9251183D01*
X55457112Y9233644D01*
X55493448Y9234278D01*
X55524423Y9252686D01*
X55527607Y9256329D01*
X55535812Y9269259D01*
X55541521Y9286976D01*
X55545162Y9313430D01*
X55547167Y9352568D01*
X55547964Y9408338D01*
X55548045Y9444006D01*
X55548045Y9606445D01*
X55706089Y9606445D01*
X55706089Y9359839D01*
X55706231Y9278420D01*
X55706814Y9216590D01*
X55708068Y9171363D01*
X55710227Y9139752D01*
X55713523Y9118769D01*
X55718189Y9105427D01*
X55724457Y9096739D01*
X55726733Y9094550D01*
X55758280Y9078386D01*
X55794168Y9077203D01*
X55825285Y9090464D01*
X55835271Y9100957D01*
X55840769Y9111871D01*
X55845022Y9128783D01*
X55848180Y9154367D01*
X55850392Y9191299D01*
X55851806Y9242254D01*
X55852572Y9309906D01*
X55852838Y9396931D01*
X55852845Y9416606D01*
X55852787Y9505089D01*
X55852467Y9573773D01*
X55851667Y9625436D01*
X55850167Y9662855D01*
X55847749Y9688810D01*
X55844194Y9706078D01*
X55839282Y9717438D01*
X55832795Y9725668D01*
X55828138Y9730183D01*
X55819889Y9736979D01*
X55809669Y9742288D01*
X55794800Y9746294D01*
X55772602Y9749179D01*
X55740393Y9751126D01*
X55695496Y9752319D01*
X55635228Y9752939D01*
X55556911Y9753171D01*
X55490994Y9753200D01*
X55398628Y9753129D01*
X55326117Y9752792D01*
X55270737Y9752002D01*
X55229765Y9750574D01*
X55200478Y9748321D01*
X55180153Y9745057D01*
X55166066Y9740596D01*
X55155495Y9734752D01*
X55148811Y9729803D01*
X55119067Y9706406D01*
X55119067Y9416226D01*
X55119260Y9319657D01*
G37*
X55119260Y9319657D02*
X55120174Y9243299D01*
X55122311Y9184783D01*
X55126175Y9141745D01*
X55132267Y9111817D01*
X55141090Y9092632D01*
X55153146Y9081824D01*
X55168939Y9077027D01*
X55188970Y9075873D01*
X55191335Y9075867D01*
X55213992Y9076869D01*
X55231503Y9081604D01*
X55244574Y9092667D01*
X55253913Y9112652D01*
X55260227Y9144154D01*
X55264222Y9189768D01*
X55266606Y9252087D01*
X55268086Y9333707D01*
X55268414Y9358723D01*
X55271467Y9600800D01*
X55336378Y9604186D01*
X55401289Y9607571D01*
X55401289Y9439424D01*
X55401531Y9373734D01*
X55402556Y9326828D01*
X55404811Y9294917D01*
X55408742Y9274209D01*
X55414798Y9260916D01*
X55423424Y9251245D01*
X55423493Y9251183D01*
X55457112Y9233644D01*
X55493448Y9234278D01*
X55524423Y9252686D01*
X55527607Y9256329D01*
X55535812Y9269259D01*
X55541521Y9286976D01*
X55545162Y9313430D01*
X55547167Y9352568D01*
X55547964Y9408338D01*
X55548045Y9444006D01*
X55548045Y9606445D01*
X55706089Y9606445D01*
X55706089Y9359839D01*
X55706231Y9278420D01*
X55706814Y9216590D01*
X55708068Y9171363D01*
X55710227Y9139752D01*
X55713523Y9118769D01*
X55718189Y9105427D01*
X55724457Y9096739D01*
X55726733Y9094550D01*
X55758280Y9078386D01*
X55794168Y9077203D01*
X55825285Y9090464D01*
X55835271Y9100957D01*
X55840769Y9111871D01*
X55845022Y9128783D01*
X55848180Y9154367D01*
X55850392Y9191299D01*
X55851806Y9242254D01*
X55852572Y9309906D01*
X55852838Y9396931D01*
X55852845Y9416606D01*
X55852787Y9505089D01*
X55852467Y9573773D01*
X55851667Y9625436D01*
X55850167Y9662855D01*
X55847749Y9688810D01*
X55844194Y9706078D01*
X55839282Y9717438D01*
X55832795Y9725668D01*
X55828138Y9730183D01*
X55819889Y9736979D01*
X55809669Y9742288D01*
X55794800Y9746294D01*
X55772602Y9749179D01*
X55740393Y9751126D01*
X55695496Y9752319D01*
X55635228Y9752939D01*
X55556911Y9753171D01*
X55490994Y9753200D01*
X55398628Y9753129D01*
X55326117Y9752792D01*
X55270737Y9752002D01*
X55229765Y9750574D01*
X55200478Y9748321D01*
X55180153Y9745057D01*
X55166066Y9740596D01*
X55155495Y9734752D01*
X55148811Y9729803D01*
X55119067Y9706406D01*
X55119067Y9416226D01*
X55119260Y9319657D01*
G36*
X55119275Y8531691D02*
G01*
X55123636Y8402712D01*
X55136861Y8293009D01*
X55159741Y8200774D01*
X55193070Y8124198D01*
X55237638Y8061473D01*
X55294236Y8010788D01*
X55363658Y7970337D01*
X55365351Y7969541D01*
X55427483Y7945399D01*
X55482509Y7936797D01*
X55537887Y7943769D01*
X55601073Y7966346D01*
X55610689Y7970628D01*
X55666966Y7999828D01*
X55710451Y8032644D01*
X55747417Y8074998D01*
X55784135Y8132810D01*
X55786052Y8136169D01*
X55810227Y8186496D01*
X55828282Y8243379D01*
X55840839Y8310473D01*
X55848522Y8391435D01*
X55851953Y8489918D01*
X55852251Y8524714D01*
X55852845Y8690406D01*
X55823100Y8713803D01*
X55813319Y8720743D01*
X55801897Y8726158D01*
X55786095Y8730235D01*
X55763175Y8733163D01*
X55730396Y8735133D01*
X55706089Y8735775D01*
X55706089Y8579156D01*
X55706089Y8485274D01*
X55704483Y8430336D01*
X55700255Y8373940D01*
X55694292Y8327655D01*
X55693790Y8324861D01*
X55671736Y8242652D01*
X55638600Y8178886D01*
X55592847Y8131548D01*
X55532939Y8098618D01*
X55517061Y8092892D01*
X55492333Y8087279D01*
X55467902Y8089709D01*
X55435400Y8101533D01*
X55419434Y8108660D01*
X55377006Y8132000D01*
X55347240Y8160120D01*
X55326511Y8191060D01*
X55299537Y8253034D01*
X55279998Y8332349D01*
X55268746Y8424747D01*
X55266270Y8491667D01*
X55265822Y8579156D01*
X55706089Y8579156D01*
X55706089Y8735775D01*
X55685021Y8736332D01*
X55624311Y8736950D01*
X55545526Y8737175D01*
X55483920Y8737200D01*
X55174485Y8737200D01*
X55146776Y8709491D01*
X55135544Y8697194D01*
X55127853Y8683897D01*
X55123040Y8665328D01*
X55120446Y8637214D01*
X55119410Y8595283D01*
X55119270Y8535263D01*
X55119275Y8531691D01*
G37*
X55119275Y8531691D02*
X55123636Y8402712D01*
X55136861Y8293009D01*
X55159741Y8200774D01*
X55193070Y8124198D01*
X55237638Y8061473D01*
X55294236Y8010788D01*
X55363658Y7970337D01*
X55365351Y7969541D01*
X55427483Y7945399D01*
X55482509Y7936797D01*
X55537887Y7943769D01*
X55601073Y7966346D01*
X55610689Y7970628D01*
X55666966Y7999828D01*
X55710451Y8032644D01*
X55747417Y8074998D01*
X55784135Y8132810D01*
X55786052Y8136169D01*
X55810227Y8186496D01*
X55828282Y8243379D01*
X55840839Y8310473D01*
X55848522Y8391435D01*
X55851953Y8489918D01*
X55852251Y8524714D01*
X55852845Y8690406D01*
X55823100Y8713803D01*
X55813319Y8720743D01*
X55801897Y8726158D01*
X55786095Y8730235D01*
X55763175Y8733163D01*
X55730396Y8735133D01*
X55706089Y8735775D01*
X55706089Y8579156D01*
X55706089Y8485274D01*
X55704483Y8430336D01*
X55700255Y8373940D01*
X55694292Y8327655D01*
X55693790Y8324861D01*
X55671736Y8242652D01*
X55638600Y8178886D01*
X55592847Y8131548D01*
X55532939Y8098618D01*
X55517061Y8092892D01*
X55492333Y8087279D01*
X55467902Y8089709D01*
X55435400Y8101533D01*
X55419434Y8108660D01*
X55377006Y8132000D01*
X55347240Y8160120D01*
X55326511Y8191060D01*
X55299537Y8253034D01*
X55279998Y8332349D01*
X55268746Y8424747D01*
X55266270Y8491667D01*
X55265822Y8579156D01*
X55706089Y8579156D01*
X55706089Y8735775D01*
X55685021Y8736332D01*
X55624311Y8736950D01*
X55545526Y8737175D01*
X55483920Y8737200D01*
X55174485Y8737200D01*
X55146776Y8709491D01*
X55135544Y8697194D01*
X55127853Y8683897D01*
X55123040Y8665328D01*
X55120446Y8637214D01*
X55119410Y8595283D01*
X55119270Y8535263D01*
X55119275Y8531691D01*
G36*
X55121034Y5805335D02*
G01*
X55128035Y5785745D01*
X55128377Y5784990D01*
X55148678Y5758387D01*
X55169561Y5743730D01*
X55179352Y5740862D01*
X55192361Y5741004D01*
X55210895Y5745039D01*
X55237257Y5753854D01*
X55273752Y5768331D01*
X55322687Y5789355D01*
X55386365Y5817812D01*
X55467093Y5854585D01*
X55511216Y5874825D01*
X55589985Y5911375D01*
X55662423Y5945685D01*
X55725880Y5976448D01*
X55777708Y6002352D01*
X55815259Y6022090D01*
X55835884Y6034350D01*
X55838733Y6036776D01*
X55851302Y6067817D01*
X55849619Y6102879D01*
X55834332Y6131000D01*
X55833089Y6132146D01*
X55816154Y6143332D01*
X55783170Y6162096D01*
X55738380Y6186125D01*
X55686032Y6213103D01*
X55666742Y6222799D01*
X55520150Y6295986D01*
X55679393Y6375760D01*
X55734415Y6404233D01*
X55782132Y6430650D01*
X55818893Y6452852D01*
X55841044Y6468681D01*
X55845741Y6474046D01*
X55852102Y6515743D01*
X55838733Y6550151D01*
X55824446Y6560272D01*
X55792692Y6577786D01*
X55746597Y6601265D01*
X55689285Y6629280D01*
X55623880Y6660401D01*
X55553507Y6693201D01*
X55481291Y6726250D01*
X55410355Y6758119D01*
X55343825Y6787381D01*
X55284826Y6812605D01*
X55236481Y6832364D01*
X55201915Y6845228D01*
X55184253Y6849769D01*
X55183613Y6849723D01*
X55161388Y6838674D01*
X55138753Y6816590D01*
X55137768Y6815290D01*
X55122425Y6788147D01*
X55122574Y6763042D01*
X55125466Y6753632D01*
X55131718Y6742166D01*
X55144014Y6729990D01*
X55164908Y6715643D01*
X55196949Y6697664D01*
X55242688Y6674593D01*
X55304677Y6644970D01*
X55361898Y6618255D01*
X55428226Y6587520D01*
X55487874Y6559979D01*
X55537725Y6537062D01*
X55574664Y6520202D01*
X55595573Y6510827D01*
X55598845Y6509460D01*
X55593497Y6503311D01*
X55571109Y6489178D01*
X55534946Y6468943D01*
X55488277Y6444485D01*
X55469022Y6434752D01*
X55404004Y6401783D01*
X55356654Y6376357D01*
X55324219Y6356388D01*
X55303946Y6339790D01*
X55293082Y6324476D01*
X55288875Y6308360D01*
X55288400Y6297857D01*
X55290042Y6279330D01*
X55296831Y6263096D01*
X55311566Y6246965D01*
X55337044Y6228749D01*
X55376061Y6206261D01*
X55431414Y6177311D01*
X55462903Y6161338D01*
X55513087Y6135430D01*
X55554704Y6112833D01*
X55584242Y6095542D01*
X55598189Y6085550D01*
X55598770Y6084191D01*
X55587793Y6077739D01*
X55559290Y6063292D01*
X55516244Y6042297D01*
X55461638Y6016203D01*
X55398454Y5986454D01*
X55367071Y5971820D01*
X55286078Y5933750D01*
X55223756Y5903095D01*
X55178071Y5878263D01*
X55146989Y5857663D01*
X55128478Y5839702D01*
X55120504Y5822790D01*
X55121034Y5805335D01*
G37*
X55121034Y5805335D02*
X55128035Y5785745D01*
X55128377Y5784990D01*
X55148678Y5758387D01*
X55169561Y5743730D01*
X55179352Y5740862D01*
X55192361Y5741004D01*
X55210895Y5745039D01*
X55237257Y5753854D01*
X55273752Y5768331D01*
X55322687Y5789355D01*
X55386365Y5817812D01*
X55467093Y5854585D01*
X55511216Y5874825D01*
X55589985Y5911375D01*
X55662423Y5945685D01*
X55725880Y5976448D01*
X55777708Y6002352D01*
X55815259Y6022090D01*
X55835884Y6034350D01*
X55838733Y6036776D01*
X55851302Y6067817D01*
X55849619Y6102879D01*
X55834332Y6131000D01*
X55833089Y6132146D01*
X55816154Y6143332D01*
X55783170Y6162096D01*
X55738380Y6186125D01*
X55686032Y6213103D01*
X55666742Y6222799D01*
X55520150Y6295986D01*
X55679393Y6375760D01*
X55734415Y6404233D01*
X55782132Y6430650D01*
X55818893Y6452852D01*
X55841044Y6468681D01*
X55845741Y6474046D01*
X55852102Y6515743D01*
X55838733Y6550151D01*
X55824446Y6560272D01*
X55792692Y6577786D01*
X55746597Y6601265D01*
X55689285Y6629280D01*
X55623880Y6660401D01*
X55553507Y6693201D01*
X55481291Y6726250D01*
X55410355Y6758119D01*
X55343825Y6787381D01*
X55284826Y6812605D01*
X55236481Y6832364D01*
X55201915Y6845228D01*
X55184253Y6849769D01*
X55183613Y6849723D01*
X55161388Y6838674D01*
X55138753Y6816590D01*
X55137768Y6815290D01*
X55122425Y6788147D01*
X55122574Y6763042D01*
X55125466Y6753632D01*
X55131718Y6742166D01*
X55144014Y6729990D01*
X55164908Y6715643D01*
X55196949Y6697664D01*
X55242688Y6674593D01*
X55304677Y6644970D01*
X55361898Y6618255D01*
X55428226Y6587520D01*
X55487874Y6559979D01*
X55537725Y6537062D01*
X55574664Y6520202D01*
X55595573Y6510827D01*
X55598845Y6509460D01*
X55593497Y6503311D01*
X55571109Y6489178D01*
X55534946Y6468943D01*
X55488277Y6444485D01*
X55469022Y6434752D01*
X55404004Y6401783D01*
X55356654Y6376357D01*
X55324219Y6356388D01*
X55303946Y6339790D01*
X55293082Y6324476D01*
X55288875Y6308360D01*
X55288400Y6297857D01*
X55290042Y6279330D01*
X55296831Y6263096D01*
X55311566Y6246965D01*
X55337044Y6228749D01*
X55376061Y6206261D01*
X55431414Y6177311D01*
X55462903Y6161338D01*
X55513087Y6135430D01*
X55554704Y6112833D01*
X55584242Y6095542D01*
X55598189Y6085550D01*
X55598770Y6084191D01*
X55587793Y6077739D01*
X55559290Y6063292D01*
X55516244Y6042297D01*
X55461638Y6016203D01*
X55398454Y5986454D01*
X55367071Y5971820D01*
X55286078Y5933750D01*
X55223756Y5903095D01*
X55178071Y5878263D01*
X55146989Y5857663D01*
X55128478Y5839702D01*
X55120504Y5822790D01*
X55121034Y5805335D01*
G36*
X55125877Y5361386D02*
G01*
X55140647Y5337673D01*
X55162227Y5311022D01*
X55483773Y5311022D01*
X55577830Y5311107D01*
X55651932Y5311471D01*
X55708704Y5312276D01*
X55750768Y5313687D01*
X55780748Y5315867D01*
X55801267Y5318979D01*
X55814949Y5323186D01*
X55824416Y5328652D01*
X55829082Y5332528D01*
X55849575Y5363966D01*
X55848739Y5399767D01*
X55831264Y5431127D01*
X55809684Y5457778D01*
X55162227Y5457778D01*
X55140647Y5431127D01*
X55124949Y5405406D01*
X55119067Y5384400D01*
X55125877Y5361386D01*
G37*
X55125877Y5361386D02*
X55140647Y5337673D01*
X55162227Y5311022D01*
X55483773Y5311022D01*
X55577830Y5311107D01*
X55651932Y5311471D01*
X55708704Y5312276D01*
X55750768Y5313687D01*
X55780748Y5315867D01*
X55801267Y5318979D01*
X55814949Y5323186D01*
X55824416Y5328652D01*
X55829082Y5332528D01*
X55849575Y5363966D01*
X55848739Y5399767D01*
X55831264Y5431127D01*
X55809684Y5457778D01*
X55162227Y5457778D01*
X55140647Y5431127D01*
X55124949Y5405406D01*
X55119067Y5384400D01*
X55125877Y5361386D01*
G36*
X55119163Y4586935D02*
G01*
X55119542Y4508228D01*
X55120333Y4447137D01*
X55121670Y4401183D01*
X55123683Y4367886D01*
X55126506Y4344764D01*
X55130269Y4329338D01*
X55135105Y4319129D01*
X55138822Y4314187D01*
X55171358Y4288543D01*
X55205138Y4285441D01*
X55235826Y4301289D01*
X55248089Y4311652D01*
X55256450Y4322804D01*
X55261657Y4338965D01*
X55264457Y4364358D01*
X55265596Y4403202D01*
X55265821Y4459720D01*
X55265822Y4470820D01*
X55265822Y4616756D01*
X55536756Y4616756D01*
X55622154Y4616852D01*
X55687864Y4617289D01*
X55736774Y4618288D01*
X55771773Y4620072D01*
X55795749Y4622863D01*
X55811593Y4626883D01*
X55822191Y4632355D01*
X55830267Y4639334D01*
X55850112Y4672266D01*
X55848548Y4706646D01*
X55825906Y4737824D01*
X55823100Y4740114D01*
X55812492Y4747571D01*
X55800081Y4753253D01*
X55782850Y4757399D01*
X55757784Y4760250D01*
X55721867Y4762046D01*
X55672083Y4763028D01*
X55605417Y4763436D01*
X55529589Y4763511D01*
X55265822Y4763511D01*
X55265822Y4902873D01*
X55265418Y4962678D01*
X55263840Y5004082D01*
X55260547Y5031252D01*
X55254992Y5048354D01*
X55246631Y5059557D01*
X55245178Y5060917D01*
X55211939Y5077275D01*
X55174362Y5075828D01*
X55141645Y5057022D01*
X55135298Y5049750D01*
X55130266Y5040373D01*
X55126396Y5026391D01*
X55123537Y5005304D01*
X55121535Y4974611D01*
X55120239Y4931811D01*
X55119498Y4874405D01*
X55119158Y4799890D01*
X55119068Y4705767D01*
X55119067Y4685740D01*
X55119163Y4586935D01*
G37*
X55119163Y4586935D02*
X55119542Y4508228D01*
X55120333Y4447137D01*
X55121670Y4401183D01*
X55123683Y4367886D01*
X55126506Y4344764D01*
X55130269Y4329338D01*
X55135105Y4319129D01*
X55138822Y4314187D01*
X55171358Y4288543D01*
X55205138Y4285441D01*
X55235826Y4301289D01*
X55248089Y4311652D01*
X55256450Y4322804D01*
X55261657Y4338965D01*
X55264457Y4364358D01*
X55265596Y4403202D01*
X55265821Y4459720D01*
X55265822Y4470820D01*
X55265822Y4616756D01*
X55536756Y4616756D01*
X55622154Y4616852D01*
X55687864Y4617289D01*
X55736774Y4618288D01*
X55771773Y4620072D01*
X55795749Y4622863D01*
X55811593Y4626883D01*
X55822191Y4632355D01*
X55830267Y4639334D01*
X55850112Y4672266D01*
X55848548Y4706646D01*
X55825906Y4737824D01*
X55823100Y4740114D01*
X55812492Y4747571D01*
X55800081Y4753253D01*
X55782850Y4757399D01*
X55757784Y4760250D01*
X55721867Y4762046D01*
X55672083Y4763028D01*
X55605417Y4763436D01*
X55529589Y4763511D01*
X55265822Y4763511D01*
X55265822Y4902873D01*
X55265418Y4962678D01*
X55263840Y5004082D01*
X55260547Y5031252D01*
X55254992Y5048354D01*
X55246631Y5059557D01*
X55245178Y5060917D01*
X55211939Y5077275D01*
X55174362Y5075828D01*
X55141645Y5057022D01*
X55135298Y5049750D01*
X55130266Y5040373D01*
X55126396Y5026391D01*
X55123537Y5005304D01*
X55121535Y4974611D01*
X55120239Y4931811D01*
X55119498Y4874405D01*
X55119158Y4799890D01*
X55119068Y4705767D01*
X55119067Y4685740D01*
X55119163Y4586935D01*
G36*
X55124533Y3321177D02*
G01*
X55146776Y3289798D01*
X55174485Y3262089D01*
X55483920Y3262089D01*
X55575799Y3262162D01*
X55647840Y3262505D01*
X55702780Y3263308D01*
X55743360Y3264759D01*
X55772317Y3267048D01*
X55792391Y3270364D01*
X55806321Y3274895D01*
X55816845Y3280831D01*
X55823100Y3285486D01*
X55847673Y3316217D01*
X55850341Y3351504D01*
X55835271Y3383755D01*
X55826374Y3394412D01*
X55814557Y3401536D01*
X55795526Y3405833D01*
X55764992Y3408009D01*
X55718662Y3408772D01*
X55682871Y3408845D01*
X55548045Y3408845D01*
X55548045Y3905556D01*
X55670700Y3905556D01*
X55726787Y3906069D01*
X55765333Y3908124D01*
X55791361Y3912492D01*
X55809897Y3919944D01*
X55823100Y3928953D01*
X55847604Y3959856D01*
X55850506Y3994804D01*
X55833089Y4028262D01*
X55823959Y4037396D01*
X55811855Y4043848D01*
X55793001Y4048103D01*
X55763620Y4050648D01*
X55719937Y4051971D01*
X55658175Y4052557D01*
X55644000Y4052625D01*
X55527631Y4053109D01*
X55431727Y4053359D01*
X55354177Y4053277D01*
X55292869Y4052769D01*
X55245690Y4051738D01*
X55210530Y4050087D01*
X55185276Y4047721D01*
X55167817Y4044543D01*
X55156041Y4040456D01*
X55147835Y4035366D01*
X55141645Y4029734D01*
X55121844Y3997872D01*
X55124533Y3964643D01*
X55146776Y3933265D01*
X55161126Y3920567D01*
X55176978Y3912474D01*
X55199554Y3907958D01*
X55234078Y3905994D01*
X55285776Y3905556D01*
X55401289Y3905556D01*
X55401289Y3408845D01*
X55282756Y3408845D01*
X55228148Y3408338D01*
X55191275Y3406302D01*
X55167307Y3401965D01*
X55151415Y3394553D01*
X55141645Y3386267D01*
X55121844Y3354406D01*
X55124533Y3321177D01*
G37*
X55124533Y3321177D02*
X55146776Y3289798D01*
X55174485Y3262089D01*
X55483920Y3262089D01*
X55575799Y3262162D01*
X55647840Y3262505D01*
X55702780Y3263308D01*
X55743360Y3264759D01*
X55772317Y3267048D01*
X55792391Y3270364D01*
X55806321Y3274895D01*
X55816845Y3280831D01*
X55823100Y3285486D01*
X55847673Y3316217D01*
X55850341Y3351504D01*
X55835271Y3383755D01*
X55826374Y3394412D01*
X55814557Y3401536D01*
X55795526Y3405833D01*
X55764992Y3408009D01*
X55718662Y3408772D01*
X55682871Y3408845D01*
X55548045Y3408845D01*
X55548045Y3905556D01*
X55670700Y3905556D01*
X55726787Y3906069D01*
X55765333Y3908124D01*
X55791361Y3912492D01*
X55809897Y3919944D01*
X55823100Y3928953D01*
X55847604Y3959856D01*
X55850506Y3994804D01*
X55833089Y4028262D01*
X55823959Y4037396D01*
X55811855Y4043848D01*
X55793001Y4048103D01*
X55763620Y4050648D01*
X55719937Y4051971D01*
X55658175Y4052557D01*
X55644000Y4052625D01*
X55527631Y4053109D01*
X55431727Y4053359D01*
X55354177Y4053277D01*
X55292869Y4052769D01*
X55245690Y4051738D01*
X55210530Y4050087D01*
X55185276Y4047721D01*
X55167817Y4044543D01*
X55156041Y4040456D01*
X55147835Y4035366D01*
X55141645Y4029734D01*
X55121844Y3997872D01*
X55124533Y3964643D01*
X55146776Y3933265D01*
X55161126Y3920567D01*
X55176978Y3912474D01*
X55199554Y3907958D01*
X55234078Y3905994D01*
X55285776Y3905556D01*
X55401289Y3905556D01*
X55401289Y3408845D01*
X55282756Y3408845D01*
X55228148Y3408338D01*
X55191275Y3406302D01*
X55167307Y3401965D01*
X55151415Y3394553D01*
X55141645Y3386267D01*
X55121844Y3354406D01*
X55124533Y3321177D01*
D11*
%TO.C,U2*%
X19400000Y38120000D02*
X22400000Y38120000D01*
X18400000Y34880000D02*
X20400000Y34880000D01*
%TO.C,R36*%
X29212779Y45340000D02*
X28887221Y45340000D01*
X29212779Y46360000D02*
X28887221Y46360000D01*
%TO.C,R35*%
X29262779Y32440000D02*
X28937221Y32440000D01*
X29262779Y33460000D02*
X28937221Y33460000D01*
%TO.C,R34*%
X29212779Y39740000D02*
X28887221Y39740000D01*
X29212779Y40760000D02*
X28887221Y40760000D01*
%TO.C,R33*%
X29212779Y26840000D02*
X28887221Y26840000D01*
X29212779Y27860000D02*
X28887221Y27860000D01*
%TO.C,R32*%
X29262779Y34190000D02*
X28937221Y34190000D01*
X29262779Y35210000D02*
X28937221Y35210000D01*
%TO.C,R31*%
X33012779Y45340000D02*
X32687221Y45340000D01*
X33012779Y46360000D02*
X32687221Y46360000D01*
%TO.C,R30*%
X38590000Y42887221D02*
X38590000Y43212779D01*
X39610000Y42887221D02*
X39610000Y43212779D01*
%TO.C,R29*%
X33012779Y30690000D02*
X32687221Y30690000D01*
X33012779Y31710000D02*
X32687221Y31710000D01*
%TO.C,R28*%
X33012779Y37990000D02*
X32687221Y37990000D01*
X33012779Y39010000D02*
X32687221Y39010000D01*
%TO.C,R27*%
X32687221Y44610000D02*
X33012779Y44610000D01*
X32687221Y43590000D02*
X33012779Y43590000D01*
%TO.C,R26*%
X41812779Y39740000D02*
X41487221Y39740000D01*
X41812779Y40760000D02*
X41487221Y40760000D01*
%TO.C,R25*%
X41862779Y32490000D02*
X41537221Y32490000D01*
X41862779Y33510000D02*
X41537221Y33510000D01*
%TO.C,R24*%
X45160000Y35912779D02*
X45160000Y35587221D01*
X44140000Y35912779D02*
X44140000Y35587221D01*
%TO.C,R23*%
X41812779Y37990000D02*
X41487221Y37990000D01*
X41812779Y39010000D02*
X41487221Y39010000D01*
%TO.C,R21*%
X38640000Y30037221D02*
X38640000Y30362779D01*
X39660000Y30037221D02*
X39660000Y30362779D01*
%TO.C,R16*%
X19510000Y33212779D02*
X19510000Y32887221D01*
X18490000Y33212779D02*
X18490000Y32887221D01*
%TO.C,R15*%
X20290000Y32887221D02*
X20290000Y33212779D01*
X21310000Y32887221D02*
X21310000Y33212779D01*
%TO.C,R13*%
X41537221Y27910000D02*
X41862779Y27910000D01*
X41537221Y26890000D02*
X41862779Y26890000D01*
%TO.C,Q7*%
X30060000Y31730000D02*
X28600000Y31730000D01*
X30060000Y28570000D02*
X27900000Y28570000D01*
X30060000Y28570000D02*
X30060000Y29500000D01*
X30060000Y31730000D02*
X30060000Y30800000D01*
%TO.C,Q6*%
X30060000Y39030000D02*
X28600000Y39030000D01*
X30060000Y35870000D02*
X27900000Y35870000D01*
X30060000Y35870000D02*
X30060000Y36800000D01*
X30060000Y39030000D02*
X30060000Y38100000D01*
%TO.C,Q5*%
X28490000Y41470000D02*
X29950000Y41470000D01*
X28490000Y44630000D02*
X30650000Y44630000D01*
X28490000Y44630000D02*
X28490000Y43700000D01*
X28490000Y41470000D02*
X28490000Y42400000D01*
%TO.C,Q4*%
X42610000Y44630000D02*
X41150000Y44630000D01*
X42610000Y41470000D02*
X40450000Y41470000D01*
X42610000Y41470000D02*
X42610000Y42400000D01*
X42610000Y44630000D02*
X42610000Y43700000D01*
%TO.C,Q2*%
X41140000Y34170000D02*
X42600000Y34170000D01*
X41140000Y37330000D02*
X43300000Y37330000D01*
X41140000Y37330000D02*
X41140000Y36400000D01*
X41140000Y34170000D02*
X41140000Y35100000D01*
%TO.C,Q1*%
X42660000Y31780000D02*
X41200000Y31780000D01*
X42660000Y28620000D02*
X40500000Y28620000D01*
X42660000Y28620000D02*
X42660000Y29550000D01*
X42660000Y31780000D02*
X42660000Y30850000D01*
%TO.C,D7*%
X47750000Y48700000D02*
X45200000Y48700000D01*
X47750000Y47000000D02*
X45200000Y47000000D01*
X47750000Y48700000D02*
X47750000Y47000000D01*
%TO.C,C27*%
X46412779Y49340000D02*
X46087221Y49340000D01*
X46412779Y50360000D02*
X46087221Y50360000D01*
%TO.C,C24*%
X46412779Y51090000D02*
X46087221Y51090000D01*
X46412779Y52110000D02*
X46087221Y52110000D01*
%TO.C,C22*%
X46852064Y52840000D02*
X45647936Y52840000D01*
X46852064Y54660000D02*
X45647936Y54660000D01*
%TO.C,C8*%
X17710000Y33212779D02*
X17710000Y32887221D01*
X16690000Y33212779D02*
X16690000Y32887221D01*
%TO.C,C7*%
X17774721Y39810000D02*
X18100279Y39810000D01*
X17774721Y38790000D02*
X18100279Y38790000D01*
%TO.C,U2*%
D12*
X22833333Y39183334D02*
X22833333Y38616667D01*
X22800000Y38550000D01*
X22766666Y38516667D01*
X22700000Y38483334D01*
X22566666Y38483334D01*
X22500000Y38516667D01*
X22466666Y38550000D01*
X22433333Y38616667D01*
X22433333Y39183334D01*
X22133333Y39116667D02*
X22100000Y39150000D01*
X22033333Y39183334D01*
X21866666Y39183334D01*
X21800000Y39150000D01*
X21766666Y39116667D01*
X21733333Y39050000D01*
X21733333Y38983334D01*
X21766666Y38883334D01*
X22166666Y38483334D01*
X21733333Y38483334D01*
%TO.C,R36*%
X29500000Y46963334D02*
X29733333Y47296667D01*
X29900000Y46963334D02*
X29900000Y47663334D01*
X29633333Y47663334D01*
X29566666Y47630000D01*
X29533333Y47596667D01*
X29500000Y47530000D01*
X29500000Y47430000D01*
X29533333Y47363334D01*
X29566666Y47330000D01*
X29633333Y47296667D01*
X29900000Y47296667D01*
X29266666Y47663334D02*
X28833333Y47663334D01*
X29066666Y47396667D01*
X28966666Y47396667D01*
X28900000Y47363334D01*
X28866666Y47330000D01*
X28833333Y47263334D01*
X28833333Y47096667D01*
X28866666Y47030000D01*
X28900000Y46996667D01*
X28966666Y46963334D01*
X29166666Y46963334D01*
X29233333Y46996667D01*
X29266666Y47030000D01*
X28233333Y47663334D02*
X28366666Y47663334D01*
X28433333Y47630000D01*
X28466666Y47596667D01*
X28533333Y47496667D01*
X28566666Y47363334D01*
X28566666Y47096667D01*
X28533333Y47030000D01*
X28500000Y46996667D01*
X28433333Y46963334D01*
X28300000Y46963334D01*
X28233333Y46996667D01*
X28200000Y47030000D01*
X28166666Y47096667D01*
X28166666Y47263334D01*
X28200000Y47330000D01*
X28233333Y47363334D01*
X28300000Y47396667D01*
X28433333Y47396667D01*
X28500000Y47363334D01*
X28533333Y47330000D01*
X28566666Y47263334D01*
%TO.C,R35*%
X26950000Y32633334D02*
X27183333Y32966667D01*
X27350000Y32633334D02*
X27350000Y33333334D01*
X27083333Y33333334D01*
X27016666Y33300000D01*
X26983333Y33266667D01*
X26950000Y33200000D01*
X26950000Y33100000D01*
X26983333Y33033334D01*
X27016666Y33000000D01*
X27083333Y32966667D01*
X27350000Y32966667D01*
X26716666Y33333334D02*
X26283333Y33333334D01*
X26516666Y33066667D01*
X26416666Y33066667D01*
X26350000Y33033334D01*
X26316666Y33000000D01*
X26283333Y32933334D01*
X26283333Y32766667D01*
X26316666Y32700000D01*
X26350000Y32666667D01*
X26416666Y32633334D01*
X26616666Y32633334D01*
X26683333Y32666667D01*
X26716666Y32700000D01*
X25650000Y33333334D02*
X25983333Y33333334D01*
X26016666Y33000000D01*
X25983333Y33033334D01*
X25916666Y33066667D01*
X25750000Y33066667D01*
X25683333Y33033334D01*
X25650000Y33000000D01*
X25616666Y32933334D01*
X25616666Y32766667D01*
X25650000Y32700000D01*
X25683333Y32666667D01*
X25750000Y32633334D01*
X25916666Y32633334D01*
X25983333Y32666667D01*
X26016666Y32700000D01*
%TO.C,R34*%
X26750000Y39933334D02*
X26983333Y40266667D01*
X27150000Y39933334D02*
X27150000Y40633334D01*
X26883333Y40633334D01*
X26816666Y40600000D01*
X26783333Y40566667D01*
X26750000Y40500000D01*
X26750000Y40400000D01*
X26783333Y40333334D01*
X26816666Y40300000D01*
X26883333Y40266667D01*
X27150000Y40266667D01*
X26516666Y40633334D02*
X26083333Y40633334D01*
X26316666Y40366667D01*
X26216666Y40366667D01*
X26150000Y40333334D01*
X26116666Y40300000D01*
X26083333Y40233334D01*
X26083333Y40066667D01*
X26116666Y40000000D01*
X26150000Y39966667D01*
X26216666Y39933334D01*
X26416666Y39933334D01*
X26483333Y39966667D01*
X26516666Y40000000D01*
X25483333Y40400000D02*
X25483333Y39933334D01*
X25650000Y40666667D02*
X25816666Y40166667D01*
X25383333Y40166667D01*
%TO.C,R33*%
X29500000Y25683334D02*
X29733333Y26016667D01*
X29900000Y25683334D02*
X29900000Y26383334D01*
X29633333Y26383334D01*
X29566666Y26350000D01*
X29533333Y26316667D01*
X29500000Y26250000D01*
X29500000Y26150000D01*
X29533333Y26083334D01*
X29566666Y26050000D01*
X29633333Y26016667D01*
X29900000Y26016667D01*
X29266666Y26383334D02*
X28833333Y26383334D01*
X29066666Y26116667D01*
X28966666Y26116667D01*
X28900000Y26083334D01*
X28866666Y26050000D01*
X28833333Y25983334D01*
X28833333Y25816667D01*
X28866666Y25750000D01*
X28900000Y25716667D01*
X28966666Y25683334D01*
X29166666Y25683334D01*
X29233333Y25716667D01*
X29266666Y25750000D01*
X28600000Y26383334D02*
X28166666Y26383334D01*
X28400000Y26116667D01*
X28300000Y26116667D01*
X28233333Y26083334D01*
X28200000Y26050000D01*
X28166666Y25983334D01*
X28166666Y25816667D01*
X28200000Y25750000D01*
X28233333Y25716667D01*
X28300000Y25683334D01*
X28500000Y25683334D01*
X28566666Y25716667D01*
X28600000Y25750000D01*
%TO.C,R32*%
X26950000Y34333334D02*
X27183333Y34666667D01*
X27350000Y34333334D02*
X27350000Y35033334D01*
X27083333Y35033334D01*
X27016666Y35000000D01*
X26983333Y34966667D01*
X26950000Y34900000D01*
X26950000Y34800000D01*
X26983333Y34733334D01*
X27016666Y34700000D01*
X27083333Y34666667D01*
X27350000Y34666667D01*
X26716666Y35033334D02*
X26283333Y35033334D01*
X26516666Y34766667D01*
X26416666Y34766667D01*
X26350000Y34733334D01*
X26316666Y34700000D01*
X26283333Y34633334D01*
X26283333Y34466667D01*
X26316666Y34400000D01*
X26350000Y34366667D01*
X26416666Y34333334D01*
X26616666Y34333334D01*
X26683333Y34366667D01*
X26716666Y34400000D01*
X26016666Y34966667D02*
X25983333Y35000000D01*
X25916666Y35033334D01*
X25750000Y35033334D01*
X25683333Y35000000D01*
X25650000Y34966667D01*
X25616666Y34900000D01*
X25616666Y34833334D01*
X25650000Y34733334D01*
X26050000Y34333334D01*
X25616666Y34333334D01*
%TO.C,R31*%
X33300000Y46963334D02*
X33533333Y47296667D01*
X33700000Y46963334D02*
X33700000Y47663334D01*
X33433333Y47663334D01*
X33366666Y47630000D01*
X33333333Y47596667D01*
X33300000Y47530000D01*
X33300000Y47430000D01*
X33333333Y47363334D01*
X33366666Y47330000D01*
X33433333Y47296667D01*
X33700000Y47296667D01*
X33066666Y47663334D02*
X32633333Y47663334D01*
X32866666Y47396667D01*
X32766666Y47396667D01*
X32700000Y47363334D01*
X32666666Y47330000D01*
X32633333Y47263334D01*
X32633333Y47096667D01*
X32666666Y47030000D01*
X32700000Y46996667D01*
X32766666Y46963334D01*
X32966666Y46963334D01*
X33033333Y46996667D01*
X33066666Y47030000D01*
X31966666Y46963334D02*
X32366666Y46963334D01*
X32166666Y46963334D02*
X32166666Y47663334D01*
X32233333Y47563334D01*
X32300000Y47496667D01*
X32366666Y47463334D01*
%TO.C,R30*%
X38116666Y43500000D02*
X37783333Y43733334D01*
X38116666Y43900000D02*
X37416666Y43900000D01*
X37416666Y43633334D01*
X37450000Y43566667D01*
X37483333Y43533334D01*
X37550000Y43500000D01*
X37650000Y43500000D01*
X37716666Y43533334D01*
X37750000Y43566667D01*
X37783333Y43633334D01*
X37783333Y43900000D01*
X37416666Y43266667D02*
X37416666Y42833334D01*
X37683333Y43066667D01*
X37683333Y42966667D01*
X37716666Y42900000D01*
X37750000Y42866667D01*
X37816666Y42833334D01*
X37983333Y42833334D01*
X38050000Y42866667D01*
X38083333Y42900000D01*
X38116666Y42966667D01*
X38116666Y43166667D01*
X38083333Y43233334D01*
X38050000Y43266667D01*
X37416666Y42400000D02*
X37416666Y42333334D01*
X37450000Y42266667D01*
X37483333Y42233334D01*
X37550000Y42200000D01*
X37683333Y42166667D01*
X37850000Y42166667D01*
X37983333Y42200000D01*
X38050000Y42233334D01*
X38083333Y42266667D01*
X38116666Y42333334D01*
X38116666Y42400000D01*
X38083333Y42466667D01*
X38050000Y42500000D01*
X37983333Y42533334D01*
X37850000Y42566667D01*
X37683333Y42566667D01*
X37550000Y42533334D01*
X37483333Y42500000D01*
X37450000Y42466667D01*
X37416666Y42400000D01*
%TO.C,R29*%
X33300000Y32313334D02*
X33533333Y32646667D01*
X33700000Y32313334D02*
X33700000Y33013334D01*
X33433333Y33013334D01*
X33366666Y32980000D01*
X33333333Y32946667D01*
X33300000Y32880000D01*
X33300000Y32780000D01*
X33333333Y32713334D01*
X33366666Y32680000D01*
X33433333Y32646667D01*
X33700000Y32646667D01*
X33033333Y32946667D02*
X33000000Y32980000D01*
X32933333Y33013334D01*
X32766666Y33013334D01*
X32700000Y32980000D01*
X32666666Y32946667D01*
X32633333Y32880000D01*
X32633333Y32813334D01*
X32666666Y32713334D01*
X33066666Y32313334D01*
X32633333Y32313334D01*
X32300000Y32313334D02*
X32166666Y32313334D01*
X32100000Y32346667D01*
X32066666Y32380000D01*
X32000000Y32480000D01*
X31966666Y32613334D01*
X31966666Y32880000D01*
X32000000Y32946667D01*
X32033333Y32980000D01*
X32100000Y33013334D01*
X32233333Y33013334D01*
X32300000Y32980000D01*
X32333333Y32946667D01*
X32366666Y32880000D01*
X32366666Y32713334D01*
X32333333Y32646667D01*
X32300000Y32613334D01*
X32233333Y32580000D01*
X32100000Y32580000D01*
X32033333Y32613334D01*
X32000000Y32646667D01*
X31966666Y32713334D01*
%TO.C,R28*%
X33300000Y39613334D02*
X33533333Y39946667D01*
X33700000Y39613334D02*
X33700000Y40313334D01*
X33433333Y40313334D01*
X33366666Y40280000D01*
X33333333Y40246667D01*
X33300000Y40180000D01*
X33300000Y40080000D01*
X33333333Y40013334D01*
X33366666Y39980000D01*
X33433333Y39946667D01*
X33700000Y39946667D01*
X33033333Y40246667D02*
X33000000Y40280000D01*
X32933333Y40313334D01*
X32766666Y40313334D01*
X32700000Y40280000D01*
X32666666Y40246667D01*
X32633333Y40180000D01*
X32633333Y40113334D01*
X32666666Y40013334D01*
X33066666Y39613334D01*
X32633333Y39613334D01*
X32233333Y40013334D02*
X32300000Y40046667D01*
X32333333Y40080000D01*
X32366666Y40146667D01*
X32366666Y40180000D01*
X32333333Y40246667D01*
X32300000Y40280000D01*
X32233333Y40313334D01*
X32100000Y40313334D01*
X32033333Y40280000D01*
X32000000Y40246667D01*
X31966666Y40180000D01*
X31966666Y40146667D01*
X32000000Y40080000D01*
X32033333Y40046667D01*
X32100000Y40013334D01*
X32233333Y40013334D01*
X32300000Y39980000D01*
X32333333Y39946667D01*
X32366666Y39880000D01*
X32366666Y39746667D01*
X32333333Y39680000D01*
X32300000Y39646667D01*
X32233333Y39613334D01*
X32100000Y39613334D01*
X32033333Y39646667D01*
X32000000Y39680000D01*
X31966666Y39746667D01*
X31966666Y39880000D01*
X32000000Y39946667D01*
X32033333Y39980000D01*
X32100000Y40013334D01*
%TO.C,R27*%
X33300000Y42353334D02*
X33533333Y42686667D01*
X33700000Y42353334D02*
X33700000Y43053334D01*
X33433333Y43053334D01*
X33366666Y43020000D01*
X33333333Y42986667D01*
X33300000Y42920000D01*
X33300000Y42820000D01*
X33333333Y42753334D01*
X33366666Y42720000D01*
X33433333Y42686667D01*
X33700000Y42686667D01*
X33033333Y42986667D02*
X33000000Y43020000D01*
X32933333Y43053334D01*
X32766666Y43053334D01*
X32700000Y43020000D01*
X32666666Y42986667D01*
X32633333Y42920000D01*
X32633333Y42853334D01*
X32666666Y42753334D01*
X33066666Y42353334D01*
X32633333Y42353334D01*
X32400000Y43053334D02*
X31933333Y43053334D01*
X32233333Y42353334D01*
%TO.C,R26*%
X44900000Y39933334D02*
X45133333Y40266667D01*
X45300000Y39933334D02*
X45300000Y40633334D01*
X45033333Y40633334D01*
X44966666Y40600000D01*
X44933333Y40566667D01*
X44900000Y40500000D01*
X44900000Y40400000D01*
X44933333Y40333334D01*
X44966666Y40300000D01*
X45033333Y40266667D01*
X45300000Y40266667D01*
X44633333Y40566667D02*
X44600000Y40600000D01*
X44533333Y40633334D01*
X44366666Y40633334D01*
X44300000Y40600000D01*
X44266666Y40566667D01*
X44233333Y40500000D01*
X44233333Y40433334D01*
X44266666Y40333334D01*
X44666666Y39933334D01*
X44233333Y39933334D01*
X43633333Y40633334D02*
X43766666Y40633334D01*
X43833333Y40600000D01*
X43866666Y40566667D01*
X43933333Y40466667D01*
X43966666Y40333334D01*
X43966666Y40066667D01*
X43933333Y40000000D01*
X43900000Y39966667D01*
X43833333Y39933334D01*
X43700000Y39933334D01*
X43633333Y39966667D01*
X43600000Y40000000D01*
X43566666Y40066667D01*
X43566666Y40233334D01*
X43600000Y40300000D01*
X43633333Y40333334D01*
X43700000Y40366667D01*
X43833333Y40366667D01*
X43900000Y40333334D01*
X43933333Y40300000D01*
X43966666Y40233334D01*
%TO.C,R25*%
X44850000Y32683334D02*
X45083333Y33016667D01*
X45250000Y32683334D02*
X45250000Y33383334D01*
X44983333Y33383334D01*
X44916666Y33350000D01*
X44883333Y33316667D01*
X44850000Y33250000D01*
X44850000Y33150000D01*
X44883333Y33083334D01*
X44916666Y33050000D01*
X44983333Y33016667D01*
X45250000Y33016667D01*
X44583333Y33316667D02*
X44550000Y33350000D01*
X44483333Y33383334D01*
X44316666Y33383334D01*
X44250000Y33350000D01*
X44216666Y33316667D01*
X44183333Y33250000D01*
X44183333Y33183334D01*
X44216666Y33083334D01*
X44616666Y32683334D01*
X44183333Y32683334D01*
X43550000Y33383334D02*
X43883333Y33383334D01*
X43916666Y33050000D01*
X43883333Y33083334D01*
X43816666Y33116667D01*
X43650000Y33116667D01*
X43583333Y33083334D01*
X43550000Y33050000D01*
X43516666Y32983334D01*
X43516666Y32816667D01*
X43550000Y32750000D01*
X43583333Y32716667D01*
X43650000Y32683334D01*
X43816666Y32683334D01*
X43883333Y32716667D01*
X43916666Y32750000D01*
%TO.C,R24*%
X46366666Y36200000D02*
X46033333Y36433334D01*
X46366666Y36600000D02*
X45666666Y36600000D01*
X45666666Y36333334D01*
X45700000Y36266667D01*
X45733333Y36233334D01*
X45800000Y36200000D01*
X45900000Y36200000D01*
X45966666Y36233334D01*
X46000000Y36266667D01*
X46033333Y36333334D01*
X46033333Y36600000D01*
X45733333Y35933334D02*
X45700000Y35900000D01*
X45666666Y35833334D01*
X45666666Y35666667D01*
X45700000Y35600000D01*
X45733333Y35566667D01*
X45800000Y35533334D01*
X45866666Y35533334D01*
X45966666Y35566667D01*
X46366666Y35966667D01*
X46366666Y35533334D01*
X45900000Y34933334D02*
X46366666Y34933334D01*
X45633333Y35100000D02*
X46133333Y35266667D01*
X46133333Y34833334D01*
%TO.C,R23*%
X44900000Y38183334D02*
X45133333Y38516667D01*
X45300000Y38183334D02*
X45300000Y38883334D01*
X45033333Y38883334D01*
X44966666Y38850000D01*
X44933333Y38816667D01*
X44900000Y38750000D01*
X44900000Y38650000D01*
X44933333Y38583334D01*
X44966666Y38550000D01*
X45033333Y38516667D01*
X45300000Y38516667D01*
X44633333Y38816667D02*
X44600000Y38850000D01*
X44533333Y38883334D01*
X44366666Y38883334D01*
X44300000Y38850000D01*
X44266666Y38816667D01*
X44233333Y38750000D01*
X44233333Y38683334D01*
X44266666Y38583334D01*
X44666666Y38183334D01*
X44233333Y38183334D01*
X44000000Y38883334D02*
X43566666Y38883334D01*
X43800000Y38616667D01*
X43700000Y38616667D01*
X43633333Y38583334D01*
X43600000Y38550000D01*
X43566666Y38483334D01*
X43566666Y38316667D01*
X43600000Y38250000D01*
X43633333Y38216667D01*
X43700000Y38183334D01*
X43900000Y38183334D01*
X43966666Y38216667D01*
X44000000Y38250000D01*
%TO.C,R21*%
X38116666Y30650000D02*
X37783333Y30883334D01*
X38116666Y31050000D02*
X37416666Y31050000D01*
X37416666Y30783334D01*
X37450000Y30716667D01*
X37483333Y30683334D01*
X37550000Y30650000D01*
X37650000Y30650000D01*
X37716666Y30683334D01*
X37750000Y30716667D01*
X37783333Y30783334D01*
X37783333Y31050000D01*
X37483333Y30383334D02*
X37450000Y30350000D01*
X37416666Y30283334D01*
X37416666Y30116667D01*
X37450000Y30050000D01*
X37483333Y30016667D01*
X37550000Y29983334D01*
X37616666Y29983334D01*
X37716666Y30016667D01*
X38116666Y30416667D01*
X38116666Y29983334D01*
X38116666Y29316667D02*
X38116666Y29716667D01*
X38116666Y29516667D02*
X37416666Y29516667D01*
X37516666Y29583334D01*
X37583333Y29650000D01*
X37616666Y29716667D01*
%TO.C,R16*%
X19450000Y30583334D02*
X19683333Y30916667D01*
X19850000Y30583334D02*
X19850000Y31283334D01*
X19583333Y31283334D01*
X19516666Y31250000D01*
X19483333Y31216667D01*
X19450000Y31150000D01*
X19450000Y31050000D01*
X19483333Y30983334D01*
X19516666Y30950000D01*
X19583333Y30916667D01*
X19850000Y30916667D01*
X18783333Y30583334D02*
X19183333Y30583334D01*
X18983333Y30583334D02*
X18983333Y31283334D01*
X19050000Y31183334D01*
X19116666Y31116667D01*
X19183333Y31083334D01*
X18183333Y31283334D02*
X18316666Y31283334D01*
X18383333Y31250000D01*
X18416666Y31216667D01*
X18483333Y31116667D01*
X18516666Y30983334D01*
X18516666Y30716667D01*
X18483333Y30650000D01*
X18450000Y30616667D01*
X18383333Y30583334D01*
X18250000Y30583334D01*
X18183333Y30616667D01*
X18150000Y30650000D01*
X18116666Y30716667D01*
X18116666Y30883334D01*
X18150000Y30950000D01*
X18183333Y30983334D01*
X18250000Y31016667D01*
X18383333Y31016667D01*
X18450000Y30983334D01*
X18483333Y30950000D01*
X18516666Y30883334D01*
%TO.C,R15*%
X22546666Y33500000D02*
X22213333Y33733334D01*
X22546666Y33900000D02*
X21846666Y33900000D01*
X21846666Y33633334D01*
X21880000Y33566667D01*
X21913333Y33533334D01*
X21980000Y33500000D01*
X22080000Y33500000D01*
X22146666Y33533334D01*
X22180000Y33566667D01*
X22213333Y33633334D01*
X22213333Y33900000D01*
X22546666Y32833334D02*
X22546666Y33233334D01*
X22546666Y33033334D02*
X21846666Y33033334D01*
X21946666Y33100000D01*
X22013333Y33166667D01*
X22046666Y33233334D01*
X21846666Y32200000D02*
X21846666Y32533334D01*
X22180000Y32566667D01*
X22146666Y32533334D01*
X22113333Y32466667D01*
X22113333Y32300000D01*
X22146666Y32233334D01*
X22180000Y32200000D01*
X22246666Y32166667D01*
X22413333Y32166667D01*
X22480000Y32200000D01*
X22513333Y32233334D01*
X22546666Y32300000D01*
X22546666Y32466667D01*
X22513333Y32533334D01*
X22480000Y32566667D01*
%TO.C,R13*%
X42150000Y25653334D02*
X42383333Y25986667D01*
X42550000Y25653334D02*
X42550000Y26353334D01*
X42283333Y26353334D01*
X42216666Y26320000D01*
X42183333Y26286667D01*
X42150000Y26220000D01*
X42150000Y26120000D01*
X42183333Y26053334D01*
X42216666Y26020000D01*
X42283333Y25986667D01*
X42550000Y25986667D01*
X41483333Y25653334D02*
X41883333Y25653334D01*
X41683333Y25653334D02*
X41683333Y26353334D01*
X41750000Y26253334D01*
X41816666Y26186667D01*
X41883333Y26153334D01*
X41250000Y26353334D02*
X40816666Y26353334D01*
X41050000Y26086667D01*
X40950000Y26086667D01*
X40883333Y26053334D01*
X40850000Y26020000D01*
X40816666Y25953334D01*
X40816666Y25786667D01*
X40850000Y25720000D01*
X40883333Y25686667D01*
X40950000Y25653334D01*
X41150000Y25653334D01*
X41216666Y25686667D01*
X41250000Y25720000D01*
%TO.C,Q7*%
X27333333Y30216667D02*
X27300000Y30283334D01*
X27233333Y30350000D01*
X27133333Y30450000D01*
X27100000Y30516667D01*
X27100000Y30583334D01*
X27266666Y30550000D02*
X27233333Y30616667D01*
X27166666Y30683334D01*
X27033333Y30716667D01*
X26800000Y30716667D01*
X26666666Y30683334D01*
X26600000Y30616667D01*
X26566666Y30550000D01*
X26566666Y30416667D01*
X26600000Y30350000D01*
X26666666Y30283334D01*
X26800000Y30250000D01*
X27033333Y30250000D01*
X27166666Y30283334D01*
X27233333Y30350000D01*
X27266666Y30416667D01*
X27266666Y30550000D01*
X26566666Y30016667D02*
X26566666Y29550000D01*
X27266666Y29850000D01*
%TO.C,Q6*%
X27383333Y37516667D02*
X27350000Y37583334D01*
X27283333Y37650000D01*
X27183333Y37750000D01*
X27150000Y37816667D01*
X27150000Y37883334D01*
X27316666Y37850000D02*
X27283333Y37916667D01*
X27216666Y37983334D01*
X27083333Y38016667D01*
X26850000Y38016667D01*
X26716666Y37983334D01*
X26650000Y37916667D01*
X26616666Y37850000D01*
X26616666Y37716667D01*
X26650000Y37650000D01*
X26716666Y37583334D01*
X26850000Y37550000D01*
X27083333Y37550000D01*
X27216666Y37583334D01*
X27283333Y37650000D01*
X27316666Y37716667D01*
X27316666Y37850000D01*
X26616666Y36950000D02*
X26616666Y37083334D01*
X26650000Y37150000D01*
X26683333Y37183334D01*
X26783333Y37250000D01*
X26916666Y37283334D01*
X27183333Y37283334D01*
X27250000Y37250000D01*
X27283333Y37216667D01*
X27316666Y37150000D01*
X27316666Y37016667D01*
X27283333Y36950000D01*
X27250000Y36916667D01*
X27183333Y36883334D01*
X27016666Y36883334D01*
X26950000Y36916667D01*
X26916666Y36950000D01*
X26883333Y37016667D01*
X26883333Y37150000D01*
X26916666Y37216667D01*
X26950000Y37250000D01*
X27016666Y37283334D01*
%TO.C,Q5*%
X27383333Y44316667D02*
X27350000Y44383334D01*
X27283333Y44450000D01*
X27183333Y44550000D01*
X27150000Y44616667D01*
X27150000Y44683334D01*
X27316666Y44650000D02*
X27283333Y44716667D01*
X27216666Y44783334D01*
X27083333Y44816667D01*
X26850000Y44816667D01*
X26716666Y44783334D01*
X26650000Y44716667D01*
X26616666Y44650000D01*
X26616666Y44516667D01*
X26650000Y44450000D01*
X26716666Y44383334D01*
X26850000Y44350000D01*
X27083333Y44350000D01*
X27216666Y44383334D01*
X27283333Y44450000D01*
X27316666Y44516667D01*
X27316666Y44650000D01*
X26616666Y43716667D02*
X26616666Y44050000D01*
X26950000Y44083334D01*
X26916666Y44050000D01*
X26883333Y43983334D01*
X26883333Y43816667D01*
X26916666Y43750000D01*
X26950000Y43716667D01*
X27016666Y43683334D01*
X27183333Y43683334D01*
X27250000Y43716667D01*
X27283333Y43750000D01*
X27316666Y43816667D01*
X27316666Y43983334D01*
X27283333Y44050000D01*
X27250000Y44083334D01*
%TO.C,Q4*%
X44583333Y42016667D02*
X44550000Y42083334D01*
X44483333Y42150000D01*
X44383333Y42250000D01*
X44350000Y42316667D01*
X44350000Y42383334D01*
X44516666Y42350000D02*
X44483333Y42416667D01*
X44416666Y42483334D01*
X44283333Y42516667D01*
X44050000Y42516667D01*
X43916666Y42483334D01*
X43850000Y42416667D01*
X43816666Y42350000D01*
X43816666Y42216667D01*
X43850000Y42150000D01*
X43916666Y42083334D01*
X44050000Y42050000D01*
X44283333Y42050000D01*
X44416666Y42083334D01*
X44483333Y42150000D01*
X44516666Y42216667D01*
X44516666Y42350000D01*
X44050000Y41450000D02*
X44516666Y41450000D01*
X43783333Y41616667D02*
X44283333Y41783334D01*
X44283333Y41350000D01*
%TO.C,Q2*%
X39933333Y36916667D02*
X39900000Y36983334D01*
X39833333Y37050000D01*
X39733333Y37150000D01*
X39700000Y37216667D01*
X39700000Y37283334D01*
X39866666Y37250000D02*
X39833333Y37316667D01*
X39766666Y37383334D01*
X39633333Y37416667D01*
X39400000Y37416667D01*
X39266666Y37383334D01*
X39200000Y37316667D01*
X39166666Y37250000D01*
X39166666Y37116667D01*
X39200000Y37050000D01*
X39266666Y36983334D01*
X39400000Y36950000D01*
X39633333Y36950000D01*
X39766666Y36983334D01*
X39833333Y37050000D01*
X39866666Y37116667D01*
X39866666Y37250000D01*
X39233333Y36683334D02*
X39200000Y36650000D01*
X39166666Y36583334D01*
X39166666Y36416667D01*
X39200000Y36350000D01*
X39233333Y36316667D01*
X39300000Y36283334D01*
X39366666Y36283334D01*
X39466666Y36316667D01*
X39866666Y36716667D01*
X39866666Y36283334D01*
%TO.C,Q1*%
X44683333Y29066667D02*
X44650000Y29133334D01*
X44583333Y29200000D01*
X44483333Y29300000D01*
X44450000Y29366667D01*
X44450000Y29433334D01*
X44616666Y29400000D02*
X44583333Y29466667D01*
X44516666Y29533334D01*
X44383333Y29566667D01*
X44150000Y29566667D01*
X44016666Y29533334D01*
X43950000Y29466667D01*
X43916666Y29400000D01*
X43916666Y29266667D01*
X43950000Y29200000D01*
X44016666Y29133334D01*
X44150000Y29100000D01*
X44383333Y29100000D01*
X44516666Y29133334D01*
X44583333Y29200000D01*
X44616666Y29266667D01*
X44616666Y29400000D01*
X44616666Y28433334D02*
X44616666Y28833334D01*
X44616666Y28633334D02*
X43916666Y28633334D01*
X44016666Y28700000D01*
X44083333Y28766667D01*
X44116666Y28833334D01*
%TO.C,D7*%
X43766666Y47533334D02*
X43766666Y48233334D01*
X43600000Y48233334D01*
X43500000Y48200000D01*
X43433333Y48133334D01*
X43400000Y48066667D01*
X43366666Y47933334D01*
X43366666Y47833334D01*
X43400000Y47700000D01*
X43433333Y47633334D01*
X43500000Y47566667D01*
X43600000Y47533334D01*
X43766666Y47533334D01*
X43133333Y48233334D02*
X42666666Y48233334D01*
X42966666Y47533334D01*
%TO.C,C27*%
X43700000Y49600000D02*
X43733333Y49566667D01*
X43833333Y49533334D01*
X43900000Y49533334D01*
X44000000Y49566667D01*
X44066666Y49633334D01*
X44100000Y49700000D01*
X44133333Y49833334D01*
X44133333Y49933334D01*
X44100000Y50066667D01*
X44066666Y50133334D01*
X44000000Y50200000D01*
X43900000Y50233334D01*
X43833333Y50233334D01*
X43733333Y50200000D01*
X43700000Y50166667D01*
X43433333Y50166667D02*
X43400000Y50200000D01*
X43333333Y50233334D01*
X43166666Y50233334D01*
X43100000Y50200000D01*
X43066666Y50166667D01*
X43033333Y50100000D01*
X43033333Y50033334D01*
X43066666Y49933334D01*
X43466666Y49533334D01*
X43033333Y49533334D01*
X42800000Y50233334D02*
X42333333Y50233334D01*
X42633333Y49533334D01*
%TO.C,C24*%
X43700000Y51350000D02*
X43733333Y51316667D01*
X43833333Y51283334D01*
X43900000Y51283334D01*
X44000000Y51316667D01*
X44066666Y51383334D01*
X44100000Y51450000D01*
X44133333Y51583334D01*
X44133333Y51683334D01*
X44100000Y51816667D01*
X44066666Y51883334D01*
X44000000Y51950000D01*
X43900000Y51983334D01*
X43833333Y51983334D01*
X43733333Y51950000D01*
X43700000Y51916667D01*
X43433333Y51916667D02*
X43400000Y51950000D01*
X43333333Y51983334D01*
X43166666Y51983334D01*
X43100000Y51950000D01*
X43066666Y51916667D01*
X43033333Y51850000D01*
X43033333Y51783334D01*
X43066666Y51683334D01*
X43466666Y51283334D01*
X43033333Y51283334D01*
X42433333Y51750000D02*
X42433333Y51283334D01*
X42600000Y52016667D02*
X42766666Y51516667D01*
X42333333Y51516667D01*
%TO.C,C22*%
X46700000Y55320000D02*
X46733333Y55286667D01*
X46833333Y55253334D01*
X46900000Y55253334D01*
X47000000Y55286667D01*
X47066666Y55353334D01*
X47100000Y55420000D01*
X47133333Y55553334D01*
X47133333Y55653334D01*
X47100000Y55786667D01*
X47066666Y55853334D01*
X47000000Y55920000D01*
X46900000Y55953334D01*
X46833333Y55953334D01*
X46733333Y55920000D01*
X46700000Y55886667D01*
X46433333Y55886667D02*
X46400000Y55920000D01*
X46333333Y55953334D01*
X46166666Y55953334D01*
X46100000Y55920000D01*
X46066666Y55886667D01*
X46033333Y55820000D01*
X46033333Y55753334D01*
X46066666Y55653334D01*
X46466666Y55253334D01*
X46033333Y55253334D01*
X45766666Y55886667D02*
X45733333Y55920000D01*
X45666666Y55953334D01*
X45500000Y55953334D01*
X45433333Y55920000D01*
X45400000Y55886667D01*
X45366666Y55820000D01*
X45366666Y55753334D01*
X45400000Y55653334D01*
X45800000Y55253334D01*
X45366666Y55253334D01*
%TO.C,C8*%
X16020000Y33166667D02*
X16053333Y33200000D01*
X16086666Y33300000D01*
X16086666Y33366667D01*
X16053333Y33466667D01*
X15986666Y33533334D01*
X15920000Y33566667D01*
X15786666Y33600000D01*
X15686666Y33600000D01*
X15553333Y33566667D01*
X15486666Y33533334D01*
X15420000Y33466667D01*
X15386666Y33366667D01*
X15386666Y33300000D01*
X15420000Y33200000D01*
X15453333Y33166667D01*
X15686666Y32766667D02*
X15653333Y32833334D01*
X15620000Y32866667D01*
X15553333Y32900000D01*
X15520000Y32900000D01*
X15453333Y32866667D01*
X15420000Y32833334D01*
X15386666Y32766667D01*
X15386666Y32633334D01*
X15420000Y32566667D01*
X15453333Y32533334D01*
X15520000Y32500000D01*
X15553333Y32500000D01*
X15620000Y32533334D01*
X15653333Y32566667D01*
X15686666Y32633334D01*
X15686666Y32766667D01*
X15720000Y32833334D01*
X15753333Y32866667D01*
X15820000Y32900000D01*
X15953333Y32900000D01*
X16020000Y32866667D01*
X16053333Y32833334D01*
X16086666Y32766667D01*
X16086666Y32633334D01*
X16053333Y32566667D01*
X16020000Y32533334D01*
X15953333Y32500000D01*
X15820000Y32500000D01*
X15753333Y32533334D01*
X15720000Y32566667D01*
X15686666Y32633334D01*
%TO.C,C7*%
X18066666Y40400000D02*
X18100000Y40366667D01*
X18200000Y40333334D01*
X18266666Y40333334D01*
X18366666Y40366667D01*
X18433333Y40433334D01*
X18466666Y40500000D01*
X18500000Y40633334D01*
X18500000Y40733334D01*
X18466666Y40866667D01*
X18433333Y40933334D01*
X18366666Y41000000D01*
X18266666Y41033334D01*
X18200000Y41033334D01*
X18100000Y41000000D01*
X18066666Y40966667D01*
X17833333Y41033334D02*
X17366666Y41033334D01*
X17666666Y40333334D01*
%TD*%
M02*
