%TF.GenerationSoftware,KiCad,Pcbnew,(5.1.6)-1*%
%TF.CreationDate,2021-03-31T15:54:51+07:00*%
%TF.ProjectId,EM_Drone_SUBFLIGHT,454d5f44-726f-46e6-955f-535542464c49,rev?*%
%TF.SameCoordinates,PX7997ee0PY7f50c60*%
%TF.FileFunction,Paste,Top*%
%TF.FilePolarity,Positive*%
%FSLAX46Y46*%
G04 Gerber Fmt 4.6, Leading zero omitted, Abs format (unit mm)*
G04 Created by KiCad (PCBNEW (5.1.6)-1) date 2021-03-31 15:54:51*
%MOMM*%
%LPD*%
G01*
G04 APERTURE LIST*
%ADD10O,0.550000X1.800000*%
%ADD11O,1.800000X0.550000*%
%ADD12R,2.750000X3.050000*%
%ADD13R,1.200000X2.200000*%
%ADD14R,1.000000X1.225000*%
%ADD15R,0.840000X1.225000*%
%ADD16R,1.400000X1.200000*%
%ADD17R,0.750000X1.000000*%
%ADD18R,0.900000X0.800000*%
%ADD19R,1.500000X1.900000*%
%ADD20R,0.400000X1.350000*%
%ADD21R,1.049020X0.998220*%
%ADD22R,2.199640X0.848360*%
%ADD23R,1.060000X0.650000*%
%ADD24R,2.500000X1.800000*%
%ADD25R,1.800000X2.500000*%
G04 APERTURE END LIST*
D10*
%TO.C,U7*%
X39100000Y45400000D03*
X40200000Y45400000D03*
X45700000Y45400000D03*
X43500000Y45400000D03*
X44600000Y45400000D03*
X46800000Y45400000D03*
X41300000Y45400000D03*
X47900000Y45400000D03*
X42400000Y45400000D03*
D11*
X51450000Y39250000D03*
X51450000Y32650000D03*
X51450000Y35950000D03*
X51450000Y40350000D03*
X51450000Y30450000D03*
X51450000Y31550000D03*
X51450000Y41450000D03*
X51450000Y42550000D03*
X51450000Y33750000D03*
X51450000Y37050000D03*
X51450000Y34850000D03*
X51450000Y38150000D03*
D10*
X47900000Y27600000D03*
X43500000Y27600000D03*
X44600000Y27600000D03*
X45700000Y27600000D03*
X46800000Y27600000D03*
X41300000Y27600000D03*
X42400000Y27600000D03*
X40200000Y27600000D03*
X39100000Y27600000D03*
D11*
X35550000Y31550000D03*
X35550000Y32650000D03*
X35550000Y30450000D03*
X35550000Y33750000D03*
X35550000Y34850000D03*
X35550000Y35950000D03*
X35550000Y37050000D03*
X35550000Y38150000D03*
X35550000Y39250000D03*
X35550000Y40350000D03*
X35550000Y41450000D03*
X35550000Y42550000D03*
%TD*%
D12*
%TO.C,U5*%
X30275000Y67675000D03*
X27225000Y71025000D03*
X27225000Y67675000D03*
X30275000Y71025000D03*
D13*
X31030000Y63050000D03*
X26470000Y63050000D03*
%TD*%
D12*
%TO.C,U3*%
X27175000Y5325000D03*
X30225000Y1975000D03*
X30225000Y5325000D03*
X27175000Y1975000D03*
D13*
X26420000Y9950000D03*
X30980000Y9950000D03*
%TD*%
%TO.C,J6*%
G36*
G01*
X850000Y23675000D02*
X3050000Y23675000D01*
G75*
G02*
X3300000Y23425000I0J-250000D01*
G01*
X3300000Y22925000D01*
G75*
G02*
X3050000Y22675000I-250000J0D01*
G01*
X850000Y22675000D01*
G75*
G02*
X600000Y22925000I0J250000D01*
G01*
X600000Y23425000D01*
G75*
G02*
X850000Y23675000I250000J0D01*
G01*
G37*
G36*
G01*
X850000Y31125000D02*
X3050000Y31125000D01*
G75*
G02*
X3300000Y30875000I0J-250000D01*
G01*
X3300000Y30375000D01*
G75*
G02*
X3050000Y30125000I-250000J0D01*
G01*
X850000Y30125000D01*
G75*
G02*
X600000Y30375000I0J250000D01*
G01*
X600000Y30875000D01*
G75*
G02*
X850000Y31125000I250000J0D01*
G01*
G37*
G36*
G01*
X4450000Y25325000D02*
X5850000Y25325000D01*
G75*
G02*
X6000000Y25175000I0J-150000D01*
G01*
X6000000Y24875000D01*
G75*
G02*
X5850000Y24725000I-150000J0D01*
G01*
X4450000Y24725000D01*
G75*
G02*
X4300000Y24875000I0J150000D01*
G01*
X4300000Y25175000D01*
G75*
G02*
X4450000Y25325000I150000J0D01*
G01*
G37*
G36*
G01*
X4450000Y26575000D02*
X5850000Y26575000D01*
G75*
G02*
X6000000Y26425000I0J-150000D01*
G01*
X6000000Y26125000D01*
G75*
G02*
X5850000Y25975000I-150000J0D01*
G01*
X4450000Y25975000D01*
G75*
G02*
X4300000Y26125000I0J150000D01*
G01*
X4300000Y26425000D01*
G75*
G02*
X4450000Y26575000I150000J0D01*
G01*
G37*
G36*
G01*
X4450000Y27825000D02*
X5850000Y27825000D01*
G75*
G02*
X6000000Y27675000I0J-150000D01*
G01*
X6000000Y27375000D01*
G75*
G02*
X5850000Y27225000I-150000J0D01*
G01*
X4450000Y27225000D01*
G75*
G02*
X4300000Y27375000I0J150000D01*
G01*
X4300000Y27675000D01*
G75*
G02*
X4450000Y27825000I150000J0D01*
G01*
G37*
G36*
G01*
X4450000Y29075000D02*
X5850000Y29075000D01*
G75*
G02*
X6000000Y28925000I0J-150000D01*
G01*
X6000000Y28625000D01*
G75*
G02*
X5850000Y28475000I-150000J0D01*
G01*
X4450000Y28475000D01*
G75*
G02*
X4300000Y28625000I0J150000D01*
G01*
X4300000Y28925000D01*
G75*
G02*
X4450000Y29075000I150000J0D01*
G01*
G37*
%TD*%
%TO.C,J4*%
G36*
G01*
X850000Y33275000D02*
X3050000Y33275000D01*
G75*
G02*
X3300000Y33025000I0J-250000D01*
G01*
X3300000Y32525000D01*
G75*
G02*
X3050000Y32275000I-250000J0D01*
G01*
X850000Y32275000D01*
G75*
G02*
X600000Y32525000I0J250000D01*
G01*
X600000Y33025000D01*
G75*
G02*
X850000Y33275000I250000J0D01*
G01*
G37*
G36*
G01*
X850000Y40725000D02*
X3050000Y40725000D01*
G75*
G02*
X3300000Y40475000I0J-250000D01*
G01*
X3300000Y39975000D01*
G75*
G02*
X3050000Y39725000I-250000J0D01*
G01*
X850000Y39725000D01*
G75*
G02*
X600000Y39975000I0J250000D01*
G01*
X600000Y40475000D01*
G75*
G02*
X850000Y40725000I250000J0D01*
G01*
G37*
G36*
G01*
X4450000Y34925000D02*
X5850000Y34925000D01*
G75*
G02*
X6000000Y34775000I0J-150000D01*
G01*
X6000000Y34475000D01*
G75*
G02*
X5850000Y34325000I-150000J0D01*
G01*
X4450000Y34325000D01*
G75*
G02*
X4300000Y34475000I0J150000D01*
G01*
X4300000Y34775000D01*
G75*
G02*
X4450000Y34925000I150000J0D01*
G01*
G37*
G36*
G01*
X4450000Y36175000D02*
X5850000Y36175000D01*
G75*
G02*
X6000000Y36025000I0J-150000D01*
G01*
X6000000Y35725000D01*
G75*
G02*
X5850000Y35575000I-150000J0D01*
G01*
X4450000Y35575000D01*
G75*
G02*
X4300000Y35725000I0J150000D01*
G01*
X4300000Y36025000D01*
G75*
G02*
X4450000Y36175000I150000J0D01*
G01*
G37*
G36*
G01*
X4450000Y37425000D02*
X5850000Y37425000D01*
G75*
G02*
X6000000Y37275000I0J-150000D01*
G01*
X6000000Y36975000D01*
G75*
G02*
X5850000Y36825000I-150000J0D01*
G01*
X4450000Y36825000D01*
G75*
G02*
X4300000Y36975000I0J150000D01*
G01*
X4300000Y37275000D01*
G75*
G02*
X4450000Y37425000I150000J0D01*
G01*
G37*
G36*
G01*
X4450000Y38675000D02*
X5850000Y38675000D01*
G75*
G02*
X6000000Y38525000I0J-150000D01*
G01*
X6000000Y38225000D01*
G75*
G02*
X5850000Y38075000I-150000J0D01*
G01*
X4450000Y38075000D01*
G75*
G02*
X4300000Y38225000I0J150000D01*
G01*
X4300000Y38525000D01*
G75*
G02*
X4450000Y38675000I150000J0D01*
G01*
G37*
%TD*%
%TO.C,J1*%
G36*
G01*
X850000Y42875000D02*
X3050000Y42875000D01*
G75*
G02*
X3300000Y42625000I0J-250000D01*
G01*
X3300000Y42125000D01*
G75*
G02*
X3050000Y41875000I-250000J0D01*
G01*
X850000Y41875000D01*
G75*
G02*
X600000Y42125000I0J250000D01*
G01*
X600000Y42625000D01*
G75*
G02*
X850000Y42875000I250000J0D01*
G01*
G37*
G36*
G01*
X850000Y50325000D02*
X3050000Y50325000D01*
G75*
G02*
X3300000Y50075000I0J-250000D01*
G01*
X3300000Y49575000D01*
G75*
G02*
X3050000Y49325000I-250000J0D01*
G01*
X850000Y49325000D01*
G75*
G02*
X600000Y49575000I0J250000D01*
G01*
X600000Y50075000D01*
G75*
G02*
X850000Y50325000I250000J0D01*
G01*
G37*
G36*
G01*
X4450000Y44525000D02*
X5850000Y44525000D01*
G75*
G02*
X6000000Y44375000I0J-150000D01*
G01*
X6000000Y44075000D01*
G75*
G02*
X5850000Y43925000I-150000J0D01*
G01*
X4450000Y43925000D01*
G75*
G02*
X4300000Y44075000I0J150000D01*
G01*
X4300000Y44375000D01*
G75*
G02*
X4450000Y44525000I150000J0D01*
G01*
G37*
G36*
G01*
X4450000Y45775000D02*
X5850000Y45775000D01*
G75*
G02*
X6000000Y45625000I0J-150000D01*
G01*
X6000000Y45325000D01*
G75*
G02*
X5850000Y45175000I-150000J0D01*
G01*
X4450000Y45175000D01*
G75*
G02*
X4300000Y45325000I0J150000D01*
G01*
X4300000Y45625000D01*
G75*
G02*
X4450000Y45775000I150000J0D01*
G01*
G37*
G36*
G01*
X4450000Y47025000D02*
X5850000Y47025000D01*
G75*
G02*
X6000000Y46875000I0J-150000D01*
G01*
X6000000Y46575000D01*
G75*
G02*
X5850000Y46425000I-150000J0D01*
G01*
X4450000Y46425000D01*
G75*
G02*
X4300000Y46575000I0J150000D01*
G01*
X4300000Y46875000D01*
G75*
G02*
X4450000Y47025000I150000J0D01*
G01*
G37*
G36*
G01*
X4450000Y48275000D02*
X5850000Y48275000D01*
G75*
G02*
X6000000Y48125000I0J-150000D01*
G01*
X6000000Y47825000D01*
G75*
G02*
X5850000Y47675000I-150000J0D01*
G01*
X4450000Y47675000D01*
G75*
G02*
X4300000Y47825000I0J150000D01*
G01*
X4300000Y48125000D01*
G75*
G02*
X4450000Y48275000I150000J0D01*
G01*
G37*
%TD*%
D14*
%TO.C,U6*%
X41320000Y8075000D03*
X55620000Y8075000D03*
D15*
X45550000Y18900000D03*
X46820000Y18900000D03*
X48090000Y18900000D03*
X49360000Y18900000D03*
X50630000Y18900000D03*
X51900000Y18900000D03*
%TD*%
D16*
%TO.C,Y1*%
X20550000Y50850000D03*
X22750000Y50850000D03*
X22750000Y49150000D03*
X20550000Y49150000D03*
%TD*%
%TO.C,U4*%
G36*
G01*
X47155000Y58810000D02*
X47605000Y58810000D01*
G75*
G02*
X47830000Y58585000I0J-225000D01*
G01*
X47830000Y58135000D01*
G75*
G02*
X47605000Y57910000I-225000J0D01*
G01*
X47155000Y57910000D01*
G75*
G02*
X46930000Y58135000I0J225000D01*
G01*
X46930000Y58585000D01*
G75*
G02*
X47155000Y58810000I225000J0D01*
G01*
G37*
G36*
G01*
X48275000Y58810000D02*
X48725000Y58810000D01*
G75*
G02*
X48950000Y58585000I0J-225000D01*
G01*
X48950000Y58135000D01*
G75*
G02*
X48725000Y57910000I-225000J0D01*
G01*
X48275000Y57910000D01*
G75*
G02*
X48050000Y58135000I0J225000D01*
G01*
X48050000Y58585000D01*
G75*
G02*
X48275000Y58810000I225000J0D01*
G01*
G37*
G36*
G01*
X49395000Y58810000D02*
X49845000Y58810000D01*
G75*
G02*
X50070000Y58585000I0J-225000D01*
G01*
X50070000Y58135000D01*
G75*
G02*
X49845000Y57910000I-225000J0D01*
G01*
X49395000Y57910000D01*
G75*
G02*
X49170000Y58135000I0J225000D01*
G01*
X49170000Y58585000D01*
G75*
G02*
X49395000Y58810000I225000J0D01*
G01*
G37*
G36*
G01*
X47155000Y59930000D02*
X47605000Y59930000D01*
G75*
G02*
X47830000Y59705000I0J-225000D01*
G01*
X47830000Y59255000D01*
G75*
G02*
X47605000Y59030000I-225000J0D01*
G01*
X47155000Y59030000D01*
G75*
G02*
X46930000Y59255000I0J225000D01*
G01*
X46930000Y59705000D01*
G75*
G02*
X47155000Y59930000I225000J0D01*
G01*
G37*
G36*
G01*
X48275000Y59930000D02*
X48725000Y59930000D01*
G75*
G02*
X48950000Y59705000I0J-225000D01*
G01*
X48950000Y59255000D01*
G75*
G02*
X48725000Y59030000I-225000J0D01*
G01*
X48275000Y59030000D01*
G75*
G02*
X48050000Y59255000I0J225000D01*
G01*
X48050000Y59705000D01*
G75*
G02*
X48275000Y59930000I225000J0D01*
G01*
G37*
G36*
G01*
X49395000Y59930000D02*
X49845000Y59930000D01*
G75*
G02*
X50070000Y59705000I0J-225000D01*
G01*
X50070000Y59255000D01*
G75*
G02*
X49845000Y59030000I-225000J0D01*
G01*
X49395000Y59030000D01*
G75*
G02*
X49170000Y59255000I0J225000D01*
G01*
X49170000Y59705000D01*
G75*
G02*
X49395000Y59930000I225000J0D01*
G01*
G37*
G36*
G01*
X47155000Y61050000D02*
X47605000Y61050000D01*
G75*
G02*
X47830000Y60825000I0J-225000D01*
G01*
X47830000Y60375000D01*
G75*
G02*
X47605000Y60150000I-225000J0D01*
G01*
X47155000Y60150000D01*
G75*
G02*
X46930000Y60375000I0J225000D01*
G01*
X46930000Y60825000D01*
G75*
G02*
X47155000Y61050000I225000J0D01*
G01*
G37*
G36*
G01*
X48275000Y61050000D02*
X48725000Y61050000D01*
G75*
G02*
X48950000Y60825000I0J-225000D01*
G01*
X48950000Y60375000D01*
G75*
G02*
X48725000Y60150000I-225000J0D01*
G01*
X48275000Y60150000D01*
G75*
G02*
X48050000Y60375000I0J225000D01*
G01*
X48050000Y60825000D01*
G75*
G02*
X48275000Y61050000I225000J0D01*
G01*
G37*
G36*
G01*
X49395000Y61050000D02*
X49845000Y61050000D01*
G75*
G02*
X50070000Y60825000I0J-225000D01*
G01*
X50070000Y60375000D01*
G75*
G02*
X49845000Y60150000I-225000J0D01*
G01*
X49395000Y60150000D01*
G75*
G02*
X49170000Y60375000I0J225000D01*
G01*
X49170000Y60825000D01*
G75*
G02*
X49395000Y61050000I225000J0D01*
G01*
G37*
G36*
G01*
X50612500Y61105000D02*
X51287500Y61105000D01*
G75*
G02*
X51350000Y61042500I0J-62500D01*
G01*
X51350000Y60917500D01*
G75*
G02*
X51287500Y60855000I-62500J0D01*
G01*
X50612500Y60855000D01*
G75*
G02*
X50550000Y60917500I0J62500D01*
G01*
X50550000Y61042500D01*
G75*
G02*
X50612500Y61105000I62500J0D01*
G01*
G37*
G36*
G01*
X50612500Y60605000D02*
X51287500Y60605000D01*
G75*
G02*
X51350000Y60542500I0J-62500D01*
G01*
X51350000Y60417500D01*
G75*
G02*
X51287500Y60355000I-62500J0D01*
G01*
X50612500Y60355000D01*
G75*
G02*
X50550000Y60417500I0J62500D01*
G01*
X50550000Y60542500D01*
G75*
G02*
X50612500Y60605000I62500J0D01*
G01*
G37*
G36*
G01*
X50612500Y60105000D02*
X51287500Y60105000D01*
G75*
G02*
X51350000Y60042500I0J-62500D01*
G01*
X51350000Y59917500D01*
G75*
G02*
X51287500Y59855000I-62500J0D01*
G01*
X50612500Y59855000D01*
G75*
G02*
X50550000Y59917500I0J62500D01*
G01*
X50550000Y60042500D01*
G75*
G02*
X50612500Y60105000I62500J0D01*
G01*
G37*
G36*
G01*
X50612500Y59605000D02*
X51287500Y59605000D01*
G75*
G02*
X51350000Y59542500I0J-62500D01*
G01*
X51350000Y59417500D01*
G75*
G02*
X51287500Y59355000I-62500J0D01*
G01*
X50612500Y59355000D01*
G75*
G02*
X50550000Y59417500I0J62500D01*
G01*
X50550000Y59542500D01*
G75*
G02*
X50612500Y59605000I62500J0D01*
G01*
G37*
G36*
G01*
X50612500Y59105000D02*
X51287500Y59105000D01*
G75*
G02*
X51350000Y59042500I0J-62500D01*
G01*
X51350000Y58917500D01*
G75*
G02*
X51287500Y58855000I-62500J0D01*
G01*
X50612500Y58855000D01*
G75*
G02*
X50550000Y58917500I0J62500D01*
G01*
X50550000Y59042500D01*
G75*
G02*
X50612500Y59105000I62500J0D01*
G01*
G37*
G36*
G01*
X50612500Y58605000D02*
X51287500Y58605000D01*
G75*
G02*
X51350000Y58542500I0J-62500D01*
G01*
X51350000Y58417500D01*
G75*
G02*
X51287500Y58355000I-62500J0D01*
G01*
X50612500Y58355000D01*
G75*
G02*
X50550000Y58417500I0J62500D01*
G01*
X50550000Y58542500D01*
G75*
G02*
X50612500Y58605000I62500J0D01*
G01*
G37*
G36*
G01*
X50612500Y58105000D02*
X51287500Y58105000D01*
G75*
G02*
X51350000Y58042500I0J-62500D01*
G01*
X51350000Y57917500D01*
G75*
G02*
X51287500Y57855000I-62500J0D01*
G01*
X50612500Y57855000D01*
G75*
G02*
X50550000Y57917500I0J62500D01*
G01*
X50550000Y58042500D01*
G75*
G02*
X50612500Y58105000I62500J0D01*
G01*
G37*
G36*
G01*
X49937500Y57430000D02*
X50062500Y57430000D01*
G75*
G02*
X50125000Y57367500I0J-62500D01*
G01*
X50125000Y56692500D01*
G75*
G02*
X50062500Y56630000I-62500J0D01*
G01*
X49937500Y56630000D01*
G75*
G02*
X49875000Y56692500I0J62500D01*
G01*
X49875000Y57367500D01*
G75*
G02*
X49937500Y57430000I62500J0D01*
G01*
G37*
G36*
G01*
X49437500Y57430000D02*
X49562500Y57430000D01*
G75*
G02*
X49625000Y57367500I0J-62500D01*
G01*
X49625000Y56692500D01*
G75*
G02*
X49562500Y56630000I-62500J0D01*
G01*
X49437500Y56630000D01*
G75*
G02*
X49375000Y56692500I0J62500D01*
G01*
X49375000Y57367500D01*
G75*
G02*
X49437500Y57430000I62500J0D01*
G01*
G37*
G36*
G01*
X48937500Y57430000D02*
X49062500Y57430000D01*
G75*
G02*
X49125000Y57367500I0J-62500D01*
G01*
X49125000Y56692500D01*
G75*
G02*
X49062500Y56630000I-62500J0D01*
G01*
X48937500Y56630000D01*
G75*
G02*
X48875000Y56692500I0J62500D01*
G01*
X48875000Y57367500D01*
G75*
G02*
X48937500Y57430000I62500J0D01*
G01*
G37*
G36*
G01*
X48437500Y57430000D02*
X48562500Y57430000D01*
G75*
G02*
X48625000Y57367500I0J-62500D01*
G01*
X48625000Y56692500D01*
G75*
G02*
X48562500Y56630000I-62500J0D01*
G01*
X48437500Y56630000D01*
G75*
G02*
X48375000Y56692500I0J62500D01*
G01*
X48375000Y57367500D01*
G75*
G02*
X48437500Y57430000I62500J0D01*
G01*
G37*
G36*
G01*
X47937500Y57430000D02*
X48062500Y57430000D01*
G75*
G02*
X48125000Y57367500I0J-62500D01*
G01*
X48125000Y56692500D01*
G75*
G02*
X48062500Y56630000I-62500J0D01*
G01*
X47937500Y56630000D01*
G75*
G02*
X47875000Y56692500I0J62500D01*
G01*
X47875000Y57367500D01*
G75*
G02*
X47937500Y57430000I62500J0D01*
G01*
G37*
G36*
G01*
X47437500Y57430000D02*
X47562500Y57430000D01*
G75*
G02*
X47625000Y57367500I0J-62500D01*
G01*
X47625000Y56692500D01*
G75*
G02*
X47562500Y56630000I-62500J0D01*
G01*
X47437500Y56630000D01*
G75*
G02*
X47375000Y56692500I0J62500D01*
G01*
X47375000Y57367500D01*
G75*
G02*
X47437500Y57430000I62500J0D01*
G01*
G37*
G36*
G01*
X46937500Y57430000D02*
X47062500Y57430000D01*
G75*
G02*
X47125000Y57367500I0J-62500D01*
G01*
X47125000Y56692500D01*
G75*
G02*
X47062500Y56630000I-62500J0D01*
G01*
X46937500Y56630000D01*
G75*
G02*
X46875000Y56692500I0J62500D01*
G01*
X46875000Y57367500D01*
G75*
G02*
X46937500Y57430000I62500J0D01*
G01*
G37*
G36*
G01*
X45712500Y58105000D02*
X46387500Y58105000D01*
G75*
G02*
X46450000Y58042500I0J-62500D01*
G01*
X46450000Y57917500D01*
G75*
G02*
X46387500Y57855000I-62500J0D01*
G01*
X45712500Y57855000D01*
G75*
G02*
X45650000Y57917500I0J62500D01*
G01*
X45650000Y58042500D01*
G75*
G02*
X45712500Y58105000I62500J0D01*
G01*
G37*
G36*
G01*
X45712500Y58605000D02*
X46387500Y58605000D01*
G75*
G02*
X46450000Y58542500I0J-62500D01*
G01*
X46450000Y58417500D01*
G75*
G02*
X46387500Y58355000I-62500J0D01*
G01*
X45712500Y58355000D01*
G75*
G02*
X45650000Y58417500I0J62500D01*
G01*
X45650000Y58542500D01*
G75*
G02*
X45712500Y58605000I62500J0D01*
G01*
G37*
G36*
G01*
X45712500Y59105000D02*
X46387500Y59105000D01*
G75*
G02*
X46450000Y59042500I0J-62500D01*
G01*
X46450000Y58917500D01*
G75*
G02*
X46387500Y58855000I-62500J0D01*
G01*
X45712500Y58855000D01*
G75*
G02*
X45650000Y58917500I0J62500D01*
G01*
X45650000Y59042500D01*
G75*
G02*
X45712500Y59105000I62500J0D01*
G01*
G37*
G36*
G01*
X45712500Y59605000D02*
X46387500Y59605000D01*
G75*
G02*
X46450000Y59542500I0J-62500D01*
G01*
X46450000Y59417500D01*
G75*
G02*
X46387500Y59355000I-62500J0D01*
G01*
X45712500Y59355000D01*
G75*
G02*
X45650000Y59417500I0J62500D01*
G01*
X45650000Y59542500D01*
G75*
G02*
X45712500Y59605000I62500J0D01*
G01*
G37*
G36*
G01*
X45712500Y60105000D02*
X46387500Y60105000D01*
G75*
G02*
X46450000Y60042500I0J-62500D01*
G01*
X46450000Y59917500D01*
G75*
G02*
X46387500Y59855000I-62500J0D01*
G01*
X45712500Y59855000D01*
G75*
G02*
X45650000Y59917500I0J62500D01*
G01*
X45650000Y60042500D01*
G75*
G02*
X45712500Y60105000I62500J0D01*
G01*
G37*
G36*
G01*
X45712500Y60605000D02*
X46387500Y60605000D01*
G75*
G02*
X46450000Y60542500I0J-62500D01*
G01*
X46450000Y60417500D01*
G75*
G02*
X46387500Y60355000I-62500J0D01*
G01*
X45712500Y60355000D01*
G75*
G02*
X45650000Y60417500I0J62500D01*
G01*
X45650000Y60542500D01*
G75*
G02*
X45712500Y60605000I62500J0D01*
G01*
G37*
G36*
G01*
X45712500Y61105000D02*
X46387500Y61105000D01*
G75*
G02*
X46450000Y61042500I0J-62500D01*
G01*
X46450000Y60917500D01*
G75*
G02*
X46387500Y60855000I-62500J0D01*
G01*
X45712500Y60855000D01*
G75*
G02*
X45650000Y60917500I0J62500D01*
G01*
X45650000Y61042500D01*
G75*
G02*
X45712500Y61105000I62500J0D01*
G01*
G37*
G36*
G01*
X46937500Y62330000D02*
X47062500Y62330000D01*
G75*
G02*
X47125000Y62267500I0J-62500D01*
G01*
X47125000Y61592500D01*
G75*
G02*
X47062500Y61530000I-62500J0D01*
G01*
X46937500Y61530000D01*
G75*
G02*
X46875000Y61592500I0J62500D01*
G01*
X46875000Y62267500D01*
G75*
G02*
X46937500Y62330000I62500J0D01*
G01*
G37*
G36*
G01*
X47437500Y62330000D02*
X47562500Y62330000D01*
G75*
G02*
X47625000Y62267500I0J-62500D01*
G01*
X47625000Y61592500D01*
G75*
G02*
X47562500Y61530000I-62500J0D01*
G01*
X47437500Y61530000D01*
G75*
G02*
X47375000Y61592500I0J62500D01*
G01*
X47375000Y62267500D01*
G75*
G02*
X47437500Y62330000I62500J0D01*
G01*
G37*
G36*
G01*
X47937500Y62330000D02*
X48062500Y62330000D01*
G75*
G02*
X48125000Y62267500I0J-62500D01*
G01*
X48125000Y61592500D01*
G75*
G02*
X48062500Y61530000I-62500J0D01*
G01*
X47937500Y61530000D01*
G75*
G02*
X47875000Y61592500I0J62500D01*
G01*
X47875000Y62267500D01*
G75*
G02*
X47937500Y62330000I62500J0D01*
G01*
G37*
G36*
G01*
X48437500Y62330000D02*
X48562500Y62330000D01*
G75*
G02*
X48625000Y62267500I0J-62500D01*
G01*
X48625000Y61592500D01*
G75*
G02*
X48562500Y61530000I-62500J0D01*
G01*
X48437500Y61530000D01*
G75*
G02*
X48375000Y61592500I0J62500D01*
G01*
X48375000Y62267500D01*
G75*
G02*
X48437500Y62330000I62500J0D01*
G01*
G37*
G36*
G01*
X48937500Y62330000D02*
X49062500Y62330000D01*
G75*
G02*
X49125000Y62267500I0J-62500D01*
G01*
X49125000Y61592500D01*
G75*
G02*
X49062500Y61530000I-62500J0D01*
G01*
X48937500Y61530000D01*
G75*
G02*
X48875000Y61592500I0J62500D01*
G01*
X48875000Y62267500D01*
G75*
G02*
X48937500Y62330000I62500J0D01*
G01*
G37*
G36*
G01*
X49437500Y62330000D02*
X49562500Y62330000D01*
G75*
G02*
X49625000Y62267500I0J-62500D01*
G01*
X49625000Y61592500D01*
G75*
G02*
X49562500Y61530000I-62500J0D01*
G01*
X49437500Y61530000D01*
G75*
G02*
X49375000Y61592500I0J62500D01*
G01*
X49375000Y62267500D01*
G75*
G02*
X49437500Y62330000I62500J0D01*
G01*
G37*
G36*
G01*
X49937500Y62330000D02*
X50062500Y62330000D01*
G75*
G02*
X50125000Y62267500I0J-62500D01*
G01*
X50125000Y61592500D01*
G75*
G02*
X50062500Y61530000I-62500J0D01*
G01*
X49937500Y61530000D01*
G75*
G02*
X49875000Y61592500I0J62500D01*
G01*
X49875000Y62267500D01*
G75*
G02*
X49937500Y62330000I62500J0D01*
G01*
G37*
%TD*%
%TO.C,U1*%
G36*
G01*
X25550000Y29500000D02*
X25550000Y28175000D01*
G75*
G02*
X25475000Y28100000I-75000J0D01*
G01*
X25325000Y28100000D01*
G75*
G02*
X25250000Y28175000I0J75000D01*
G01*
X25250000Y29500000D01*
G75*
G02*
X25325000Y29575000I75000J0D01*
G01*
X25475000Y29575000D01*
G75*
G02*
X25550000Y29500000I0J-75000D01*
G01*
G37*
G36*
G01*
X25050000Y29500000D02*
X25050000Y28175000D01*
G75*
G02*
X24975000Y28100000I-75000J0D01*
G01*
X24825000Y28100000D01*
G75*
G02*
X24750000Y28175000I0J75000D01*
G01*
X24750000Y29500000D01*
G75*
G02*
X24825000Y29575000I75000J0D01*
G01*
X24975000Y29575000D01*
G75*
G02*
X25050000Y29500000I0J-75000D01*
G01*
G37*
G36*
G01*
X24550000Y29500000D02*
X24550000Y28175000D01*
G75*
G02*
X24475000Y28100000I-75000J0D01*
G01*
X24325000Y28100000D01*
G75*
G02*
X24250000Y28175000I0J75000D01*
G01*
X24250000Y29500000D01*
G75*
G02*
X24325000Y29575000I75000J0D01*
G01*
X24475000Y29575000D01*
G75*
G02*
X24550000Y29500000I0J-75000D01*
G01*
G37*
G36*
G01*
X24050000Y29500000D02*
X24050000Y28175000D01*
G75*
G02*
X23975000Y28100000I-75000J0D01*
G01*
X23825000Y28100000D01*
G75*
G02*
X23750000Y28175000I0J75000D01*
G01*
X23750000Y29500000D01*
G75*
G02*
X23825000Y29575000I75000J0D01*
G01*
X23975000Y29575000D01*
G75*
G02*
X24050000Y29500000I0J-75000D01*
G01*
G37*
G36*
G01*
X23550000Y29500000D02*
X23550000Y28175000D01*
G75*
G02*
X23475000Y28100000I-75000J0D01*
G01*
X23325000Y28100000D01*
G75*
G02*
X23250000Y28175000I0J75000D01*
G01*
X23250000Y29500000D01*
G75*
G02*
X23325000Y29575000I75000J0D01*
G01*
X23475000Y29575000D01*
G75*
G02*
X23550000Y29500000I0J-75000D01*
G01*
G37*
G36*
G01*
X23050000Y29500000D02*
X23050000Y28175000D01*
G75*
G02*
X22975000Y28100000I-75000J0D01*
G01*
X22825000Y28100000D01*
G75*
G02*
X22750000Y28175000I0J75000D01*
G01*
X22750000Y29500000D01*
G75*
G02*
X22825000Y29575000I75000J0D01*
G01*
X22975000Y29575000D01*
G75*
G02*
X23050000Y29500000I0J-75000D01*
G01*
G37*
G36*
G01*
X22550000Y29500000D02*
X22550000Y28175000D01*
G75*
G02*
X22475000Y28100000I-75000J0D01*
G01*
X22325000Y28100000D01*
G75*
G02*
X22250000Y28175000I0J75000D01*
G01*
X22250000Y29500000D01*
G75*
G02*
X22325000Y29575000I75000J0D01*
G01*
X22475000Y29575000D01*
G75*
G02*
X22550000Y29500000I0J-75000D01*
G01*
G37*
G36*
G01*
X22050000Y29500000D02*
X22050000Y28175000D01*
G75*
G02*
X21975000Y28100000I-75000J0D01*
G01*
X21825000Y28100000D01*
G75*
G02*
X21750000Y28175000I0J75000D01*
G01*
X21750000Y29500000D01*
G75*
G02*
X21825000Y29575000I75000J0D01*
G01*
X21975000Y29575000D01*
G75*
G02*
X22050000Y29500000I0J-75000D01*
G01*
G37*
G36*
G01*
X21550000Y29500000D02*
X21550000Y28175000D01*
G75*
G02*
X21475000Y28100000I-75000J0D01*
G01*
X21325000Y28100000D01*
G75*
G02*
X21250000Y28175000I0J75000D01*
G01*
X21250000Y29500000D01*
G75*
G02*
X21325000Y29575000I75000J0D01*
G01*
X21475000Y29575000D01*
G75*
G02*
X21550000Y29500000I0J-75000D01*
G01*
G37*
G36*
G01*
X21050000Y29500000D02*
X21050000Y28175000D01*
G75*
G02*
X20975000Y28100000I-75000J0D01*
G01*
X20825000Y28100000D01*
G75*
G02*
X20750000Y28175000I0J75000D01*
G01*
X20750000Y29500000D01*
G75*
G02*
X20825000Y29575000I75000J0D01*
G01*
X20975000Y29575000D01*
G75*
G02*
X21050000Y29500000I0J-75000D01*
G01*
G37*
G36*
G01*
X20550000Y29500000D02*
X20550000Y28175000D01*
G75*
G02*
X20475000Y28100000I-75000J0D01*
G01*
X20325000Y28100000D01*
G75*
G02*
X20250000Y28175000I0J75000D01*
G01*
X20250000Y29500000D01*
G75*
G02*
X20325000Y29575000I75000J0D01*
G01*
X20475000Y29575000D01*
G75*
G02*
X20550000Y29500000I0J-75000D01*
G01*
G37*
G36*
G01*
X20050000Y29500000D02*
X20050000Y28175000D01*
G75*
G02*
X19975000Y28100000I-75000J0D01*
G01*
X19825000Y28100000D01*
G75*
G02*
X19750000Y28175000I0J75000D01*
G01*
X19750000Y29500000D01*
G75*
G02*
X19825000Y29575000I75000J0D01*
G01*
X19975000Y29575000D01*
G75*
G02*
X20050000Y29500000I0J-75000D01*
G01*
G37*
G36*
G01*
X19550000Y29500000D02*
X19550000Y28175000D01*
G75*
G02*
X19475000Y28100000I-75000J0D01*
G01*
X19325000Y28100000D01*
G75*
G02*
X19250000Y28175000I0J75000D01*
G01*
X19250000Y29500000D01*
G75*
G02*
X19325000Y29575000I75000J0D01*
G01*
X19475000Y29575000D01*
G75*
G02*
X19550000Y29500000I0J-75000D01*
G01*
G37*
G36*
G01*
X19050000Y29500000D02*
X19050000Y28175000D01*
G75*
G02*
X18975000Y28100000I-75000J0D01*
G01*
X18825000Y28100000D01*
G75*
G02*
X18750000Y28175000I0J75000D01*
G01*
X18750000Y29500000D01*
G75*
G02*
X18825000Y29575000I75000J0D01*
G01*
X18975000Y29575000D01*
G75*
G02*
X19050000Y29500000I0J-75000D01*
G01*
G37*
G36*
G01*
X18550000Y29500000D02*
X18550000Y28175000D01*
G75*
G02*
X18475000Y28100000I-75000J0D01*
G01*
X18325000Y28100000D01*
G75*
G02*
X18250000Y28175000I0J75000D01*
G01*
X18250000Y29500000D01*
G75*
G02*
X18325000Y29575000I75000J0D01*
G01*
X18475000Y29575000D01*
G75*
G02*
X18550000Y29500000I0J-75000D01*
G01*
G37*
G36*
G01*
X18050000Y29500000D02*
X18050000Y28175000D01*
G75*
G02*
X17975000Y28100000I-75000J0D01*
G01*
X17825000Y28100000D01*
G75*
G02*
X17750000Y28175000I0J75000D01*
G01*
X17750000Y29500000D01*
G75*
G02*
X17825000Y29575000I75000J0D01*
G01*
X17975000Y29575000D01*
G75*
G02*
X18050000Y29500000I0J-75000D01*
G01*
G37*
G36*
G01*
X17550000Y29500000D02*
X17550000Y28175000D01*
G75*
G02*
X17475000Y28100000I-75000J0D01*
G01*
X17325000Y28100000D01*
G75*
G02*
X17250000Y28175000I0J75000D01*
G01*
X17250000Y29500000D01*
G75*
G02*
X17325000Y29575000I75000J0D01*
G01*
X17475000Y29575000D01*
G75*
G02*
X17550000Y29500000I0J-75000D01*
G01*
G37*
G36*
G01*
X17050000Y29500000D02*
X17050000Y28175000D01*
G75*
G02*
X16975000Y28100000I-75000J0D01*
G01*
X16825000Y28100000D01*
G75*
G02*
X16750000Y28175000I0J75000D01*
G01*
X16750000Y29500000D01*
G75*
G02*
X16825000Y29575000I75000J0D01*
G01*
X16975000Y29575000D01*
G75*
G02*
X17050000Y29500000I0J-75000D01*
G01*
G37*
G36*
G01*
X16550000Y29500000D02*
X16550000Y28175000D01*
G75*
G02*
X16475000Y28100000I-75000J0D01*
G01*
X16325000Y28100000D01*
G75*
G02*
X16250000Y28175000I0J75000D01*
G01*
X16250000Y29500000D01*
G75*
G02*
X16325000Y29575000I75000J0D01*
G01*
X16475000Y29575000D01*
G75*
G02*
X16550000Y29500000I0J-75000D01*
G01*
G37*
G36*
G01*
X16050000Y29500000D02*
X16050000Y28175000D01*
G75*
G02*
X15975000Y28100000I-75000J0D01*
G01*
X15825000Y28100000D01*
G75*
G02*
X15750000Y28175000I0J75000D01*
G01*
X15750000Y29500000D01*
G75*
G02*
X15825000Y29575000I75000J0D01*
G01*
X15975000Y29575000D01*
G75*
G02*
X16050000Y29500000I0J-75000D01*
G01*
G37*
G36*
G01*
X15550000Y29500000D02*
X15550000Y28175000D01*
G75*
G02*
X15475000Y28100000I-75000J0D01*
G01*
X15325000Y28100000D01*
G75*
G02*
X15250000Y28175000I0J75000D01*
G01*
X15250000Y29500000D01*
G75*
G02*
X15325000Y29575000I75000J0D01*
G01*
X15475000Y29575000D01*
G75*
G02*
X15550000Y29500000I0J-75000D01*
G01*
G37*
G36*
G01*
X15050000Y29500000D02*
X15050000Y28175000D01*
G75*
G02*
X14975000Y28100000I-75000J0D01*
G01*
X14825000Y28100000D01*
G75*
G02*
X14750000Y28175000I0J75000D01*
G01*
X14750000Y29500000D01*
G75*
G02*
X14825000Y29575000I75000J0D01*
G01*
X14975000Y29575000D01*
G75*
G02*
X15050000Y29500000I0J-75000D01*
G01*
G37*
G36*
G01*
X14550000Y29500000D02*
X14550000Y28175000D01*
G75*
G02*
X14475000Y28100000I-75000J0D01*
G01*
X14325000Y28100000D01*
G75*
G02*
X14250000Y28175000I0J75000D01*
G01*
X14250000Y29500000D01*
G75*
G02*
X14325000Y29575000I75000J0D01*
G01*
X14475000Y29575000D01*
G75*
G02*
X14550000Y29500000I0J-75000D01*
G01*
G37*
G36*
G01*
X14050000Y29500000D02*
X14050000Y28175000D01*
G75*
G02*
X13975000Y28100000I-75000J0D01*
G01*
X13825000Y28100000D01*
G75*
G02*
X13750000Y28175000I0J75000D01*
G01*
X13750000Y29500000D01*
G75*
G02*
X13825000Y29575000I75000J0D01*
G01*
X13975000Y29575000D01*
G75*
G02*
X14050000Y29500000I0J-75000D01*
G01*
G37*
G36*
G01*
X13550000Y29500000D02*
X13550000Y28175000D01*
G75*
G02*
X13475000Y28100000I-75000J0D01*
G01*
X13325000Y28100000D01*
G75*
G02*
X13250000Y28175000I0J75000D01*
G01*
X13250000Y29500000D01*
G75*
G02*
X13325000Y29575000I75000J0D01*
G01*
X13475000Y29575000D01*
G75*
G02*
X13550000Y29500000I0J-75000D01*
G01*
G37*
G36*
G01*
X12475000Y30575000D02*
X12475000Y30425000D01*
G75*
G02*
X12400000Y30350000I-75000J0D01*
G01*
X11075000Y30350000D01*
G75*
G02*
X11000000Y30425000I0J75000D01*
G01*
X11000000Y30575000D01*
G75*
G02*
X11075000Y30650000I75000J0D01*
G01*
X12400000Y30650000D01*
G75*
G02*
X12475000Y30575000I0J-75000D01*
G01*
G37*
G36*
G01*
X12475000Y31075000D02*
X12475000Y30925000D01*
G75*
G02*
X12400000Y30850000I-75000J0D01*
G01*
X11075000Y30850000D01*
G75*
G02*
X11000000Y30925000I0J75000D01*
G01*
X11000000Y31075000D01*
G75*
G02*
X11075000Y31150000I75000J0D01*
G01*
X12400000Y31150000D01*
G75*
G02*
X12475000Y31075000I0J-75000D01*
G01*
G37*
G36*
G01*
X12475000Y31575000D02*
X12475000Y31425000D01*
G75*
G02*
X12400000Y31350000I-75000J0D01*
G01*
X11075000Y31350000D01*
G75*
G02*
X11000000Y31425000I0J75000D01*
G01*
X11000000Y31575000D01*
G75*
G02*
X11075000Y31650000I75000J0D01*
G01*
X12400000Y31650000D01*
G75*
G02*
X12475000Y31575000I0J-75000D01*
G01*
G37*
G36*
G01*
X12475000Y32075000D02*
X12475000Y31925000D01*
G75*
G02*
X12400000Y31850000I-75000J0D01*
G01*
X11075000Y31850000D01*
G75*
G02*
X11000000Y31925000I0J75000D01*
G01*
X11000000Y32075000D01*
G75*
G02*
X11075000Y32150000I75000J0D01*
G01*
X12400000Y32150000D01*
G75*
G02*
X12475000Y32075000I0J-75000D01*
G01*
G37*
G36*
G01*
X12475000Y32575000D02*
X12475000Y32425000D01*
G75*
G02*
X12400000Y32350000I-75000J0D01*
G01*
X11075000Y32350000D01*
G75*
G02*
X11000000Y32425000I0J75000D01*
G01*
X11000000Y32575000D01*
G75*
G02*
X11075000Y32650000I75000J0D01*
G01*
X12400000Y32650000D01*
G75*
G02*
X12475000Y32575000I0J-75000D01*
G01*
G37*
G36*
G01*
X12475000Y33075000D02*
X12475000Y32925000D01*
G75*
G02*
X12400000Y32850000I-75000J0D01*
G01*
X11075000Y32850000D01*
G75*
G02*
X11000000Y32925000I0J75000D01*
G01*
X11000000Y33075000D01*
G75*
G02*
X11075000Y33150000I75000J0D01*
G01*
X12400000Y33150000D01*
G75*
G02*
X12475000Y33075000I0J-75000D01*
G01*
G37*
G36*
G01*
X12475000Y33575000D02*
X12475000Y33425000D01*
G75*
G02*
X12400000Y33350000I-75000J0D01*
G01*
X11075000Y33350000D01*
G75*
G02*
X11000000Y33425000I0J75000D01*
G01*
X11000000Y33575000D01*
G75*
G02*
X11075000Y33650000I75000J0D01*
G01*
X12400000Y33650000D01*
G75*
G02*
X12475000Y33575000I0J-75000D01*
G01*
G37*
G36*
G01*
X12475000Y34075000D02*
X12475000Y33925000D01*
G75*
G02*
X12400000Y33850000I-75000J0D01*
G01*
X11075000Y33850000D01*
G75*
G02*
X11000000Y33925000I0J75000D01*
G01*
X11000000Y34075000D01*
G75*
G02*
X11075000Y34150000I75000J0D01*
G01*
X12400000Y34150000D01*
G75*
G02*
X12475000Y34075000I0J-75000D01*
G01*
G37*
G36*
G01*
X12475000Y34575000D02*
X12475000Y34425000D01*
G75*
G02*
X12400000Y34350000I-75000J0D01*
G01*
X11075000Y34350000D01*
G75*
G02*
X11000000Y34425000I0J75000D01*
G01*
X11000000Y34575000D01*
G75*
G02*
X11075000Y34650000I75000J0D01*
G01*
X12400000Y34650000D01*
G75*
G02*
X12475000Y34575000I0J-75000D01*
G01*
G37*
G36*
G01*
X12475000Y35075000D02*
X12475000Y34925000D01*
G75*
G02*
X12400000Y34850000I-75000J0D01*
G01*
X11075000Y34850000D01*
G75*
G02*
X11000000Y34925000I0J75000D01*
G01*
X11000000Y35075000D01*
G75*
G02*
X11075000Y35150000I75000J0D01*
G01*
X12400000Y35150000D01*
G75*
G02*
X12475000Y35075000I0J-75000D01*
G01*
G37*
G36*
G01*
X12475000Y35575000D02*
X12475000Y35425000D01*
G75*
G02*
X12400000Y35350000I-75000J0D01*
G01*
X11075000Y35350000D01*
G75*
G02*
X11000000Y35425000I0J75000D01*
G01*
X11000000Y35575000D01*
G75*
G02*
X11075000Y35650000I75000J0D01*
G01*
X12400000Y35650000D01*
G75*
G02*
X12475000Y35575000I0J-75000D01*
G01*
G37*
G36*
G01*
X12475000Y36075000D02*
X12475000Y35925000D01*
G75*
G02*
X12400000Y35850000I-75000J0D01*
G01*
X11075000Y35850000D01*
G75*
G02*
X11000000Y35925000I0J75000D01*
G01*
X11000000Y36075000D01*
G75*
G02*
X11075000Y36150000I75000J0D01*
G01*
X12400000Y36150000D01*
G75*
G02*
X12475000Y36075000I0J-75000D01*
G01*
G37*
G36*
G01*
X12475000Y36575000D02*
X12475000Y36425000D01*
G75*
G02*
X12400000Y36350000I-75000J0D01*
G01*
X11075000Y36350000D01*
G75*
G02*
X11000000Y36425000I0J75000D01*
G01*
X11000000Y36575000D01*
G75*
G02*
X11075000Y36650000I75000J0D01*
G01*
X12400000Y36650000D01*
G75*
G02*
X12475000Y36575000I0J-75000D01*
G01*
G37*
G36*
G01*
X12475000Y37075000D02*
X12475000Y36925000D01*
G75*
G02*
X12400000Y36850000I-75000J0D01*
G01*
X11075000Y36850000D01*
G75*
G02*
X11000000Y36925000I0J75000D01*
G01*
X11000000Y37075000D01*
G75*
G02*
X11075000Y37150000I75000J0D01*
G01*
X12400000Y37150000D01*
G75*
G02*
X12475000Y37075000I0J-75000D01*
G01*
G37*
G36*
G01*
X12475000Y37575000D02*
X12475000Y37425000D01*
G75*
G02*
X12400000Y37350000I-75000J0D01*
G01*
X11075000Y37350000D01*
G75*
G02*
X11000000Y37425000I0J75000D01*
G01*
X11000000Y37575000D01*
G75*
G02*
X11075000Y37650000I75000J0D01*
G01*
X12400000Y37650000D01*
G75*
G02*
X12475000Y37575000I0J-75000D01*
G01*
G37*
G36*
G01*
X12475000Y38075000D02*
X12475000Y37925000D01*
G75*
G02*
X12400000Y37850000I-75000J0D01*
G01*
X11075000Y37850000D01*
G75*
G02*
X11000000Y37925000I0J75000D01*
G01*
X11000000Y38075000D01*
G75*
G02*
X11075000Y38150000I75000J0D01*
G01*
X12400000Y38150000D01*
G75*
G02*
X12475000Y38075000I0J-75000D01*
G01*
G37*
G36*
G01*
X12475000Y38575000D02*
X12475000Y38425000D01*
G75*
G02*
X12400000Y38350000I-75000J0D01*
G01*
X11075000Y38350000D01*
G75*
G02*
X11000000Y38425000I0J75000D01*
G01*
X11000000Y38575000D01*
G75*
G02*
X11075000Y38650000I75000J0D01*
G01*
X12400000Y38650000D01*
G75*
G02*
X12475000Y38575000I0J-75000D01*
G01*
G37*
G36*
G01*
X12475000Y39075000D02*
X12475000Y38925000D01*
G75*
G02*
X12400000Y38850000I-75000J0D01*
G01*
X11075000Y38850000D01*
G75*
G02*
X11000000Y38925000I0J75000D01*
G01*
X11000000Y39075000D01*
G75*
G02*
X11075000Y39150000I75000J0D01*
G01*
X12400000Y39150000D01*
G75*
G02*
X12475000Y39075000I0J-75000D01*
G01*
G37*
G36*
G01*
X12475000Y39575000D02*
X12475000Y39425000D01*
G75*
G02*
X12400000Y39350000I-75000J0D01*
G01*
X11075000Y39350000D01*
G75*
G02*
X11000000Y39425000I0J75000D01*
G01*
X11000000Y39575000D01*
G75*
G02*
X11075000Y39650000I75000J0D01*
G01*
X12400000Y39650000D01*
G75*
G02*
X12475000Y39575000I0J-75000D01*
G01*
G37*
G36*
G01*
X12475000Y40075000D02*
X12475000Y39925000D01*
G75*
G02*
X12400000Y39850000I-75000J0D01*
G01*
X11075000Y39850000D01*
G75*
G02*
X11000000Y39925000I0J75000D01*
G01*
X11000000Y40075000D01*
G75*
G02*
X11075000Y40150000I75000J0D01*
G01*
X12400000Y40150000D01*
G75*
G02*
X12475000Y40075000I0J-75000D01*
G01*
G37*
G36*
G01*
X12475000Y40575000D02*
X12475000Y40425000D01*
G75*
G02*
X12400000Y40350000I-75000J0D01*
G01*
X11075000Y40350000D01*
G75*
G02*
X11000000Y40425000I0J75000D01*
G01*
X11000000Y40575000D01*
G75*
G02*
X11075000Y40650000I75000J0D01*
G01*
X12400000Y40650000D01*
G75*
G02*
X12475000Y40575000I0J-75000D01*
G01*
G37*
G36*
G01*
X12475000Y41075000D02*
X12475000Y40925000D01*
G75*
G02*
X12400000Y40850000I-75000J0D01*
G01*
X11075000Y40850000D01*
G75*
G02*
X11000000Y40925000I0J75000D01*
G01*
X11000000Y41075000D01*
G75*
G02*
X11075000Y41150000I75000J0D01*
G01*
X12400000Y41150000D01*
G75*
G02*
X12475000Y41075000I0J-75000D01*
G01*
G37*
G36*
G01*
X12475000Y41575000D02*
X12475000Y41425000D01*
G75*
G02*
X12400000Y41350000I-75000J0D01*
G01*
X11075000Y41350000D01*
G75*
G02*
X11000000Y41425000I0J75000D01*
G01*
X11000000Y41575000D01*
G75*
G02*
X11075000Y41650000I75000J0D01*
G01*
X12400000Y41650000D01*
G75*
G02*
X12475000Y41575000I0J-75000D01*
G01*
G37*
G36*
G01*
X12475000Y42075000D02*
X12475000Y41925000D01*
G75*
G02*
X12400000Y41850000I-75000J0D01*
G01*
X11075000Y41850000D01*
G75*
G02*
X11000000Y41925000I0J75000D01*
G01*
X11000000Y42075000D01*
G75*
G02*
X11075000Y42150000I75000J0D01*
G01*
X12400000Y42150000D01*
G75*
G02*
X12475000Y42075000I0J-75000D01*
G01*
G37*
G36*
G01*
X12475000Y42575000D02*
X12475000Y42425000D01*
G75*
G02*
X12400000Y42350000I-75000J0D01*
G01*
X11075000Y42350000D01*
G75*
G02*
X11000000Y42425000I0J75000D01*
G01*
X11000000Y42575000D01*
G75*
G02*
X11075000Y42650000I75000J0D01*
G01*
X12400000Y42650000D01*
G75*
G02*
X12475000Y42575000I0J-75000D01*
G01*
G37*
G36*
G01*
X13550000Y44825000D02*
X13550000Y43500000D01*
G75*
G02*
X13475000Y43425000I-75000J0D01*
G01*
X13325000Y43425000D01*
G75*
G02*
X13250000Y43500000I0J75000D01*
G01*
X13250000Y44825000D01*
G75*
G02*
X13325000Y44900000I75000J0D01*
G01*
X13475000Y44900000D01*
G75*
G02*
X13550000Y44825000I0J-75000D01*
G01*
G37*
G36*
G01*
X14050000Y44825000D02*
X14050000Y43500000D01*
G75*
G02*
X13975000Y43425000I-75000J0D01*
G01*
X13825000Y43425000D01*
G75*
G02*
X13750000Y43500000I0J75000D01*
G01*
X13750000Y44825000D01*
G75*
G02*
X13825000Y44900000I75000J0D01*
G01*
X13975000Y44900000D01*
G75*
G02*
X14050000Y44825000I0J-75000D01*
G01*
G37*
G36*
G01*
X14550000Y44825000D02*
X14550000Y43500000D01*
G75*
G02*
X14475000Y43425000I-75000J0D01*
G01*
X14325000Y43425000D01*
G75*
G02*
X14250000Y43500000I0J75000D01*
G01*
X14250000Y44825000D01*
G75*
G02*
X14325000Y44900000I75000J0D01*
G01*
X14475000Y44900000D01*
G75*
G02*
X14550000Y44825000I0J-75000D01*
G01*
G37*
G36*
G01*
X15050000Y44825000D02*
X15050000Y43500000D01*
G75*
G02*
X14975000Y43425000I-75000J0D01*
G01*
X14825000Y43425000D01*
G75*
G02*
X14750000Y43500000I0J75000D01*
G01*
X14750000Y44825000D01*
G75*
G02*
X14825000Y44900000I75000J0D01*
G01*
X14975000Y44900000D01*
G75*
G02*
X15050000Y44825000I0J-75000D01*
G01*
G37*
G36*
G01*
X15550000Y44825000D02*
X15550000Y43500000D01*
G75*
G02*
X15475000Y43425000I-75000J0D01*
G01*
X15325000Y43425000D01*
G75*
G02*
X15250000Y43500000I0J75000D01*
G01*
X15250000Y44825000D01*
G75*
G02*
X15325000Y44900000I75000J0D01*
G01*
X15475000Y44900000D01*
G75*
G02*
X15550000Y44825000I0J-75000D01*
G01*
G37*
G36*
G01*
X16050000Y44825000D02*
X16050000Y43500000D01*
G75*
G02*
X15975000Y43425000I-75000J0D01*
G01*
X15825000Y43425000D01*
G75*
G02*
X15750000Y43500000I0J75000D01*
G01*
X15750000Y44825000D01*
G75*
G02*
X15825000Y44900000I75000J0D01*
G01*
X15975000Y44900000D01*
G75*
G02*
X16050000Y44825000I0J-75000D01*
G01*
G37*
G36*
G01*
X16550000Y44825000D02*
X16550000Y43500000D01*
G75*
G02*
X16475000Y43425000I-75000J0D01*
G01*
X16325000Y43425000D01*
G75*
G02*
X16250000Y43500000I0J75000D01*
G01*
X16250000Y44825000D01*
G75*
G02*
X16325000Y44900000I75000J0D01*
G01*
X16475000Y44900000D01*
G75*
G02*
X16550000Y44825000I0J-75000D01*
G01*
G37*
G36*
G01*
X17050000Y44825000D02*
X17050000Y43500000D01*
G75*
G02*
X16975000Y43425000I-75000J0D01*
G01*
X16825000Y43425000D01*
G75*
G02*
X16750000Y43500000I0J75000D01*
G01*
X16750000Y44825000D01*
G75*
G02*
X16825000Y44900000I75000J0D01*
G01*
X16975000Y44900000D01*
G75*
G02*
X17050000Y44825000I0J-75000D01*
G01*
G37*
G36*
G01*
X17550000Y44825000D02*
X17550000Y43500000D01*
G75*
G02*
X17475000Y43425000I-75000J0D01*
G01*
X17325000Y43425000D01*
G75*
G02*
X17250000Y43500000I0J75000D01*
G01*
X17250000Y44825000D01*
G75*
G02*
X17325000Y44900000I75000J0D01*
G01*
X17475000Y44900000D01*
G75*
G02*
X17550000Y44825000I0J-75000D01*
G01*
G37*
G36*
G01*
X18050000Y44825000D02*
X18050000Y43500000D01*
G75*
G02*
X17975000Y43425000I-75000J0D01*
G01*
X17825000Y43425000D01*
G75*
G02*
X17750000Y43500000I0J75000D01*
G01*
X17750000Y44825000D01*
G75*
G02*
X17825000Y44900000I75000J0D01*
G01*
X17975000Y44900000D01*
G75*
G02*
X18050000Y44825000I0J-75000D01*
G01*
G37*
G36*
G01*
X18550000Y44825000D02*
X18550000Y43500000D01*
G75*
G02*
X18475000Y43425000I-75000J0D01*
G01*
X18325000Y43425000D01*
G75*
G02*
X18250000Y43500000I0J75000D01*
G01*
X18250000Y44825000D01*
G75*
G02*
X18325000Y44900000I75000J0D01*
G01*
X18475000Y44900000D01*
G75*
G02*
X18550000Y44825000I0J-75000D01*
G01*
G37*
G36*
G01*
X19050000Y44825000D02*
X19050000Y43500000D01*
G75*
G02*
X18975000Y43425000I-75000J0D01*
G01*
X18825000Y43425000D01*
G75*
G02*
X18750000Y43500000I0J75000D01*
G01*
X18750000Y44825000D01*
G75*
G02*
X18825000Y44900000I75000J0D01*
G01*
X18975000Y44900000D01*
G75*
G02*
X19050000Y44825000I0J-75000D01*
G01*
G37*
G36*
G01*
X19550000Y44825000D02*
X19550000Y43500000D01*
G75*
G02*
X19475000Y43425000I-75000J0D01*
G01*
X19325000Y43425000D01*
G75*
G02*
X19250000Y43500000I0J75000D01*
G01*
X19250000Y44825000D01*
G75*
G02*
X19325000Y44900000I75000J0D01*
G01*
X19475000Y44900000D01*
G75*
G02*
X19550000Y44825000I0J-75000D01*
G01*
G37*
G36*
G01*
X20050000Y44825000D02*
X20050000Y43500000D01*
G75*
G02*
X19975000Y43425000I-75000J0D01*
G01*
X19825000Y43425000D01*
G75*
G02*
X19750000Y43500000I0J75000D01*
G01*
X19750000Y44825000D01*
G75*
G02*
X19825000Y44900000I75000J0D01*
G01*
X19975000Y44900000D01*
G75*
G02*
X20050000Y44825000I0J-75000D01*
G01*
G37*
G36*
G01*
X20550000Y44825000D02*
X20550000Y43500000D01*
G75*
G02*
X20475000Y43425000I-75000J0D01*
G01*
X20325000Y43425000D01*
G75*
G02*
X20250000Y43500000I0J75000D01*
G01*
X20250000Y44825000D01*
G75*
G02*
X20325000Y44900000I75000J0D01*
G01*
X20475000Y44900000D01*
G75*
G02*
X20550000Y44825000I0J-75000D01*
G01*
G37*
G36*
G01*
X21050000Y44825000D02*
X21050000Y43500000D01*
G75*
G02*
X20975000Y43425000I-75000J0D01*
G01*
X20825000Y43425000D01*
G75*
G02*
X20750000Y43500000I0J75000D01*
G01*
X20750000Y44825000D01*
G75*
G02*
X20825000Y44900000I75000J0D01*
G01*
X20975000Y44900000D01*
G75*
G02*
X21050000Y44825000I0J-75000D01*
G01*
G37*
G36*
G01*
X21550000Y44825000D02*
X21550000Y43500000D01*
G75*
G02*
X21475000Y43425000I-75000J0D01*
G01*
X21325000Y43425000D01*
G75*
G02*
X21250000Y43500000I0J75000D01*
G01*
X21250000Y44825000D01*
G75*
G02*
X21325000Y44900000I75000J0D01*
G01*
X21475000Y44900000D01*
G75*
G02*
X21550000Y44825000I0J-75000D01*
G01*
G37*
G36*
G01*
X22050000Y44825000D02*
X22050000Y43500000D01*
G75*
G02*
X21975000Y43425000I-75000J0D01*
G01*
X21825000Y43425000D01*
G75*
G02*
X21750000Y43500000I0J75000D01*
G01*
X21750000Y44825000D01*
G75*
G02*
X21825000Y44900000I75000J0D01*
G01*
X21975000Y44900000D01*
G75*
G02*
X22050000Y44825000I0J-75000D01*
G01*
G37*
G36*
G01*
X22550000Y44825000D02*
X22550000Y43500000D01*
G75*
G02*
X22475000Y43425000I-75000J0D01*
G01*
X22325000Y43425000D01*
G75*
G02*
X22250000Y43500000I0J75000D01*
G01*
X22250000Y44825000D01*
G75*
G02*
X22325000Y44900000I75000J0D01*
G01*
X22475000Y44900000D01*
G75*
G02*
X22550000Y44825000I0J-75000D01*
G01*
G37*
G36*
G01*
X23050000Y44825000D02*
X23050000Y43500000D01*
G75*
G02*
X22975000Y43425000I-75000J0D01*
G01*
X22825000Y43425000D01*
G75*
G02*
X22750000Y43500000I0J75000D01*
G01*
X22750000Y44825000D01*
G75*
G02*
X22825000Y44900000I75000J0D01*
G01*
X22975000Y44900000D01*
G75*
G02*
X23050000Y44825000I0J-75000D01*
G01*
G37*
G36*
G01*
X23550000Y44825000D02*
X23550000Y43500000D01*
G75*
G02*
X23475000Y43425000I-75000J0D01*
G01*
X23325000Y43425000D01*
G75*
G02*
X23250000Y43500000I0J75000D01*
G01*
X23250000Y44825000D01*
G75*
G02*
X23325000Y44900000I75000J0D01*
G01*
X23475000Y44900000D01*
G75*
G02*
X23550000Y44825000I0J-75000D01*
G01*
G37*
G36*
G01*
X24050000Y44825000D02*
X24050000Y43500000D01*
G75*
G02*
X23975000Y43425000I-75000J0D01*
G01*
X23825000Y43425000D01*
G75*
G02*
X23750000Y43500000I0J75000D01*
G01*
X23750000Y44825000D01*
G75*
G02*
X23825000Y44900000I75000J0D01*
G01*
X23975000Y44900000D01*
G75*
G02*
X24050000Y44825000I0J-75000D01*
G01*
G37*
G36*
G01*
X24550000Y44825000D02*
X24550000Y43500000D01*
G75*
G02*
X24475000Y43425000I-75000J0D01*
G01*
X24325000Y43425000D01*
G75*
G02*
X24250000Y43500000I0J75000D01*
G01*
X24250000Y44825000D01*
G75*
G02*
X24325000Y44900000I75000J0D01*
G01*
X24475000Y44900000D01*
G75*
G02*
X24550000Y44825000I0J-75000D01*
G01*
G37*
G36*
G01*
X25050000Y44825000D02*
X25050000Y43500000D01*
G75*
G02*
X24975000Y43425000I-75000J0D01*
G01*
X24825000Y43425000D01*
G75*
G02*
X24750000Y43500000I0J75000D01*
G01*
X24750000Y44825000D01*
G75*
G02*
X24825000Y44900000I75000J0D01*
G01*
X24975000Y44900000D01*
G75*
G02*
X25050000Y44825000I0J-75000D01*
G01*
G37*
G36*
G01*
X25550000Y44825000D02*
X25550000Y43500000D01*
G75*
G02*
X25475000Y43425000I-75000J0D01*
G01*
X25325000Y43425000D01*
G75*
G02*
X25250000Y43500000I0J75000D01*
G01*
X25250000Y44825000D01*
G75*
G02*
X25325000Y44900000I75000J0D01*
G01*
X25475000Y44900000D01*
G75*
G02*
X25550000Y44825000I0J-75000D01*
G01*
G37*
G36*
G01*
X27800000Y42575000D02*
X27800000Y42425000D01*
G75*
G02*
X27725000Y42350000I-75000J0D01*
G01*
X26400000Y42350000D01*
G75*
G02*
X26325000Y42425000I0J75000D01*
G01*
X26325000Y42575000D01*
G75*
G02*
X26400000Y42650000I75000J0D01*
G01*
X27725000Y42650000D01*
G75*
G02*
X27800000Y42575000I0J-75000D01*
G01*
G37*
G36*
G01*
X27800000Y42075000D02*
X27800000Y41925000D01*
G75*
G02*
X27725000Y41850000I-75000J0D01*
G01*
X26400000Y41850000D01*
G75*
G02*
X26325000Y41925000I0J75000D01*
G01*
X26325000Y42075000D01*
G75*
G02*
X26400000Y42150000I75000J0D01*
G01*
X27725000Y42150000D01*
G75*
G02*
X27800000Y42075000I0J-75000D01*
G01*
G37*
G36*
G01*
X27800000Y41575000D02*
X27800000Y41425000D01*
G75*
G02*
X27725000Y41350000I-75000J0D01*
G01*
X26400000Y41350000D01*
G75*
G02*
X26325000Y41425000I0J75000D01*
G01*
X26325000Y41575000D01*
G75*
G02*
X26400000Y41650000I75000J0D01*
G01*
X27725000Y41650000D01*
G75*
G02*
X27800000Y41575000I0J-75000D01*
G01*
G37*
G36*
G01*
X27800000Y41075000D02*
X27800000Y40925000D01*
G75*
G02*
X27725000Y40850000I-75000J0D01*
G01*
X26400000Y40850000D01*
G75*
G02*
X26325000Y40925000I0J75000D01*
G01*
X26325000Y41075000D01*
G75*
G02*
X26400000Y41150000I75000J0D01*
G01*
X27725000Y41150000D01*
G75*
G02*
X27800000Y41075000I0J-75000D01*
G01*
G37*
G36*
G01*
X27800000Y40575000D02*
X27800000Y40425000D01*
G75*
G02*
X27725000Y40350000I-75000J0D01*
G01*
X26400000Y40350000D01*
G75*
G02*
X26325000Y40425000I0J75000D01*
G01*
X26325000Y40575000D01*
G75*
G02*
X26400000Y40650000I75000J0D01*
G01*
X27725000Y40650000D01*
G75*
G02*
X27800000Y40575000I0J-75000D01*
G01*
G37*
G36*
G01*
X27800000Y40075000D02*
X27800000Y39925000D01*
G75*
G02*
X27725000Y39850000I-75000J0D01*
G01*
X26400000Y39850000D01*
G75*
G02*
X26325000Y39925000I0J75000D01*
G01*
X26325000Y40075000D01*
G75*
G02*
X26400000Y40150000I75000J0D01*
G01*
X27725000Y40150000D01*
G75*
G02*
X27800000Y40075000I0J-75000D01*
G01*
G37*
G36*
G01*
X27800000Y39575000D02*
X27800000Y39425000D01*
G75*
G02*
X27725000Y39350000I-75000J0D01*
G01*
X26400000Y39350000D01*
G75*
G02*
X26325000Y39425000I0J75000D01*
G01*
X26325000Y39575000D01*
G75*
G02*
X26400000Y39650000I75000J0D01*
G01*
X27725000Y39650000D01*
G75*
G02*
X27800000Y39575000I0J-75000D01*
G01*
G37*
G36*
G01*
X27800000Y39075000D02*
X27800000Y38925000D01*
G75*
G02*
X27725000Y38850000I-75000J0D01*
G01*
X26400000Y38850000D01*
G75*
G02*
X26325000Y38925000I0J75000D01*
G01*
X26325000Y39075000D01*
G75*
G02*
X26400000Y39150000I75000J0D01*
G01*
X27725000Y39150000D01*
G75*
G02*
X27800000Y39075000I0J-75000D01*
G01*
G37*
G36*
G01*
X27800000Y38575000D02*
X27800000Y38425000D01*
G75*
G02*
X27725000Y38350000I-75000J0D01*
G01*
X26400000Y38350000D01*
G75*
G02*
X26325000Y38425000I0J75000D01*
G01*
X26325000Y38575000D01*
G75*
G02*
X26400000Y38650000I75000J0D01*
G01*
X27725000Y38650000D01*
G75*
G02*
X27800000Y38575000I0J-75000D01*
G01*
G37*
G36*
G01*
X27800000Y38075000D02*
X27800000Y37925000D01*
G75*
G02*
X27725000Y37850000I-75000J0D01*
G01*
X26400000Y37850000D01*
G75*
G02*
X26325000Y37925000I0J75000D01*
G01*
X26325000Y38075000D01*
G75*
G02*
X26400000Y38150000I75000J0D01*
G01*
X27725000Y38150000D01*
G75*
G02*
X27800000Y38075000I0J-75000D01*
G01*
G37*
G36*
G01*
X27800000Y37575000D02*
X27800000Y37425000D01*
G75*
G02*
X27725000Y37350000I-75000J0D01*
G01*
X26400000Y37350000D01*
G75*
G02*
X26325000Y37425000I0J75000D01*
G01*
X26325000Y37575000D01*
G75*
G02*
X26400000Y37650000I75000J0D01*
G01*
X27725000Y37650000D01*
G75*
G02*
X27800000Y37575000I0J-75000D01*
G01*
G37*
G36*
G01*
X27800000Y37075000D02*
X27800000Y36925000D01*
G75*
G02*
X27725000Y36850000I-75000J0D01*
G01*
X26400000Y36850000D01*
G75*
G02*
X26325000Y36925000I0J75000D01*
G01*
X26325000Y37075000D01*
G75*
G02*
X26400000Y37150000I75000J0D01*
G01*
X27725000Y37150000D01*
G75*
G02*
X27800000Y37075000I0J-75000D01*
G01*
G37*
G36*
G01*
X27800000Y36575000D02*
X27800000Y36425000D01*
G75*
G02*
X27725000Y36350000I-75000J0D01*
G01*
X26400000Y36350000D01*
G75*
G02*
X26325000Y36425000I0J75000D01*
G01*
X26325000Y36575000D01*
G75*
G02*
X26400000Y36650000I75000J0D01*
G01*
X27725000Y36650000D01*
G75*
G02*
X27800000Y36575000I0J-75000D01*
G01*
G37*
G36*
G01*
X27800000Y36075000D02*
X27800000Y35925000D01*
G75*
G02*
X27725000Y35850000I-75000J0D01*
G01*
X26400000Y35850000D01*
G75*
G02*
X26325000Y35925000I0J75000D01*
G01*
X26325000Y36075000D01*
G75*
G02*
X26400000Y36150000I75000J0D01*
G01*
X27725000Y36150000D01*
G75*
G02*
X27800000Y36075000I0J-75000D01*
G01*
G37*
G36*
G01*
X27800000Y35575000D02*
X27800000Y35425000D01*
G75*
G02*
X27725000Y35350000I-75000J0D01*
G01*
X26400000Y35350000D01*
G75*
G02*
X26325000Y35425000I0J75000D01*
G01*
X26325000Y35575000D01*
G75*
G02*
X26400000Y35650000I75000J0D01*
G01*
X27725000Y35650000D01*
G75*
G02*
X27800000Y35575000I0J-75000D01*
G01*
G37*
G36*
G01*
X27800000Y35075000D02*
X27800000Y34925000D01*
G75*
G02*
X27725000Y34850000I-75000J0D01*
G01*
X26400000Y34850000D01*
G75*
G02*
X26325000Y34925000I0J75000D01*
G01*
X26325000Y35075000D01*
G75*
G02*
X26400000Y35150000I75000J0D01*
G01*
X27725000Y35150000D01*
G75*
G02*
X27800000Y35075000I0J-75000D01*
G01*
G37*
G36*
G01*
X27800000Y34575000D02*
X27800000Y34425000D01*
G75*
G02*
X27725000Y34350000I-75000J0D01*
G01*
X26400000Y34350000D01*
G75*
G02*
X26325000Y34425000I0J75000D01*
G01*
X26325000Y34575000D01*
G75*
G02*
X26400000Y34650000I75000J0D01*
G01*
X27725000Y34650000D01*
G75*
G02*
X27800000Y34575000I0J-75000D01*
G01*
G37*
G36*
G01*
X27800000Y34075000D02*
X27800000Y33925000D01*
G75*
G02*
X27725000Y33850000I-75000J0D01*
G01*
X26400000Y33850000D01*
G75*
G02*
X26325000Y33925000I0J75000D01*
G01*
X26325000Y34075000D01*
G75*
G02*
X26400000Y34150000I75000J0D01*
G01*
X27725000Y34150000D01*
G75*
G02*
X27800000Y34075000I0J-75000D01*
G01*
G37*
G36*
G01*
X27800000Y33575000D02*
X27800000Y33425000D01*
G75*
G02*
X27725000Y33350000I-75000J0D01*
G01*
X26400000Y33350000D01*
G75*
G02*
X26325000Y33425000I0J75000D01*
G01*
X26325000Y33575000D01*
G75*
G02*
X26400000Y33650000I75000J0D01*
G01*
X27725000Y33650000D01*
G75*
G02*
X27800000Y33575000I0J-75000D01*
G01*
G37*
G36*
G01*
X27800000Y33075000D02*
X27800000Y32925000D01*
G75*
G02*
X27725000Y32850000I-75000J0D01*
G01*
X26400000Y32850000D01*
G75*
G02*
X26325000Y32925000I0J75000D01*
G01*
X26325000Y33075000D01*
G75*
G02*
X26400000Y33150000I75000J0D01*
G01*
X27725000Y33150000D01*
G75*
G02*
X27800000Y33075000I0J-75000D01*
G01*
G37*
G36*
G01*
X27800000Y32575000D02*
X27800000Y32425000D01*
G75*
G02*
X27725000Y32350000I-75000J0D01*
G01*
X26400000Y32350000D01*
G75*
G02*
X26325000Y32425000I0J75000D01*
G01*
X26325000Y32575000D01*
G75*
G02*
X26400000Y32650000I75000J0D01*
G01*
X27725000Y32650000D01*
G75*
G02*
X27800000Y32575000I0J-75000D01*
G01*
G37*
G36*
G01*
X27800000Y32075000D02*
X27800000Y31925000D01*
G75*
G02*
X27725000Y31850000I-75000J0D01*
G01*
X26400000Y31850000D01*
G75*
G02*
X26325000Y31925000I0J75000D01*
G01*
X26325000Y32075000D01*
G75*
G02*
X26400000Y32150000I75000J0D01*
G01*
X27725000Y32150000D01*
G75*
G02*
X27800000Y32075000I0J-75000D01*
G01*
G37*
G36*
G01*
X27800000Y31575000D02*
X27800000Y31425000D01*
G75*
G02*
X27725000Y31350000I-75000J0D01*
G01*
X26400000Y31350000D01*
G75*
G02*
X26325000Y31425000I0J75000D01*
G01*
X26325000Y31575000D01*
G75*
G02*
X26400000Y31650000I75000J0D01*
G01*
X27725000Y31650000D01*
G75*
G02*
X27800000Y31575000I0J-75000D01*
G01*
G37*
G36*
G01*
X27800000Y31075000D02*
X27800000Y30925000D01*
G75*
G02*
X27725000Y30850000I-75000J0D01*
G01*
X26400000Y30850000D01*
G75*
G02*
X26325000Y30925000I0J75000D01*
G01*
X26325000Y31075000D01*
G75*
G02*
X26400000Y31150000I75000J0D01*
G01*
X27725000Y31150000D01*
G75*
G02*
X27800000Y31075000I0J-75000D01*
G01*
G37*
G36*
G01*
X27800000Y30575000D02*
X27800000Y30425000D01*
G75*
G02*
X27725000Y30350000I-75000J0D01*
G01*
X26400000Y30350000D01*
G75*
G02*
X26325000Y30425000I0J75000D01*
G01*
X26325000Y30575000D01*
G75*
G02*
X26400000Y30650000I75000J0D01*
G01*
X27725000Y30650000D01*
G75*
G02*
X27800000Y30575000I0J-75000D01*
G01*
G37*
%TD*%
D17*
%TO.C,SW1*%
X21975000Y58900000D03*
X21975000Y54400000D03*
X24125000Y58900000D03*
X24125000Y54400000D03*
%TD*%
%TO.C,R22*%
G36*
G01*
X54843750Y27600000D02*
X55356250Y27600000D01*
G75*
G02*
X55575000Y27381250I0J-218750D01*
G01*
X55575000Y26943750D01*
G75*
G02*
X55356250Y26725000I-218750J0D01*
G01*
X54843750Y26725000D01*
G75*
G02*
X54625000Y26943750I0J218750D01*
G01*
X54625000Y27381250D01*
G75*
G02*
X54843750Y27600000I218750J0D01*
G01*
G37*
G36*
G01*
X54843750Y29175000D02*
X55356250Y29175000D01*
G75*
G02*
X55575000Y28956250I0J-218750D01*
G01*
X55575000Y28518750D01*
G75*
G02*
X55356250Y28300000I-218750J0D01*
G01*
X54843750Y28300000D01*
G75*
G02*
X54625000Y28518750I0J218750D01*
G01*
X54625000Y28956250D01*
G75*
G02*
X54843750Y29175000I218750J0D01*
G01*
G37*
%TD*%
%TO.C,R20*%
G36*
G01*
X47243750Y64650000D02*
X47756250Y64650000D01*
G75*
G02*
X47975000Y64431250I0J-218750D01*
G01*
X47975000Y63993750D01*
G75*
G02*
X47756250Y63775000I-218750J0D01*
G01*
X47243750Y63775000D01*
G75*
G02*
X47025000Y63993750I0J218750D01*
G01*
X47025000Y64431250D01*
G75*
G02*
X47243750Y64650000I218750J0D01*
G01*
G37*
G36*
G01*
X47243750Y66225000D02*
X47756250Y66225000D01*
G75*
G02*
X47975000Y66006250I0J-218750D01*
G01*
X47975000Y65568750D01*
G75*
G02*
X47756250Y65350000I-218750J0D01*
G01*
X47243750Y65350000D01*
G75*
G02*
X47025000Y65568750I0J218750D01*
G01*
X47025000Y66006250D01*
G75*
G02*
X47243750Y66225000I218750J0D01*
G01*
G37*
%TD*%
%TO.C,R19*%
G36*
G01*
X49243750Y64650000D02*
X49756250Y64650000D01*
G75*
G02*
X49975000Y64431250I0J-218750D01*
G01*
X49975000Y63993750D01*
G75*
G02*
X49756250Y63775000I-218750J0D01*
G01*
X49243750Y63775000D01*
G75*
G02*
X49025000Y63993750I0J218750D01*
G01*
X49025000Y64431250D01*
G75*
G02*
X49243750Y64650000I218750J0D01*
G01*
G37*
G36*
G01*
X49243750Y66225000D02*
X49756250Y66225000D01*
G75*
G02*
X49975000Y66006250I0J-218750D01*
G01*
X49975000Y65568750D01*
G75*
G02*
X49756250Y65350000I-218750J0D01*
G01*
X49243750Y65350000D01*
G75*
G02*
X49025000Y65568750I0J218750D01*
G01*
X49025000Y66006250D01*
G75*
G02*
X49243750Y66225000I218750J0D01*
G01*
G37*
%TD*%
%TO.C,R18*%
G36*
G01*
X24800000Y23956250D02*
X24800000Y23443750D01*
G75*
G02*
X24581250Y23225000I-218750J0D01*
G01*
X24143750Y23225000D01*
G75*
G02*
X23925000Y23443750I0J218750D01*
G01*
X23925000Y23956250D01*
G75*
G02*
X24143750Y24175000I218750J0D01*
G01*
X24581250Y24175000D01*
G75*
G02*
X24800000Y23956250I0J-218750D01*
G01*
G37*
G36*
G01*
X26375000Y23956250D02*
X26375000Y23443750D01*
G75*
G02*
X26156250Y23225000I-218750J0D01*
G01*
X25718750Y23225000D01*
G75*
G02*
X25500000Y23443750I0J218750D01*
G01*
X25500000Y23956250D01*
G75*
G02*
X25718750Y24175000I218750J0D01*
G01*
X26156250Y24175000D01*
G75*
G02*
X26375000Y23956250I0J-218750D01*
G01*
G37*
%TD*%
%TO.C,R17*%
G36*
G01*
X21750000Y23443750D02*
X21750000Y23956250D01*
G75*
G02*
X21968750Y24175000I218750J0D01*
G01*
X22406250Y24175000D01*
G75*
G02*
X22625000Y23956250I0J-218750D01*
G01*
X22625000Y23443750D01*
G75*
G02*
X22406250Y23225000I-218750J0D01*
G01*
X21968750Y23225000D01*
G75*
G02*
X21750000Y23443750I0J218750D01*
G01*
G37*
G36*
G01*
X20175000Y23443750D02*
X20175000Y23956250D01*
G75*
G02*
X20393750Y24175000I218750J0D01*
G01*
X20831250Y24175000D01*
G75*
G02*
X21050000Y23956250I0J-218750D01*
G01*
X21050000Y23443750D01*
G75*
G02*
X20831250Y23225000I-218750J0D01*
G01*
X20393750Y23225000D01*
G75*
G02*
X20175000Y23443750I0J218750D01*
G01*
G37*
%TD*%
%TO.C,R14*%
G36*
G01*
X29493750Y58600000D02*
X30006250Y58600000D01*
G75*
G02*
X30225000Y58381250I0J-218750D01*
G01*
X30225000Y57943750D01*
G75*
G02*
X30006250Y57725000I-218750J0D01*
G01*
X29493750Y57725000D01*
G75*
G02*
X29275000Y57943750I0J218750D01*
G01*
X29275000Y58381250D01*
G75*
G02*
X29493750Y58600000I218750J0D01*
G01*
G37*
G36*
G01*
X29493750Y60175000D02*
X30006250Y60175000D01*
G75*
G02*
X30225000Y59956250I0J-218750D01*
G01*
X30225000Y59518750D01*
G75*
G02*
X30006250Y59300000I-218750J0D01*
G01*
X29493750Y59300000D01*
G75*
G02*
X29275000Y59518750I0J218750D01*
G01*
X29275000Y59956250D01*
G75*
G02*
X29493750Y60175000I218750J0D01*
G01*
G37*
%TD*%
%TO.C,R12*%
G36*
G01*
X36956250Y24100000D02*
X36443750Y24100000D01*
G75*
G02*
X36225000Y24318750I0J218750D01*
G01*
X36225000Y24756250D01*
G75*
G02*
X36443750Y24975000I218750J0D01*
G01*
X36956250Y24975000D01*
G75*
G02*
X37175000Y24756250I0J-218750D01*
G01*
X37175000Y24318750D01*
G75*
G02*
X36956250Y24100000I-218750J0D01*
G01*
G37*
G36*
G01*
X36956250Y22525000D02*
X36443750Y22525000D01*
G75*
G02*
X36225000Y22743750I0J218750D01*
G01*
X36225000Y23181250D01*
G75*
G02*
X36443750Y23400000I218750J0D01*
G01*
X36956250Y23400000D01*
G75*
G02*
X37175000Y23181250I0J-218750D01*
G01*
X37175000Y22743750D01*
G75*
G02*
X36956250Y22525000I-218750J0D01*
G01*
G37*
%TD*%
%TO.C,R11*%
G36*
G01*
X40356250Y24100000D02*
X39843750Y24100000D01*
G75*
G02*
X39625000Y24318750I0J218750D01*
G01*
X39625000Y24756250D01*
G75*
G02*
X39843750Y24975000I218750J0D01*
G01*
X40356250Y24975000D01*
G75*
G02*
X40575000Y24756250I0J-218750D01*
G01*
X40575000Y24318750D01*
G75*
G02*
X40356250Y24100000I-218750J0D01*
G01*
G37*
G36*
G01*
X40356250Y22525000D02*
X39843750Y22525000D01*
G75*
G02*
X39625000Y22743750I0J218750D01*
G01*
X39625000Y23181250D01*
G75*
G02*
X39843750Y23400000I218750J0D01*
G01*
X40356250Y23400000D01*
G75*
G02*
X40575000Y23181250I0J-218750D01*
G01*
X40575000Y22743750D01*
G75*
G02*
X40356250Y22525000I-218750J0D01*
G01*
G37*
%TD*%
%TO.C,R10*%
G36*
G01*
X43756250Y24100000D02*
X43243750Y24100000D01*
G75*
G02*
X43025000Y24318750I0J218750D01*
G01*
X43025000Y24756250D01*
G75*
G02*
X43243750Y24975000I218750J0D01*
G01*
X43756250Y24975000D01*
G75*
G02*
X43975000Y24756250I0J-218750D01*
G01*
X43975000Y24318750D01*
G75*
G02*
X43756250Y24100000I-218750J0D01*
G01*
G37*
G36*
G01*
X43756250Y22525000D02*
X43243750Y22525000D01*
G75*
G02*
X43025000Y22743750I0J218750D01*
G01*
X43025000Y23181250D01*
G75*
G02*
X43243750Y23400000I218750J0D01*
G01*
X43756250Y23400000D01*
G75*
G02*
X43975000Y23181250I0J-218750D01*
G01*
X43975000Y22743750D01*
G75*
G02*
X43756250Y22525000I-218750J0D01*
G01*
G37*
%TD*%
%TO.C,R9*%
G36*
G01*
X56156250Y51362500D02*
X55643750Y51362500D01*
G75*
G02*
X55425000Y51581250I0J218750D01*
G01*
X55425000Y52018750D01*
G75*
G02*
X55643750Y52237500I218750J0D01*
G01*
X56156250Y52237500D01*
G75*
G02*
X56375000Y52018750I0J-218750D01*
G01*
X56375000Y51581250D01*
G75*
G02*
X56156250Y51362500I-218750J0D01*
G01*
G37*
G36*
G01*
X56156250Y49787500D02*
X55643750Y49787500D01*
G75*
G02*
X55425000Y50006250I0J218750D01*
G01*
X55425000Y50443750D01*
G75*
G02*
X55643750Y50662500I218750J0D01*
G01*
X56156250Y50662500D01*
G75*
G02*
X56375000Y50443750I0J-218750D01*
G01*
X56375000Y50006250D01*
G75*
G02*
X56156250Y49787500I-218750J0D01*
G01*
G37*
%TD*%
%TO.C,R8*%
G36*
G01*
X56156250Y54462500D02*
X55643750Y54462500D01*
G75*
G02*
X55425000Y54681250I0J218750D01*
G01*
X55425000Y55118750D01*
G75*
G02*
X55643750Y55337500I218750J0D01*
G01*
X56156250Y55337500D01*
G75*
G02*
X56375000Y55118750I0J-218750D01*
G01*
X56375000Y54681250D01*
G75*
G02*
X56156250Y54462500I-218750J0D01*
G01*
G37*
G36*
G01*
X56156250Y52887500D02*
X55643750Y52887500D01*
G75*
G02*
X55425000Y53106250I0J218750D01*
G01*
X55425000Y53543750D01*
G75*
G02*
X55643750Y53762500I218750J0D01*
G01*
X56156250Y53762500D01*
G75*
G02*
X56375000Y53543750I0J-218750D01*
G01*
X56375000Y53106250D01*
G75*
G02*
X56156250Y52887500I-218750J0D01*
G01*
G37*
%TD*%
%TO.C,R7*%
G36*
G01*
X14693750Y49650000D02*
X15206250Y49650000D01*
G75*
G02*
X15425000Y49431250I0J-218750D01*
G01*
X15425000Y48993750D01*
G75*
G02*
X15206250Y48775000I-218750J0D01*
G01*
X14693750Y48775000D01*
G75*
G02*
X14475000Y48993750I0J218750D01*
G01*
X14475000Y49431250D01*
G75*
G02*
X14693750Y49650000I218750J0D01*
G01*
G37*
G36*
G01*
X14693750Y51225000D02*
X15206250Y51225000D01*
G75*
G02*
X15425000Y51006250I0J-218750D01*
G01*
X15425000Y50568750D01*
G75*
G02*
X15206250Y50350000I-218750J0D01*
G01*
X14693750Y50350000D01*
G75*
G02*
X14475000Y50568750I0J218750D01*
G01*
X14475000Y51006250D01*
G75*
G02*
X14693750Y51225000I218750J0D01*
G01*
G37*
%TD*%
%TO.C,R6*%
G36*
G01*
X22000000Y46443750D02*
X22000000Y46956250D01*
G75*
G02*
X22218750Y47175000I218750J0D01*
G01*
X22656250Y47175000D01*
G75*
G02*
X22875000Y46956250I0J-218750D01*
G01*
X22875000Y46443750D01*
G75*
G02*
X22656250Y46225000I-218750J0D01*
G01*
X22218750Y46225000D01*
G75*
G02*
X22000000Y46443750I0J218750D01*
G01*
G37*
G36*
G01*
X20425000Y46443750D02*
X20425000Y46956250D01*
G75*
G02*
X20643750Y47175000I218750J0D01*
G01*
X21081250Y47175000D01*
G75*
G02*
X21300000Y46956250I0J-218750D01*
G01*
X21300000Y46443750D01*
G75*
G02*
X21081250Y46225000I-218750J0D01*
G01*
X20643750Y46225000D01*
G75*
G02*
X20425000Y46443750I0J218750D01*
G01*
G37*
%TD*%
%TO.C,R5*%
G36*
G01*
X22656250Y62000000D02*
X22143750Y62000000D01*
G75*
G02*
X21925000Y62218750I0J218750D01*
G01*
X21925000Y62656250D01*
G75*
G02*
X22143750Y62875000I218750J0D01*
G01*
X22656250Y62875000D01*
G75*
G02*
X22875000Y62656250I0J-218750D01*
G01*
X22875000Y62218750D01*
G75*
G02*
X22656250Y62000000I-218750J0D01*
G01*
G37*
G36*
G01*
X22656250Y60425000D02*
X22143750Y60425000D01*
G75*
G02*
X21925000Y60643750I0J218750D01*
G01*
X21925000Y61081250D01*
G75*
G02*
X22143750Y61300000I218750J0D01*
G01*
X22656250Y61300000D01*
G75*
G02*
X22875000Y61081250I0J-218750D01*
G01*
X22875000Y60643750D01*
G75*
G02*
X22656250Y60425000I-218750J0D01*
G01*
G37*
%TD*%
%TO.C,R4*%
G36*
G01*
X20343750Y61300000D02*
X20856250Y61300000D01*
G75*
G02*
X21075000Y61081250I0J-218750D01*
G01*
X21075000Y60643750D01*
G75*
G02*
X20856250Y60425000I-218750J0D01*
G01*
X20343750Y60425000D01*
G75*
G02*
X20125000Y60643750I0J218750D01*
G01*
X20125000Y61081250D01*
G75*
G02*
X20343750Y61300000I218750J0D01*
G01*
G37*
G36*
G01*
X20343750Y62875000D02*
X20856250Y62875000D01*
G75*
G02*
X21075000Y62656250I0J-218750D01*
G01*
X21075000Y62218750D01*
G75*
G02*
X20856250Y62000000I-218750J0D01*
G01*
X20343750Y62000000D01*
G75*
G02*
X20125000Y62218750I0J218750D01*
G01*
X20125000Y62656250D01*
G75*
G02*
X20343750Y62875000I218750J0D01*
G01*
G37*
%TD*%
%TO.C,R3*%
G36*
G01*
X16443750Y49650000D02*
X16956250Y49650000D01*
G75*
G02*
X17175000Y49431250I0J-218750D01*
G01*
X17175000Y48993750D01*
G75*
G02*
X16956250Y48775000I-218750J0D01*
G01*
X16443750Y48775000D01*
G75*
G02*
X16225000Y48993750I0J218750D01*
G01*
X16225000Y49431250D01*
G75*
G02*
X16443750Y49650000I218750J0D01*
G01*
G37*
G36*
G01*
X16443750Y51225000D02*
X16956250Y51225000D01*
G75*
G02*
X17175000Y51006250I0J-218750D01*
G01*
X17175000Y50568750D01*
G75*
G02*
X16956250Y50350000I-218750J0D01*
G01*
X16443750Y50350000D01*
G75*
G02*
X16225000Y50568750I0J218750D01*
G01*
X16225000Y51006250D01*
G75*
G02*
X16443750Y51225000I218750J0D01*
G01*
G37*
%TD*%
%TO.C,R2*%
G36*
G01*
X54156250Y51350000D02*
X53643750Y51350000D01*
G75*
G02*
X53425000Y51568750I0J218750D01*
G01*
X53425000Y52006250D01*
G75*
G02*
X53643750Y52225000I218750J0D01*
G01*
X54156250Y52225000D01*
G75*
G02*
X54375000Y52006250I0J-218750D01*
G01*
X54375000Y51568750D01*
G75*
G02*
X54156250Y51350000I-218750J0D01*
G01*
G37*
G36*
G01*
X54156250Y49775000D02*
X53643750Y49775000D01*
G75*
G02*
X53425000Y49993750I0J218750D01*
G01*
X53425000Y50431250D01*
G75*
G02*
X53643750Y50650000I218750J0D01*
G01*
X54156250Y50650000D01*
G75*
G02*
X54375000Y50431250I0J-218750D01*
G01*
X54375000Y49993750D01*
G75*
G02*
X54156250Y49775000I-218750J0D01*
G01*
G37*
%TD*%
%TO.C,R1*%
G36*
G01*
X54156250Y54450000D02*
X53643750Y54450000D01*
G75*
G02*
X53425000Y54668750I0J218750D01*
G01*
X53425000Y55106250D01*
G75*
G02*
X53643750Y55325000I218750J0D01*
G01*
X54156250Y55325000D01*
G75*
G02*
X54375000Y55106250I0J-218750D01*
G01*
X54375000Y54668750D01*
G75*
G02*
X54156250Y54450000I-218750J0D01*
G01*
G37*
G36*
G01*
X54156250Y52875000D02*
X53643750Y52875000D01*
G75*
G02*
X53425000Y53093750I0J218750D01*
G01*
X53425000Y53531250D01*
G75*
G02*
X53643750Y53750000I218750J0D01*
G01*
X54156250Y53750000D01*
G75*
G02*
X54375000Y53531250I0J-218750D01*
G01*
X54375000Y53093750D01*
G75*
G02*
X54156250Y52875000I-218750J0D01*
G01*
G37*
%TD*%
D18*
%TO.C,Q3*%
X37900000Y59800000D03*
X35900000Y58850000D03*
X35900000Y60750000D03*
%TD*%
D19*
%TO.C,J5*%
X50100000Y71537500D03*
D20*
X49100000Y68837500D03*
X48450000Y68837500D03*
X47800000Y68837500D03*
X50400000Y68837500D03*
X49750000Y68837500D03*
D19*
X48100000Y71537500D03*
%TD*%
D21*
%TO.C,J3*%
X56623000Y41450000D03*
X53575000Y41450000D03*
D22*
X55099000Y42824140D03*
X55099000Y40075860D03*
%TD*%
%TO.C,F2*%
G36*
G01*
X56725001Y66025000D02*
X53874999Y66025000D01*
G75*
G02*
X53625000Y66274999I0J249999D01*
G01*
X53625000Y67125001D01*
G75*
G02*
X53874999Y67375000I249999J0D01*
G01*
X56725001Y67375000D01*
G75*
G02*
X56975000Y67125001I0J-249999D01*
G01*
X56975000Y66274999D01*
G75*
G02*
X56725001Y66025000I-249999J0D01*
G01*
G37*
G36*
G01*
X56725001Y60225000D02*
X53874999Y60225000D01*
G75*
G02*
X53625000Y60474999I0J249999D01*
G01*
X53625000Y61325001D01*
G75*
G02*
X53874999Y61575000I249999J0D01*
G01*
X56725001Y61575000D01*
G75*
G02*
X56975000Y61325001I0J-249999D01*
G01*
X56975000Y60474999D01*
G75*
G02*
X56725001Y60225000I-249999J0D01*
G01*
G37*
%TD*%
%TO.C,F1*%
G36*
G01*
X14125001Y14275000D02*
X11274999Y14275000D01*
G75*
G02*
X11025000Y14524999I0J249999D01*
G01*
X11025000Y15375001D01*
G75*
G02*
X11274999Y15625000I249999J0D01*
G01*
X14125001Y15625000D01*
G75*
G02*
X14375000Y15375001I0J-249999D01*
G01*
X14375000Y14524999D01*
G75*
G02*
X14125001Y14275000I-249999J0D01*
G01*
G37*
G36*
G01*
X14125001Y8475000D02*
X11274999Y8475000D01*
G75*
G02*
X11025000Y8724999I0J249999D01*
G01*
X11025000Y9575001D01*
G75*
G02*
X11274999Y9825000I249999J0D01*
G01*
X14125001Y9825000D01*
G75*
G02*
X14375000Y9575001I0J-249999D01*
G01*
X14375000Y8724999D01*
G75*
G02*
X14125001Y8475000I-249999J0D01*
G01*
G37*
%TD*%
%TO.C,D11*%
G36*
G01*
X55356250Y31750000D02*
X54843750Y31750000D01*
G75*
G02*
X54625000Y31968750I0J218750D01*
G01*
X54625000Y32406250D01*
G75*
G02*
X54843750Y32625000I218750J0D01*
G01*
X55356250Y32625000D01*
G75*
G02*
X55575000Y32406250I0J-218750D01*
G01*
X55575000Y31968750D01*
G75*
G02*
X55356250Y31750000I-218750J0D01*
G01*
G37*
G36*
G01*
X55356250Y30175000D02*
X54843750Y30175000D01*
G75*
G02*
X54625000Y30393750I0J218750D01*
G01*
X54625000Y30831250D01*
G75*
G02*
X54843750Y31050000I218750J0D01*
G01*
X55356250Y31050000D01*
G75*
G02*
X55575000Y30831250I0J-218750D01*
G01*
X55575000Y30393750D01*
G75*
G02*
X55356250Y30175000I-218750J0D01*
G01*
G37*
%TD*%
D23*
%TO.C,D10*%
X52850000Y22650000D03*
X52850000Y21700000D03*
X52850000Y23600000D03*
X55050000Y23600000D03*
X55050000Y22650000D03*
X55050000Y21700000D03*
%TD*%
%TO.C,D9*%
G36*
G01*
X51243750Y64650000D02*
X51756250Y64650000D01*
G75*
G02*
X51975000Y64431250I0J-218750D01*
G01*
X51975000Y63993750D01*
G75*
G02*
X51756250Y63775000I-218750J0D01*
G01*
X51243750Y63775000D01*
G75*
G02*
X51025000Y63993750I0J218750D01*
G01*
X51025000Y64431250D01*
G75*
G02*
X51243750Y64650000I218750J0D01*
G01*
G37*
G36*
G01*
X51243750Y66225000D02*
X51756250Y66225000D01*
G75*
G02*
X51975000Y66006250I0J-218750D01*
G01*
X51975000Y65568750D01*
G75*
G02*
X51756250Y65350000I-218750J0D01*
G01*
X51243750Y65350000D01*
G75*
G02*
X51025000Y65568750I0J218750D01*
G01*
X51025000Y66006250D01*
G75*
G02*
X51243750Y66225000I218750J0D01*
G01*
G37*
%TD*%
%TO.C,D8*%
G36*
G01*
X45243750Y64650000D02*
X45756250Y64650000D01*
G75*
G02*
X45975000Y64431250I0J-218750D01*
G01*
X45975000Y63993750D01*
G75*
G02*
X45756250Y63775000I-218750J0D01*
G01*
X45243750Y63775000D01*
G75*
G02*
X45025000Y63993750I0J218750D01*
G01*
X45025000Y64431250D01*
G75*
G02*
X45243750Y64650000I218750J0D01*
G01*
G37*
G36*
G01*
X45243750Y66225000D02*
X45756250Y66225000D01*
G75*
G02*
X45975000Y66006250I0J-218750D01*
G01*
X45975000Y65568750D01*
G75*
G02*
X45756250Y65350000I-218750J0D01*
G01*
X45243750Y65350000D01*
G75*
G02*
X45025000Y65568750I0J218750D01*
G01*
X45025000Y66006250D01*
G75*
G02*
X45243750Y66225000I218750J0D01*
G01*
G37*
%TD*%
D24*
%TO.C,D6*%
X16650000Y11950000D03*
X20650000Y11950000D03*
%TD*%
%TO.C,D5*%
G36*
G01*
X25500000Y21643750D02*
X25500000Y22156250D01*
G75*
G02*
X25718750Y22375000I218750J0D01*
G01*
X26156250Y22375000D01*
G75*
G02*
X26375000Y22156250I0J-218750D01*
G01*
X26375000Y21643750D01*
G75*
G02*
X26156250Y21425000I-218750J0D01*
G01*
X25718750Y21425000D01*
G75*
G02*
X25500000Y21643750I0J218750D01*
G01*
G37*
G36*
G01*
X23925000Y21643750D02*
X23925000Y22156250D01*
G75*
G02*
X24143750Y22375000I218750J0D01*
G01*
X24581250Y22375000D01*
G75*
G02*
X24800000Y22156250I0J-218750D01*
G01*
X24800000Y21643750D01*
G75*
G02*
X24581250Y21425000I-218750J0D01*
G01*
X24143750Y21425000D01*
G75*
G02*
X23925000Y21643750I0J218750D01*
G01*
G37*
%TD*%
%TO.C,D4*%
G36*
G01*
X21050000Y22156250D02*
X21050000Y21643750D01*
G75*
G02*
X20831250Y21425000I-218750J0D01*
G01*
X20393750Y21425000D01*
G75*
G02*
X20175000Y21643750I0J218750D01*
G01*
X20175000Y22156250D01*
G75*
G02*
X20393750Y22375000I218750J0D01*
G01*
X20831250Y22375000D01*
G75*
G02*
X21050000Y22156250I0J-218750D01*
G01*
G37*
G36*
G01*
X22625000Y22156250D02*
X22625000Y21643750D01*
G75*
G02*
X22406250Y21425000I-218750J0D01*
G01*
X21968750Y21425000D01*
G75*
G02*
X21750000Y21643750I0J218750D01*
G01*
X21750000Y22156250D01*
G75*
G02*
X21968750Y22375000I218750J0D01*
G01*
X22406250Y22375000D01*
G75*
G02*
X22625000Y22156250I0J-218750D01*
G01*
G37*
%TD*%
D25*
%TO.C,D3*%
X26950000Y54950000D03*
X26950000Y58950000D03*
%TD*%
%TO.C,D2*%
G36*
G01*
X56156250Y48262500D02*
X55643750Y48262500D01*
G75*
G02*
X55425000Y48481250I0J218750D01*
G01*
X55425000Y48918750D01*
G75*
G02*
X55643750Y49137500I218750J0D01*
G01*
X56156250Y49137500D01*
G75*
G02*
X56375000Y48918750I0J-218750D01*
G01*
X56375000Y48481250D01*
G75*
G02*
X56156250Y48262500I-218750J0D01*
G01*
G37*
G36*
G01*
X56156250Y46687500D02*
X55643750Y46687500D01*
G75*
G02*
X55425000Y46906250I0J218750D01*
G01*
X55425000Y47343750D01*
G75*
G02*
X55643750Y47562500I218750J0D01*
G01*
X56156250Y47562500D01*
G75*
G02*
X56375000Y47343750I0J-218750D01*
G01*
X56375000Y46906250D01*
G75*
G02*
X56156250Y46687500I-218750J0D01*
G01*
G37*
%TD*%
%TO.C,D1*%
G36*
G01*
X54156250Y48250000D02*
X53643750Y48250000D01*
G75*
G02*
X53425000Y48468750I0J218750D01*
G01*
X53425000Y48906250D01*
G75*
G02*
X53643750Y49125000I218750J0D01*
G01*
X54156250Y49125000D01*
G75*
G02*
X54375000Y48906250I0J-218750D01*
G01*
X54375000Y48468750D01*
G75*
G02*
X54156250Y48250000I-218750J0D01*
G01*
G37*
G36*
G01*
X54156250Y46675000D02*
X53643750Y46675000D01*
G75*
G02*
X53425000Y46893750I0J218750D01*
G01*
X53425000Y47331250D01*
G75*
G02*
X53643750Y47550000I218750J0D01*
G01*
X54156250Y47550000D01*
G75*
G02*
X54375000Y47331250I0J-218750D01*
G01*
X54375000Y46893750D01*
G75*
G02*
X54156250Y46675000I-218750J0D01*
G01*
G37*
%TD*%
%TO.C,C26*%
G36*
G01*
X21150000Y69050000D02*
X20050000Y69050000D01*
G75*
G02*
X19800000Y69300000I0J250000D01*
G01*
X19800000Y72300000D01*
G75*
G02*
X20050000Y72550000I250000J0D01*
G01*
X21150000Y72550000D01*
G75*
G02*
X21400000Y72300000I0J-250000D01*
G01*
X21400000Y69300000D01*
G75*
G02*
X21150000Y69050000I-250000J0D01*
G01*
G37*
G36*
G01*
X21150000Y63650000D02*
X20050000Y63650000D01*
G75*
G02*
X19800000Y63900000I0J250000D01*
G01*
X19800000Y66900000D01*
G75*
G02*
X20050000Y67150000I250000J0D01*
G01*
X21150000Y67150000D01*
G75*
G02*
X21400000Y66900000I0J-250000D01*
G01*
X21400000Y63900000D01*
G75*
G02*
X21150000Y63650000I-250000J0D01*
G01*
G37*
%TD*%
%TO.C,C25*%
G36*
G01*
X47462500Y24243750D02*
X47462500Y24756250D01*
G75*
G02*
X47681250Y24975000I218750J0D01*
G01*
X48118750Y24975000D01*
G75*
G02*
X48337500Y24756250I0J-218750D01*
G01*
X48337500Y24243750D01*
G75*
G02*
X48118750Y24025000I-218750J0D01*
G01*
X47681250Y24025000D01*
G75*
G02*
X47462500Y24243750I0J218750D01*
G01*
G37*
G36*
G01*
X45887500Y24243750D02*
X45887500Y24756250D01*
G75*
G02*
X46106250Y24975000I218750J0D01*
G01*
X46543750Y24975000D01*
G75*
G02*
X46762500Y24756250I0J-218750D01*
G01*
X46762500Y24243750D01*
G75*
G02*
X46543750Y24025000I-218750J0D01*
G01*
X46106250Y24025000D01*
G75*
G02*
X45887500Y24243750I0J218750D01*
G01*
G37*
%TD*%
%TO.C,C23*%
G36*
G01*
X41543750Y23400000D02*
X42056250Y23400000D01*
G75*
G02*
X42275000Y23181250I0J-218750D01*
G01*
X42275000Y22743750D01*
G75*
G02*
X42056250Y22525000I-218750J0D01*
G01*
X41543750Y22525000D01*
G75*
G02*
X41325000Y22743750I0J218750D01*
G01*
X41325000Y23181250D01*
G75*
G02*
X41543750Y23400000I218750J0D01*
G01*
G37*
G36*
G01*
X41543750Y24975000D02*
X42056250Y24975000D01*
G75*
G02*
X42275000Y24756250I0J-218750D01*
G01*
X42275000Y24318750D01*
G75*
G02*
X42056250Y24100000I-218750J0D01*
G01*
X41543750Y24100000D01*
G75*
G02*
X41325000Y24318750I0J218750D01*
G01*
X41325000Y24756250D01*
G75*
G02*
X41543750Y24975000I218750J0D01*
G01*
G37*
%TD*%
%TO.C,C21*%
G36*
G01*
X38143750Y23400000D02*
X38656250Y23400000D01*
G75*
G02*
X38875000Y23181250I0J-218750D01*
G01*
X38875000Y22743750D01*
G75*
G02*
X38656250Y22525000I-218750J0D01*
G01*
X38143750Y22525000D01*
G75*
G02*
X37925000Y22743750I0J218750D01*
G01*
X37925000Y23181250D01*
G75*
G02*
X38143750Y23400000I218750J0D01*
G01*
G37*
G36*
G01*
X38143750Y24975000D02*
X38656250Y24975000D01*
G75*
G02*
X38875000Y24756250I0J-218750D01*
G01*
X38875000Y24318750D01*
G75*
G02*
X38656250Y24100000I-218750J0D01*
G01*
X38143750Y24100000D01*
G75*
G02*
X37925000Y24318750I0J218750D01*
G01*
X37925000Y24756250D01*
G75*
G02*
X38143750Y24975000I218750J0D01*
G01*
G37*
%TD*%
%TO.C,C20*%
G36*
G01*
X55643750Y57650000D02*
X56156250Y57650000D01*
G75*
G02*
X56375000Y57431250I0J-218750D01*
G01*
X56375000Y56993750D01*
G75*
G02*
X56156250Y56775000I-218750J0D01*
G01*
X55643750Y56775000D01*
G75*
G02*
X55425000Y56993750I0J218750D01*
G01*
X55425000Y57431250D01*
G75*
G02*
X55643750Y57650000I218750J0D01*
G01*
G37*
G36*
G01*
X55643750Y59225000D02*
X56156250Y59225000D01*
G75*
G02*
X56375000Y59006250I0J-218750D01*
G01*
X56375000Y58568750D01*
G75*
G02*
X56156250Y58350000I-218750J0D01*
G01*
X55643750Y58350000D01*
G75*
G02*
X55425000Y58568750I0J218750D01*
G01*
X55425000Y59006250D01*
G75*
G02*
X55643750Y59225000I218750J0D01*
G01*
G37*
%TD*%
%TO.C,C19*%
G36*
G01*
X34743750Y23400000D02*
X35256250Y23400000D01*
G75*
G02*
X35475000Y23181250I0J-218750D01*
G01*
X35475000Y22743750D01*
G75*
G02*
X35256250Y22525000I-218750J0D01*
G01*
X34743750Y22525000D01*
G75*
G02*
X34525000Y22743750I0J218750D01*
G01*
X34525000Y23181250D01*
G75*
G02*
X34743750Y23400000I218750J0D01*
G01*
G37*
G36*
G01*
X34743750Y24975000D02*
X35256250Y24975000D01*
G75*
G02*
X35475000Y24756250I0J-218750D01*
G01*
X35475000Y24318750D01*
G75*
G02*
X35256250Y24100000I-218750J0D01*
G01*
X34743750Y24100000D01*
G75*
G02*
X34525000Y24318750I0J218750D01*
G01*
X34525000Y24756250D01*
G75*
G02*
X34743750Y24975000I218750J0D01*
G01*
G37*
%TD*%
%TO.C,C18*%
G36*
G01*
X43243750Y59762500D02*
X43756250Y59762500D01*
G75*
G02*
X43975000Y59543750I0J-218750D01*
G01*
X43975000Y59106250D01*
G75*
G02*
X43756250Y58887500I-218750J0D01*
G01*
X43243750Y58887500D01*
G75*
G02*
X43025000Y59106250I0J218750D01*
G01*
X43025000Y59543750D01*
G75*
G02*
X43243750Y59762500I218750J0D01*
G01*
G37*
G36*
G01*
X43243750Y61337500D02*
X43756250Y61337500D01*
G75*
G02*
X43975000Y61118750I0J-218750D01*
G01*
X43975000Y60681250D01*
G75*
G02*
X43756250Y60462500I-218750J0D01*
G01*
X43243750Y60462500D01*
G75*
G02*
X43025000Y60681250I0J218750D01*
G01*
X43025000Y61118750D01*
G75*
G02*
X43243750Y61337500I218750J0D01*
G01*
G37*
%TD*%
%TO.C,C17*%
G36*
G01*
X45300000Y51550000D02*
X45300000Y50450000D01*
G75*
G02*
X45050000Y50200000I-250000J0D01*
G01*
X42050000Y50200000D01*
G75*
G02*
X41800000Y50450000I0J250000D01*
G01*
X41800000Y51550000D01*
G75*
G02*
X42050000Y51800000I250000J0D01*
G01*
X45050000Y51800000D01*
G75*
G02*
X45300000Y51550000I0J-250000D01*
G01*
G37*
G36*
G01*
X50700000Y51550000D02*
X50700000Y50450000D01*
G75*
G02*
X50450000Y50200000I-250000J0D01*
G01*
X47450000Y50200000D01*
G75*
G02*
X47200000Y50450000I0J250000D01*
G01*
X47200000Y51550000D01*
G75*
G02*
X47450000Y51800000I250000J0D01*
G01*
X50450000Y51800000D01*
G75*
G02*
X50700000Y51550000I0J-250000D01*
G01*
G37*
%TD*%
%TO.C,C16*%
G36*
G01*
X40675000Y58525000D02*
X41925000Y58525000D01*
G75*
G02*
X42175000Y58275000I0J-250000D01*
G01*
X42175000Y57525000D01*
G75*
G02*
X41925000Y57275000I-250000J0D01*
G01*
X40675000Y57275000D01*
G75*
G02*
X40425000Y57525000I0J250000D01*
G01*
X40425000Y58275000D01*
G75*
G02*
X40675000Y58525000I250000J0D01*
G01*
G37*
G36*
G01*
X40675000Y61325000D02*
X41925000Y61325000D01*
G75*
G02*
X42175000Y61075000I0J-250000D01*
G01*
X42175000Y60325000D01*
G75*
G02*
X41925000Y60075000I-250000J0D01*
G01*
X40675000Y60075000D01*
G75*
G02*
X40425000Y60325000I0J250000D01*
G01*
X40425000Y61075000D01*
G75*
G02*
X40675000Y61325000I250000J0D01*
G01*
G37*
%TD*%
%TO.C,C15*%
G36*
G01*
X41756250Y65350000D02*
X41243750Y65350000D01*
G75*
G02*
X41025000Y65568750I0J218750D01*
G01*
X41025000Y66006250D01*
G75*
G02*
X41243750Y66225000I218750J0D01*
G01*
X41756250Y66225000D01*
G75*
G02*
X41975000Y66006250I0J-218750D01*
G01*
X41975000Y65568750D01*
G75*
G02*
X41756250Y65350000I-218750J0D01*
G01*
G37*
G36*
G01*
X41756250Y63775000D02*
X41243750Y63775000D01*
G75*
G02*
X41025000Y63993750I0J218750D01*
G01*
X41025000Y64431250D01*
G75*
G02*
X41243750Y64650000I218750J0D01*
G01*
X41756250Y64650000D01*
G75*
G02*
X41975000Y64431250I0J-218750D01*
G01*
X41975000Y63993750D01*
G75*
G02*
X41756250Y63775000I-218750J0D01*
G01*
G37*
%TD*%
%TO.C,C14*%
G36*
G01*
X42525000Y70375000D02*
X41275000Y70375000D01*
G75*
G02*
X41025000Y70625000I0J250000D01*
G01*
X41025000Y71375000D01*
G75*
G02*
X41275000Y71625000I250000J0D01*
G01*
X42525000Y71625000D01*
G75*
G02*
X42775000Y71375000I0J-250000D01*
G01*
X42775000Y70625000D01*
G75*
G02*
X42525000Y70375000I-250000J0D01*
G01*
G37*
G36*
G01*
X42525000Y67575000D02*
X41275000Y67575000D01*
G75*
G02*
X41025000Y67825000I0J250000D01*
G01*
X41025000Y68575000D01*
G75*
G02*
X41275000Y68825000I250000J0D01*
G01*
X42525000Y68825000D01*
G75*
G02*
X42775000Y68575000I0J-250000D01*
G01*
X42775000Y67825000D01*
G75*
G02*
X42525000Y67575000I-250000J0D01*
G01*
G37*
%TD*%
%TO.C,C13*%
G36*
G01*
X43756250Y65350000D02*
X43243750Y65350000D01*
G75*
G02*
X43025000Y65568750I0J218750D01*
G01*
X43025000Y66006250D01*
G75*
G02*
X43243750Y66225000I218750J0D01*
G01*
X43756250Y66225000D01*
G75*
G02*
X43975000Y66006250I0J-218750D01*
G01*
X43975000Y65568750D01*
G75*
G02*
X43756250Y65350000I-218750J0D01*
G01*
G37*
G36*
G01*
X43756250Y63775000D02*
X43243750Y63775000D01*
G75*
G02*
X43025000Y63993750I0J218750D01*
G01*
X43025000Y64431250D01*
G75*
G02*
X43243750Y64650000I218750J0D01*
G01*
X43756250Y64650000D01*
G75*
G02*
X43975000Y64431250I0J-218750D01*
G01*
X43975000Y63993750D01*
G75*
G02*
X43756250Y63775000I-218750J0D01*
G01*
G37*
%TD*%
%TO.C,C12*%
G36*
G01*
X53643750Y57650000D02*
X54156250Y57650000D01*
G75*
G02*
X54375000Y57431250I0J-218750D01*
G01*
X54375000Y56993750D01*
G75*
G02*
X54156250Y56775000I-218750J0D01*
G01*
X53643750Y56775000D01*
G75*
G02*
X53425000Y56993750I0J218750D01*
G01*
X53425000Y57431250D01*
G75*
G02*
X53643750Y57650000I218750J0D01*
G01*
G37*
G36*
G01*
X53643750Y59225000D02*
X54156250Y59225000D01*
G75*
G02*
X54375000Y59006250I0J-218750D01*
G01*
X54375000Y58568750D01*
G75*
G02*
X54156250Y58350000I-218750J0D01*
G01*
X53643750Y58350000D01*
G75*
G02*
X53425000Y58568750I0J218750D01*
G01*
X53425000Y59006250D01*
G75*
G02*
X53643750Y59225000I218750J0D01*
G01*
G37*
%TD*%
%TO.C,C11*%
G36*
G01*
X37450000Y69050000D02*
X36350000Y69050000D01*
G75*
G02*
X36100000Y69300000I0J250000D01*
G01*
X36100000Y72300000D01*
G75*
G02*
X36350000Y72550000I250000J0D01*
G01*
X37450000Y72550000D01*
G75*
G02*
X37700000Y72300000I0J-250000D01*
G01*
X37700000Y69300000D01*
G75*
G02*
X37450000Y69050000I-250000J0D01*
G01*
G37*
G36*
G01*
X37450000Y63650000D02*
X36350000Y63650000D01*
G75*
G02*
X36100000Y63900000I0J250000D01*
G01*
X36100000Y66900000D01*
G75*
G02*
X36350000Y67150000I250000J0D01*
G01*
X37450000Y67150000D01*
G75*
G02*
X37700000Y66900000I0J-250000D01*
G01*
X37700000Y63900000D01*
G75*
G02*
X37450000Y63650000I-250000J0D01*
G01*
G37*
%TD*%
%TO.C,C10*%
G36*
G01*
X36250000Y4050000D02*
X37350000Y4050000D01*
G75*
G02*
X37600000Y3800000I0J-250000D01*
G01*
X37600000Y800000D01*
G75*
G02*
X37350000Y550000I-250000J0D01*
G01*
X36250000Y550000D01*
G75*
G02*
X36000000Y800000I0J250000D01*
G01*
X36000000Y3800000D01*
G75*
G02*
X36250000Y4050000I250000J0D01*
G01*
G37*
G36*
G01*
X36250000Y9450000D02*
X37350000Y9450000D01*
G75*
G02*
X37600000Y9200000I0J-250000D01*
G01*
X37600000Y6200000D01*
G75*
G02*
X37350000Y5950000I-250000J0D01*
G01*
X36250000Y5950000D01*
G75*
G02*
X36000000Y6200000I0J250000D01*
G01*
X36000000Y9200000D01*
G75*
G02*
X36250000Y9450000I250000J0D01*
G01*
G37*
%TD*%
%TO.C,C9*%
G36*
G01*
X20050000Y4050000D02*
X21150000Y4050000D01*
G75*
G02*
X21400000Y3800000I0J-250000D01*
G01*
X21400000Y800000D01*
G75*
G02*
X21150000Y550000I-250000J0D01*
G01*
X20050000Y550000D01*
G75*
G02*
X19800000Y800000I0J250000D01*
G01*
X19800000Y3800000D01*
G75*
G02*
X20050000Y4050000I250000J0D01*
G01*
G37*
G36*
G01*
X20050000Y9450000D02*
X21150000Y9450000D01*
G75*
G02*
X21400000Y9200000I0J-250000D01*
G01*
X21400000Y6200000D01*
G75*
G02*
X21150000Y5950000I-250000J0D01*
G01*
X20050000Y5950000D01*
G75*
G02*
X19800000Y6200000I0J250000D01*
G01*
X19800000Y9200000D01*
G75*
G02*
X20050000Y9450000I250000J0D01*
G01*
G37*
%TD*%
%TO.C,C6*%
G36*
G01*
X29606250Y35600000D02*
X29093750Y35600000D01*
G75*
G02*
X28875000Y35818750I0J218750D01*
G01*
X28875000Y36256250D01*
G75*
G02*
X29093750Y36475000I218750J0D01*
G01*
X29606250Y36475000D01*
G75*
G02*
X29825000Y36256250I0J-218750D01*
G01*
X29825000Y35818750D01*
G75*
G02*
X29606250Y35600000I-218750J0D01*
G01*
G37*
G36*
G01*
X29606250Y34025000D02*
X29093750Y34025000D01*
G75*
G02*
X28875000Y34243750I0J218750D01*
G01*
X28875000Y34681250D01*
G75*
G02*
X29093750Y34900000I218750J0D01*
G01*
X29606250Y34900000D01*
G75*
G02*
X29825000Y34681250I0J-218750D01*
G01*
X29825000Y34243750D01*
G75*
G02*
X29606250Y34025000I-218750J0D01*
G01*
G37*
%TD*%
%TO.C,C5*%
G36*
G01*
X24800000Y26806250D02*
X24800000Y26293750D01*
G75*
G02*
X24581250Y26075000I-218750J0D01*
G01*
X24143750Y26075000D01*
G75*
G02*
X23925000Y26293750I0J218750D01*
G01*
X23925000Y26806250D01*
G75*
G02*
X24143750Y27025000I218750J0D01*
G01*
X24581250Y27025000D01*
G75*
G02*
X24800000Y26806250I0J-218750D01*
G01*
G37*
G36*
G01*
X26375000Y26806250D02*
X26375000Y26293750D01*
G75*
G02*
X26156250Y26075000I-218750J0D01*
G01*
X25718750Y26075000D01*
G75*
G02*
X25500000Y26293750I0J218750D01*
G01*
X25500000Y26806250D01*
G75*
G02*
X25718750Y27025000I218750J0D01*
G01*
X26156250Y27025000D01*
G75*
G02*
X26375000Y26806250I0J-218750D01*
G01*
G37*
%TD*%
%TO.C,C4*%
G36*
G01*
X20043750Y54900000D02*
X20556250Y54900000D01*
G75*
G02*
X20775000Y54681250I0J-218750D01*
G01*
X20775000Y54243750D01*
G75*
G02*
X20556250Y54025000I-218750J0D01*
G01*
X20043750Y54025000D01*
G75*
G02*
X19825000Y54243750I0J218750D01*
G01*
X19825000Y54681250D01*
G75*
G02*
X20043750Y54900000I218750J0D01*
G01*
G37*
G36*
G01*
X20043750Y56475000D02*
X20556250Y56475000D01*
G75*
G02*
X20775000Y56256250I0J-218750D01*
G01*
X20775000Y55818750D01*
G75*
G02*
X20556250Y55600000I-218750J0D01*
G01*
X20043750Y55600000D01*
G75*
G02*
X19825000Y55818750I0J218750D01*
G01*
X19825000Y56256250D01*
G75*
G02*
X20043750Y56475000I218750J0D01*
G01*
G37*
%TD*%
%TO.C,C3*%
G36*
G01*
X16000000Y26293750D02*
X16000000Y26806250D01*
G75*
G02*
X16218750Y27025000I218750J0D01*
G01*
X16656250Y27025000D01*
G75*
G02*
X16875000Y26806250I0J-218750D01*
G01*
X16875000Y26293750D01*
G75*
G02*
X16656250Y26075000I-218750J0D01*
G01*
X16218750Y26075000D01*
G75*
G02*
X16000000Y26293750I0J218750D01*
G01*
G37*
G36*
G01*
X14425000Y26293750D02*
X14425000Y26806250D01*
G75*
G02*
X14643750Y27025000I218750J0D01*
G01*
X15081250Y27025000D01*
G75*
G02*
X15300000Y26806250I0J-218750D01*
G01*
X15300000Y26293750D01*
G75*
G02*
X15081250Y26075000I-218750J0D01*
G01*
X14643750Y26075000D01*
G75*
G02*
X14425000Y26293750I0J218750D01*
G01*
G37*
%TD*%
%TO.C,C2*%
G36*
G01*
X24543750Y49650000D02*
X25056250Y49650000D01*
G75*
G02*
X25275000Y49431250I0J-218750D01*
G01*
X25275000Y48993750D01*
G75*
G02*
X25056250Y48775000I-218750J0D01*
G01*
X24543750Y48775000D01*
G75*
G02*
X24325000Y48993750I0J218750D01*
G01*
X24325000Y49431250D01*
G75*
G02*
X24543750Y49650000I218750J0D01*
G01*
G37*
G36*
G01*
X24543750Y51225000D02*
X25056250Y51225000D01*
G75*
G02*
X25275000Y51006250I0J-218750D01*
G01*
X25275000Y50568750D01*
G75*
G02*
X25056250Y50350000I-218750J0D01*
G01*
X24543750Y50350000D01*
G75*
G02*
X24325000Y50568750I0J218750D01*
G01*
X24325000Y51006250D01*
G75*
G02*
X24543750Y51225000I218750J0D01*
G01*
G37*
%TD*%
%TO.C,C1*%
G36*
G01*
X18706250Y50350000D02*
X18193750Y50350000D01*
G75*
G02*
X17975000Y50568750I0J218750D01*
G01*
X17975000Y51006250D01*
G75*
G02*
X18193750Y51225000I218750J0D01*
G01*
X18706250Y51225000D01*
G75*
G02*
X18925000Y51006250I0J-218750D01*
G01*
X18925000Y50568750D01*
G75*
G02*
X18706250Y50350000I-218750J0D01*
G01*
G37*
G36*
G01*
X18706250Y48775000D02*
X18193750Y48775000D01*
G75*
G02*
X17975000Y48993750I0J218750D01*
G01*
X17975000Y49431250D01*
G75*
G02*
X18193750Y49650000I218750J0D01*
G01*
X18706250Y49650000D01*
G75*
G02*
X18925000Y49431250I0J-218750D01*
G01*
X18925000Y48993750D01*
G75*
G02*
X18706250Y48775000I-218750J0D01*
G01*
G37*
%TD*%
M02*
